<svg width="24" height="24" viewBox="0 0 24 24" fill="none" xmlns="http://www.w3.org/2000/svg">
<g clip-path="url(#clip0_88_6432)">
<path d="M13.5001 2.11499V1.49999C13.5001 1.10217 13.342 0.720637 13.0607 0.439332C12.7794 0.158028 12.3979 -7.62939e-06 12.0001 -7.62939e-06C11.6023 -7.62939e-06 11.2207 0.158028 10.9394 0.439332C10.6581 0.720637 10.5001 1.10217 10.5001 1.49999V2.11499C8.59243 2.37258 6.78618 3.12769 5.2628 4.30446C3.73942 5.48122 2.55258 7.03819 1.82152 8.81892C1.09046 10.5996 0.840932 12.5414 1.09801 14.4491C1.35509 16.3568 2.10972 18.1633 3.28608 19.687C2.87203 20.0273 2.54101 20.4575 2.31817 20.945C2.09533 21.4324 1.98655 21.9642 2.00008 22.5C2.00008 22.8978 2.15811 23.2793 2.43942 23.5607C2.72072 23.842 3.10225 24 3.50008 24C3.8979 24 4.27943 23.842 4.56074 23.5607C4.84204 23.2793 5.00008 22.8978 5.00008 22.5C4.9848 22.3514 5.0219 22.2021 5.10497 22.078C5.18805 21.9538 5.31188 21.8626 5.45508 21.82C7.34356 23.2341 9.63933 23.9984 11.9986 23.9984C14.3578 23.9984 16.6536 23.2341 18.5421 21.82C18.6858 21.862 18.8103 21.953 18.894 22.0772C18.9777 22.2014 19.0152 22.351 19.0001 22.5C19.0001 22.8978 19.1581 23.2793 19.4394 23.5607C19.7207 23.842 20.1023 24 20.5001 24C20.8979 24 21.2794 23.842 21.5607 23.5607C21.842 23.2793 22.0001 22.8978 22.0001 22.5C22.0136 21.9642 21.9048 21.4324 21.682 20.945C21.4591 20.4575 21.1281 20.0273 20.7141 19.687C21.8904 18.1633 22.6451 16.3568 22.9021 14.4491C23.1592 12.5414 22.9097 10.5996 22.1786 8.81892C21.4476 7.03819 20.2607 5.48122 18.7374 4.30446C17.214 3.12769 15.4077 2.37258 13.5001 2.11499ZM4.00008 13C4.00008 11.4177 4.46927 9.87102 5.34832 8.55543C6.22737 7.23984 7.4768 6.21446 8.93861 5.60896C10.4004 5.00346 12.009 4.84503 13.5608 5.15371C15.1126 5.46239 16.5381 6.22432 17.6569 7.34314C18.7758 8.46196 19.5377 9.88742 19.8464 11.4393C20.155 12.9911 19.9966 14.5997 19.3911 16.0615C18.7856 17.5233 17.7602 18.7727 16.4446 19.6517C15.129 20.5308 13.5823 21 12.0001 21C9.87908 20.9976 7.84563 20.154 6.34585 18.6542C4.84608 17.1544 4.00246 15.121 4.00008 13Z" fill="white"/>
<path d="M19.5 -3.11584e-05C19.1022 -3.11584e-05 18.7206 0.158004 18.4393 0.439309C18.158 0.720613 18 1.10214 18 1.49997C18 1.89779 18.158 2.27932 18.4393 2.56063C18.7206 2.84193 19.1022 2.99997 19.5 2.99997C19.6991 2.98448 19.8992 3.013 20.086 3.0835C20.2729 3.15401 20.4419 3.26477 20.5812 3.40792C20.7204 3.55108 20.8264 3.72313 20.8917 3.91185C20.957 4.10058 20.98 4.30137 20.959 4.49997C20.959 4.89779 21.117 5.27933 21.3983 5.56063C21.6796 5.84193 22.0612 5.99997 22.459 5.99997C22.8568 5.99997 23.2384 5.84193 23.5197 5.56063C23.801 5.27933 23.959 4.89779 23.959 4.49997C23.9822 3.90629 23.883 3.3142 23.6676 2.76047C23.4523 2.20675 23.1254 1.70323 22.7072 1.2812C22.289 0.85917 21.7885 0.52765 21.2368 0.307241C20.685 0.0868307 20.0939 -0.0177596 19.5 -3.11584e-05Z" fill="white"/>
<path d="M3.04095 4.49997C3.01996 4.30137 3.04292 4.10058 3.10822 3.91185C3.17352 3.72313 3.27955 3.55108 3.4188 3.40792C3.55804 3.26477 3.72708 3.15401 3.91393 3.0835C4.10078 3.013 4.30085 2.98448 4.49995 2.99997C4.89778 2.99997 5.27931 2.84193 5.56061 2.56063C5.84192 2.27932 5.99995 1.89779 5.99995 1.49997C5.99995 1.10214 5.84192 0.720613 5.56061 0.439309C5.27931 0.158004 4.89778 -3.11584e-05 4.49995 -3.11584e-05C3.90609 -0.0177596 3.31493 0.0868307 2.7632 0.307241C2.21147 0.52765 1.71096 0.85917 1.29278 1.2812C0.874592 1.70323 0.547667 2.20675 0.332316 2.76047C0.116965 3.3142 0.0177901 3.90629 0.0409531 4.49997C0.0409531 4.89779 0.198988 5.27933 0.480293 5.56063C0.761598 5.84193 1.14313 5.99997 1.54095 5.99997C1.93878 5.99997 2.32031 5.84193 2.60161 5.56063C2.88292 5.27933 3.04095 4.89779 3.04095 4.49997Z" fill="white"/>
<path d="M13.5301 12.379V8.50001C13.5301 8.10219 13.3721 7.72066 13.0907 7.43935C12.8094 7.15805 12.4279 7.00002 12.0301 7.00002C11.6323 7.00002 11.2507 7.15805 10.9694 7.43935C10.6881 7.72066 10.5301 8.10219 10.5301 8.50001V12.793C10.5302 13.3234 10.741 13.832 11.1161 14.207L12.9091 16C13.192 16.2732 13.5709 16.4244 13.9642 16.421C14.3575 16.4176 14.7337 16.2598 15.0118 15.9817C15.2899 15.7036 15.4477 15.3274 15.4511 14.9341C15.4545 14.5408 15.3033 14.1619 15.0301 13.879L13.5301 12.379Z" fill="white"/>
</g>
<defs>
<clipPath id="clip0_88_6432">
<rect width="24" height="24" fill="white"/>
</clipPath>
</defs>
</svg>
