<svg width="24" height="24" viewBox="0 0 24 24" fill="none" xmlns="http://www.w3.org/2000/svg">
<path d="M1.5 5.99999H22.5C22.8978 5.99999 23.2794 5.84196 23.5607 5.56065C23.842 5.27935 24 4.89782 24 4.49999C24 4.10217 23.842 3.72064 23.5607 3.43933C23.2794 3.15803 22.8978 2.99999 22.5 2.99999H1.5C1.10218 2.99999 0.720644 3.15803 0.43934 3.43933C0.158035 3.72064 0 4.10217 0 4.49999C0 4.89782 0.158035 5.27935 0.43934 5.56065C0.720644 5.84196 1.10218 5.99999 1.5 5.99999Z" fill="white"/>
<path d="M5.50006 8.00003C5.10224 8.00003 4.72071 8.15807 4.4394 8.43937C4.1581 8.72067 4.00006 9.10221 4.00006 9.50003C4.00006 9.89786 4.1581 10.2794 4.4394 10.5607C4.72071 10.842 5.10224 11 5.50006 11H18.5001C18.8979 11 19.2794 10.842 19.5607 10.5607C19.842 10.2794 20.0001 9.89786 20.0001 9.50003C20.0001 9.10221 19.842 8.72067 19.5607 8.43937C19.2794 8.15807 18.8979 8.00003 18.5001 8.00003H5.50006Z" fill="white"/>
<path d="M18.5001 18H5.50006C5.10224 18 4.72071 18.158 4.4394 18.4393C4.1581 18.7206 4.00006 19.1022 4.00006 19.5C4.00006 19.8978 4.1581 20.2794 4.4394 20.5607C4.72071 20.842 5.10224 21 5.50006 21H18.5001C18.8979 21 19.2794 20.842 19.5607 20.5607C19.842 20.2794 20.0001 19.8978 20.0001 19.5C20.0001 19.1022 19.842 18.7206 19.5607 18.4393C19.2794 18.158 18.8979 18 18.5001 18Z" fill="white"/>
<path d="M22.5 13H1.5C1.10218 13 0.720644 13.158 0.43934 13.4393C0.158035 13.7206 0 14.1021 0 14.5C0 14.8978 0.158035 15.2793 0.43934 15.5606C0.720644 15.8419 1.10218 16 1.5 16H22.5C22.8978 16 23.2794 15.8419 23.5607 15.5606C23.842 15.2793 24 14.8978 24 14.5C24 14.1021 23.842 13.7206 23.5607 13.4393C23.2794 13.158 22.8978 13 22.5 13Z" fill="white"/>
</svg>
