<svg width="24" height="24" viewBox="0 0 24 24" fill="none" xmlns="http://www.w3.org/2000/svg">
<path d="M1.5 5.99999H22.5C22.8978 5.99999 23.2794 5.84196 23.5607 5.56065C23.842 5.27935 24 4.89782 24 4.49999C24 4.10217 23.842 3.72064 23.5607 3.43933C23.2794 3.15803 22.8978 2.99999 22.5 2.99999H1.5C1.10218 2.99999 0.720644 3.15803 0.43934 3.43933C0.158035 3.72064 0 4.10217 0 4.49999C0 4.89782 0.158035 5.27935 0.43934 5.56065C0.720644 5.84196 1.10218 5.99999 1.5 5.99999Z" fill="white"/>
<path d="M22.5 8.00003H1.5C1.10218 8.00003 0.720644 8.15807 0.43934 8.43937C0.158035 8.72067 0 9.10221 0 9.50003C0 9.89786 0.158035 10.2794 0.43934 10.5607C0.720644 10.842 1.10218 11 1.5 11H22.5C22.8978 11 23.2794 10.842 23.5607 10.5607C23.842 10.2794 24 9.89786 24 9.50003C24 9.10221 23.842 8.72067 23.5607 8.43937C23.2794 8.15807 22.8978 8.00003 22.5 8.00003Z" fill="white"/>
<path d="M22.5 18H1.5C1.10218 18 0.720644 18.158 0.43934 18.4393C0.158035 18.7206 0 19.1022 0 19.5C0 19.8978 0.158035 20.2794 0.43934 20.5607C0.720644 20.842 1.10218 21 1.5 21H22.5C22.8978 21 23.2794 20.842 23.5607 20.5607C23.842 20.2794 24 19.8978 24 19.5C24 19.1022 23.842 18.7206 23.5607 18.4393C23.2794 18.158 22.8978 18 22.5 18Z" fill="white"/>
<path d="M22.5 13H1.5C1.10218 13 0.720644 13.158 0.43934 13.4393C0.158035 13.7206 0 14.1021 0 14.5C0 14.8978 0.158035 15.2793 0.43934 15.5606C0.720644 15.8419 1.10218 16 1.5 16H22.5C22.8978 16 23.2794 15.8419 23.5607 15.5606C23.842 15.2793 24 14.8978 24 14.5C24 14.1021 23.842 13.7206 23.5607 13.4393C23.2794 13.158 22.8978 13 22.5 13Z" fill="white"/>
</svg>
