<svg width="24" height="24" viewBox="0 0 24 24" fill="none" xmlns="http://www.w3.org/2000/svg">
<g clip-path="url(#clip0_88_6521)">
<path d="M23.009 11.9511L21.19 7.86005C20.6786 6.71161 19.8455 5.73589 18.7913 5.05088C17.7372 4.36586 16.5072 4.00088 15.25 4.00005H14.792L14.243 1.35805C14.146 0.970092 13.9222 0.62568 13.607 0.37957C13.2918 0.13346 12.9034 -0.000221252 12.5035 -0.000221252C12.1036 -0.000221252 11.7152 0.13346 11.4 0.37957C11.0848 0.62568 10.861 0.970092 10.764 1.35805L10.21 4.00005H5.5C4.0418 4.00164 2.64377 4.58161 1.61267 5.61272C0.581561 6.64382 0.00158817 8.04185 0 9.50005L0 17.5C0.00338218 18.3393 0.308183 19.1493 0.858852 19.7826C1.40952 20.4158 2.1694 20.8302 3 20.9501V21C3 21.7957 3.31607 22.5588 3.87868 23.1214C4.44129 23.684 5.20435 24 6 24C6.79565 24 7.55871 23.684 8.12132 23.1214C8.68393 22.5588 9 21.7957 9 21H14C14 21.7957 14.3161 22.5588 14.8787 23.1214C15.4413 23.684 16.2044 24 17 24C17.7957 24 18.5587 23.684 19.1213 23.1214C19.6839 22.5588 20 21.7957 20 21H20.5C21.4283 21 22.3185 20.6313 22.9749 19.9749C23.6313 19.3185 24 18.4283 24 17.5V16.622C24.0024 15.0126 23.6647 13.4209 23.009 11.9511ZM21 17.5C21 17.6327 20.9473 17.7598 20.8536 17.8536C20.7598 17.9474 20.6326 18 20.5 18H3.5C3.36739 18 3.24022 17.9474 3.14645 17.8536C3.05268 17.7598 3 17.6327 3 17.5V9.50005C3 8.83701 3.26339 8.20112 3.73223 7.73228C4.20107 7.26344 4.83696 7.00005 5.5 7.00005H15.25C15.5026 7.00291 15.7541 7.03342 16 7.09105V12.0001C16 12.5305 16.2107 13.0392 16.5858 13.4143C16.9609 13.7893 17.4696 14.0001 18 14.0001H20.586C20.8615 14.8467 21.0012 15.7317 21 16.622V17.5ZM13 12.5001C13 12.8979 12.842 13.2794 12.5607 13.5607C12.2794 13.842 11.8978 14.0001 11.5 14.0001H11V14.5001C11 14.8979 10.842 15.2794 10.5607 15.5607C10.2794 15.842 9.89783 16 9.5 16C9.10218 16 8.72064 15.842 8.43934 15.5607C8.15804 15.2794 8 14.8979 8 14.5001V14.0001H7.5C7.10218 14.0001 6.72064 13.842 6.43934 13.5607C6.15804 13.2794 6 12.8979 6 12.5001C6 12.1022 6.15804 11.7207 6.43934 11.4394C6.72064 11.1581 7.10218 11.0001 7.5 11.0001H8V10.5001C8 10.1022 8.15804 9.72069 8.43934 9.43939C8.72064 9.15809 9.10218 9.00005 9.5 9.00005C9.89783 9.00005 10.2794 9.15809 10.5607 9.43939C10.842 9.72069 11 10.1022 11 10.5001V11.0001H11.5C11.8978 11.0001 12.2794 11.1581 12.5607 11.4394C12.842 11.7207 13 12.1022 13 12.5001Z" fill="white"/>
</g>
<defs>
<clipPath id="clip0_88_6521">
<rect width="24" height="24" fill="white"/>
</clipPath>
</defs>
</svg>
