<svg width="24" height="24" viewBox="0 0 24 24" fill="none" xmlns="http://www.w3.org/2000/svg">
<path d="M10.4821 19.5C10.0845 19.4999 9.70325 19.342 9.42205 19.061L4.83605 14.475C4.18082 13.8179 3.81287 12.9279 3.81287 12C3.81287 11.0721 4.18082 10.182 4.83605 9.52497L9.42205 4.93897C9.70345 4.65771 10.085 4.49975 10.4829 4.49985C10.8808 4.49994 11.2623 4.65808 11.5436 4.93947C11.8248 5.22087 11.9828 5.60247 11.9827 6.00033C11.9826 6.39819 11.8244 6.77971 11.5431 7.06097L6.95705 11.646C6.91049 11.6924 6.87355 11.7476 6.84834 11.8083C6.82313 11.8691 6.81016 11.9342 6.81016 12C6.81016 12.0657 6.82313 12.1309 6.84834 12.1916C6.87355 12.2524 6.91049 12.3075 6.95705 12.354L11.5431 16.939C11.753 17.1488 11.8959 17.4161 11.9539 17.7072C12.0118 17.9982 11.9821 18.2999 11.8685 18.5741C11.7549 18.8483 11.5626 19.0826 11.3158 19.2474C11.069 19.4122 10.7788 19.5001 10.4821 19.5Z" fill="white"/>
<path d="M17.482 19.5C17.0844 19.4999 16.7032 19.342 16.422 19.061L10.422 13.061C10.2826 12.9217 10.172 12.7563 10.0966 12.5742C10.0211 12.3922 9.9823 12.197 9.9823 12C9.9823 11.8029 10.0211 11.6078 10.0966 11.4257C10.172 11.2437 10.2826 11.0783 10.422 10.939L16.422 4.93897C16.5613 4.79971 16.7267 4.68925 16.9087 4.6139C17.0907 4.53856 17.2858 4.4998 17.4828 4.49985C17.6798 4.49989 17.8749 4.53874 18.0569 4.61417C18.2389 4.6896 18.4042 4.80014 18.5435 4.93947C18.6827 5.07881 18.7932 5.24421 18.8685 5.42623C18.9439 5.60825 18.9826 5.80333 18.9826 6.00033C18.9825 6.19733 18.9437 6.39239 18.8683 6.57437C18.7928 6.75636 18.6823 6.92171 18.543 7.06097L13.6 12L18.539 16.939C18.7486 17.1485 18.8915 17.4155 18.9496 17.7062C19.0077 17.9969 18.9783 18.2982 18.8652 18.5722C18.7521 18.8463 18.5604 19.0806 18.3142 19.2457C18.068 19.4108 17.7784 19.4993 17.482 19.5Z" fill="white"/>
</svg>
