<svg width="24" height="24" viewBox="0 0 24 24" fill="none" xmlns="http://www.w3.org/2000/svg">
<path d="M15.75 9.52497L11.164 4.93897C10.8826 4.65771 10.501 4.49975 10.1032 4.49985C9.70533 4.49994 9.3238 4.65808 9.04254 4.93947C8.76128 5.22087 8.60332 5.60247 8.60342 6.00033C8.60351 6.39819 8.76165 6.77971 9.04304 7.06097L13.629 11.646C13.6756 11.6924 13.7125 11.7476 13.7377 11.8083C13.763 11.8691 13.7759 11.9342 13.7759 12C13.7759 12.0657 13.763 12.1309 13.7377 12.1916C13.7125 12.2524 13.6756 12.3075 13.629 12.354L9.04304 16.939C8.76165 17.2202 8.60351 17.6018 8.60342 17.9996C8.60332 18.3975 8.76128 18.7791 9.04254 19.0605C9.3238 19.3419 9.70533 19.5 10.1032 19.5001C10.501 19.5002 10.8826 19.3422 11.164 19.061L15.75 14.475C16.4053 13.8179 16.7732 12.9279 16.7732 12C16.7732 11.0721 16.4053 10.182 15.75 9.52497Z" fill="white"/>
</svg>
