<svg width="24" height="24" viewBox="0 0 24 24" fill="none" xmlns="http://www.w3.org/2000/svg">
<g clip-path="url(#clip0_88_6457)">
<path d="M1.51006 6.079C1.70705 6.07874 1.90213 6.11748 2.08406 6.193C2.266 6.26852 2.43117 6.37932 2.57006 6.519L10.2431 14.191C10.4752 14.4232 10.7508 14.6074 11.0542 14.7331C11.3576 14.8588 11.6827 14.9235 12.0111 14.9235C12.3394 14.9235 12.6646 14.8588 12.9679 14.7331C13.2713 14.6074 13.5469 14.4232 13.7791 14.191L21.4401 6.529C21.5784 6.38573 21.744 6.27146 21.927 6.19285C22.11 6.11423 22.3068 6.07286 22.506 6.07112C22.7051 6.06939 22.9027 6.10735 23.087 6.18277C23.2713 6.25819 23.4388 6.36957 23.5797 6.51041C23.7205 6.65125 23.8319 6.81872 23.9073 7.00307C23.9827 7.18741 24.0207 7.38493 24.0189 7.5841C24.0172 7.78327 23.9758 7.9801 23.8972 8.1631C23.8186 8.34611 23.7043 8.51163 23.5611 8.65L15.9001 16.312C14.868 17.3422 13.4693 17.9207 12.0111 17.9207C10.5528 17.9207 9.15416 17.3422 8.12206 16.312L0.449065 8.64C0.239149 8.43022 0.0961782 8.16288 0.0382441 7.87182C-0.01969 7.58076 0.0100161 7.27905 0.123604 7.00488C0.237191 6.73071 0.429555 6.49639 0.676354 6.33158C0.923152 6.16677 1.21329 6.07887 1.51006 6.079Z" fill="white"/>
</g>
<defs>
<clipPath id="clip0_88_6457">
<rect width="24" height="24" fill="white"/>
</clipPath>
</defs>
</svg>
