<svg width="24" height="24" viewBox="0 0 24 24" fill="none" xmlns="http://www.w3.org/2000/svg">
<path d="M13.1 19.5C12.8032 19.5001 12.5131 19.4122 12.2663 19.2474C12.0195 19.0826 11.8271 18.8483 11.7135 18.5741C11.5999 18.2999 11.5702 17.9982 11.6282 17.7072C11.6861 17.4161 11.8291 17.1488 12.039 16.939L16.625 12.354C16.6715 12.3075 16.7085 12.2524 16.7337 12.1916C16.7589 12.1309 16.7719 12.0657 16.7719 12C16.7719 11.9342 16.7589 11.8691 16.7337 11.8083C16.7085 11.7476 16.6715 11.6924 16.625 11.646L12.043 7.06097C11.7616 6.77971 11.6035 6.39819 11.6034 6.00033C11.6033 5.60247 11.7612 5.22087 12.0425 4.93947C12.3237 4.65808 12.7053 4.49994 13.1031 4.49985C13.501 4.49975 13.8826 4.65771 14.164 4.93897L18.75 9.52497C19.4052 10.182 19.7732 11.0721 19.7732 12C19.7732 12.9279 19.4052 13.8179 18.75 14.475L14.164 19.061C14.0243 19.2006 13.8584 19.3113 13.6758 19.3866C13.4932 19.4619 13.2975 19.5005 13.1 19.5Z" fill="white"/>
<path d="M6.09992 19.5C5.80315 19.5001 5.51301 19.4122 5.26621 19.2474C5.01941 19.0826 4.82705 18.8483 4.71346 18.5741C4.59987 18.2999 4.57017 17.9982 4.6281 17.7072C4.68604 17.4161 4.82901 17.1488 5.03892 16.939L9.98192 12L5.04292 7.06097C4.76153 6.77971 4.60339 6.39819 4.6033 6.00033C4.6032 5.60247 4.76116 5.22087 5.04242 4.93947C5.32369 4.65808 5.70521 4.49994 6.10307 4.49985C6.50093 4.49975 6.88253 4.65771 7.16392 4.93897L13.1639 10.939C13.3033 11.0783 13.4139 11.2437 13.4893 11.4257C13.5648 11.6078 13.6036 11.8029 13.6036 12C13.6036 12.197 13.5648 12.3922 13.4893 12.5742C13.4139 12.7563 13.3033 12.9217 13.1639 13.061L7.16392 19.061C7.02421 19.2006 6.8583 19.3113 6.67571 19.3866C6.49312 19.4619 6.29744 19.5005 6.09992 19.5Z" fill="white"/>
</svg>
