<svg width="24" height="24" viewBox="0 0 24 24" fill="none" xmlns="http://www.w3.org/2000/svg">
<g clip-path="url(#clip0_88_6311)">
<path d="M15.341 6.00001H14.992C15.9405 5.68457 16.8094 5.16737 17.539 4.48401C18.3744 3.55252 18.8844 2.37465 18.992 1.12801C19.0116 0.976271 18.9961 0.822053 18.9468 0.677227C18.8974 0.532402 18.8155 0.400831 18.7073 0.292642C18.5992 0.184454 18.4676 0.102533 18.3228 0.0531868C18.1779 0.00384046 18.0237 -0.0116157 17.872 0.00800822C16.6253 0.115574 15.4475 0.625541 14.516 1.46101C13.8192 2.24467 13.3624 3.21207 13.2 4.24801C12.9352 2.97722 12.4437 1.76452 11.749 0.668008C11.5283 0.336488 11.185 0.106202 10.7945 0.0278119C10.4041 -0.0505783 9.9985 0.0293481 9.66698 0.250008C9.33545 0.470668 9.10517 0.813987 9.02678 1.20444C8.94839 1.59489 9.02832 2.00049 9.24898 2.33201C9.93478 3.44194 10.3462 4.69935 10.449 6.00001H8.65898C6.31844 6.04887 4.09274 7.02362 2.46964 8.71064C0.846539 10.3977 -0.0415587 12.6593 -2.42474e-05 15C-0.194024 20.655 5.93298 25.877 11.074 23.32C11.3553 23.108 11.6987 22.9948 12.0509 22.9979C12.4031 23.0009 12.7444 23.1202 13.022 23.337C18.138 25.882 24.181 20.578 24 15C24.0415 12.6593 23.1534 10.3977 21.5303 8.71064C19.9072 7.02362 17.6815 6.04887 15.341 6.00001ZM15.341 21C15.0128 20.9798 14.6962 20.871 14.425 20.685C13.6914 20.2463 12.8547 20.0099 12 20C11.187 20.0174 10.3922 20.2437 9.69198 20.657C9.38451 20.8617 9.02779 20.9801 8.65898 21C1.18198 20.754 1.18498 9.24401 8.65898 9.00001H15.341C22.82 9.24701 22.814 20.756 15.341 21Z" fill="white"/>
</g>
<defs>
<clipPath id="clip0_88_6311">
<rect width="24" height="24" fill="white"/>
</clipPath>
</defs>
</svg>
