<svg width="24" height="24" viewBox="0 0 24 24" fill="none" xmlns="http://www.w3.org/2000/svg">
<g clip-path="url(#clip0_88_6213)">
<path d="M5.70718 0C2.66959 0 0.207153 2.46244 0.207153 5.49998C0.207153 8.53753 2.66959 11 5.70718 11C8.74478 11 11.2072 8.53758 11.2072 5.50003C11.2038 2.4638 8.74337 0.00332812 5.70718 0ZM5.70718 8.00002C4.32648 8.00002 3.2072 6.88073 3.2072 5.50003C3.2072 4.11933 4.32643 3 5.70718 3C7.08793 3 8.20717 4.11928 8.20717 5.49998C8.20717 6.88069 7.08789 8.00002 5.70718 8.00002Z" fill="white"/>
<path d="M5.7072 13C2.66965 13 0.207214 15.4624 0.207214 18.5C0.207214 21.5375 2.6696 24 5.7072 24C8.74479 24 11.2072 21.5376 11.2072 18.5C11.2039 15.4638 8.74339 13.0033 5.7072 13ZM5.7072 21C4.3265 21 3.20721 19.8807 3.20721 18.5C3.20721 17.1193 4.3265 16 5.7072 16C7.0879 16 8.20718 17.1193 8.20718 18.5C8.20718 19.8807 7.0879 21 5.7072 21Z" fill="white"/>
<path d="M22.7932 18.414H20.7072V5.58601H22.7932C23.3455 5.58587 23.7931 5.13807 23.793 4.58579C23.793 4.32071 23.6876 4.06646 23.5002 3.87901L19.9142 0.293025C19.5237 -0.0973496 18.8907 -0.0973496 18.5002 0.293025L14.9142 3.87901C14.5238 4.26957 14.5239 4.90276 14.9145 5.29323C15.1019 5.48063 15.3562 5.58596 15.6212 5.58601H17.7072V18.414H15.6212C15.0689 18.4141 14.6213 18.8619 14.6214 19.4142C14.6214 19.6793 14.7268 19.9335 14.9142 20.121L18.5002 23.707C18.8907 24.0974 19.5237 24.0974 19.9142 23.707L23.5001 20.121C23.8906 19.7304 23.8905 19.0973 23.4999 18.7068C23.3125 18.5194 23.0583 18.4141 22.7932 18.414Z" fill="white"/>
</g>
<defs>
<clipPath id="clip0_88_6213">
<rect width="24" height="24" fill="white"/>
</clipPath>
</defs>
</svg>
