<svg width="24" height="24" viewBox="0 0 24 24" fill="none" xmlns="http://www.w3.org/2000/svg">
<g clip-path="url(#clip0_88_6474)">
<path d="M17.7349 21.016H13.4999V4.543L16.6849 7.728C16.9663 8.00926 17.3479 8.16722 17.7458 8.16713C17.9428 8.16708 18.1378 8.12823 18.3198 8.0528C18.5018 7.97737 18.6671 7.86683 18.8064 7.7275C18.9457 7.58817 19.0561 7.42277 19.1315 7.24075C19.2068 7.05873 19.2456 6.86365 19.2455 6.66665C19.2455 6.46965 19.2066 6.27459 19.1312 6.0926C19.0558 5.91062 18.9452 5.74527 18.8059 5.606L14.0749 0.876006C13.5165 0.341495 12.7734 0.0431366 12.0004 0.0431366C11.2274 0.0431366 10.4843 0.341495 9.9259 0.876006L5.1939 5.606C4.9125 5.88726 4.75437 6.26879 4.75427 6.66665C4.75418 7.06451 4.91214 7.44611 5.1934 7.7275C5.47466 8.00889 5.85619 8.16703 6.25405 8.16713C6.6519 8.16722 7.0335 8.00926 7.3149 7.728L10.4999 4.479V21.016H6.2649C5.86707 21.016 5.48554 21.174 5.20424 21.4553C4.92293 21.7366 4.7649 22.1182 4.7649 22.516C4.7649 22.9138 4.92293 23.2953 5.20424 23.5766C5.48554 23.858 5.86707 24.016 6.2649 24.016H17.7349C18.1327 24.016 18.5143 23.858 18.7956 23.5766C19.0769 23.2953 19.2349 22.9138 19.2349 22.516C19.2349 22.1182 19.0769 21.7366 18.7956 21.4553C18.5143 21.174 18.1327 21.016 17.7349 21.016Z" fill="white"/>
</g>
<defs>
<clipPath id="clip0_88_6474">
<rect width="24" height="24" fill="white"/>
</clipPath>
</defs>
</svg>
