<svg width="24" height="24" viewBox="0 0 24 24" fill="none" xmlns="http://www.w3.org/2000/svg">
<g clip-path="url(#clip0_88_6375)">
<path d="M19.1219 18.394L23.0409 14.475C23.6773 13.8081 24.0323 12.9218 24.0323 12C24.0323 11.0782 23.6773 10.1919 23.0409 9.525L19.1219 5.60599C18.8406 5.3246 18.4591 5.16646 18.0612 5.16637C17.6634 5.16627 17.2818 5.32423 17.0004 5.60549C16.719 5.88676 16.5608 6.26828 16.5608 6.66614C16.5607 7.064 16.7186 7.4456 16.9999 7.727L19.7799 10.508L1.52988 10.531C1.13205 10.531 0.750521 10.689 0.469217 10.9703C0.187912 11.2516 0.0298767 11.6332 0.0298767 12.031C0.0298767 12.4288 0.187912 12.8104 0.469217 13.0917C0.750521 13.373 1.13205 13.531 1.52988 13.531L19.7609 13.508L16.9999 16.273C16.7266 16.5559 16.5754 16.9348 16.5789 17.3281C16.5823 17.7214 16.74 18.0976 17.0182 18.3757C17.2963 18.6538 17.6725 18.8116 18.0658 18.815C18.4591 18.8184 18.838 18.6672 19.1209 18.394H19.1219Z" fill="white"/>
</g>
<defs>
<clipPath id="clip0_88_6375">
<rect width="24" height="24" fill="white"/>
</clipPath>
</defs>
</svg>
