<svg width="24" height="24" viewBox="0 0 24 24" fill="none" xmlns="http://www.w3.org/2000/svg">
<path d="M18.0611 9.52497L14.4751 5.93897C13.8082 5.3026 12.9218 4.94754 12.0001 4.94754C11.0783 4.94754 10.1919 5.3026 9.52505 5.93897L5.93905 9.52497C5.65779 9.80637 5.49983 10.188 5.49992 10.5858C5.50002 10.9837 5.65816 11.3652 5.93955 11.6465C6.22095 11.9277 6.60255 12.0857 7.0004 12.0856C7.39826 12.0855 7.77979 11.9274 8.06105 11.646L10.5001 9.20697V19C10.5001 19.3978 10.6581 19.7793 10.9394 20.0606C11.2207 20.3419 11.6022 20.5 12.0001 20.5C12.3979 20.5 12.7794 20.3419 13.0607 20.0606C13.342 19.7793 13.5001 19.3978 13.5001 19V9.20697L15.9391 11.646C16.0783 11.7853 16.2437 11.8958 16.4257 11.9713C16.6076 12.0467 16.8027 12.0856 16.9997 12.0856C17.1967 12.0856 17.3918 12.0469 17.5738 11.9715C17.7558 11.8962 17.9212 11.7857 18.0606 11.6465C18.1999 11.5072 18.3104 11.3419 18.3859 11.1599C18.4613 10.9779 18.5001 10.7828 18.5002 10.5858C18.5002 10.3888 18.4615 10.1937 18.3861 10.0117C18.3108 9.8297 18.2003 9.6643 18.0611 9.52497Z" fill="white"/>
</svg>
