<svg width="24" height="24" viewBox="0 0 24 24" fill="none" xmlns="http://www.w3.org/2000/svg">
<path d="M11 9.50002C11 9.79669 10.912 10.0867 10.7472 10.3334C10.5824 10.58 10.3481 10.7723 10.074 10.8858C9.79994 10.9994 9.49834 11.0291 9.20736 10.9712C8.91639 10.9133 8.64912 10.7705 8.43934 10.5607C8.22956 10.3509 8.0867 10.0836 8.02882 9.79265C7.97094 9.50168 8.00065 9.20008 8.11418 8.92599C8.22771 8.6519 8.41997 8.41763 8.66665 8.25281C8.91332 8.08799 9.20333 8.00002 9.5 8.00002C9.89782 8.00002 10.2794 8.15805 10.5607 8.43935C10.842 8.72066 11 9.10219 11 9.50002ZM14.5 8.00002C14.2033 8.00002 13.9133 8.08799 13.6666 8.25281C13.42 8.41763 13.2277 8.6519 13.1142 8.92599C13.0006 9.20008 12.9709 9.50168 13.0288 9.79265C13.0867 10.0836 13.2296 10.3509 13.4393 10.5607C13.6491 10.7705 13.9164 10.9133 14.2074 10.9712C14.4983 11.0291 14.7999 10.9994 15.074 10.8858C15.3481 10.7723 15.5824 10.58 15.7472 10.3334C15.912 10.0867 16 9.79669 16 9.50002C16 9.10219 15.842 8.72066 15.5607 8.43935C15.2794 8.15805 14.8978 8.00002 14.5 8.00002ZM9.5 13C9.20333 13 8.91332 13.088 8.66665 13.2528C8.41997 13.4176 8.22771 13.6519 8.11418 13.926C8.00065 14.2001 7.97094 14.5017 8.02882 14.7927C8.0867 15.0836 8.22956 15.3509 8.43934 15.5607C8.64912 15.7705 8.91639 15.9133 9.20736 15.9712C9.49834 16.0291 9.79994 15.9994 10.074 15.8858C10.3481 15.7723 10.5824 15.58 10.7472 15.3334C10.912 15.0867 11 14.7967 11 14.5C11 14.1022 10.842 13.7207 10.5607 13.4394C10.2794 13.1581 9.89782 13 9.5 13ZM14.5 13C14.2033 13 13.9133 13.088 13.6666 13.2528C13.42 13.4176 13.2277 13.6519 13.1142 13.926C13.0006 14.2001 12.9709 14.5017 13.0288 14.7927C13.0867 15.0836 13.2296 15.3509 13.4393 15.5607C13.6491 15.7705 13.9164 15.9133 14.2074 15.9712C14.4983 16.0291 14.7999 15.9994 15.074 15.8858C15.3481 15.7723 15.5824 15.58 15.7472 15.3334C15.912 15.0867 16 14.7967 16 14.5C16 14.1022 15.842 13.7207 15.5607 13.4394C15.2794 13.1581 14.8978 13 14.5 13ZM24 9.50002V14.5C23.9984 15.9582 23.4184 17.3562 22.3873 18.3873C21.3562 19.4185 19.9582 19.9984 18.5 20H5.5C4.0418 19.9984 2.64377 19.4185 1.61267 18.3873C0.581561 17.3562 0.00158817 15.9582 0 14.5L0 9.50002C0.00158817 8.04181 0.581561 6.64379 1.61267 5.61268C2.64377 4.58158 4.0418 4.0016 5.5 4.00002H18.5C19.9582 4.0016 21.3562 4.58158 22.3873 5.61268C23.4184 6.64379 23.9984 8.04181 24 9.50002ZM18.5 17C18.668 16.9999 18.8355 16.9828 19 16.949V7.04902C18.8354 7.01593 18.6679 6.99952 18.5 7.00002H5.5C5.33204 7.00018 5.16453 7.01726 5 7.05102V16.951C5.1646 16.9841 5.33211 17.0005 5.5 17H18.5Z" fill="white"/>
</svg>
