<svg width="24" height="24" viewBox="0 0 24 24" fill="none" xmlns="http://www.w3.org/2000/svg">
<g clip-path="url(#clip0_88_6530)">
<path d="M24 22.5C24 22.8978 23.842 23.2793 23.5607 23.5606C23.2794 23.8419 22.8978 24 22.5 24H1.5C1.10218 24 0.720644 23.8419 0.43934 23.5606C0.158035 23.2793 0 22.8978 0 22.5C0 22.1022 0.158035 21.7206 0.43934 21.4393C0.720644 21.158 1.10218 21 1.5 21H22.5C22.8978 21 23.2794 21.158 23.5607 21.4393C23.842 21.7206 24 22.1022 24 22.5ZM0.37 9.34098C0.107748 8.85895 -0.0186779 8.31476 0.00421804 7.76649C0.027114 7.21822 0.198473 6.68646 0.5 6.22798C0.950951 5.53521 1.56354 4.96243 2.285 4.55898L9.444 0.651975C10.2274 0.222195 11.1065 -0.00311279 12 -0.00311279C12.8935 -0.00311279 13.7726 0.222195 14.556 0.651975L21.716 4.55898C22.4367 4.96219 23.0489 5.53421 23.5 6.22598C23.8023 6.68439 23.9745 7.21631 23.9981 7.76493C24.0217 8.31356 23.8958 8.85829 23.634 9.34098C23.377 9.82183 22.9987 10.2271 22.5366 10.5165C22.0745 10.806 21.5448 10.9695 21 10.991V16H21.5C21.8978 16 22.2794 16.158 22.5607 16.4393C22.842 16.7206 23 17.1022 23 17.5C23 17.8978 22.842 18.2793 22.5607 18.5606C22.2794 18.8419 21.8978 19 21.5 19H2.5C2.10218 19 1.72064 18.8419 1.43934 18.5606C1.15804 18.2793 1 17.8978 1 17.5C1 17.1022 1.15804 16.7206 1.43934 16.4393C1.72064 16.158 2.10218 16 2.5 16H3V10.991C2.45588 10.9689 1.92698 10.805 1.46568 10.5156C1.00437 10.2262 0.62668 9.82126 0.37 9.34098ZM6 16H8V11H6V16ZM11 11V16H13V11H11ZM18 16V11H16V16H18ZM3 7.88698C3.00602 7.91777 3.0222 7.94564 3.04596 7.96613C3.06971 7.98662 3.09966 7.99854 3.131 7.99998H20.869C20.9004 7.9976 20.9301 7.9851 20.9537 7.96436C20.9773 7.94362 20.9936 7.91576 21 7.88498C20.8176 7.6004 20.5706 7.36294 20.279 7.19198L13.119 3.28598C12.7763 3.09805 12.3918 2.99953 12.001 2.99953C11.6102 2.99953 11.2257 3.09805 10.883 3.28598L3.722 7.19198C3.42877 7.36198 3.18105 7.60044 3 7.88698Z" fill="white"/>
</g>
<defs>
<clipPath id="clip0_88_6530">
<rect width="24" height="24" fill="white"/>
</clipPath>
</defs>
</svg>
