<svg width="24" height="24" viewBox="0 0 24 24" fill="none" xmlns="http://www.w3.org/2000/svg">
<g clip-path="url(#clip0_88_6470)">
<path d="M19.9999 8V10H22.4999C22.8977 10 23.2792 10.158 23.5605 10.4393C23.8418 10.7206 23.9999 11.1022 23.9999 11.5C23.9999 11.8978 23.8418 12.2794 23.5605 12.5607C23.2792 12.842 22.8977 13 22.4999 13H19.9999V15H22.4999C22.8977 15 23.2792 15.158 23.5605 15.4393C23.8418 15.7206 23.9999 16.1022 23.9999 16.5C23.9999 16.8978 23.8418 17.2794 23.5605 17.5607C23.2792 17.842 22.8977 18 22.4999 18H19.9999V22.5C19.9999 22.8978 19.8418 23.2794 19.5605 23.5607C19.2792 23.842 18.8977 24 18.4999 24C18.1021 24 17.7205 23.842 17.4392 23.5607C17.1579 23.2794 16.9999 22.8978 16.9999 22.5V4.5C17.0012 3.30693 17.4757 2.16311 18.3194 1.31948C19.163 0.475854 20.3068 0.00132343 21.4999 0L22.4999 0C22.8977 0 23.2792 0.158035 23.5605 0.43934C23.8418 0.720644 23.9999 1.10218 23.9999 1.5C23.9999 1.89783 23.8418 2.27936 23.5605 2.56066C23.2792 2.84196 22.8977 3 22.4999 3H21.4999C21.1021 3 20.7205 3.15804 20.4392 3.43934C20.1579 3.72064 19.9999 4.10218 19.9999 4.5V5H22.4999C22.8977 5 23.2792 5.15804 23.5605 5.43934C23.8418 5.72064 23.9999 6.10218 23.9999 6.5C23.9999 6.89783 23.8418 7.27936 23.5605 7.56066C23.2792 7.84197 22.8977 8 22.4999 8H19.9999ZM15.9999 19.25C16.0035 20.1782 15.7343 21.0869 15.2257 21.8634C14.7172 22.6398 13.9917 23.2497 13.1394 23.6173C12.2871 23.9848 11.3456 24.0938 10.4318 23.9307C9.5181 23.7677 8.67243 23.3397 7.9999 22.7C7.51999 23.1535 6.95063 23.5016 6.3283 23.7222C5.70598 23.9428 5.04443 24.0309 4.38607 23.9809C3.72771 23.9308 3.08707 23.7438 2.50523 23.4317C1.92338 23.1196 1.41316 22.6894 1.00729 22.1686C0.60142 21.6478 0.308849 21.048 0.148337 20.4076C-0.0121762 19.7671 -0.0370885 19.1002 0.0751968 18.4495C0.187482 17.7989 0.434487 17.1789 0.800376 16.6293C1.16626 16.0797 1.64296 15.6126 2.19991 15.258C3.3539 13.858 4.9119 11.758 6.2129 9.784C4.4899 6.946 2.9999 3.829 2.9999 1.5C2.9999 1.10218 3.15794 0.720644 3.43924 0.43934C3.72055 0.158035 4.10208 0 4.4999 0C4.89773 0 5.27926 0.158035 5.56056 0.43934C5.84187 0.720644 5.9999 1.10218 5.9999 1.5C5.9999 2.808 6.8269 4.768 7.9999 6.865C9.1729 4.765 9.9999 2.807 9.9999 1.5C9.9999 1.10218 10.1579 0.720644 10.4392 0.43934C10.7205 0.158035 11.1021 0 11.4999 0C11.8977 0 12.2792 0.158035 12.5606 0.43934C12.8419 0.720644 12.9999 1.10218 12.9999 1.5C12.9999 3.829 11.5089 6.947 9.7829 9.781C11.0829 11.756 12.6409 13.858 13.7959 15.254C14.4699 15.6807 15.0253 16.2707 15.4106 16.9692C15.7958 17.6678 15.9985 18.4523 15.9999 19.25ZM6.4999 19.25C6.4999 18.9039 6.39726 18.5655 6.20497 18.2778C6.01268 17.99 5.73937 17.7657 5.4196 17.6332C5.09983 17.5008 4.74796 17.4661 4.40849 17.5336C4.06903 17.6012 3.75721 17.7678 3.51247 18.0126C3.26773 18.2573 3.10105 18.5691 3.03353 18.9086C2.96601 19.2481 3.00066 19.5999 3.13312 19.9197C3.26557 20.2395 3.48987 20.5128 3.77766 20.7051C4.06544 20.8974 4.40379 21 4.7499 21C5.21387 20.9995 5.65868 20.8149 5.98675 20.4869C6.31483 20.1588 6.49937 19.714 6.4999 19.25ZM7.9999 15.8C8.47545 15.3575 9.03667 15.0171 9.6489 14.8C9.1489 14.142 8.5859 13.362 7.9999 12.516C7.4139 13.362 6.8479 14.142 6.3509 14.8C6.96313 15.0171 7.52434 15.3575 7.9999 15.8ZM12.9999 19.246C12.9991 18.9001 12.8958 18.5621 12.703 18.2748C12.5103 17.9876 12.2367 17.7639 11.9168 17.6321C11.597 17.5002 11.2452 17.4661 10.906 17.5341C10.5668 17.6021 10.2554 17.7691 10.0111 18.014C9.76671 18.2589 9.60044 18.5707 9.53323 18.9101C9.46603 19.2494 9.50092 19.6011 9.63349 19.9206C9.76606 20.2402 9.99037 20.5132 10.2781 20.7053C10.5658 20.8975 10.9039 21 11.2499 21C11.7139 20.9995 12.1587 20.8149 12.4867 20.4869C12.8148 20.1588 12.9994 19.714 12.9999 19.25V19.246Z" fill="white"/>
</g>
<defs>
<clipPath id="clip0_88_6470">
<rect width="24" height="24" fill="white"/>
</clipPath>
</defs>
</svg>
