<svg width="24" height="24" viewBox="0 0 24 24" fill="none" xmlns="http://www.w3.org/2000/svg">
<path d="M19.5 5.99997H14.5C13.3069 6.00129 12.1631 6.47582 11.3195 7.31945C10.4759 8.16308 10.0013 9.3069 10 10.5V14H3V3.49997C3 3.10214 2.84196 2.72061 2.56066 2.43931C2.27936 2.158 1.89782 1.99997 1.5 1.99997C1.10218 1.99997 0.720644 2.158 0.43934 2.43931C0.158035 2.72061 0 3.10214 0 3.49997L0 20.5C0 20.8978 0.158035 21.2793 0.43934 21.5606C0.720644 21.8419 1.10218 22 1.5 22C1.89782 22 2.27936 21.8419 2.56066 21.5606C2.84196 21.2793 3 20.8978 3 20.5V19H21V20.5C21 20.8978 21.158 21.2793 21.4393 21.5606C21.7206 21.8419 22.1022 22 22.5 22C22.8978 22 23.2794 21.8419 23.5607 21.5606C23.842 21.2793 24 20.8978 24 20.5V10.5C23.9987 9.3069 23.5241 8.16308 22.6805 7.31945C21.8369 6.47582 20.6931 6.00129 19.5 5.99997ZM21 14H13V10.5C13 10.1021 13.158 9.72061 13.4393 9.43931C13.7206 9.158 14.1022 8.99997 14.5 8.99997H19.5C19.8978 8.99997 20.2794 9.158 20.5607 9.43931C20.842 9.72061 21 10.1021 21 10.5V14ZM6.5 14C6.00555 14 5.5222 13.8533 5.11107 13.5786C4.69995 13.3039 4.37952 12.9135 4.1903 12.4567C4.00108 11.9999 3.95157 11.4972 4.04804 11.0122C4.1445 10.5273 4.3826 10.0818 4.73223 9.7322C5.08186 9.38257 5.52732 9.14447 6.01227 9.04801C6.49723 8.95154 6.99989 9.00105 7.45671 9.19027C7.91352 9.37949 8.30397 9.69992 8.57867 10.111C8.85338 10.5222 9 11.0055 9 11.5C9 12.163 8.73661 12.7989 8.26777 13.2677C7.79893 13.7366 7.16304 14 6.5 14Z" fill="white"/>
</svg>
