<svg width="24" height="24" viewBox="0 0 24 24" fill="none" xmlns="http://www.w3.org/2000/svg">
<g clip-path="url(#clip0_88_6429)">
<path d="M0.220948 4.28302C0.118346 4.11481 0.0498885 3.92803 0.0194878 3.73336C-0.0109129 3.53868 -0.0026616 3.33992 0.0437704 3.14844C0.0902023 2.95695 0.173905 2.77649 0.290097 2.61736C0.406289 2.45823 0.552694 2.32355 0.720948 2.22102L3.98895 0.221021C4.157 0.109115 4.34592 0.0322885 4.54438 -0.00485513C4.74283 -0.0419988 4.94675 -0.0386949 5.1439 0.0048585C5.34105 0.0484119 5.52738 0.131318 5.69172 0.248609C5.85606 0.365901 5.99503 0.515162 6.1003 0.687449C6.20557 0.859737 6.27498 1.0515 6.30436 1.25126C6.33374 1.45101 6.32249 1.65464 6.27129 1.84995C6.22009 2.04525 6.12998 2.2282 6.00638 2.38785C5.88277 2.54749 5.72821 2.68054 5.55195 2.77902L2.28295 4.77902C2.11474 4.88162 1.92796 4.95008 1.73328 4.98048C1.53861 5.01088 1.33985 5.00263 1.14836 4.9562C0.956879 4.90977 0.776418 4.82606 0.617289 4.70987C0.45816 4.59368 0.323482 4.44727 0.220948 4.27902V4.28302ZM23.2879 17.983C22.9494 17.7742 22.5417 17.7084 22.1547 17.8001C21.7676 17.8918 21.4328 18.1335 21.2239 18.472L19.2239 21.713C19.1158 21.8806 19.0422 22.0681 19.0074 22.2646C18.9726 22.461 18.9773 22.6624 19.0213 22.8569C19.0652 23.0515 19.1476 23.2354 19.2635 23.3977C19.3794 23.5601 19.5265 23.6977 19.6962 23.8025C19.8659 23.9073 20.0549 23.9772 20.2519 24.0081C20.449 24.0391 20.6503 24.0303 20.8439 23.9825C21.0376 23.9347 21.2198 23.8488 21.3798 23.7297C21.5398 23.6106 21.6745 23.4608 21.7759 23.289L23.7759 20.048C23.8797 19.8804 23.9494 19.6939 23.981 19.4993C24.0126 19.3047 24.0056 19.1057 23.9603 18.9138C23.9149 18.722 23.8322 18.5409 23.7169 18.381C23.6015 18.2211 23.4558 18.0855 23.2879 17.982V17.983ZM20.8349 15.483L17.2349 21.348C16.7971 22.0652 16.2016 22.6731 15.4936 23.1255C14.7855 23.578 13.9837 23.863 13.1489 23.959C12.9289 23.9844 12.7075 23.9975 12.4859 23.998C11.2568 23.9931 10.0647 23.5766 9.09995 22.815C8.31518 23.5759 7.26377 23.9993 6.17072 23.9948C5.07768 23.9902 4.02984 23.558 3.25147 22.7906C2.47309 22.0232 2.02602 20.9816 2.00592 19.8887C1.98583 18.7958 2.39431 17.7385 3.14395 16.943L1.64995 15.443C1.05201 14.85 0.597131 14.1285 0.319884 13.3333C0.042637 12.5382 -0.0496806 11.6902 0.0499483 10.854C0.144746 10.0261 0.427002 9.23073 0.87527 8.52826C1.32354 7.8258 1.92602 7.23475 2.63695 6.80002L8.12395 3.41302C9.63748 2.44456 11.4067 1.95232 13.2029 1.99992C14.9992 2.04752 16.7398 2.63276 18.1999 3.68002L19.4399 2.43902C19.7213 2.15763 20.103 1.99954 20.5009 1.99954C20.8989 1.99954 21.2806 2.15763 21.5619 2.43902C21.8433 2.72042 22.0014 3.10207 22.0014 3.50002C22.0014 3.89797 21.8433 4.27963 21.5619 4.56102L20.3229 5.80002C21.3182 7.19972 21.8948 8.85362 21.9854 10.5687C22.0761 12.2837 21.6771 13.9892 20.8349 15.486V15.483ZM17.2349 6.77602C16.2647 5.79982 14.9891 5.18565 13.6209 5.03589C12.2527 4.88613 10.8744 5.20982 9.71595 5.95302L4.21595 9.35302C3.8915 9.55204 3.61663 9.82233 3.41218 10.1434C3.20773 10.4644 3.07906 10.8278 3.03595 11.206C2.99026 11.5926 3.03334 11.9844 3.16192 12.3518C3.2905 12.7191 3.50119 13.0523 3.77795 13.326L10.6899 20.254C10.9639 20.5268 11.296 20.734 11.6614 20.8602C12.0268 20.9864 12.416 21.0283 12.7999 20.9828C13.1837 20.9374 13.5524 20.8056 13.8781 20.5975C14.2039 20.3894 14.4783 20.1102 14.6809 19.781L18.2539 13.963C18.8878 12.8175 19.1313 11.4968 18.9476 10.2006C18.7639 8.9044 18.1631 7.7033 17.2359 6.77902L17.2349 6.77602Z" fill="white"/>
</g>
<defs>
<clipPath id="clip0_88_6429">
<rect width="24" height="24" fill="white"/>
</clipPath>
</defs>
</svg>
