<svg width="24" height="24" viewBox="0 0 24 24" fill="none" xmlns="http://www.w3.org/2000/svg">
<g clip-path="url(#clip0_88_6346)">
<path d="M9.50015 7.99998C9.79682 7.99998 10.0868 8.08796 10.3335 8.25278C10.5802 8.4176 10.7724 8.65187 10.886 8.92596C10.9995 9.20005 11.0292 9.50165 10.9713 9.79262C10.9134 10.0836 10.7706 10.3509 10.5608 10.5606C10.351 10.7704 10.0838 10.9133 9.79278 10.9712C9.50181 11.029 9.20021 10.9993 8.92612 10.8858C8.65203 10.7723 8.41776 10.58 8.25294 10.3333C8.08812 10.0867 8.00015 9.79665 8.00015 9.49998C8.00015 9.10216 8.15818 8.72063 8.43949 8.43932C8.72079 8.15802 9.10232 7.99998 9.50015 7.99998ZM20.5001 6.99998C19.6023 7.03313 18.7516 7.41028 18.1241 8.05335C17.4967 8.69642 17.1406 9.55616 17.1295 10.4545C17.1185 11.3529 17.4533 12.2212 18.0648 12.8795C18.6762 13.5378 19.5174 13.9358 20.4141 13.991C19.1641 17.576 15.9681 20.191 11.5691 20.991C11.5017 21.0037 11.4322 21.0009 11.366 20.9827C11.2998 20.9645 11.2386 20.9314 11.1871 20.886C11.128 20.8376 11.0805 20.7765 11.0481 20.7073C11.0157 20.638 10.9994 20.5624 11.0001 20.486V18.871C13.0632 18.5506 14.9605 17.5516 16.3921 16.032C16.5276 15.8889 16.6336 15.7206 16.704 15.5365C16.7743 15.3525 16.8078 15.1564 16.8024 14.9595C16.797 14.7625 16.7529 14.5686 16.6726 14.3887C16.5922 14.2088 16.4772 14.0464 16.3341 13.911C16.1911 13.7755 16.0227 13.6696 15.8387 13.5992C15.6547 13.5288 15.4586 13.4953 15.2616 13.5007C15.0647 13.5061 14.8707 13.5502 14.6908 13.6306C14.5109 13.7109 14.3486 13.8259 14.2131 13.969C13.6091 14.6129 12.8789 15.1256 12.068 15.475C11.2572 15.8244 10.3831 16.0031 9.50015 16C8.38567 16.001 7.28964 15.7155 6.31733 15.1709C5.34501 14.6262 4.52907 13.8407 3.94787 12.8898C3.36667 11.9388 3.03973 10.8544 2.99845 9.74073C2.95717 8.62702 3.20295 7.5214 3.71216 6.53006C4.22138 5.53872 4.97694 4.69496 5.90627 4.07982C6.8356 3.46467 7.90748 3.09881 9.01898 3.01737C10.1305 2.93592 11.2442 3.14163 12.2533 3.61474C13.2624 4.08785 14.1329 4.81246 14.7811 5.71898C14.8952 5.88092 15.0402 6.01867 15.2077 6.12429C15.3752 6.2299 15.562 6.30129 15.7573 6.33434C15.9526 6.36738 16.1525 6.36142 16.3455 6.31681C16.5384 6.2722 16.7207 6.18981 16.8816 6.0744C17.0426 5.959 17.1791 5.81286 17.2833 5.64442C17.3875 5.47598 17.4573 5.28857 17.4886 5.09302C17.52 4.89746 17.5124 4.69763 17.4661 4.50505C17.4199 4.31247 17.3359 4.13096 17.2191 3.97098C16.31 2.69602 15.0997 1.66556 13.6961 0.971311C12.2925 0.27706 10.739 -0.0594557 9.17394 -0.00829426C7.60884 0.0428672 6.08067 0.48012 4.72538 1.26456C3.3701 2.04899 2.22974 3.15629 1.40578 4.48791C0.581817 5.81953 0.0998026 7.33418 0.00262591 8.89709C-0.0945507 10.46 0.196125 12.0227 0.848787 13.4461C1.50145 14.8696 2.49586 16.1096 3.74353 17.0559C4.9912 18.0022 6.45345 18.6253 8.00015 18.87V20.49C7.99974 21.0053 8.11288 21.5144 8.33151 21.9811C8.55015 22.4477 8.86892 22.8605 9.26515 23.19C9.88781 23.7124 10.6744 23.9991 11.4871 24C11.6944 23.9997 11.9012 23.9809 12.1051 23.944C19.2201 22.652 24.0001 17.25 24.0001 10.5C23.9936 9.57375 23.6228 8.68731 22.9678 8.03234C22.3128 7.37738 21.4264 7.00653 20.5001 6.99998Z" fill="white"/>
</g>
<defs>
<clipPath id="clip0_88_6346">
<rect width="24" height="24" fill="white"/>
</clipPath>
</defs>
</svg>
