<svg width="24" height="24" viewBox="0 0 24 24" fill="none" xmlns="http://www.w3.org/2000/svg">
<g clip-path="url(#clip0_88_6341)">
<path d="M20.3279 12.2C20.016 11.2223 19.6522 10.2619 19.2379 9.32299C18.6343 8.11859 18.2169 6.82959 17.9999 5.49999C17.9999 5.36738 18.0526 5.24021 18.1464 5.14644C18.2402 5.05267 18.3673 4.99999 18.4999 4.99999C18.6325 4.99999 18.7597 5.05267 18.8535 5.14644C18.9473 5.24021 18.9999 5.36738 18.9999 5.49999C18.9999 5.89782 19.158 6.27935 19.4393 6.56065C19.7206 6.84196 20.1021 6.99999 20.4999 6.99999C20.8978 6.99999 21.2793 6.84196 21.5606 6.56065C21.8419 6.27935 21.9999 5.89782 21.9999 5.49999C21.9997 4.60029 21.6521 3.73542 21.0296 3.08578C20.4072 2.43614 19.558 2.05191 18.6591 2.01321C17.7602 1.97452 16.8811 2.28435 16.2051 2.8781C15.5292 3.47184 15.1085 4.30364 15.0309 5.19999C15.0106 5.29871 15.0002 5.39921 14.9999 5.49999C15.0171 6.14832 15.1227 6.79126 15.3139 7.41099L11.5999 10.3L7.09994 6.99999H8.49994C8.89777 6.99999 9.2793 6.84196 9.5606 6.56065C9.84191 6.27935 9.99994 5.89782 9.99994 5.49999C9.99994 5.10217 9.84191 4.72063 9.5606 4.43933C9.2793 4.15803 8.89777 3.99999 8.49994 3.99999H5.47094C4.95013 3.99986 4.44262 4.16442 4.02098 4.47013C3.59935 4.77585 3.28518 5.20707 3.12342 5.70212C2.96166 6.19717 2.96058 6.7307 3.12035 7.2264C3.28012 7.72209 3.59254 8.15458 4.01294 8.46199L9.13894 12.214L8.04594 13.064C7.17809 12.3788 6.10566 12.0042 4.99994 12C4.01103 12 3.04434 12.2932 2.22209 12.8426C1.39984 13.392 0.758982 14.1729 0.380544 15.0866C0.00210539 16.0002 -0.0969113 17.0055 0.0960148 17.9754C0.288941 18.9453 0.765145 19.8363 1.46441 20.5355C2.16367 21.2348 3.05458 21.711 4.02449 21.9039C4.99439 22.0968 5.99973 21.9978 6.91336 21.6194C7.82699 21.2409 8.60788 20.6001 9.15729 19.7778C9.7067 18.9556 9.99994 17.9889 9.99994 17C9.99303 16.5017 9.91042 16.0074 9.75494 15.534L16.4159 10.354C16.4159 10.354 17.0019 11.754 17.2159 12.343C16.1003 12.7645 15.1715 13.5699 14.5964 14.6147C14.0213 15.6595 13.8376 16.8752 14.0783 18.0432C14.319 19.2113 14.9684 20.2553 15.9097 20.9876C16.8511 21.7198 18.0227 22.0925 19.2141 22.0385C20.4055 21.9845 21.5386 21.5074 22.4098 20.693C23.281 19.8785 23.8333 18.7801 23.9674 17.595C24.1014 16.41 23.8085 15.216 23.1413 14.2275C22.474 13.239 21.4762 12.5208 20.3269 12.202L20.3279 12.2ZM4.99994 19C4.60438 19 4.2177 18.8827 3.8888 18.6629C3.5599 18.4432 3.30356 18.1308 3.15218 17.7654C3.00081 17.3999 2.9612 16.9978 3.03837 16.6098C3.11554 16.2218 3.30602 15.8655 3.58573 15.5858C3.86543 15.3061 4.2218 15.1156 4.60976 15.0384C4.99772 14.9612 5.39986 15.0009 5.76531 15.1522C6.13076 15.3036 6.44312 15.56 6.66288 15.8889C6.88264 16.2177 6.99994 16.6044 6.99994 17C6.99994 17.5304 6.78923 18.0391 6.41416 18.4142C6.03908 18.7893 5.53037 19 4.99994 19ZM18.9999 19C18.6044 19 18.2177 18.8827 17.8888 18.6629C17.5599 18.4432 17.3036 18.1308 17.1522 17.7654C17.0008 17.3999 16.9612 16.9978 17.0384 16.6098C17.1155 16.2218 17.306 15.8655 17.5857 15.5858C17.8654 15.3061 18.2218 15.1156 18.6098 15.0384C18.9977 14.9612 19.3999 15.0009 19.7653 15.1522C20.1308 15.3036 20.4431 15.56 20.6629 15.8889C20.8826 16.2177 20.9999 16.6044 20.9999 17C20.9999 17.5304 20.7892 18.0391 20.4142 18.4142C20.0391 18.7893 19.5304 19 18.9999 19Z" fill="white"/>
</g>
<defs>
<clipPath id="clip0_88_6341">
<rect width="24" height="24" fill="white"/>
</clipPath>
</defs>
</svg>
