<svg width="24" height="24" viewBox="0 0 24 24" fill="none" xmlns="http://www.w3.org/2000/svg">
<g clip-path="url(#clip0_88_6415)">
<path d="M22.0239 2.27805C21.4 1.75817 20.6686 1.38292 19.8825 1.17924C19.0963 0.975562 18.2748 0.948518 17.4769 1.10005L14.1939 1.78805C13.3781 1.93397 12.6187 2.30293 11.9999 2.85405C11.394 2.307 10.6478 1.93929 9.84488 1.79205L6.48388 1.09205C5.69154 0.947969 4.87723 0.979647 4.09847 1.18485C3.31972 1.39005 2.59553 1.76376 1.97707 2.27959C1.35862 2.79542 0.860985 3.44076 0.519337 4.17004C0.177688 4.89931 0.000360667 5.69472 -0.000116775 6.50005V16.2921C-0.00189976 17.5766 0.446667 18.8212 1.26756 19.8093C2.08846 20.7973 3.22973 21.4664 4.49288 21.7001L10.2999 22.8471C10.8588 22.949 11.4258 23.0002 11.9939 23.0001C12.5734 22.9997 13.1518 22.9471 13.7219 22.8431L19.4839 21.7001C20.7504 21.4697 21.896 20.8025 22.7212 19.8145C23.5464 18.8265 23.9989 17.5803 23.9999 16.293V6.50005C24.0007 5.6944 23.824 4.89846 23.4825 4.16878C23.141 3.43909 22.643 2.79357 22.0239 2.27805ZM10.4999 19.8291L5.05288 18.7531C4.47676 18.6484 3.95567 18.3447 3.58048 17.8952C3.20529 17.4456 2.99982 16.8786 2.99988 16.293V6.50005C3.00172 5.83861 3.26488 5.2047 3.73203 4.73643C4.19918 4.26816 4.83245 4.00348 5.49388 4.00005C5.63272 3.99978 5.77129 4.01217 5.90788 4.03705L9.26888 4.73705C9.61424 4.80001 9.92658 4.98209 10.1515 5.25161C10.3764 5.52113 10.4997 5.861 10.4999 6.21205V19.8291ZM20.9999 16.293C20.9988 16.8821 20.7902 17.452 20.4107 17.9026C20.0313 18.3532 19.5052 18.6557 18.9249 18.7571L13.4999 19.8291V6.21205C13.502 5.85443 13.6308 5.50914 13.8636 5.23759C14.0963 4.96605 14.4178 4.78585 14.7709 4.72905L18.0529 4.04205C18.413 3.97661 18.7831 3.99104 19.137 4.08432C19.491 4.1776 19.8201 4.34746 20.1012 4.58191C20.3823 4.81635 20.6084 5.10965 20.7637 5.44109C20.919 5.77253 20.9996 6.13403 20.9999 6.50005V16.293Z" fill="white"/>
</g>
<defs>
<clipPath id="clip0_88_6415">
<rect width="24" height="24" fill="white"/>
</clipPath>
</defs>
</svg>
