<svg width="24" height="24" viewBox="0 0 24 24" fill="none" xmlns="http://www.w3.org/2000/svg">
<g clip-path="url(#clip0_88_6412)">
<path d="M17.4998 0H6.49984C5.04172 0.00185226 3.64385 0.58191 2.6128 1.61296C1.58175 2.64401 1.00169 4.04188 0.999838 5.5V20.472C1.00059 21.1724 1.21144 21.8564 1.60512 22.4356C1.99881 23.0149 2.55722 23.4627 3.20814 23.7212C3.85906 23.9796 4.57256 24.0369 5.25637 23.8855C5.94017 23.7341 6.56284 23.3811 7.04384 22.872L11.9558 17.672L16.9688 22.922C17.4514 23.4272 18.074 23.7764 18.7567 23.9248C19.4394 24.0731 20.1509 24.0137 20.7995 23.7543C21.4482 23.4949 22.0044 23.0473 22.3965 22.4691C22.7886 21.8909 22.9988 21.2086 22.9998 20.51V5.5C22.998 4.04188 22.4179 2.64401 21.3869 1.61296C20.3558 0.58191 18.958 0.00185226 17.4998 0V0ZM19.9998 20.51C19.9996 20.6097 19.9696 20.7071 19.9137 20.7896C19.8577 20.8722 19.7784 20.9361 19.6858 20.9732C19.5933 21.0103 19.4917 21.0188 19.3942 20.9978C19.2968 20.9767 19.2078 20.927 19.1388 20.855L13.0388 14.464C12.8983 14.3168 12.7293 14.1998 12.542 14.12C12.3548 14.0403 12.1533 13.9994 11.9498 14C11.7464 14.0006 11.5452 14.0426 11.3585 14.1234C11.1718 14.2042 11.0035 14.3221 10.8638 14.47L4.86384 20.815C4.79688 20.8906 4.70773 20.9431 4.60913 20.9651C4.51053 20.987 4.40752 20.9771 4.31484 20.937C4.21936 20.9036 4.13718 20.8403 4.08044 20.7566C4.02371 20.6728 3.99545 20.5731 3.99984 20.472V5.5C3.99984 4.83696 4.26323 4.20107 4.73207 3.73223C5.20091 3.26339 5.8368 3 6.49984 3H17.4998C18.1629 3 18.7988 3.26339 19.2676 3.73223C19.7364 4.20107 19.9998 4.83696 19.9998 5.5V20.51Z" fill="white"/>
</g>
<defs>
<clipPath id="clip0_88_6412">
<rect width="24" height="24" fill="white"/>
</clipPath>
</defs>
</svg>
