<svg width="24" height="24" viewBox="0 0 24 24" fill="none" xmlns="http://www.w3.org/2000/svg">
<g clip-path="url(#clip0_88_6526)">
<path d="M23.5603 1.1205C22.9748 0.535109 22.0255 0.535109 21.44 1.1205L16.6773 5.88314C14.7598 4.16013 11.9037 3.99771 9.80331 5.49226C8.56696 6.41248 7.19767 7.13893 5.74248 7.64663L3.95401 8.17049C1.03979 9.02417 -0.63059 12.0787 0.223132 14.9929C0.288036 15.2145 0.36681 15.4317 0.459033 15.6433C1.54697 18.3406 3.54168 20.5739 6.09942 21.9585C8.11606 22.9053 10.3254 23.3694 12.5526 23.3141H12.6156C13.3662 23.3144 14.0966 23.0709 14.697 22.6203C17.8462 20.3585 19.9991 16.9666 20.7052 13.154C21.0182 11.3574 20.4284 9.52165 19.1276 8.24346L18.8397 7.96355L23.5633 3.23893C24.1466 2.65273 24.1453 1.70501 23.5603 1.1205ZM12.8834 20.23C12.8011 20.2889 12.7016 20.3188 12.6005 20.315C11.5501 20.3147 10.5023 20.2078 9.4734 19.9961C10.8119 19.1588 11.9646 18.0561 12.8604 16.756L13.3543 16.0293C13.8338 15.354 13.675 14.4179 12.9997 13.9384C12.3245 13.4589 11.3884 13.6177 10.9089 14.293C10.8972 14.3093 10.8859 14.3259 10.875 14.3427L10.3811 15.0675C9.56249 16.2636 8.45393 17.2325 7.15905 17.8837L6.12135 18.4046C5.53868 17.9317 5.01688 17.3883 4.5678 16.7871C5.95462 16.2214 7.21908 15.3931 8.29174 14.3478C8.87479 13.7596 8.87062 12.8102 8.28246 12.2271C7.70612 11.6558 6.7799 11.6466 6.19235 12.2064C5.3129 13.0599 4.26147 13.716 3.10825 14.1309C2.72132 12.818 3.47199 11.44 4.78486 11.0531C4.78983 11.0516 4.7948 11.0502 4.79977 11.0487L6.58627 10.5239C8.12126 10.0123 9.57622 9.28631 10.908 8.3675L17.2342 14.5327C16.3694 16.8148 14.8573 18.7948 12.8834 20.23Z" fill="white"/>
</g>
<defs>
<clipPath id="clip0_88_6526">
<rect width="24" height="24" fill="white"/>
</clipPath>
</defs>
</svg>
