<svg width="24" height="24" viewBox="0 0 24 24" fill="none" xmlns="http://www.w3.org/2000/svg">
<path d="M5 11.4999C5 11.1021 5.15804 10.7206 5.43934 10.4393C5.72064 10.158 6.10218 9.99994 6.5 9.99994H17.5C17.8978 9.99994 18.2794 10.158 18.5607 10.4393C18.842 10.7206 19 11.1021 19 11.4999C19 11.8978 18.842 12.2793 18.5607 12.5606C18.2794 12.8419 17.8978 12.9999 17.5 12.9999H6.5C6.10218 12.9999 5.72064 12.8419 5.43934 12.5606C5.15804 12.2793 5 11.8978 5 11.4999ZM6.5 17.9999H13.5C13.8978 17.9999 14.2794 17.8419 14.5607 17.5606C14.842 17.2793 15 16.8978 15 16.4999C15 16.1021 14.842 15.7206 14.5607 15.4393C14.2794 15.158 13.8978 14.9999 13.5 14.9999H6.5C6.10218 14.9999 5.72064 15.158 5.43934 15.4393C5.15804 15.7206 5 16.1021 5 16.4999C5 16.8978 5.15804 17.2793 5.43934 17.5606C5.72064 17.8419 6.10218 17.9999 6.5 17.9999ZM24 6.49994V17.4999C23.9984 18.9581 23.4184 20.3562 22.3873 21.3873C21.3562 22.4184 19.9582 22.9984 18.5 22.9999H5.5C4.0418 22.9984 2.64377 22.4184 1.61267 21.3873C0.581561 20.3562 0.00158817 18.9581 0 17.4999L0 6.49994C0.00158817 5.04174 0.581561 3.64371 1.61267 2.61261C2.64377 1.5815 4.0418 1.00153 5.5 0.999939H18.5C19.9582 1.00153 21.3562 1.5815 22.3873 2.61261C23.4184 3.64371 23.9984 5.04174 24 6.49994ZM8 4.49994C8 4.79661 8.08797 5.08662 8.2528 5.33329C8.41762 5.57997 8.65189 5.77223 8.92597 5.88576C9.20006 5.99929 9.50166 6.029 9.79264 5.97112C10.0836 5.91324 10.3509 5.77038 10.5607 5.5606C10.7704 5.35082 10.9133 5.08355 10.9712 4.79257C11.0291 4.5016 10.9994 4.2 10.8858 3.92591C10.7723 3.65182 10.58 3.41756 10.3334 3.25273C10.0867 3.08791 9.79667 2.99994 9.5 2.99994C9.10218 2.99994 8.72064 3.15797 8.43934 3.43928C8.15804 3.72058 8 4.10211 8 4.49994ZM3 4.49994C3 4.79661 3.08797 5.08662 3.2528 5.33329C3.41762 5.57997 3.65189 5.77223 3.92597 5.88576C4.20006 5.99929 4.50166 6.029 4.79264 5.97112C5.08361 5.91324 5.35088 5.77038 5.56066 5.5606C5.77044 5.35082 5.9133 5.08355 5.97118 4.79257C6.02906 4.5016 5.99935 4.2 5.88582 3.92591C5.77229 3.65182 5.58003 3.41756 5.33336 3.25273C5.08668 3.08791 4.79667 2.99994 4.5 2.99994C4.10218 2.99994 3.72064 3.15797 3.43934 3.43928C3.15804 3.72058 3 4.10211 3 4.49994ZM21 7.99994H3V17.4999C3 18.163 3.26339 18.7989 3.73223 19.2677C4.20107 19.7365 4.83696 19.9999 5.5 19.9999H18.5C19.163 19.9999 19.7989 19.7365 20.2678 19.2677C20.7366 18.7989 21 18.163 21 17.4999V7.99994Z" fill="white"/>
</svg>
