<svg width="24" height="24" viewBox="0 0 24 24" fill="none" xmlns="http://www.w3.org/2000/svg">
<g clip-path="url(#clip0_88_6389)">
<path d="M17.9372 2.27005C16.9989 1.424 15.89 0.788952 14.6854 0.407721C13.4808 0.0264909 12.2085 -0.0920625 10.9542 0.0600529C9.23761 0.288624 7.62074 0.998467 6.29064 2.10749C4.96054 3.21651 3.97156 4.67939 3.43806 6.32696C2.90456 7.97452 2.84835 9.73945 3.27593 11.4176C3.70351 13.0958 4.59741 14.6186 5.85424 15.8101C6.80924 16.7111 7.00024 18.0001 7.00024 19.7791V19.9321C6.99518 21.0044 7.4157 22.0349 8.16953 22.7975C8.92336 23.5602 9.94894 23.9927 11.0212 24.0001H12.9792C14.0515 23.9927 15.0771 23.5602 15.8309 22.7975C16.5848 22.0349 17.0053 21.0044 17.0002 19.9321V19.4091C17.0002 17.7391 17.1502 16.7001 17.9422 15.9941C18.9054 15.1291 19.6756 14.0711 20.2029 12.8888C20.7302 11.7066 21.0027 10.4266 21.0027 9.13205C21.0027 7.83754 20.7302 6.55753 20.2029 5.37527C19.6756 4.19302 18.9054 3.13501 17.9422 2.27005H17.9372ZM14.0002 19.9321C14.0061 20.209 13.902 20.4769 13.7106 20.6772C13.5192 20.8774 13.2562 20.9935 12.9792 21.0001H11.0212C10.7443 20.9935 10.4813 20.8774 10.2899 20.6772C10.0985 20.4769 9.99434 20.209 10.0002 19.9321V19.7791C10.0002 19.5201 10.0002 19.2601 9.98624 19.0001H14.0062C14.0062 19.1371 14.0002 19.2741 14.0002 19.4091V19.9321ZM15.9452 13.7551C15.2639 14.3625 14.7513 15.1359 14.4572 16.0001H13.5002V11.0831C13.9546 10.8216 14.3322 10.4454 14.5955 9.99205C14.8587 9.53874 14.9983 9.02425 15.0002 8.50005C15.0002 8.10223 14.8422 7.7207 14.5609 7.43939C14.2796 7.15809 13.8981 7.00005 13.5002 7.00005C13.1024 7.00005 12.7209 7.15809 12.4396 7.43939C12.1583 7.7207 12.0002 8.10223 12.0002 8.50005C12.0002 8.10223 11.8422 7.7207 11.5609 7.43939C11.2796 7.15809 10.8981 7.00005 10.5002 7.00005C10.1024 7.00005 9.72088 7.15809 9.43958 7.43939C9.15828 7.7207 9.00024 8.10223 9.00024 8.50005C9.00217 9.02425 9.14175 9.53874 9.40499 9.99205C9.66824 10.4454 10.0459 10.8216 10.5002 11.0831V16.0001H9.46224C9.14257 15.1004 8.61491 14.2891 7.92224 13.6321C7.21171 12.9581 6.67153 12.1249 6.34623 11.2011C6.02093 10.2774 5.91982 9.28954 6.05124 8.31905C6.21886 6.9825 6.82507 5.7393 7.77493 4.78419C8.72479 3.82909 9.96463 3.21603 11.3002 3.04105C11.5326 3.01373 11.7663 3.00004 12.0002 3.00005C13.4554 2.99652 14.8598 3.5344 15.9402 4.50905C16.5883 5.09214 17.1065 5.80488 17.4614 6.60109C17.8164 7.39731 18 8.25921 18.0005 9.13094C18.0009 10.0027 17.8182 10.8648 17.4642 11.6614C17.1101 12.458 16.5926 13.1713 15.9452 13.7551Z" fill="white"/>
</g>
<defs>
<clipPath id="clip0_88_6389">
<rect width="24" height="24" fill="white"/>
</clipPath>
</defs>
</svg>
