<svg width="24" height="24" viewBox="0 0 24 24" fill="none" xmlns="http://www.w3.org/2000/svg">
<g clip-path="url(#clip0_88_6400)">
<path d="M22.5 21H22V17.5C21.9989 16.4872 21.7182 15.4945 21.1889 14.6311C20.6595 13.7678 19.9021 13.0673 19 12.607V11.5C18.9987 10.5346 18.7433 9.58665 18.2595 8.75128C17.7757 7.91591 17.0806 7.22259 16.244 6.74097L15.661 3.79997C15.6149 3.57393 15.492 3.37079 15.3132 3.22499C15.1344 3.07919 14.9107 2.99969 14.68 2.99997H14.32C14.0893 2.99969 13.8656 3.07919 13.6868 3.22499C13.508 3.37079 13.3851 3.57393 13.339 3.79997L12.9 5.99997H11L11.5 3.99997C11.5 3.73475 11.3946 3.4804 11.2071 3.29286C11.0196 3.10533 10.7652 2.99997 10.5 2.99997H8.5C8.23478 2.99997 7.98043 3.10533 7.79289 3.29286C7.60536 3.4804 7.5 3.73475 7.5 3.99997L8.135 6.54197C7.19783 6.98832 6.40611 7.69078 5.85134 8.56814C5.29658 9.44549 5.00143 10.4619 5 11.5V12.607C4.09794 13.0673 3.34049 13.7678 2.81114 14.6311C2.2818 15.4945 2.0011 16.4872 2 17.5V21H1.5C1.10218 21 0.720644 21.158 0.43934 21.4393C0.158035 21.7206 0 22.1021 0 22.5C0 22.8978 0.158035 23.2793 0.43934 23.5606C0.720644 23.8419 1.10218 24 1.5 24H22.5C22.8978 24 23.2794 23.8419 23.5607 23.5606C23.842 23.2793 24 22.8978 24 22.5C24 22.1021 23.842 21.7206 23.5607 21.4393C23.2794 21.158 22.8978 21 22.5 21ZM10.5 8.99997H13.5C14.163 8.99997 14.7989 9.26336 15.2678 9.7322C15.7366 10.201 16 10.8369 16 11.5V12H8V11.5C8 10.8369 8.26339 10.201 8.73223 9.7322C9.20107 9.26336 9.83696 8.99997 10.5 8.99997ZM5 17.74C5.44293 17.6321 5.84463 17.3971 6.15558 17.0637C6.46654 16.7304 6.67317 16.3133 6.75 15.864C6.84012 16.4843 7.15995 17.0481 7.64613 17.4437C8.1323 17.8393 8.74935 18.0378 9.375 18C10.0011 18.0399 10.6193 17.8422 11.1059 17.4462C11.5926 17.0502 11.9119 16.4851 12 15.864C12.0901 16.4843 12.41 17.0481 12.8961 17.4437C13.3823 17.8393 13.9993 18.0378 14.625 18C15.2511 18.0399 15.8693 17.8422 16.3559 17.4462C16.8426 17.0502 17.1619 16.4851 17.25 15.864C17.3293 16.3121 17.5369 16.7276 17.8475 17.0601C18.158 17.3927 18.5584 17.6282 19 17.738V21H5V17.74Z" fill="white"/>
<path d="M9.50003 3C10.3285 3 11 2.32843 11 1.5C11 0.671573 10.3285 0 9.50003 0C8.6716 0 8.00003 0.671573 8.00003 1.5C8.00003 2.32843 8.6716 3 9.50003 3Z" fill="white"/>
<path d="M14.5 3C15.3284 3 16 2.32843 16 1.5C16 0.671573 15.3284 0 14.5 0C13.6715 0 13 0.671573 13 1.5C13 2.32843 13.6715 3 14.5 3Z" fill="white"/>
</g>
<defs>
<clipPath id="clip0_88_6400">
<rect width="24" height="24" fill="white"/>
</clipPath>
</defs>
</svg>
