<svg width="24" height="24" viewBox="0 0 24 24" fill="none" xmlns="http://www.w3.org/2000/svg">
<g clip-path="url(#clip0_88_6402)">
<path d="M22.5 21H22V14.318C21.9984 12.908 21.4376 11.5563 20.4406 10.5593C19.4437 9.56235 18.0919 9.00155 16.682 8.99996H13.5V6.33296C13.9543 6.07148 14.332 5.69526 14.5952 5.24196C14.8585 4.78865 14.9981 4.27416 15 3.74996C14.8381 2.60753 14.3344 1.54081 13.555 0.689963C13.353 0.482129 13.1113 0.316921 12.8443 0.204109C12.5773 0.0912972 12.2904 0.0331726 12.0005 0.0331726C11.7106 0.0331726 11.4237 0.0912972 11.1567 0.204109C10.8897 0.316921 10.648 0.482129 10.446 0.689963C9.66668 1.54096 9.16266 2.60756 9 3.74996C9.00193 4.27416 9.14151 4.78865 9.40475 5.24196C9.66799 5.69526 10.0457 6.07148 10.5 6.33296V8.99996H7.318C5.90807 9.00155 4.55633 9.56235 3.55936 10.5593C2.56239 11.5563 2.00159 12.908 2 14.318V21H1.5C1.10218 21 0.720644 21.158 0.43934 21.4393C0.158035 21.7206 0 22.1021 0 22.5C0 22.8978 0.158035 23.2793 0.43934 23.5606C0.720644 23.8419 1.10218 24 1.5 24H22.5C22.8978 24 23.2794 23.8419 23.5607 23.5606C23.842 23.2793 24 22.8978 24 22.5C24 22.1021 23.842 21.7206 23.5607 21.4393C23.2794 21.158 22.8978 21 22.5 21ZM5 16.74C5.44293 16.6321 5.84463 16.3971 6.15558 16.0637C6.46654 15.7304 6.67317 15.3133 6.75 14.864C6.84012 15.4842 7.15995 16.0481 7.64613 16.4437C8.1323 16.8393 8.74935 17.0378 9.375 17C10.0011 17.0399 10.6193 16.8422 11.1059 16.4462C11.5926 16.0502 11.9119 15.4851 12 14.864C12.0901 15.4842 12.41 16.0481 12.8961 16.4437C13.3823 16.8393 13.9993 17.0378 14.625 17C15.2511 17.0399 15.8693 16.8422 16.3559 16.4462C16.8426 16.0502 17.1619 15.4851 17.25 14.864C17.3293 15.3121 17.5369 15.7275 17.8475 16.0601C18.158 16.3927 18.5584 16.6282 19 16.738V21H5V16.74Z" fill="white"/>
</g>
<defs>
<clipPath id="clip0_88_6402">
<rect width="24" height="24" fill="white"/>
</clipPath>
</defs>
</svg>
