<svg width="24" height="24" viewBox="0 0 24 24" fill="none" xmlns="http://www.w3.org/2000/svg">
<g clip-path="url(#clip0_88_6218)">
<path d="M17.5 24.0001C9.35102 24.2301 -5.07698 9.78507 1.86302 1.93806C1.88802 1.91406 2.95402 0.984065 2.95402 0.984065C3.61395 0.346104 4.49807 -0.00708886 5.41591 0.000580089C6.33375 0.00824904 7.21185 0.376166 7.86102 1.02506L10.014 3.34407C10.6476 4.00649 10.998 4.88985 10.9907 5.80648C10.9834 6.72311 10.6191 7.60079 9.97502 8.25307L9.58602 8.64707C10.7422 11.2059 12.7874 13.2585 15.342 14.4241L15.752 14.0241C16.4184 13.3887 17.3038 13.0343 18.2245 13.0343C19.1453 13.0343 20.0306 13.3887 20.697 14.0241L22.935 16.1001C23.5989 16.7467 23.9801 17.6297 23.9953 18.5564C24.0104 19.483 23.6584 20.378 23.016 21.0461C23.016 21.0461 22.086 22.1131 22.062 22.1381C21.4624 22.7345 20.7504 23.2061 19.9674 23.5257C19.1844 23.8453 18.3457 24.0065 17.5 24.0001ZM3.95002 4.10007C-0.909978 10.1171 14.643 24.7731 19.905 20.0501C19.905 20.0501 20.829 18.9911 20.854 18.9661C20.9025 18.921 20.9412 18.8663 20.9677 18.8056C20.9942 18.7449 21.0078 18.6793 21.0078 18.6131C21.0078 18.5468 20.9942 18.4813 20.9677 18.4205C20.9412 18.3598 20.9025 18.3052 20.854 18.2601L18.616 16.1861C18.316 15.9361 18.148 15.9331 17.868 16.1461L16.733 17.2631C16.5281 17.4646 16.2696 17.6031 15.9882 17.662C15.7069 17.7208 15.4146 17.6976 15.146 17.5951C13.1507 16.8529 11.3384 15.6905 9.83178 14.1864C8.32518 12.6824 7.15959 10.8721 6.41402 8.87807C6.30518 8.60732 6.27767 8.31071 6.33486 8.02456C6.39205 7.73842 6.53147 7.47517 6.73602 7.26707L7.84502 6.14007C7.89557 6.09551 7.93621 6.04085 7.96432 5.97962C7.99244 5.91838 8.0074 5.85194 8.00825 5.78456C8.0091 5.71719 7.99581 5.65039 7.96924 5.58847C7.94268 5.52654 7.90343 5.47088 7.85402 5.42507L5.70002 3.10607C5.60342 3.02901 5.4817 2.99045 5.35834 2.99784C5.23499 3.00522 5.11874 3.05803 5.03202 3.14607C5.00902 3.17107 3.95002 4.10007 3.95002 4.10007ZM23.65 10.9331C24.0745 9.46516 24.0974 7.91027 23.7165 6.43047C23.3356 4.95067 22.5647 3.60012 21.4843 2.51958C20.4039 1.43905 19.0534 0.668071 17.5736 0.287014C16.0939 -0.094043 14.539 -0.0712336 13.071 0.353065C12.8822 0.409402 12.7064 0.502369 12.5536 0.626659C12.4007 0.750949 12.2739 0.904127 12.1802 1.07745C12.0866 1.25077 12.028 1.44084 12.0078 1.6368C11.9876 1.83277 12.0062 2.03079 12.0625 2.21957C12.1189 2.40834 12.2118 2.58417 12.3361 2.73702C12.4604 2.88986 12.6136 3.01673 12.7869 3.11038C12.9602 3.20403 13.1503 3.26262 13.3463 3.28281C13.5422 3.30301 13.7402 3.2844 13.929 3.22807C14.8783 2.95668 15.8829 2.94415 16.8386 3.19176C17.7944 3.43938 18.6665 3.93813 19.3646 4.63631C20.0627 5.33449 20.5613 6.20668 20.8088 7.16247C21.0562 8.11825 21.0435 9.12283 20.772 10.0721C20.7158 10.2609 20.6973 10.459 20.7176 10.655C20.7379 10.851 20.7966 11.041 20.8904 11.2143C20.9842 11.3876 21.1112 11.5407 21.2642 11.6649C21.4172 11.7891 21.5932 11.8819 21.782 11.9381C21.9213 11.9791 22.0658 12 22.211 12.0001C22.5339 11.9997 22.848 11.8952 23.1067 11.7021C23.3654 11.5089 23.5549 11.2375 23.647 10.9281L23.65 10.9331ZM18.064 11.0661C18.2034 10.9268 18.314 10.7614 18.3894 10.5793C18.4649 10.3973 18.5037 10.2021 18.5037 10.0051C18.5037 9.808 18.4649 9.61287 18.3894 9.43082C18.314 9.24877 18.2034 9.08337 18.064 8.94407L17 7.87907V6.50007C17 6.10224 16.842 5.72071 16.5607 5.4394C16.2794 5.1581 15.8978 5.00007 15.5 5.00007C15.1022 5.00007 14.7207 5.1581 14.4394 5.4394C14.1581 5.72071 14 6.10224 14 6.50007V8.50007C13.9999 8.69708 14.0387 8.89219 14.114 9.07423C14.1893 9.25628 14.2998 9.42171 14.439 9.56107L15.939 11.0611C16.0783 11.2005 16.2437 11.311 16.4258 11.3865C16.6078 11.4619 16.803 11.5007 17 11.5007C17.1971 11.5007 17.3922 11.4619 17.5743 11.3865C17.7563 11.311 17.9217 11.2005 18.061 11.0611L18.064 11.0661Z" fill="white"/>
</g>
<defs>
<clipPath id="clip0_88_6218">
<rect width="24" height="24" fill="white"/>
</clipPath>
</defs>
</svg>
