<svg width="24" height="24" viewBox="0 0 24 24" fill="none" xmlns="http://www.w3.org/2000/svg">
<g clip-path="url(#clip0_88_6396)">
<path d="M22.354 15.381C20.185 13.212 16.437 12 11.993 12C7.61102 12.02 3.74302 13.283 1.64602 15.381C1.1181 15.9037 0.700553 16.5271 0.418147 17.2142C0.135741 17.9013 -0.00576641 18.6382 0.00202145 19.381L0.0790215 20.861C0.0811372 21.6936 0.41308 22.4914 1.00216 23.0797C1.59125 23.668 2.38946 23.9989 3.22202 24C3.28702 24 5.67402 23.691 5.67402 23.691C6.45625 23.6625 7.19975 23.3434 7.7593 22.796C8.31885 22.2487 8.65426 21.5124 8.70002 20.731L8.73002 20.588C9.7718 20.1926 10.8777 19.9932 11.992 20C13.1116 20.0144 14.2208 20.2172 15.273 20.6L15.301 20.729C15.3468 21.5102 15.682 22.2464 16.2414 22.7937C16.8007 23.341 17.544 23.6602 18.326 23.689C18.326 23.689 20.713 24 20.778 24C21.5992 24.0036 22.3889 23.6841 22.9766 23.1104C23.5642 22.5368 23.9028 21.7551 23.919 20.934L24 19.3C23.9987 18.5703 23.8525 17.8482 23.5699 17.1755C23.2874 16.5028 22.8741 15.8928 22.354 15.381ZM20.921 20.857C20.9213 20.8874 20.9116 20.9171 20.8936 20.9416C20.8756 20.9661 20.8501 20.9842 20.821 20.993L18.634 20.706C18.199 20.7 18.327 20.544 18.263 20.241L18.041 19.19C17.9913 18.9541 17.8854 18.7338 17.7324 18.5475C17.5794 18.3612 17.3837 18.2146 17.162 18.12C15.536 17.4063 13.7836 17.0255 12.008 17C10.2162 17.0088 8.44631 17.3942 6.81302 18.131C6.5971 18.2276 6.40709 18.3739 6.25849 18.5579C6.1099 18.742 6.00694 18.9586 5.95802 19.19L5.73602 20.241C5.67302 20.541 5.79902 20.7 5.36502 20.706L3.17902 20.993C3.12102 20.973 3.07902 20.906 3.07902 20.781L3.00002 19.3C3.00232 18.964 3.0714 18.6319 3.20324 18.3229C3.33509 18.0139 3.52707 17.7341 3.76802 17.5C5.26802 16 8.50602 15.014 12.007 15C15.508 14.986 18.673 15.943 20.232 17.5C20.7027 17.9532 20.9782 18.572 21 19.225L20.921 20.857ZM3.00002 5.474V1C3.00002 0.734784 3.10538 0.48043 3.29291 0.292893C3.48045 0.105357 3.7348 0 4.00002 0L8.47402 0C8.67177 4.22243e-05 8.86507 0.0587141 9.02948 0.168598C9.19389 0.278483 9.32203 0.434646 9.3977 0.617345C9.47337 0.800045 9.49317 1.00108 9.4546 1.19503C9.41604 1.38898 9.32083 1.56715 9.18102 1.707L8.09102 2.8L12.5 6.9L18.48 1.4C18.7747 1.14862 19.1552 1.02098 19.5418 1.04378C19.9285 1.06659 20.2913 1.23808 20.5544 1.52235C20.8175 1.80662 20.9604 2.18164 20.9533 2.5689C20.9461 2.95616 20.7894 3.32564 20.516 3.6L14.382 9.246C13.8786 9.73555 13.2022 10.0065 12.5 10C12.1429 10 11.7892 9.92934 11.4595 9.79204C11.1298 9.65473 10.8306 9.45352 10.579 9.2L5.96802 4.919L4.70702 6.181C4.56717 6.32081 4.38901 6.41602 4.19505 6.45458C4.0011 6.49315 3.80007 6.47335 3.61737 6.39768C3.43467 6.32201 3.2785 6.19387 3.16862 6.02946C3.05874 5.86505 3.00006 5.67175 3.00002 5.474Z" fill="white"/>
</g>
<defs>
<clipPath id="clip0_88_6396">
<rect width="24" height="24" fill="white"/>
</clipPath>
</defs>
</svg>
