<svg width="24" height="24" viewBox="0 0 24 24" fill="none" xmlns="http://www.w3.org/2000/svg">
<g clip-path="url(#clip0_88_6397)">
<path d="M20.7 14.0251C20.0333 13.3899 19.1478 13.0356 18.227 13.0356C17.3061 13.0356 16.4206 13.3899 15.754 14.0251L15.345 14.4251C12.7894 13.2597 10.7435 11.2067 9.58696 8.6471L9.97496 8.2531C10.6193 7.60077 10.9839 6.72289 10.9911 5.80601C10.9984 4.88914 10.6479 4.00557 10.014 3.3431L7.86196 1.0251C7.20273 0.39494 6.32802 0.0398722 5.41609 0.0322541C4.50415 0.0246361 3.62363 0.365041 2.95396 0.984097C2.95396 0.984097 1.88696 1.9141 1.86196 1.9381C-6.03304 10.2071 13.785 30.0381 22.062 22.1381C22.086 22.1131 23.016 21.0471 23.016 21.0471C23.6566 20.3782 24.0075 19.4835 23.9923 18.5574C23.9772 17.6313 23.5972 16.7486 22.935 16.1011L20.7 14.0251ZM20.857 18.9671C20.832 18.9911 19.908 20.0501 19.908 20.0501C14.655 24.7731 -0.910037 10.1271 3.94996 4.1001C3.94996 4.1001 5.00896 3.1761 5.03396 3.1511C5.11907 3.06063 5.23553 3.0061 5.35952 2.99866C5.48351 2.99123 5.60565 3.03145 5.70096 3.1111L7.85396 5.4241C7.90328 5.47017 7.94244 5.52603 7.96893 5.58811C7.99543 5.65018 8.00868 5.7171 8.00783 5.78458C8.00698 5.85207 7.99206 5.91864 7.96401 5.98003C7.93597 6.04142 7.89542 6.09627 7.84496 6.1411L6.73696 7.2671C6.53244 7.47501 6.39295 7.73803 6.33559 8.02397C6.27822 8.30992 6.30546 8.60639 6.41396 8.8771C7.15915 10.872 8.32454 12.6834 9.83113 14.1884C11.3377 15.6934 13.1503 16.857 15.146 17.6001C15.4146 17.7028 15.7072 17.7262 15.9887 17.6673C16.2703 17.6084 16.529 17.4699 16.734 17.2681L17.868 16.1501C18.158 15.9361 18.309 15.9381 18.616 16.1901L20.854 18.2641C20.9465 18.3577 20.9984 18.484 20.9984 18.6156C20.9984 18.7472 20.9465 18.8735 20.854 18.9671H20.857ZM15 8.0001V3.5261C15 3.32835 15.0587 3.13505 15.1686 2.97064C15.2784 2.80623 15.4346 2.67809 15.6173 2.60242C15.8 2.52675 16.001 2.50695 16.195 2.54551C16.3889 2.58408 16.5671 2.67929 16.707 2.8191L17.894 4.0061L21.437 0.442097C21.7192 0.16812 22.0978 0.0159723 22.4911 0.0184315C22.8845 0.0208906 23.2611 0.177759 23.5399 0.455245C23.8187 0.73273 23.9773 1.10862 23.9817 1.50195C23.986 1.89528 23.8356 2.27456 23.563 2.5581L20.015 6.1271L21.181 7.2931C21.3208 7.43295 21.416 7.61111 21.4545 7.80507C21.4931 7.99902 21.4733 8.20005 21.3976 8.38275C21.322 8.56545 21.1938 8.72161 21.0294 8.8315C20.865 8.94138 20.6717 9.00006 20.474 9.0001H16C15.7347 9.0001 15.4804 8.89474 15.2929 8.7072C15.1053 8.51967 15 8.26531 15 8.0001Z" fill="white"/>
</g>
<defs>
<clipPath id="clip0_88_6397">
<rect width="24" height="24" fill="white"/>
</clipPath>
</defs>
</svg>
