<svg width="24" height="24" viewBox="0 0 24 24" fill="none" xmlns="http://www.w3.org/2000/svg">
<path d="M6.41403 15.586H17.586C17.7838 15.586 17.9771 15.5273 18.1415 15.4174C18.3059 15.3076 18.434 15.1514 18.5097 14.9687C18.5854 14.786 18.6052 14.585 18.5666 14.391C18.528 14.1971 18.4328 14.0189 18.293 13.879L12.707 8.29306C12.5195 8.10559 12.2652 8.00027 12 8.00027C11.7349 8.00027 11.4806 8.10559 11.293 8.29306L5.70703 13.879C5.56722 14.0189 5.47202 14.1971 5.43345 14.391C5.39488 14.585 5.41468 14.786 5.49035 14.9687C5.56602 15.1514 5.69416 15.3076 5.85857 15.4174C6.02298 15.5273 6.21628 15.586 6.41403 15.586Z" fill="white"/>
</svg>
