<svg width="24" height="24" viewBox="0 0 24 24" fill="none" xmlns="http://www.w3.org/2000/svg">
<g clip-path="url(#clip0_88_6426)">
<path d="M19.4201 9.59206C19.4736 9.23053 19.5003 8.86553 19.5001 8.50006C19.5001 6.51094 18.7099 4.60328 17.3034 3.19676C15.8969 1.79024 13.9892 1.00006 12.0001 1.00006C10.011 1.00006 8.10331 1.79024 6.69678 3.19676C5.29026 4.60328 4.50008 6.51094 4.50008 8.50006C4.49984 8.86553 4.52658 9.23053 4.58008 9.59206C3.60193 10.0054 2.72269 10.6217 2.00056 11.4003C1.27843 12.1789 0.729856 13.1019 0.391145 14.1083C0.0524336 15.1148 -0.0686957 16.1817 0.0357716 17.2384C0.140239 18.2952 0.467921 19.3177 0.997136 20.2383C1.52635 21.159 2.24503 21.9567 3.10563 22.5788C3.96623 23.2009 4.94913 23.6332 5.98928 23.847C7.02944 24.0608 8.10314 24.0513 9.13934 23.8191C10.1756 23.5869 11.1506 23.1373 12.0001 22.5001C12.8489 23.1421 13.8246 23.5962 14.8624 23.8321C15.9002 24.068 16.9763 24.0804 18.0192 23.8683C19.0621 23.6562 20.048 23.2247 20.9113 22.6022C21.7745 21.9798 22.4954 21.1807 23.0261 20.2582C23.5567 19.3356 23.8849 18.3107 23.9889 17.2515C24.0929 16.1924 23.9703 15.1232 23.6292 14.115C23.2881 13.1069 22.7364 12.1829 22.0107 11.4045C21.2849 10.626 20.4019 10.0109 19.4201 9.60006V9.59206ZM12.0001 4.00006C13.1932 4.00138 14.337 4.47592 15.1806 5.31954C16.0242 6.16317 16.4988 7.30699 16.5001 8.50006C16.4999 8.66711 16.4905 8.83403 16.4721 9.00006C14.8585 9.00345 13.2894 9.52975 12.0001 10.5001C10.7108 9.52975 9.14171 9.00345 7.52808 9.00006C7.50965 8.83403 7.5003 8.66711 7.50008 8.50006C7.50141 7.30699 7.97594 6.16317 8.81957 5.31954C9.66319 4.47592 10.807 4.00138 12.0001 4.00006ZM3.00008 16.5001C3.00078 15.642 3.2465 14.802 3.70834 14.0789C4.17017 13.3558 4.82892 12.7796 5.60708 12.4181C6.4269 13.7506 7.64052 14.7954 9.08008 15.4081C8.83437 17.0764 9.1585 18.7788 10.0001 20.2401C9.32264 20.6927 8.53501 20.9529 7.72124 20.993C6.90748 21.033 6.09811 20.8514 5.37949 20.4674C4.66088 20.0835 4.05999 19.5116 3.64093 18.8129C3.22188 18.1142 3.00038 17.3148 3.00008 16.5001ZM16.5001 21.0001C15.6097 21.0014 14.7391 20.7367 14.0001 20.2401C14.8417 18.7788 15.1658 17.0764 14.9201 15.4081C16.3597 14.7954 17.5733 13.7506 18.3931 12.4181C19.3228 12.8494 20.0774 13.5852 20.532 14.5038C20.9867 15.4223 21.1142 16.4685 20.8934 17.4694C20.6727 18.4702 20.1169 19.3657 19.318 20.0077C18.5191 20.6497 17.525 20.9998 16.5001 21.0001Z" fill="white"/>
</g>
<defs>
<clipPath id="clip0_88_6426">
<rect width="24" height="24" fill="white"/>
</clipPath>
</defs>
</svg>
