<svg width="24" height="24" viewBox="0 0 24 24" fill="none" xmlns="http://www.w3.org/2000/svg">
<g clip-path="url(#clip0_88_6515)">
<path d="M23.4991 17.6724L15.9229 2.4302C14.847 0.263964 12.2188 -0.619958 10.0525 0.455917C9.19658 0.88098 8.50325 1.57435 8.07814 2.43025L0.501971 17.6724C-0.57456 19.839 0.309128 22.468 2.47564 23.5445C3.08146 23.8456 3.74881 24.0022 4.42531 24.0021H19.5757C21.995 24.0023 23.9564 22.0413 23.9566 19.6221C23.9567 18.9456 23.8001 18.2783 23.4991 17.6724ZM18.5877 14.5206H5.41339L7.39752 10.5284H16.6055L18.5877 14.5206ZM12.0005 2.99312C12.5285 2.98731 13.0123 3.28717 13.2421 3.76262L15.1164 7.53428H8.88458L10.7589 3.76262C10.9891 3.28754 11.4726 2.98782 12.0005 2.99312ZM20.7544 20.3512C20.5042 20.7621 20.0567 21.0114 19.5757 21.0079H4.42531C3.65971 21.008 3.03899 20.3873 3.03899 19.6217C3.03899 19.4077 3.08853 19.1965 3.18374 19.0049L3.92427 17.5148H20.0767L20.8173 19.0049C21.0351 19.4334 21.0113 19.9449 20.7544 20.3512Z" fill="white"/>
</g>
<defs>
<clipPath id="clip0_88_6515">
<rect width="24" height="24" fill="white"/>
</clipPath>
</defs>
</svg>
