<svg width="24" height="24" viewBox="0 0 24 24" fill="none" xmlns="http://www.w3.org/2000/svg">
<g clip-path="url(#clip0_88_6421)">
<path d="M21.8639 18.1271C21.591 16.9547 20.9298 15.909 19.9876 15.1598C19.0455 14.4106 17.8777 14.0019 16.6739 14.0001H13.4999V12.3841C14.9908 12.0175 16.2958 11.1177 17.1684 9.85455C18.0411 8.59142 18.421 7.05246 18.2363 5.52834C18.0517 4.00423 17.3153 2.60048 16.1663 1.58226C15.0173 0.564039 13.5352 0.00183105 11.9999 0.00183105C10.4647 0.00183105 8.98257 0.564039 7.83355 1.58226C6.68454 2.60048 5.94817 4.00423 5.76354 5.52834C5.5789 7.05246 5.95879 8.59142 6.83144 9.85455C7.70409 11.1177 9.00909 12.0175 10.4999 12.3841V14.0001H7.32594C6.1222 14.0019 4.95443 14.4106 4.01226 15.1598C3.07008 15.909 2.40885 16.9547 2.13594 18.1271C1.50354 18.3171 0.951502 18.7105 0.565428 19.2462C0.179354 19.7819 -0.0191841 20.43 0.000599776 21.0901C0.0203837 21.7501 0.257384 22.3852 0.674851 22.8968C1.09232 23.4084 1.66692 23.768 2.30957 23.9198C2.95222 24.0716 3.627 24.0072 4.22928 23.7364C4.83156 23.4657 5.32768 23.0038 5.64072 22.4224C5.95376 21.841 6.06623 21.1725 5.96068 20.5207C5.85513 19.8688 5.53747 19.27 5.05694 18.8171C5.17339 18.302 5.4613 17.8417 5.87352 17.5116C6.28574 17.1815 6.79784 17.0011 7.32594 17.0001H10.4999V18.4001C9.92802 18.7303 9.48103 19.24 9.2283 19.8501C8.97558 20.4603 8.93124 21.1367 9.10216 21.7746C9.27309 22.4125 9.64972 22.9762 10.1737 23.3782C10.6976 23.7803 11.3395 23.9982 11.9999 23.9982C12.6603 23.9982 13.3023 23.7803 13.8262 23.3782C14.3502 22.9762 14.7268 22.4125 14.8977 21.7746C15.0686 21.1367 15.0243 20.4603 14.7716 19.8501C14.5189 19.24 14.0719 18.7303 13.4999 18.4001V17.0001H16.6739C17.202 17.0011 17.7141 17.1815 18.1264 17.5116C18.5386 17.8417 18.8265 18.302 18.9429 18.8171C18.4624 19.27 18.1448 19.8688 18.0392 20.5207C17.9337 21.1725 18.0461 21.841 18.3592 22.4224C18.6722 23.0038 19.1683 23.4657 19.7706 23.7364C20.3729 24.0072 21.0477 24.0716 21.6903 23.9198C22.333 23.768 22.9076 23.4084 23.325 22.8968C23.7425 22.3852 23.9795 21.7501 23.9993 21.0901C24.0191 20.43 23.8205 19.7819 23.4345 19.2462C23.0484 18.7105 22.4963 18.3171 21.8639 18.1271ZM8.71794 6.28311C8.71794 5.63399 8.91043 4.99945 9.27106 4.45973C9.63169 3.92001 10.1443 3.49935 10.744 3.25094C11.3437 3.00254 12.0036 2.93754 12.6402 3.06418C13.2769 3.19082 13.8617 3.5034 14.3207 3.96239C14.7797 4.42139 15.0922 5.00618 15.2189 5.64283C15.3455 6.27947 15.2805 6.93937 15.0321 7.53908C14.7837 8.13878 14.363 8.65136 13.8233 9.01199C13.2836 9.37262 12.6491 9.56511 11.9999 9.56511C11.1298 9.56405 10.2957 9.21793 9.68039 8.60266C9.06512 7.9874 8.719 7.15323 8.71794 6.28311Z" fill="white"/>
</g>
<defs>
<clipPath id="clip0_88_6421">
<rect width="24" height="24" fill="white"/>
</clipPath>
</defs>
</svg>
