<svg width="24" height="24" viewBox="0 0 24 24" fill="none" xmlns="http://www.w3.org/2000/svg">
<g clip-path="url(#clip0_88_6381)">
<path d="M20.9998 13.5001C20.4116 13.5005 19.8366 13.6744 19.3468 14.0001L18.3278 13.4911C18.5835 12.4065 18.5562 11.2744 18.2484 10.2035C17.9405 9.13258 17.3625 8.15877 16.5699 7.37558C15.7773 6.59239 14.7966 6.02612 13.7221 5.73113C12.6475 5.43614 11.5152 5.42234 10.4338 5.69106L9.8338 4.61006C10.1875 4.05259 10.3474 3.39401 10.2888 2.73641C10.2301 2.07881 9.95621 1.45892 9.50946 0.972829C9.06271 0.486734 8.46809 0.161583 7.81777 0.0477791C7.16744 -0.0660252 6.49774 0.0378725 5.91246 0.343367C5.32719 0.648862 4.85903 1.13889 4.58056 1.7375C4.30209 2.3361 4.22886 3.00985 4.37222 3.65431C4.51558 4.29876 4.86752 4.87793 5.3735 5.30203C5.87947 5.72614 6.51122 5.97149 7.1708 6.00006L7.7708 7.07406C6.60177 8.07591 5.82697 9.46074 5.5848 10.9812C5.34263 12.5016 5.64887 14.0586 6.4488 15.3741L3.6398 18.0691C2.99511 17.9281 2.32192 18.0036 1.7245 18.2839C1.12708 18.5643 0.638759 19.0338 0.335179 19.6197C0.0315998 20.2057 -0.0703013 20.8754 0.0452587 21.5251C0.160819 22.1749 0.487391 22.7684 0.974396 23.2137C1.4614 23.659 2.08166 23.9314 2.73911 23.9885C3.39656 24.0457 4.0545 23.8845 4.61105 23.5298C5.16759 23.1752 5.59167 22.6469 5.81761 22.0269C6.04354 21.4069 6.05873 20.7296 5.8608 20.1001L8.5538 17.5141C9.88338 18.3474 11.4699 18.6709 13.0196 18.4245C14.5693 18.1781 15.9772 17.3787 16.9828 16.1741L18.0058 16.6851C18.0419 17.2694 18.2482 17.8304 18.5993 18.299C18.9504 18.7675 19.4309 19.1231 19.9816 19.3219C20.5323 19.5206 21.1291 19.5539 21.6985 19.4176C22.2679 19.2813 22.7849 18.9814 23.1859 18.5548C23.587 18.1282 23.8544 17.5936 23.9552 17.0169C24.0561 16.4402 23.986 15.8466 23.7536 15.3092C23.5212 14.7718 23.1366 14.3142 22.6473 13.9927C22.158 13.6713 21.5853 13.5 20.9998 13.5001ZM11.9998 15.5001C11.3076 15.5001 10.6309 15.2948 10.0553 14.9102C9.47974 14.5256 9.03113 13.979 8.76623 13.3395C8.50132 12.6999 8.43201 11.9962 8.56706 11.3172C8.7021 10.6383 9.03545 10.0147 9.52493 9.52519C10.0144 9.0357 10.6381 8.70236 11.317 8.56731C11.9959 8.43227 12.6997 8.50158 13.3392 8.76648C13.9787 9.03139 14.5254 9.47999 14.9099 10.0556C15.2945 10.6311 15.4998 11.3078 15.4998 12.0001C15.4998 12.9283 15.1311 13.8186 14.4747 14.4749C13.8183 15.1313 12.9281 15.5001 11.9998 15.5001Z" fill="white"/>
</g>
<defs>
<clipPath id="clip0_88_6381">
<rect width="24" height="24" fill="white"/>
</clipPath>
</defs>
</svg>
