<svg width="24" height="24" viewBox="0 0 24 24" fill="none" xmlns="http://www.w3.org/2000/svg">
<g clip-path="url(#clip0_88_6378)">
<path d="M22.5 21H5.5C4.83696 21 4.20107 20.7366 3.73223 20.2678C3.26339 19.7989 3 19.163 3 18.5V1.5C3 1.10218 2.84196 0.720644 2.56066 0.43934C2.27936 0.158035 1.89782 0 1.5 0C1.10218 0 0.720644 0.158035 0.43934 0.43934C0.158035 0.720644 0 1.10218 0 1.5L0 18.5C0.00158817 19.9582 0.581561 21.3562 1.61267 22.3873C2.64377 23.4184 4.0418 23.9984 5.5 24H22.5C22.8978 24 23.2794 23.842 23.5607 23.5607C23.842 23.2794 24 22.8978 24 22.5C24 22.1022 23.842 21.7206 23.5607 21.4393C23.2794 21.158 22.8978 21 22.5 21Z" fill="white"/>
<path d="M22.4999 3.97604H19.4139C19.2161 3.97609 19.0228 4.03476 18.8584 4.14464C18.694 4.25453 18.5659 4.41069 18.4902 4.59339C18.4145 4.77609 18.3947 4.97712 18.4333 5.17108C18.4719 5.36503 18.5671 5.54319 18.7069 5.68304L19.4399 6.41504L15.8529 10C15.8064 10.0466 15.7513 10.0836 15.6905 10.1088C15.6298 10.134 15.5647 10.1469 15.4989 10.1469C15.4331 10.1469 15.368 10.134 15.3073 10.1088C15.2465 10.0836 15.1913 10.0466 15.1449 10L14.9749 9.83004C14.3083 9.19321 13.4218 8.83785 12.4999 8.83785C11.578 8.83785 10.6915 9.19321 10.0249 9.83004L5.92491 13.93C5.78165 14.0684 5.66737 14.2339 5.58876 14.4169C5.51015 14.5999 5.46877 14.7968 5.46704 14.9959C5.46531 15.1951 5.50326 15.3926 5.57868 15.577C5.6541 15.7613 5.76548 15.9288 5.90632 16.0696C6.04716 16.2105 6.21464 16.3219 6.39898 16.3973C6.58332 16.4727 6.78084 16.5107 6.98001 16.5089C7.17918 16.5072 7.37601 16.4658 7.55902 16.3872C7.74202 16.3086 7.90754 16.1943 8.04591 16.051L12.1459 11.951C12.1923 11.9045 12.2475 11.8675 12.3083 11.8423C12.369 11.8171 12.4341 11.8042 12.4999 11.8042C12.5657 11.8042 12.6308 11.8171 12.6915 11.8423C12.7523 11.8675 12.8075 11.9045 12.8539 11.951L13.0239 12.121C13.6908 12.7574 14.5771 13.1125 15.4989 13.1125C16.4207 13.1125 17.307 12.7574 17.9739 12.121L21.5599 8.53604L22.2919 9.26904C22.4317 9.4092 22.6099 9.50471 22.8041 9.54347C22.9982 9.58224 23.1994 9.56251 23.3823 9.4868C23.5653 9.41109 23.7216 9.2828 23.8315 9.11817C23.9414 8.95355 24 8.76 23.9999 8.56204V5.47604C23.9999 5.07822 23.8418 4.69669 23.5605 4.41538C23.2792 4.13408 22.8977 3.97604 22.4999 3.97604Z" fill="white"/>
</g>
<defs>
<clipPath id="clip0_88_6378">
<rect width="24" height="24" fill="white"/>
</clipPath>
</defs>
</svg>
