<svg width="24" height="24" viewBox="0 0 24 24" fill="none" xmlns="http://www.w3.org/2000/svg">
<g clip-path="url(#clip0_88_6405)">
<path d="M18.5 24H5.49998C2.4638 23.9967 0.00332812 21.5362 0 18.5V5.49998C0.00332812 2.4638 2.4638 0.00332812 5.49998 0H18.5C21.5362 0.00332812 23.9967 2.4638 24 5.49998V18.5C23.9967 21.5362 21.5362 23.9967 18.5 24ZM5.49998 3C4.11928 3 3 4.11928 3 5.49998V18.5C3 19.8807 4.11928 21 5.49998 21H18.5C19.8807 21 21 19.8807 21 18.5V5.49998C21 4.11928 19.8807 3 18.5 3H5.49998Z" fill="white"/>
<path d="M9.66709 17.7869C9.03606 17.7873 8.43109 17.5353 7.98709 17.0869L5.00008 14.1049C4.41409 13.5193 4.41381 12.5696 4.99942 11.9836C4.99966 11.9834 4.99989 11.9831 5.00008 11.9829C5.58583 11.3973 6.53533 11.3973 7.12108 11.9829L9.66709 14.5279L16.8791 7.31588C17.4648 6.73032 18.4143 6.73032 19.0001 7.31588C19.5861 7.90149 19.5864 8.85123 19.0007 9.43721C19.0005 9.43745 19.0003 9.43768 19.0001 9.43787L11.3461 17.0919C10.9016 17.5384 10.2971 17.7887 9.66709 17.7869Z" fill="white"/>
</g>
<defs>
<clipPath id="clip0_88_6405">
<rect width="24" height="24" fill="white"/>
</clipPath>
</defs>
</svg>
