<svg width="24" height="24" viewBox="0 0 24 24" fill="none" xmlns="http://www.w3.org/2000/svg">
<g clip-path="url(#clip0_88_6373)">
<path d="M19.5 20.9999H19V20.3449C18.9978 19.7421 18.8749 19.1458 18.6386 18.5912C18.4023 18.0366 18.0573 17.535 17.624 17.1159C16.8034 16.3246 16.1532 15.3739 15.7135 14.3221C15.2737 13.2704 15.0537 12.1398 15.067 10.9999H16C16.3978 10.9999 16.7793 10.8419 17.0607 10.5606C17.342 10.2793 17.5 9.89772 17.5 9.4999C17.5 9.10207 17.342 8.72054 17.0607 8.43923C16.7793 8.15793 16.3978 7.9999 16 7.9999H15.278C15.7625 7.32623 16.0237 6.51769 16.025 5.68789C15.806 4.10765 15.2313 2.59772 14.344 1.27189C14.0967 0.881146 13.7544 0.559501 13.349 0.337044C12.9436 0.114587 12.4884 -0.0014135 12.026 -0.000105958C11.5635 -0.00169435 11.1082 0.114185 10.7028 0.336669C10.2974 0.559152 9.95506 0.880951 9.70799 1.27189C8.81979 2.59734 8.24463 4.10742 8.02599 5.68789C8.02714 6.51786 8.28877 7.32654 8.77399 7.9999H8.49999C8.10217 7.9999 7.72064 8.15793 7.43933 8.43923C7.15803 8.72054 6.99999 9.10207 6.99999 9.4999C6.99999 9.89772 7.15803 10.2793 7.43933 10.5606C7.72064 10.8419 8.10217 10.9999 8.49999 10.9999H8.95699C8.96601 12.1415 8.74163 13.2728 8.29762 14.3246C7.85362 15.3763 7.19935 16.3262 6.37499 17.1159C5.942 17.5352 5.59729 18.0369 5.36115 18.5914C5.12501 19.146 5.00221 19.7422 4.99999 20.3449V20.9999H4.49999C4.10217 20.9999 3.72064 21.1579 3.43933 21.4392C3.15803 21.7205 2.99999 22.1021 2.99999 22.4999C2.99999 22.8977 3.15803 23.2793 3.43933 23.5606C3.72064 23.8419 4.10217 23.9999 4.49999 23.9999H19.5C19.8978 23.9999 20.2793 23.8419 20.5607 23.5606C20.842 23.2793 21 22.8977 21 22.4999C21 22.1021 20.842 21.7205 20.5607 21.4392C20.2793 21.1579 19.8978 20.9999 19.5 20.9999ZM12.058 10.9999C12.0609 13.981 13.2127 16.8463 15.274 18.9999H8.72599C10.7963 16.8502 11.957 13.9844 11.966 10.9999H12.058Z" fill="white"/>
</g>
<defs>
<clipPath id="clip0_88_6373">
<rect width="24" height="24" fill="white"/>
</clipPath>
</defs>
</svg>
