<svg width="24" height="24" viewBox="0 0 24 24" fill="none" xmlns="http://www.w3.org/2000/svg">
<g clip-path="url(#clip0_88_6372)">
<path d="M22.817 14.3541C23.1929 13.9847 23.4913 13.5438 23.6944 13.0575C23.8976 12.5712 24.0015 12.0491 24 11.5221C23.9999 10.8075 23.8026 10.1068 23.4298 9.49719C23.0569 8.88758 22.5231 8.3927 21.887 8.06707C21.4202 5.78937 20.1814 3.74268 18.3798 2.2729C16.5783 0.80312 14.3245 0.000396729 11.9995 0.000396729C9.67446 0.000396729 7.42072 0.80312 5.61918 2.2729C3.81764 3.74268 2.57879 5.78937 2.112 8.06707C1.47618 8.39293 0.942597 8.88789 0.569967 9.49747C0.197337 10.107 0.000112442 10.8076 0 11.5221C0.00117241 12.4567 0.33018 13.3614 0.929717 14.0784C1.52925 14.7954 2.36132 15.2794 3.281 15.4461C3.63274 16.1294 4.06625 16.7674 4.572 17.3461C3.32724 18.7196 2.49203 20.4142 2.161 22.2381C2.12628 22.432 2.13011 22.631 2.17228 22.8234C2.21446 23.0159 2.29414 23.1982 2.40679 23.3599C2.51943 23.5216 2.66283 23.6595 2.82879 23.7657C2.99475 23.872 3.18001 23.9445 3.374 23.9791C3.46193 23.9935 3.5509 24.0005 3.64 24.0001C3.99159 23.9995 4.3318 23.8754 4.60121 23.6495C4.87063 23.4236 5.05212 23.1102 5.114 22.7641C5.34731 21.4823 5.9364 20.292 6.814 19.3291C8.34452 20.3762 10.146 20.9567 12 21.0001C13.8553 20.9575 15.6583 20.377 17.19 19.3291C18.0676 20.292 18.6567 21.4823 18.89 22.7641C18.9518 23.1095 19.1327 23.4224 19.4013 23.6482C19.6698 23.874 20.0091 23.9985 20.36 24.0001C20.4492 23.9998 20.5381 23.9921 20.626 23.9771C20.82 23.9425 21.0053 23.87 21.1712 23.7637C21.3372 23.6575 21.4806 23.5196 21.5932 23.3579C21.7059 23.1962 21.7855 23.0139 21.8277 22.8214C21.8699 22.629 21.8737 22.43 21.839 22.2361C21.508 20.4122 20.6728 18.7176 19.428 17.3441C19.9339 16.7655 20.3675 16.1275 20.719 15.4441C21.5131 15.303 22.2451 14.9227 22.817 14.3541ZM20 12.5081H19.989H19.827C19.4965 12.4835 19.1671 12.568 18.8893 12.7486C18.6115 12.9292 18.4006 13.196 18.289 13.5081C17.7784 14.7787 16.915 15.8768 15.8007 16.6727C14.6863 17.4687 13.3676 17.9292 12 18.0001C10.6308 17.9293 9.31058 17.4679 8.19537 16.6704C7.08017 15.873 6.21667 14.7728 5.707 13.5001C5.60367 13.2078 5.41234 12.9548 5.15931 12.7757C4.90628 12.5966 4.60399 12.5003 4.294 12.5001C4.252 12.5001 4.211 12.5001 4.169 12.5051H4.001H3.99C3.72848 12.5056 3.47742 12.4024 3.29185 12.2182C3.10627 12.0339 3.00132 11.7836 3 11.5221C3.00069 11.3154 3.0738 11.1154 3.20662 10.957C3.33944 10.7986 3.52357 10.6918 3.727 10.6551C4.04571 10.5968 4.33698 10.4369 4.55726 10.1994C4.77754 9.96178 4.91497 9.65927 4.949 9.33707C5.14299 7.48164 6.06377 5.7785 7.51 4.60007C7.5289 5.48076 7.80622 6.33648 8.30747 7.06085C8.80873 7.78523 9.51182 8.34631 10.3293 8.67437C11.1469 9.00242 12.0428 9.08298 12.9057 8.90603C13.7687 8.72907 14.5606 8.30241 15.183 7.67907C15.3285 7.54113 15.4449 7.37541 15.5252 7.19173C15.6056 7.00804 15.6483 6.81012 15.6508 6.60964C15.6534 6.40917 15.6157 6.21022 15.54 6.02455C15.4644 5.83888 15.3523 5.67026 15.2103 5.52866C15.0684 5.38706 14.8995 5.27535 14.7137 5.20013C14.5278 5.12492 14.3288 5.08772 14.1283 5.09074C13.9279 5.09376 13.73 5.13694 13.5465 5.21772C13.363 5.29851 13.1976 5.41526 13.06 5.56107C12.7744 5.834 12.3946 5.98631 11.9995 5.98631C11.6045 5.98631 11.2246 5.834 10.939 5.56107C10.7291 5.35129 10.5861 5.08396 10.5282 4.79289C10.4702 4.50183 10.5 4.20013 10.6135 3.92596C10.7271 3.65178 10.9195 3.41746 11.1663 3.25265C11.4131 3.08784 11.7032 2.99994 12 3.00007C13.7511 2.99584 15.4415 3.64161 16.7438 4.81233C18.046 5.98305 18.8675 7.59539 19.049 9.33707C19.0831 9.65955 19.2209 9.96227 19.4415 10.1999C19.6622 10.4375 19.9539 10.5972 20.273 10.6551C20.4764 10.6918 20.6606 10.7986 20.7934 10.957C20.9262 11.1154 20.9993 11.3154 21 11.5221C21.0003 11.6523 20.9746 11.7813 20.9245 11.9015C20.8743 12.0217 20.8007 12.1306 20.708 12.2221C20.6147 12.3142 20.5041 12.3868 20.3826 12.4359C20.2611 12.485 20.1311 12.5095 20 12.5081Z" fill="white"/>
<path d="M9.50012 13.0001C10.3285 13.0001 11.0001 12.3285 11.0001 11.5001C11.0001 10.6716 10.3285 10.0001 9.50012 10.0001C8.67169 10.0001 8.00012 10.6716 8.00012 11.5001C8.00012 12.3285 8.67169 13.0001 9.50012 13.0001Z" fill="white"/>
<path d="M14.4999 13.0001C15.3283 13.0001 15.9999 12.3285 15.9999 11.5001C15.9999 10.6716 15.3283 10.0001 14.4999 10.0001C13.6715 10.0001 12.9999 10.6716 12.9999 11.5001C12.9999 12.3285 13.6715 13.0001 14.4999 13.0001Z" fill="white"/>
</g>
<defs>
<clipPath id="clip0_88_6372">
<rect width="24" height="24" fill="white"/>
</clipPath>
</defs>
</svg>
