<svg width="24" height="24" viewBox="0 0 24 24" fill="none" xmlns="http://www.w3.org/2000/svg">
<path d="M10.6803 24C8.25349 24.0031 5.92215 23.0545 4.18696 21.3579C0.556118 17.5848 0.627017 11.5957 4.34619 7.90962L10.1805 2.07625C12.5644 -0.376192 16.3916 -0.695259 19.1487 1.32863C22.086 3.58368 22.639 7.79286 20.3839 10.7301C20.2078 10.9595 20.017 11.1773 19.8128 11.3821L13.7073 17.4875C13.0202 18.2059 12.1083 18.668 11.1227 18.7974C9.78666 18.9438 8.46406 18.4243 7.5848 17.4078C6.23678 15.681 6.38089 13.2218 7.92134 11.6642L12.5757 7.01383C13.166 6.42378 14.1228 6.42378 14.713 7.01383C15.303 7.60406 15.303 8.56084 14.713 9.15108L9.91552 13.9496C9.49339 14.372 9.49362 15.0566 9.91604 15.4787C10.3385 15.9008 11.0231 15.9006 11.4451 15.4782L17.606 9.31838C18.8708 8.08855 19.1047 6.14236 18.1673 4.64787C17.0603 2.94272 14.7806 2.45776 13.0755 3.56474C12.862 3.70333 12.6635 3.86369 12.483 4.04327L6.40281 10.1285C4.10463 12.3601 3.80606 15.9454 5.70351 18.5264C7.81398 21.275 11.7531 21.7924 14.5017 19.6819C14.7165 19.517 14.9204 19.3383 15.112 19.1471L19.9105 14.3496C20.5007 13.7596 21.4575 13.7596 22.0478 14.3496C22.6378 14.9399 22.6378 15.8966 22.0478 16.4869L17.2493 21.2843C15.5082 23.0276 13.1441 24.0049 10.6803 24Z" fill="white"/>
</svg>
