<svg width="24" height="24" viewBox="0 0 24 24" fill="none" xmlns="http://www.w3.org/2000/svg">
<g clip-path="url(#clip0_88_6354)">
<path d="M2.53994 20.5002C2.3289 20.5002 2.12024 20.4556 1.92759 20.3695C1.73494 20.2833 1.56263 20.1575 1.42194 20.0002C0.834913 19.3491 0.413054 18.5665 0.191941 17.7182C-0.109729 16.5386 -0.0303366 15.2938 0.418744 14.1622C0.867825 13.0305 1.66355 12.0699 2.69194 11.4182C2.02371 9.90338 1.83493 8.22039 2.15094 6.59518C2.45472 4.94389 3.26704 3.42884 4.47427 2.26195C5.68151 1.09506 7.22328 0.334684 8.88394 0.0871818C10.8604 -0.207566 12.8765 0.231037 14.5519 1.32028C16.2273 2.40952 17.4463 4.07413 17.9789 6.00018C20.0366 6.56673 21.795 7.90822 22.8849 9.74318C23.0682 10.0849 23.1121 10.4844 23.0072 10.8577C22.9024 11.231 22.657 11.5493 22.3226 11.7456C21.9883 11.942 21.5908 12.0012 21.2137 11.9109C20.8366 11.8206 20.5091 11.5877 20.2999 11.2612C19.8983 10.5847 19.349 10.0078 18.6931 9.57348C18.0371 9.13919 17.2915 8.85877 16.5119 8.75318C16.1855 8.70977 15.8824 8.56012 15.6494 8.32735C15.4165 8.09457 15.2666 7.7916 15.2229 7.46518C15.1335 6.79099 14.9105 6.1414 14.5671 5.55436C14.2237 4.96732 13.7668 4.4546 13.2229 4.04618C12.6699 3.62951 12.0394 3.32733 11.3682 3.15734C10.697 2.98735 9.9986 2.95296 9.31394 3.05618C8.27255 3.21446 7.30661 3.69411 6.55109 4.42811C5.79558 5.16211 5.28823 6.11379 5.09994 7.15018C4.87944 8.27015 5.03959 9.43168 5.55494 10.4502C5.86435 11.03 5.93125 11.7089 5.74099 12.3379C5.55073 12.967 5.11883 13.495 4.53994 13.8062C3.97511 14.0884 3.52408 14.5557 3.26204 15.1302C3 15.7047 2.94279 16.3516 3.09994 16.9632C3.19906 17.3488 3.39019 17.7046 3.65694 18.0002C3.84992 18.2159 3.97635 18.4829 4.02098 18.769C4.0656 19.055 4.02651 19.3478 3.90842 19.6121C3.79034 19.8764 3.5983 20.1009 3.35547 20.2584C3.11265 20.416 2.82942 20.5 2.53994 20.5002ZM18.8499 24.0002C19.2225 23.9932 19.5934 23.9483 19.9569 23.8662C21.0903 23.6173 22.1065 22.9929 22.8406 22.0943C23.5748 21.1957 23.9839 20.0754 24.0018 18.9151C24.0196 17.7549 23.645 16.6226 22.9388 15.7018C22.2326 14.781 21.2362 14.1258 20.1109 13.8422C19.9956 13.8199 19.8828 13.7864 19.7739 13.7422C19.2291 12.4843 18.2838 11.4418 17.0851 10.7768C15.8864 10.1118 14.5015 9.86163 13.1459 10.0652C11.7321 10.2906 10.4423 11.0054 9.50174 12.0848C8.5612 13.1643 8.02966 14.5398 7.99994 15.9712C7.99381 16.2889 8.0132 16.6066 8.05794 16.9212C7.37709 17.2625 6.81711 17.8041 6.45335 18.4733C6.08958 19.1424 5.93948 19.9069 6.02324 20.6639C6.107 21.4209 6.4206 22.134 6.92185 22.7074C7.4231 23.2808 8.08794 23.687 8.82694 23.8712C9.13659 23.9505 9.45436 23.9938 9.77394 24.0002H18.8499ZM17.0119 14.9142C17.2136 15.392 17.5339 15.8104 17.9425 16.1298C18.3512 16.4492 18.8346 16.6589 19.3469 16.7392C19.8254 16.8486 20.2519 17.1185 20.5557 17.504C20.8595 17.8895 21.0221 18.3674 21.0166 18.8581C21.0112 19.3489 20.8378 19.823 20.5255 20.2016C20.2132 20.5802 19.7807 20.8405 19.2999 20.9392C19.1427 20.9754 18.9822 20.9962 18.8209 21.0012H9.81394C9.64563 20.984 9.48468 20.9233 9.34688 20.8251C9.20909 20.727 9.09918 20.5946 9.02794 20.4412C8.90494 19.9832 9.32794 19.6162 9.62794 19.4912C10.1564 19.2697 10.5903 18.8699 10.8542 18.3613C11.1181 17.8528 11.1951 17.2677 11.0719 16.7082C11.0227 16.485 11.0002 16.2567 11.0049 16.0282C11.0218 15.3098 11.2866 14.6194 11.7545 14.0741C12.2224 13.5287 12.8645 13.162 13.5719 13.0362C13.7292 13.013 13.888 13.0009 14.0469 13.0002C14.6744 12.9934 15.29 13.1712 15.8171 13.5115C16.3443 13.8518 16.7598 14.3396 17.0119 14.9142Z" fill="white"/>
</g>
<defs>
<clipPath id="clip0_88_6354">
<rect width="24" height="24" fill="white"/>
</clipPath>
</defs>
</svg>
