<svg width="24" height="24" viewBox="0 0 24 24" fill="none" xmlns="http://www.w3.org/2000/svg">
<g clip-path="url(#clip0_88_6366)">
<path d="M11.6711 23.9999C11.212 24.0001 10.7575 23.9097 10.3334 23.7338C9.9094 23.5579 9.52427 23.3 9.2001 22.975L5.8101 19.556C5.53004 19.2734 5.3737 18.8911 5.37548 18.4932C5.37726 18.0954 5.53702 17.7145 5.8196 17.4345C6.10219 17.1544 6.48446 16.998 6.88232 16.9998C7.28018 17.0016 7.66104 17.1614 7.9411 17.444L11.3261 20.858C11.4196 20.9496 11.5452 21.0009 11.6761 21.0009C11.807 21.0009 11.9326 20.9496 12.0261 20.858L17.4401 15.443C17.7215 15.1616 18.1032 15.0035 18.5011 15.0035C18.8991 15.0035 19.2807 15.1616 19.5621 15.443C19.8435 15.7244 20.0016 16.106 20.0016 16.504C20.0016 16.9019 19.8435 17.2836 19.5621 17.565L14.1471 22.979C13.822 23.3039 13.4359 23.5613 13.011 23.7366C12.5861 23.9118 12.1307 24.0013 11.6711 23.9999ZM2.0851 18.9C2.46841 18.7783 2.78869 18.5111 2.97716 18.1558C3.16564 17.8006 3.20726 17.3856 3.0931 17C2.93665 16.3879 2.99463 15.7408 3.25738 15.1664C3.52013 14.5919 3.97179 14.1248 4.53711 13.843C5.1154 13.5315 5.54664 13.0034 5.73633 12.3746C5.92603 11.7457 5.8587 11.0673 5.5491 10.488C5.03356 9.46953 4.87307 8.30805 5.0931 7.18797C5.28217 6.15235 5.79002 5.20166 6.54572 4.46874C7.30141 3.73582 8.26719 3.25727 9.3081 3.09997C9.99254 2.99641 10.6908 3.03054 11.3618 3.20037C12.0329 3.3702 12.6633 3.6723 13.2161 4.08897C13.7603 4.49704 14.2175 5.00965 14.5609 5.59676C14.9044 6.18387 15.1271 6.83364 15.2161 7.50797C15.2598 7.83453 15.4098 8.13762 15.643 8.37041C15.8762 8.6032 16.1795 8.75275 16.5061 8.79597C17.8205 8.97011 19.0177 9.64279 19.8501 10.6749C20.6825 11.707 21.0863 13.0195 20.9781 14.341V14.394C20.9644 14.5882 20.9896 14.7831 21.052 14.9675C21.1145 15.1519 21.2131 15.322 21.342 15.4679C21.471 15.6137 21.6277 15.7325 21.803 15.8171C21.9783 15.9018 22.1687 15.9507 22.3631 15.961C22.7639 15.9822 23.1572 15.8457 23.4586 15.5807C23.7601 15.3157 23.9458 14.9432 23.9761 14.543C24.1225 12.6484 23.6033 10.7621 22.508 9.20937C21.4127 7.65661 19.81 6.53466 17.9761 6.03697C17.5022 4.30247 16.4643 2.77514 15.0261 1.69598C14.1578 1.0386 13.1671 0.561059 12.1119 0.291304C11.0567 0.0215493 9.95838 -0.0349963 8.8811 0.124978C7.22055 0.372054 5.67872 1.13186 4.47117 2.29818C3.26361 3.46449 2.45071 4.979 2.1461 6.62997C1.82956 8.25548 2.01835 9.93895 2.6871 11.454C1.65918 12.1044 0.863619 13.0637 0.414504 14.1942C-0.0346102 15.3247 -0.114215 16.5684 0.187105 17.747L0.234105 17.921C0.322213 18.2249 0.507519 18.4915 0.761641 18.6801C1.01576 18.8687 1.32469 18.9687 1.6411 18.965C1.79144 18.9645 1.94095 18.9426 2.0851 18.9Z" fill="white"/>
</g>
<defs>
<clipPath id="clip0_88_6366">
<rect width="24" height="24" fill="white"/>
</clipPath>
</defs>
</svg>
