<svg width="24" height="24" viewBox="0 0 24 24" fill="none" xmlns="http://www.w3.org/2000/svg">
<g clip-path="url(#clip0_88_6364)">
<path d="M23.9758 15.5001C23.9056 16.4132 23.6716 17.3061 23.2848 18.1361C23.1162 18.4964 22.8113 18.775 22.4372 18.9104C22.0632 19.0459 21.6506 19.0273 21.2903 18.8586C20.93 18.6899 20.6515 18.385 20.516 18.011C20.3805 17.637 20.3992 17.2244 20.5678 16.8641C20.8019 16.3602 20.9432 15.8182 20.9848 15.2641C21.0854 13.9474 20.6775 12.6421 19.8451 11.6169C19.0128 10.5916 17.8192 9.92427 16.5098 9.75212C16.1835 9.70876 15.8806 9.55926 15.6476 9.32668C15.4147 9.0941 15.2647 8.79136 15.2208 8.46512C15.1314 7.79079 14.9084 7.14104 14.565 6.55384C14.2216 5.96663 13.7647 5.45374 13.2208 5.04512C12.668 4.62863 12.0375 4.3267 11.3665 4.15704C10.6954 3.98739 9.9972 3.95342 9.31283 4.05712C8.2705 4.21396 7.30332 4.69289 6.54677 5.42685C5.79022 6.16081 5.28219 7.11302 5.09383 8.15012C4.87356 9.2702 5.03407 10.4318 5.54983 11.4501C5.8592 12.0296 5.92641 12.7081 5.73675 13.3371C5.54709 13.966 5.116 14.4942 4.53783 14.8061C3.97272 15.088 3.52121 15.5549 3.25847 16.1291C2.99573 16.7033 2.93763 17.3503 3.09383 17.9621C3.28638 18.5682 3.67119 19.095 4.18996 19.4627C4.70873 19.8304 5.33322 20.0191 5.96883 20.0001H8.49983C8.89766 20.0001 9.27919 20.1582 9.56049 20.4395C9.8418 20.7208 9.99983 21.1023 9.99983 21.5001C9.99983 21.8979 9.8418 22.2795 9.56049 22.5608C9.27919 22.8421 8.89766 23.0001 8.49983 23.0001H5.96883C4.66801 23.0255 3.39545 22.6191 2.35006 21.8446C1.30466 21.07 0.545359 19.971 0.190831 18.7191C-0.111312 17.5396 -0.0321456 16.2946 0.416976 15.1628C0.866098 14.031 1.6621 13.0706 2.69083 12.4191C1.95796 10.7721 1.79393 8.92806 2.22458 7.17755C2.65524 5.42704 3.6561 3.86958 5.06947 2.75058C6.48283 1.63157 8.22834 1.01465 10.031 0.997002C11.8336 0.979358 13.5908 1.562 15.0258 2.65312C16.4565 3.73862 17.492 5.26309 17.9738 6.99312C19.8085 7.49011 21.412 8.61196 22.5078 10.1651C23.6036 11.7182 24.1228 13.6051 23.9758 15.5001ZM18.5628 19.0001H16.9998V14.5001C16.9998 14.1023 16.8418 13.7208 16.5605 13.4395C16.2792 13.1582 15.8977 13.0001 15.4998 13.0001C15.102 13.0001 14.7205 13.1582 14.4392 13.4395C14.1579 13.7208 13.9998 14.1023 13.9998 14.5001V19.0001H12.4368C12.2452 18.9999 12.0579 19.0566 11.8985 19.1629C11.7391 19.2693 11.6149 19.4205 11.5415 19.5975C11.4682 19.7746 11.449 19.9693 11.4864 20.1573C11.5239 20.3452 11.6162 20.5177 11.7518 20.6531L14.8148 23.7161C14.9047 23.8063 15.0114 23.8778 15.129 23.9266C15.2465 23.9755 15.3726 24.0006 15.4998 24.0006C15.6271 24.0006 15.7531 23.9755 15.8707 23.9266C15.9882 23.8778 16.095 23.8063 16.1848 23.7161L19.2478 20.6531C19.3834 20.5177 19.4758 20.3452 19.5132 20.1573C19.5507 19.9693 19.5315 19.7746 19.4581 19.5975C19.3848 19.4205 19.2605 19.2693 19.1012 19.1629C18.9418 19.0566 18.7544 18.9999 18.5628 19.0001Z" fill="white"/>
</g>
<defs>
<clipPath id="clip0_88_6364">
<rect width="24" height="24" fill="white"/>
</clipPath>
</defs>
</svg>
