<svg width="24" height="24" viewBox="0 0 24 24" fill="none" xmlns="http://www.w3.org/2000/svg">
<g clip-path="url(#clip0_88_6361)">
<path d="M22.4192 9.99991C21.3227 8.51096 19.7587 7.43252 17.9772 6.93691C17.4216 4.8996 16.1001 3.15587 14.2889 2.07015C12.4777 0.984426 10.3169 0.640735 8.25821 1.11091C7.08413 1.37939 5.98387 1.90401 5.03616 2.64725C4.08844 3.39048 3.31668 4.33397 2.77607 5.41021C2.23547 6.48646 1.93937 7.66887 1.90897 8.87288C1.87857 10.0769 2.11461 11.2727 2.60021 12.3749C1.58559 13.0415 0.806575 14.0106 0.373644 15.1448C-0.059288 16.2791 -0.124166 17.5208 0.18821 18.6939C0.531619 19.9499 1.28421 21.0553 2.32681 21.8353C3.3694 22.6152 4.6424 23.0251 5.94421 22.9999H8.50021C8.89804 22.9999 9.27957 22.8419 9.56087 22.5606C9.84218 22.2793 10.0002 21.8977 10.0002 21.4999C10.0002 21.1021 9.84218 20.7206 9.56087 20.4392C9.27957 20.1579 8.89804 19.9999 8.50021 19.9999H5.94421C5.31215 20.0171 4.69186 19.8267 4.17824 19.458C3.66463 19.0892 3.28597 18.5623 3.10021 17.9579C3.00287 17.6003 2.9775 17.2269 3.02557 16.8594C3.07364 16.4919 3.1942 16.1376 3.38024 15.817C3.56628 15.4965 3.81412 15.2161 4.10937 14.992C4.40462 14.768 4.74141 14.6048 5.10021 14.5119C5.33819 14.4505 5.55744 14.3315 5.73867 14.1655C5.9199 13.9995 6.05755 13.7915 6.13953 13.5598C6.2215 13.3281 6.24529 13.0798 6.20879 12.8367C6.17229 12.5937 6.07663 12.3633 5.93021 12.1659C5.45095 11.5195 5.12825 10.7706 4.98752 9.97832C4.84679 9.186 4.89187 8.37184 5.11921 7.59991C5.36923 6.73621 5.84314 5.95396 6.49292 5.33245C7.1427 4.71095 7.94525 4.27227 8.81921 4.06091C9.23357 3.96394 9.65766 3.91462 10.0832 3.91391C11.2086 3.91054 12.304 4.2766 13.2012 4.95591C14.302 5.79118 15.0263 7.0291 15.2152 8.39791C15.2577 8.72583 15.4067 9.03071 15.6395 9.26561C15.8722 9.50051 16.1757 9.6524 16.5032 9.69791C17.1952 9.79273 17.8613 10.0253 18.4619 10.3819C19.0625 10.7384 19.5856 11.2118 20.0002 11.7739C20.4137 12.3369 20.7085 12.978 20.8667 13.6584C21.0248 14.3388 21.043 15.0443 20.9202 15.7319C20.7932 16.4095 20.5283 17.0537 20.1419 17.6247C19.7556 18.1956 19.256 18.6811 18.6742 19.0509C18.4665 19.1879 18.2961 19.3745 18.1785 19.5937C18.0608 19.813 17.9996 20.0581 18.0002 20.3069C17.998 20.5779 18.0686 20.8445 18.2045 21.0789C18.3404 21.3134 18.5366 21.5071 18.7729 21.6398C19.0091 21.7726 19.2766 21.8396 19.5475 21.8338C19.8185 21.828 20.0829 21.7496 20.3132 21.6069C21.2459 21.008 22.0443 20.2222 22.6579 19.2991C23.2716 18.3761 23.6871 17.3357 23.8782 16.2439C24.0712 15.1586 24.0414 14.0454 23.7906 12.9719C23.5397 11.8985 23.0732 10.8873 22.4192 9.99991Z" fill="white"/>
<path d="M15.5002 22.4999V16.9999H17.1632C17.3609 16.9998 17.5542 16.9412 17.7186 16.8313C17.883 16.7214 18.0112 16.5652 18.0869 16.3825C18.1625 16.1998 18.1823 15.9988 18.1438 15.8049C18.1052 15.6109 18.01 15.4327 17.8702 15.2929L14.7072 12.1299C14.5197 11.9424 14.2653 11.8371 14.0002 11.8371C13.735 11.8371 13.4807 11.9424 13.2932 12.1299L10.1302 15.2929C9.99038 15.4327 9.89517 15.6109 9.85661 15.8049C9.81804 15.9988 9.83784 16.1998 9.91351 16.3825C9.98918 16.5652 10.1173 16.7214 10.2817 16.8313C10.4461 16.9412 10.6394 16.9998 10.8372 16.9999H12.5002V22.4999C12.5002 22.8977 12.6582 23.2792 12.9395 23.5605C13.2208 23.8418 13.6024 23.9999 14.0002 23.9999C14.398 23.9999 14.7795 23.8418 15.0608 23.5605C15.3421 23.2792 15.5002 22.8977 15.5002 22.4999Z" fill="white"/>
</g>
<defs>
<clipPath id="clip0_88_6361">
<rect width="24" height="24" fill="white"/>
</clipPath>
</defs>
</svg>
