<svg width="24" height="24" viewBox="0 0 24 24" fill="none" xmlns="http://www.w3.org/2000/svg">
<g clip-path="url(#clip0_88_6356)">
<path d="M23.46 2.273C23.084 1.58513 22.5298 1.01112 21.8556 0.611186C21.1813 0.211256 20.4119 0.000144594 19.628 0L4.37196 0C3.58804 0.000144594 2.8186 0.211256 2.14436 0.611186C1.47013 1.01112 0.915948 1.58513 0.539959 2.273C0.160272 2.95174 -0.0269757 3.72123 -0.00160008 4.49853C0.0237755 5.27583 0.260812 6.03147 0.683959 6.684C1.78147 8.36086 3.22537 9.78324 4.91854 10.8554C6.6117 11.9276 8.51485 12.6248 10.5 12.9V21H7.49996C7.10213 21 6.7206 21.158 6.4393 21.4393C6.15799 21.7206 5.99996 22.1022 5.99996 22.5C5.99996 22.8978 6.15799 23.2794 6.4393 23.5607C6.7206 23.842 7.10213 24 7.49996 24H16.5C16.8978 24 17.2793 23.842 17.5606 23.5607C17.8419 23.2794 18 22.8978 18 22.5C18 22.1022 17.8419 21.7206 17.5606 21.4393C17.2793 21.158 16.8978 21 16.5 21H13.5V12.9C15.4852 12.6247 17.3884 11.9274 19.0815 10.855C20.7747 9.78262 22.2186 8.36005 23.316 6.683C23.7389 6.03058 23.9758 5.27513 24.0012 4.49802C24.0266 3.72092 23.8395 2.95162 23.46 2.273ZM12 10C10.2383 9.92892 8.51919 9.4381 6.98558 8.56841C5.45196 7.69872 4.14825 6.47531 3.18296 5H20.817C19.8516 6.47525 18.5479 7.69862 17.0143 8.5683C15.4807 9.43799 13.7616 9.92883 12 10Z" fill="white"/>
</g>
<defs>
<clipPath id="clip0_88_6356">
<rect width="24" height="24" fill="white"/>
</clipPath>
</defs>
</svg>
