<svg width="24" height="24" viewBox="0 0 24 24" fill="none" xmlns="http://www.w3.org/2000/svg">
<g clip-path="url(#clip0_88_6352)">
<path d="M24.0001 5C23.9985 4.32732 23.7709 3.6747 23.3537 3.14695C22.9366 2.6192 22.3542 2.24696 21.7001 2.09C21.4267 1.46892 20.9787 0.940702 20.4106 0.569637C19.8424 0.198572 19.1787 0.000663221 18.5001 0L5.50011 0C4.82153 0.000663221 4.15778 0.198572 3.58964 0.569637C3.0215 0.940702 2.57348 1.46892 2.30011 2.09C1.67129 2.2495 1.11112 2.60853 0.703574 3.11327C0.29603 3.61801 0.0630791 4.24125 0.0396476 4.88956C0.0162161 5.53787 0.203567 6.1763 0.57361 6.70915C0.943653 7.24199 1.47645 7.64052 2.09211 7.845L3.53911 19.4C3.69899 20.6693 4.31622 21.8367 5.27513 22.6835C6.23404 23.5303 7.46882 23.9983 8.74811 24H15.2481C16.5274 23.9983 17.7622 23.5303 18.7211 22.6835C19.68 21.8367 20.2972 20.6693 20.4571 19.4L21.9061 7.845C22.5117 7.65412 23.041 7.27564 23.4174 6.76423C23.7938 6.25283 23.9979 5.63499 24.0001 5ZM18.2381 13H14.8161C13.9161 9.041 10.0831 9.043 9.18411 13H5.76211L5.13711 8H18.8631L18.2381 13ZM5.50011 3H18.5001C18.6327 3 18.7599 3.05268 18.8537 3.14645C18.9474 3.24021 19.0001 3.36739 19.0001 3.5V5H5.00011V3.5C5.00011 3.36739 5.05279 3.24021 5.14656 3.14645C5.24033 3.05268 5.3675 3 5.50011 3ZM15.2521 21H8.75211C8.20378 20.999 7.67461 20.7982 7.2636 20.4352C6.8526 20.0723 6.58793 19.572 6.51911 19.028L6.13711 16H9.18411C10.0841 19.959 13.9171 19.957 14.8161 16H17.8631L17.4841 19.029C17.4155 19.5728 17.151 20.073 16.7401 20.4358C16.3293 20.7986 15.8002 20.9992 15.2521 21Z" fill="white"/>
</g>
<defs>
<clipPath id="clip0_88_6352">
<rect width="24" height="24" fill="white"/>
</clipPath>
</defs>
</svg>
