<svg width="24" height="24" viewBox="0 0 24 24" fill="none" xmlns="http://www.w3.org/2000/svg">
<g clip-path="url(#clip0_88_6336)">
<path d="M23.9998 11.2459C23.8548 8.90625 23.0283 6.66019 21.6223 4.78457C20.2163 2.90894 18.2922 1.48573 16.0871 0.690381C13.882 -0.104971 11.4924 -0.237704 9.21286 0.308546C6.93328 0.854796 4.86336 2.05615 3.25827 3.76452C1.65317 5.47289 0.58305 7.6136 0.179822 9.92278C-0.223407 12.2319 0.0578811 14.6086 0.989011 16.7599C1.92014 18.9111 3.46041 20.7429 5.41996 22.0294C7.3795 23.3159 9.67267 24.0009 12.0168 23.9999H18.4998C19.9579 23.998 21.3558 23.418 22.3868 22.3869C23.4179 21.3559 23.9979 19.958 23.9998 18.4999V11.3399V11.2459ZM20.9998 18.4999C20.9998 19.1629 20.7364 19.7988 20.2675 20.2676C19.7987 20.7365 19.1628 20.9999 18.4998 20.9999H12.0168C10.7463 20.9991 9.49014 20.7306 8.33037 20.2118C7.17059 19.693 6.13318 18.9355 5.28578 17.9889C4.43464 17.0429 3.79559 15.9259 3.4115 14.7127C3.0274 13.4996 2.90714 12.2183 3.05878 10.9549C3.29804 8.96305 4.1932 7.10745 5.60322 5.68041C7.01324 4.25337 8.85798 3.33602 10.8468 3.07288C11.2359 3.02432 11.6276 2.99994 12.0198 2.99988C14.1159 2.99388 16.1474 3.7252 17.7588 5.06588C18.6982 5.84619 19.4697 6.80878 20.0267 7.89553C20.5837 8.98228 20.9148 10.1706 20.9998 11.3889V18.4999Z" fill="white"/>
<path d="M9.50014 11.0002H12.5001C12.898 11.0002 13.2795 10.8421 13.5608 10.5608C13.8421 10.2795 14.0001 9.89798 14.0001 9.50015C14.0001 9.10233 13.8421 8.7208 13.5608 8.43949C13.2795 8.15819 12.898 8.00015 12.5001 8.00015H9.50014C9.10232 8.00015 8.72079 8.15819 8.43948 8.43949C8.15818 8.7208 8.00014 9.10233 8.00014 9.50015C8.00014 9.89798 8.15818 10.2795 8.43948 10.5608C8.72079 10.8421 9.10232 11.0002 9.50014 11.0002Z" fill="white"/>
<path d="M16.5001 12.9998H9.50014C9.10232 12.9998 8.72079 13.1579 8.43948 13.4392C8.15818 13.7205 8.00014 14.102 8.00014 14.4998C8.00014 14.8977 8.15818 15.2792 8.43948 15.5605C8.72079 15.8418 9.10232 15.9998 9.50014 15.9998H16.5001C16.898 15.9998 17.2795 15.8418 17.5608 15.5605C17.8421 15.2792 18.0001 14.8977 18.0001 14.4998C18.0001 14.102 17.8421 13.7205 17.5608 13.4392C17.2795 13.1579 16.898 12.9998 16.5001 12.9998Z" fill="white"/>
</g>
<defs>
<clipPath id="clip0_88_6336">
<rect width="24" height="24" fill="white"/>
</clipPath>
</defs>
</svg>
