<svg width="24" height="24" viewBox="0 0 24 24" fill="none" xmlns="http://www.w3.org/2000/svg">
<g clip-path="url(#clip0_88_6192)">
<path d="M8.26193 17.9999H3.49993C2.57167 17.9999 1.68143 17.6311 1.02505 16.9748C0.368675 16.3184 -7.41202e-05 15.4281 -7.41202e-05 14.4999V9.23188C-0.00450554 7.85099 0.298271 6.48639 0.886322 5.23696C1.47437 3.98752 2.33297 2.88453 3.39993 2.00788C4.41144 1.16855 5.59926 0.568196 6.87495 0.251525C8.15063 -0.0651448 9.48132 -0.089975 10.7679 0.178884C12.5439 0.536133 14.1709 1.42048 15.4366 2.71649C16.7022 4.0125 17.5478 5.65998 17.8629 7.44388C18.0968 8.70249 18.0482 9.99734 17.7207 11.2349C17.3932 12.4724 16.7948 13.6218 15.9689 14.5999C15.0097 15.694 13.8228 16.5652 12.4916 17.1525C11.1603 17.7398 9.71671 18.029 8.26193 17.9999ZM8.97893 2.99988C7.6351 2.99712 6.33299 3.46643 5.29993 4.32588C4.58106 4.92564 4.00253 5.6758 3.60513 6.52347C3.20773 7.37115 3.00114 8.29568 2.99993 9.23188V14.4999C2.99993 14.6325 3.0526 14.7597 3.14637 14.8534C3.24014 14.9472 3.36732 14.9999 3.49993 14.9999H8.26193C9.27962 15.0275 10.2911 14.8328 11.2258 14.4293C12.1605 14.0259 12.996 13.4234 13.6739 12.6639C14.2156 12.019 14.6071 11.2618 14.8204 10.4471C15.0336 9.63236 15.0632 8.78043 14.9069 7.95288C14.6871 6.7706 14.1211 5.68022 13.2808 4.81998C12.4405 3.95974 11.3637 3.36838 10.1869 3.12088C9.78914 3.04143 9.38457 3.0009 8.97893 2.99988ZM20.9789 9.78188C20.6632 9.52829 20.3289 9.29866 19.9789 9.09488C19.975 10.229 19.7883 11.3552 19.4259 12.4299C20.4278 13.4294 20.9936 14.7847 20.9999 16.1999V20.4999C20.9999 20.6325 20.9472 20.7597 20.8535 20.8534C20.7597 20.9472 20.6325 20.9999 20.4999 20.9999H16.6399C15.8532 21.0174 15.0708 20.8788 14.3381 20.592C13.6053 20.3051 12.9367 19.8758 12.3709 19.3289C11.3102 19.6815 10.2078 19.8929 9.09193 19.9579C9.30246 20.3171 9.54192 20.6586 9.80793 20.9789C10.6577 21.9499 11.7095 22.7234 12.8897 23.2453C14.0698 23.7671 15.3498 24.0247 16.6399 23.9999H20.4999C21.4282 23.9999 22.3184 23.6311 22.9748 22.9748C23.6312 22.3184 23.9999 21.4281 23.9999 20.4999V16.1999C24.0044 14.9736 23.736 13.7617 23.2141 12.652C22.6923 11.5423 21.9302 10.5626 20.9829 9.78389L20.9789 9.78188Z" fill="white"/>
</g>
<defs>
<clipPath id="clip0_88_6192">
<rect width="24" height="24" fill="white"/>
</clipPath>
</defs>
</svg>
