<svg width="24" height="24" viewBox="0 0 24 24" fill="none" xmlns="http://www.w3.org/2000/svg">
<g clip-path="url(#clip0_88_6430)">
<path d="M18.5001 24.0001H13.0341C11.1609 24.0328 9.30148 23.6753 7.574 22.9504C5.84653 22.2254 4.28886 21.1488 3.00008 19.7891C1.90959 18.5969 1.08334 17.1878 0.575472 15.654C0.0676031 14.1202 -0.110415 12.4965 0.0530831 10.8891C0.301172 8.27373 1.39899 5.81158 3.17867 3.87913C4.95835 1.94667 7.32195 0.650247 9.90808 0.188087C11.607 -0.127043 13.3548 -0.0599994 15.0247 0.384353C16.6945 0.828706 18.2445 1.63922 19.5621 2.75709C20.957 3.92969 22.0775 5.39427 22.8443 7.04737C23.6112 8.70047 24.0057 10.5018 24.0001 12.3241V18.5001C23.9982 19.9582 23.4182 21.3561 22.3871 22.3871C21.3561 23.4182 19.9582 23.9982 18.5001 24.0001ZM12.0301 3.00009C9.78459 2.99815 7.61908 3.83374 5.95691 5.34353C4.29474 6.85332 3.25541 8.92874 3.04208 11.1641C2.91974 12.3565 3.0507 13.5613 3.42638 14.6995C3.80206 15.8378 4.41399 16.8838 5.22208 17.7691C6.22921 18.8196 7.44373 19.6493 8.78855 20.2055C10.1334 20.7617 11.5791 21.0323 13.0341 21.0001H18.5001C19.1631 21.0001 19.799 20.7367 20.2679 20.2679C20.7367 19.799 21.0001 19.1631 21.0001 18.5001V12.3241C21.0047 10.9399 20.7057 9.57154 20.1241 8.31544C19.5425 7.05934 18.6926 5.94607 17.6341 5.05409C16.0695 3.72523 14.0828 2.99706 12.0301 3.00009ZM10.5001 17.0001C10.1713 17.0005 9.84556 16.9361 9.54166 16.8105C9.23777 16.6849 8.96163 16.5006 8.72908 16.2681L5.95608 13.5771C5.67402 13.2994 5.51315 12.9215 5.50853 12.5257C5.5039 12.1299 5.6559 11.7483 5.93139 11.4641C6.20689 11.1799 6.58355 11.0161 6.97928 11.0085C7.37502 11.0008 7.75776 11.1498 8.04408 11.4231L10.5001 13.8001L15.9501 8.43109C16.0895 8.28915 16.2559 8.17638 16.4393 8.09934C16.6228 8.0223 16.8198 7.98254 17.0187 7.98237C17.2177 7.9822 17.4148 8.02162 17.5984 8.09834C17.782 8.17506 17.9485 8.28754 18.0882 8.42924C18.2279 8.57093 18.338 8.73901 18.4121 8.92368C18.4862 9.10835 18.5229 9.30592 18.5199 9.50488C18.5169 9.70385 18.4743 9.90023 18.3947 10.0826C18.3151 10.265 18.2 10.4296 18.0561 10.5671L12.2601 16.2751C12.0291 16.5061 11.7546 16.689 11.4525 16.8135C11.1505 16.9379 10.8268 17.0013 10.5001 17.0001Z" fill="white"/>
</g>
<defs>
<clipPath id="clip0_88_6430">
<rect width="24" height="24" fill="white"/>
</clipPath>
</defs>
</svg>
