<svg width="24" height="24" viewBox="0 0 24 24" fill="none" xmlns="http://www.w3.org/2000/svg">
<g clip-path="url(#clip0_88_6188)">
<path d="M7.29295 2.09123L5.75295 3.63223L2.55995 0.439226C2.27705 0.165989 1.89814 0.014797 1.50485 0.0182147C1.11155 0.0216323 0.735335 0.179386 0.457223 0.457498C0.179111 0.73561 0.0213576 1.11183 0.01794 1.50512C0.0145224 1.89842 0.165714 2.27732 0.438951 2.56023L3.63195 5.75323L2.09095 7.29323C1.95102 7.4332 1.85577 7.61155 1.81727 7.80568C1.77876 7.99982 1.79874 8.20102 1.87465 8.38381C1.95057 8.56659 2.07902 8.72273 2.24374 8.83246C2.40846 8.94219 2.60203 9.00058 2.79995 9.00023H7.56395C7.9448 9.00023 8.31005 8.84893 8.57936 8.57963C8.84866 8.31033 8.99995 7.94508 8.99995 7.56423V2.80023C9.00031 2.60231 8.94192 2.40873 8.83219 2.24401C8.72246 2.0793 8.56631 1.95085 8.38353 1.87493C8.20075 1.79901 7.99955 1.77904 7.80541 1.81754C7.61127 1.85605 7.43292 1.9513 7.29295 2.09123Z" fill="white"/>
<path d="M16.707 21.909L18.247 20.368L21.44 23.561C21.5784 23.7042 21.7439 23.8185 21.9269 23.8971C22.1099 23.9757 22.3067 24.0171 22.5059 24.0188C22.7051 24.0206 22.9026 23.9826 23.0869 23.9072C23.2713 23.8318 23.4387 23.7204 23.5796 23.5795C23.7204 23.4387 23.8318 23.2712 23.9072 23.0869C23.9826 22.9025 24.0206 22.705 24.0189 22.5059C24.0171 22.3067 23.9758 22.1099 23.8971 21.9269C23.8185 21.7438 23.7043 21.5783 23.561 21.44L20.368 18.247L21.909 16.707C22.0489 16.567 22.1442 16.3886 22.1827 16.1945C22.2212 16.0004 22.2012 15.7992 22.1253 15.6164C22.0494 15.4336 21.9209 15.2775 21.7562 15.1677C21.5915 15.058 21.3979 14.9996 21.2 15H16.436C16.0551 15 15.6899 15.1513 15.4206 15.4206C15.1513 15.6899 15 16.0551 15 16.436V21.2C14.9996 21.3979 15.058 21.5915 15.1678 21.7562C15.2775 21.9209 15.4336 22.0493 15.6164 22.1253C15.7992 22.2012 16.0004 22.2211 16.1945 22.1826C16.3887 22.1441 16.567 22.0489 16.707 21.909Z" fill="white"/>
<path d="M2.09101 16.707L3.63201 18.247L0.439011 21.44C0.295746 21.5783 0.181473 21.7438 0.102859 21.9269C0.0242458 22.1099 -0.0171335 22.3067 -0.0188643 22.5059C-0.020595 22.705 0.0173576 22.9025 0.0927789 23.0869C0.1682 23.2712 0.27958 23.4387 0.420419 23.5795C0.561258 23.7204 0.728736 23.8318 0.91308 23.9072C1.09742 23.9826 1.29494 24.0206 1.49411 24.0188C1.69328 24.0171 1.89011 23.9757 2.07312 23.8971C2.25612 23.8185 2.42164 23.7042 2.56001 23.561L5.75301 20.368L7.29301 21.909C7.43298 22.0489 7.61133 22.1441 7.80547 22.1826C7.99961 22.2211 8.20081 22.2012 8.38359 22.1253C8.56637 22.0493 8.72252 21.9209 8.83225 21.7562C8.94198 21.5915 9.00037 21.3979 9.00001 21.2V16.436C9.00001 16.0551 8.84872 15.6899 8.57942 15.4206C8.31011 15.1513 7.94486 15 7.56401 15H2.80001C2.60209 14.9996 2.40852 15.058 2.2438 15.1677C2.07908 15.2775 1.95063 15.4336 1.87471 15.6164C1.7988 15.7992 1.77883 16.0004 1.81733 16.1945C1.85583 16.3886 1.95108 16.567 2.09101 16.707Z" fill="white"/>
<path d="M21.909 7.29292L20.368 5.75292L23.561 2.55992C23.7043 2.42155 23.8185 2.25603 23.8971 2.07303C23.9758 1.89002 24.0171 1.69319 24.0189 1.49402C24.0206 1.29485 23.9826 1.09733 23.9072 0.912989C23.8318 0.728644 23.7204 0.561166 23.5796 0.420327C23.4387 0.279488 23.2713 0.168109 23.0869 0.0926873C22.9026 0.017266 22.7051 -0.0206865 22.5059 -0.0189558C22.3067 -0.0172251 22.1099 0.0241543 21.9269 0.102768C21.7439 0.181381 21.5784 0.295655 21.44 0.43892L18.247 3.63192L16.707 2.09092C16.567 1.95099 16.3887 1.85574 16.1945 1.81724C16.0004 1.77873 15.7992 1.79871 15.6164 1.87462C15.4336 1.95054 15.2775 2.07899 15.1678 2.24371C15.058 2.40842 14.9996 2.602 15 2.79992V7.56392C15 7.94477 15.1513 8.31002 15.4206 8.57933C15.6899 8.84863 16.0551 8.99992 16.436 8.99992H21.2C21.3979 9.00027 21.5915 8.94189 21.7562 8.83216C21.9209 8.72242 22.0494 8.56628 22.1253 8.3835C22.2012 8.20072 22.2212 7.99952 22.1827 7.80538C22.1442 7.61124 22.0489 7.43289 21.909 7.29292Z" fill="white"/>
</g>
<defs>
<clipPath id="clip0_88_6188">
<rect width="24" height="24" fill="white"/>
</clipPath>
</defs>
</svg>
