<svg width="24" height="24" viewBox="0 0 24 24" fill="none" xmlns="http://www.w3.org/2000/svg">
<g clip-path="url(#clip0_88_6183)">
<path d="M23.1359 18.8549C22.6623 18.7195 22.2309 18.4656 21.8826 18.1173C21.5342 17.7689 21.2804 17.3376 21.1449 16.8639C21.0737 16.6152 20.9235 16.3964 20.7169 16.2407C20.5103 16.085 20.2586 16.0007 19.9999 16.0007C19.7412 16.0007 19.4895 16.085 19.283 16.2407C19.0764 16.3964 18.9261 16.6152 18.8549 16.8639C18.7195 17.3376 18.4656 17.7689 18.1173 18.1173C17.7689 18.4656 17.3376 18.7195 16.8639 18.8549C16.6152 18.9261 16.3964 19.0764 16.2407 19.283C16.085 19.4895 16.0007 19.7412 16.0007 19.9999C16.0007 20.2586 16.085 20.5103 16.2407 20.7169C16.3964 20.9235 16.6152 21.0737 16.8639 21.1449C17.3376 21.2804 17.7689 21.5342 18.1173 21.8826C18.4656 22.2309 18.7195 22.6623 18.8549 23.1359C18.9261 23.3846 19.0764 23.6034 19.283 23.7591C19.4895 23.9149 19.7412 23.9991 19.9999 23.9991C20.2586 23.9991 20.5103 23.9149 20.7169 23.7591C20.9235 23.6034 21.0737 23.3846 21.1449 23.1359C21.2804 22.6623 21.5342 22.2309 21.8826 21.8826C22.2309 21.5342 22.6623 21.2804 23.1359 21.1449C23.3846 21.0737 23.6034 20.9235 23.7591 20.7169C23.9149 20.5103 23.9991 20.2586 23.9991 19.9999C23.9991 19.7412 23.9149 19.4895 23.7591 19.283C23.6034 19.0764 23.3846 18.9261 23.1359 18.8549Z" fill="white"/>
<path d="M15.137 2.85508C14.6631 2.71979 14.2316 2.46599 13.8831 2.11764C13.5345 1.76928 13.2805 1.33785 13.145 0.86408C13.0738 0.615365 12.9235 0.396597 12.7169 0.24086C12.5104 0.0851228 12.2587 0.00088501 12 0.00088501C11.7413 0.00088501 11.4896 0.0851228 11.283 0.24086C11.0764 0.396597 10.9262 0.615365 10.855 0.86408C10.7196 1.33774 10.4657 1.76908 10.1173 2.11743C9.76899 2.46578 9.33765 2.71965 8.86399 2.85508C8.61527 2.92629 8.39651 3.07654 8.24077 3.28312C8.08503 3.4897 8.00079 3.74137 8.00079 4.00008C8.00079 4.25879 8.08503 4.51046 8.24077 4.71704C8.39651 4.92362 8.61527 5.07387 8.86399 5.14508C9.33765 5.28051 9.76899 5.53438 10.1173 5.88273C10.4657 6.23108 10.7196 6.66242 10.855 7.13608C10.9262 7.3848 11.0764 7.60356 11.283 7.7593C11.4896 7.91504 11.7413 7.99928 12 7.99928C12.2587 7.99928 12.5104 7.91504 12.7169 7.7593C12.9235 7.60356 13.0738 7.3848 13.145 7.13608C13.2804 6.66242 13.5343 6.23108 13.8826 5.88273C14.231 5.53438 14.6623 5.28051 15.136 5.14508C15.3847 5.07398 15.6036 4.92383 15.7594 4.71731C15.9152 4.5108 15.9996 4.25916 15.9997 4.00046C15.9998 3.74175 15.9157 3.49004 15.76 3.28339C15.6044 3.07674 15.3857 2.92639 15.137 2.85508Z" fill="white"/>
<path d="M0.862879 21.1449C1.33654 21.2804 1.76788 21.5342 2.11623 21.8826C2.46458 22.2309 2.71844 22.6623 2.85388 23.1359C2.92508 23.3846 3.07534 23.6034 3.28192 23.7591C3.4885 23.9149 3.74017 23.9991 3.99888 23.9991C4.25759 23.9991 4.50926 23.9149 4.71584 23.7591C4.92242 23.6034 5.07267 23.3846 5.14388 23.1359C5.27931 22.6623 5.53318 22.2309 5.88153 21.8826C6.22988 21.5342 6.66122 21.2804 7.13488 21.1449C7.38359 21.0737 7.60236 20.9235 7.7581 20.7169C7.91384 20.5103 7.99807 20.2586 7.99807 19.9999C7.99807 19.7412 7.91384 19.4895 7.7581 19.283C7.60236 19.0764 7.38359 18.9261 7.13488 18.8549C6.66122 18.7195 6.22988 18.4656 5.88153 18.1173C5.53318 17.7689 5.27931 17.3376 5.14388 16.8639C5.07267 16.6152 4.92242 16.3964 4.71584 16.2407C4.50926 16.085 4.25759 16.0007 3.99888 16.0007C3.74017 16.0007 3.4885 16.085 3.28192 16.2407C3.07534 16.3964 2.92508 16.6152 2.85388 16.8639C2.71853 17.3375 2.46482 17.7687 2.11666 18.1171C1.76849 18.4654 1.33735 18.7193 0.863879 18.8549C0.615132 18.926 0.396299 19.0762 0.240472 19.2827C0.084644 19.4892 0.000296192 19.7408 0.000183219 19.9995C7.02464e-05 20.2583 0.0841982 20.51 0.239845 20.7166C0.395493 20.9233 0.614194 21.0736 0.862879 21.1449Z" fill="white"/>
<path d="M5.50006 15C6.32849 15 7.00006 14.3284 7.00006 13.5C7.00006 12.6716 6.32849 12 5.50006 12C4.67163 12 4.00006 12.6716 4.00006 13.5C4.00006 14.3284 4.67163 15 5.50006 15Z" fill="white"/>
<path d="M1.5 11.0002C2.32843 11.0002 3 10.3286 3 9.50015C3 8.67173 2.32843 8.00015 1.5 8.00015C0.671573 8.00015 0 8.67173 0 9.50015C0 10.3286 0.671573 11.0002 1.5 11.0002Z" fill="white"/>
<path d="M5.50006 6.99985C6.32849 6.99985 7.00006 6.32827 7.00006 5.49985C7.00006 4.67142 6.32849 3.99985 5.50006 3.99985C4.67163 3.99985 4.00006 4.67142 4.00006 5.49985C4.00006 6.32827 4.67163 6.99985 5.50006 6.99985Z" fill="white"/>
<path d="M1.5 3C2.32843 3 3 2.32843 3 1.5C3 0.671573 2.32843 0 1.5 0C0.671573 0 0 0.671573 0 1.5C0 2.32843 0.671573 3 1.5 3Z" fill="white"/>
<path d="M22.5 15C23.3284 15 24 14.3284 24 13.5C24 12.6716 23.3284 12 22.5 12C21.6716 12 21 12.6716 21 13.5C21 14.3284 21.6716 15 22.5 15Z" fill="white"/>
<path d="M18.4999 11.0002C19.3284 11.0002 19.9999 10.3286 19.9999 9.50015C19.9999 8.67173 19.3284 8.00015 18.4999 8.00015C17.6715 8.00015 16.9999 8.67173 16.9999 9.50015C16.9999 10.3286 17.6715 11.0002 18.4999 11.0002Z" fill="white"/>
<path d="M22.5 6.99985C23.3284 6.99985 24 6.32827 24 5.49985C24 4.67142 23.3284 3.99985 22.5 3.99985C21.6716 3.99985 21 4.67142 21 5.49985C21 6.32827 21.6716 6.99985 22.5 6.99985Z" fill="white"/>
<path d="M18.4999 3C19.3284 3 19.9999 2.32843 19.9999 1.5C19.9999 0.671573 19.3284 0 18.4999 0C17.6715 0 16.9999 0.671573 16.9999 1.5C16.9999 2.32843 17.6715 3 18.4999 3Z" fill="white"/>
<path d="M14.5001 24C15.3285 24 16.0001 23.3284 16.0001 22.5C16.0001 21.6716 15.3285 21 14.5001 21C13.6716 21 13.0001 21.6716 13.0001 22.5C13.0001 23.3284 13.6716 24 14.5001 24Z" fill="white"/>
<path d="M10.5 20.0002C11.3284 20.0002 12 19.3286 12 18.5002C12 17.6717 11.3284 17.0002 10.5 17.0002C9.67157 17.0002 9 17.6717 9 18.5002C9 19.3286 9.67157 20.0002 10.5 20.0002Z" fill="white"/>
<path d="M14.5001 15.9998C15.3285 15.9998 16.0001 15.3283 16.0001 14.4998C16.0001 13.6714 15.3285 12.9998 14.5001 12.9998C13.6716 12.9998 13.0001 13.6714 13.0001 14.4998C13.0001 15.3283 13.6716 15.9998 14.5001 15.9998Z" fill="white"/>
<path d="M10.5 12C11.3284 12 12 11.3284 12 10.5C12 9.67157 11.3284 9 10.5 9C9.67157 9 9 9.67157 9 10.5C9 11.3284 9.67157 12 10.5 12Z" fill="white"/>
</g>
<defs>
<clipPath id="clip0_88_6183">
<rect width="24" height="24" fill="white"/>
</clipPath>
</defs>
</svg>
