<svg width="24" height="24" viewBox="0 0 24 24" fill="none" xmlns="http://www.w3.org/2000/svg">
<g clip-path="url(#clip0_88_6330)">
<path d="M18.0001 13.4999V7.5709C18.0035 6.71659 17.8373 5.8701 17.5111 5.08048C17.185 4.29087 16.7054 3.57382 16.1001 2.9709L15.0251 1.8999C14.4222 1.29463 13.7052 0.815037 12.9155 0.488891C12.1259 0.162746 11.2794 -0.00346202 10.4251 -0.000102664H7.50012C6.04192 0.00148551 4.64389 0.581458 3.61279 1.61256C2.58168 2.64367 2.00171 4.04169 2.00012 5.4999V13.4999C2.00171 14.9581 2.58168 16.3561 3.61279 17.3872C4.64389 18.4183 6.04192 18.9983 7.50012 18.9999H12.5001C13.9583 18.9983 15.3563 18.4183 16.3875 17.3872C17.4186 16.3561 17.9985 14.9581 18.0001 13.4999ZM5.00012 13.4999V5.4999C5.00012 4.83686 5.26351 4.20097 5.73236 3.73213C6.2012 3.26329 6.83708 2.9999 7.50012 2.9999H10.4291C10.6207 3.00291 10.8116 3.02164 11.0001 3.0559V4.9999C11.0001 5.53033 11.2108 6.03904 11.5859 6.41411C11.961 6.78918 12.4697 6.9999 13.0001 6.9999H14.9441C14.9784 7.18838 14.9971 7.37935 15.0001 7.5709V13.4999C15.0001 14.1629 14.7367 14.7988 14.2679 15.2677C13.799 15.7365 13.1632 15.9999 12.5001 15.9999H7.50012C6.83708 15.9999 6.2012 15.7365 5.73236 15.2677C5.26351 14.7988 5.00012 14.1629 5.00012 13.4999ZM23.0001 8.4999V18.4999C22.9985 19.9581 22.4186 21.3561 21.3875 22.3872C20.3563 23.4183 18.9583 23.9983 17.5001 23.9999H9.50012C9.1023 23.9999 8.72077 23.8419 8.43946 23.5606C8.15816 23.2793 8.00012 22.8977 8.00012 22.4999C8.00012 22.1021 8.15816 21.7205 8.43946 21.4392C8.72077 21.1579 9.1023 20.9999 9.50012 20.9999H17.5001C18.1632 20.9999 18.799 20.7365 19.2679 20.2677C19.7367 19.7988 20.0001 19.1629 20.0001 18.4999V8.4999C20.0001 8.10207 20.1582 7.72054 20.4395 7.43924C20.7208 7.15793 21.1023 6.9999 21.5001 6.9999C21.8979 6.9999 22.2795 7.15793 22.5608 7.43924C22.8421 7.72054 23.0001 8.10207 23.0001 8.4999Z" fill="white"/>
</g>
<defs>
<clipPath id="clip0_88_6330">
<rect width="24" height="24" fill="white"/>
</clipPath>
</defs>
</svg>
