<svg width="24" height="24" viewBox="0 0 24 24" fill="none" xmlns="http://www.w3.org/2000/svg">
<g clip-path="url(#clip0_88_6327)">
<path d="M23.8681 5.31208C23.9974 4.93534 24.0349 4.53313 23.9774 4.13896C23.9199 3.7448 23.769 3.37009 23.5373 3.04605C23.3056 2.72201 22.9998 2.45803 22.6455 2.27609C22.2911 2.09414 21.8984 1.99951 21.5001 2.00008H18.9491C19.0165 1.79345 19.0387 1.57471 19.0139 1.35875C18.9892 1.1428 18.9182 0.934718 18.8058 0.748688C18.6934 0.562658 18.5422 0.403055 18.3625 0.280759C18.1828 0.158463 17.9788 0.0763481 17.7645 0.0400129C17.5502 0.00367763 17.3306 0.0139759 17.1206 0.0702057C16.9107 0.126435 16.7153 0.227275 16.5478 0.36585C16.3804 0.504425 16.2447 0.677478 16.1502 0.873212C16.0557 1.06895 16.0045 1.28276 16.0001 1.50008C16.0001 1.63269 15.9474 1.75986 15.8536 1.85363C15.7599 1.9474 15.6327 2.00008 15.5001 2.00008H8.50007C8.36746 2.00008 8.24028 1.9474 8.14651 1.85363C8.05274 1.75986 8.00007 1.63269 8.00007 1.50008C7.99566 1.28276 7.94445 1.06895 7.84992 0.873212C7.7554 0.677478 7.61978 0.504425 7.45232 0.36585C7.28485 0.227275 7.08948 0.126435 6.87952 0.0702057C6.66955 0.0139759 6.44993 0.00367763 6.23563 0.0400129C6.02132 0.0763481 5.81737 0.158463 5.63767 0.280759C5.45798 0.403055 5.30676 0.562658 5.19434 0.748688C5.08191 0.934718 5.01091 1.1428 4.98619 1.35875C4.96147 1.57471 4.98359 1.79345 5.05107 2.00008H2.50007C2.10172 1.99951 1.70901 2.09414 1.35465 2.27609C1.00029 2.45803 0.694531 2.72201 0.462852 3.04605C0.231172 3.37009 0.0802781 3.7448 0.0227395 4.13896C-0.0347992 4.53313 0.00268367 4.93534 0.132065 5.31208C0.470294 6.44 1.03515 7.48703 1.79207 8.38908L5.03107 21.8061C5.10382 22.4101 5.39506 22.9667 5.84987 23.3709C6.30468 23.775 6.89163 23.9988 7.50007 24.0001H16.5001C17.1085 23.9988 17.6955 23.775 18.1503 23.3709C18.6051 22.9667 18.8963 22.4101 18.9691 21.8061L22.2081 8.38908C22.965 7.48703 23.5298 6.44 23.8681 5.31208ZM16.5591 19.0061L13.5001 19.0001V14.5001C13.5045 13.4568 13.875 12.4481 14.5471 11.6501C14.7906 11.846 15.0893 11.961 15.4014 11.9789C15.7134 11.9968 16.0233 11.9168 16.2877 11.75C16.552 11.5833 16.7577 11.3381 16.8759 11.0487C16.9942 10.7593 17.019 10.4403 16.9471 10.1361C17.2914 10.0492 17.6449 10.0035 18.0001 10.0001C18.0001 10.0001 18.6561 9.99008 18.7361 9.98708L16.5591 19.0061ZM7.44107 19.0061L5.26407 9.98708C5.34407 9.99008 6.00007 10.0001 6.00007 10.0001C6.35388 10.0038 6.706 10.0495 7.04907 10.1361C6.97711 10.4403 7.00198 10.7593 7.1202 11.0487C7.23843 11.3381 7.44409 11.5833 7.70847 11.75C7.97284 11.9168 8.28271 11.9968 8.59478 11.9789C8.90685 11.961 9.20552 11.846 9.44907 11.6501C10.1225 12.4476 10.4945 13.4563 10.5001 14.5001V19.0001L7.44107 19.0061ZM16.5341 5.00008C17.3939 5.58377 18.2037 6.23803 18.9551 6.95608C18.8081 6.98308 18.0001 7.00008 18.0001 7.00008C16.8353 7.00066 15.6867 7.27252 14.6452 7.79411C13.6038 8.3157 12.6981 9.07269 12.0001 10.0051C11.302 9.07269 10.3963 8.3157 9.35489 7.79411C8.31344 7.27252 7.16483 7.00066 6.00007 7.00008C6.00007 7.00008 5.19207 6.98308 5.04507 6.95608C5.79652 6.23818 6.6063 5.58393 7.46607 5.00008H16.5341Z" fill="white"/>
</g>
<defs>
<clipPath id="clip0_88_6327">
<rect width="24" height="24" fill="white"/>
</clipPath>
</defs>
</svg>
