<svg width="24" height="24" viewBox="0 0 24 24" fill="none" xmlns="http://www.w3.org/2000/svg">
<g clip-path="url(#clip0_88_6181)">
<path d="M22 11.3512V9.50021C21.9973 8.65459 21.6881 7.83863 21.1296 7.20366C20.5712 6.5687 19.8014 6.15781 18.963 6.04721C18.8699 4.06581 18.3137 2.13382 17.339 0.40621C17.2378 0.268793 17.1029 0.159743 16.9474 0.0895619C16.7918 0.0193804 16.6208 -0.00956908 16.4508 0.00550092C16.2808 0.0205709 16.1176 0.0791528 15.9768 0.175606C15.836 0.272059 15.7224 0.403134 15.647 0.55621C15.35 1.28806 14.8398 1.9137 14.1826 2.35185C13.5255 2.79001 12.7518 3.02044 11.962 3.01321H10C6.92 3.01321 5.74 4.71321 5.286 6.02221C4.39911 6.07653 3.56608 6.46614 2.95587 7.11201C2.34565 7.75788 2.00392 8.61167 2 9.50021V11.3512C1.40362 11.6341 0.899384 12.0799 0.5455 12.637C0.191615 13.1942 0.00250632 13.8401 0 14.5002V18.5002C0.00185226 19.9583 0.58191 21.3562 1.61296 22.3873C2.64401 23.4183 4.04188 23.9984 5.5 24.0002H18.5C19.9581 23.9984 21.356 23.4183 22.387 22.3873C23.4181 21.3562 23.9981 19.9583 24 18.5002V14.5002C23.9975 13.8401 23.8084 13.1942 23.4545 12.637C23.1006 12.0799 22.5964 11.6341 22 11.3512ZM5.5 9.00021H18.5C18.6326 9.00021 18.7598 9.05289 18.8536 9.14666C18.9473 9.24042 19 9.3676 19 9.50021V11.0002H5V9.50021C5 9.3676 5.05268 9.24042 5.14645 9.14666C5.24021 9.05289 5.36739 9.00021 5.5 9.00021ZM21 18.5002C21 19.1633 20.7366 19.7991 20.2678 20.268C19.7989 20.7368 19.163 21.0002 18.5 21.0002H5.5C4.83696 21.0002 4.20107 20.7368 3.73223 20.268C3.26339 19.7991 3 19.1633 3 18.5002V14.5002C3 14.3676 3.05268 14.2404 3.14645 14.1467C3.24021 14.0529 3.36739 14.0002 3.5 14.0002H20.5C20.6326 14.0002 20.7598 14.0529 20.8536 14.1467C20.9473 14.2404 21 14.3676 21 14.5002V18.5002Z" fill="white"/>
</g>
<defs>
<clipPath id="clip0_88_6181">
<rect width="24" height="24" fill="white"/>
</clipPath>
</defs>
</svg>
