<svg width="24" height="24" viewBox="0 0 24 24" fill="none" xmlns="http://www.w3.org/2000/svg">
<g clip-path="url(#clip0_88_6503)">
<path d="M23.258 4.94712C22.1295 3.59933 20.695 2.54107 19.0742 1.86071C17.4534 1.18034 15.6933 0.897608 13.941 1.03612C13.7512 0.830725 13.5357 0.650582 13.3 0.500124C12.8909 0.24705 12.432 0.0852215 11.9546 0.025682C11.4773 -0.0338576 10.9927 0.0102941 10.534 0.155123C8.5159 0.782163 6.64499 1.80974 5.03314 3.1764C3.42129 4.54307 2.10159 6.22075 1.15298 8.10912C0.748142 8.90967 0.411614 9.74296 0.146978 10.6001C0.0059718 11.0549 -0.0354845 11.5348 0.0254257 12.0071C0.0863358 12.4793 0.248185 12.933 0.499978 13.3371C0.654033 13.5775 0.839318 13.7965 1.05098 13.9881C0.918981 15.7324 1.20453 17.483 1.88398 19.0949C2.56342 20.7068 3.61719 22.1337 4.95798 23.2571C5.32798 23.566 5.76298 23.7874 6.23051 23.9046C6.69804 24.0218 7.186 24.0319 7.65798 23.9341C8.14797 23.8362 8.60944 23.6286 9.00777 23.3269C9.4061 23.0252 9.73096 22.6373 9.95798 22.1921L13.168 15.9171C13.8081 15.6977 14.3897 15.335 14.8683 14.8567C15.347 14.3784 15.7101 13.7971 15.93 13.1571L22.187 9.94812C22.6319 9.72099 23.0197 9.39608 23.3212 8.99776C23.6227 8.59943 23.8302 8.13803 23.928 7.64812C24.0269 7.17652 24.018 6.68867 23.902 6.22098C23.7859 5.75329 23.5658 5.31784 23.258 4.94712ZM3.01498 11.4841C3.62675 9.49587 4.71288 7.68622 6.17973 6.21118C7.64659 4.73614 9.45016 3.63995 11.435 3.01712C11.4815 3.00213 11.5307 2.99715 11.5793 3.00249C11.6279 3.00783 11.6748 3.02338 11.717 3.04812C11.7527 3.06928 11.7831 3.09828 11.806 3.13293C11.8289 3.16758 11.8436 3.20697 11.849 3.24812L13.165 11.4481C13.2005 11.6815 13.1808 11.9201 13.1074 12.1445C13.034 12.3689 12.909 12.573 12.7424 12.7403C12.5758 12.9076 12.3722 13.0334 12.1481 13.1078C11.924 13.1821 11.6855 13.2027 11.452 13.1681L3.25198 11.8861C3.21066 11.8796 3.1713 11.8641 3.13672 11.8406C3.10214 11.817 3.0732 11.7862 3.05198 11.7501C3.02613 11.7115 3.00937 11.6674 3.00296 11.6214C2.99655 11.5753 3.00066 11.5284 3.01498 11.4841ZM7.29298 20.8251C7.27064 20.8682 7.23892 20.9058 7.20016 20.935C7.16139 20.9643 7.11657 20.9845 7.06898 20.9941C7.03783 21.003 7.005 21.0042 6.97329 20.9976C6.94159 20.9909 6.91197 20.9767 6.88698 20.9561C6.01838 20.2305 5.31504 19.3274 4.82417 18.3076C4.33331 17.2877 4.06627 16.1747 4.04098 15.0431L9.79098 15.9431L7.29298 20.8251ZM20.824 7.27912L15.936 9.78512L15.011 4.01712C16.1485 4.0386 17.2682 4.30449 18.2939 4.79674C19.3197 5.289 20.2276 5.99612 20.956 6.87012C20.9767 6.89523 20.991 6.92502 20.9977 6.95691C21.0043 6.98881 21.003 7.02183 20.994 7.05312C20.9844 7.10112 20.9641 7.14634 20.9347 7.18545C20.9052 7.22457 20.8674 7.25658 20.824 7.27912Z" fill="white"/>
</g>
<defs>
<clipPath id="clip0_88_6503">
<rect width="24" height="24" fill="white"/>
</clipPath>
</defs>
</svg>
