<svg width="24" height="24" viewBox="0 0 24 24" fill="none" xmlns="http://www.w3.org/2000/svg">
<path d="M14.1211 11.9998L18.0001 8.11676C18.2519 7.83052 18.3853 7.45912 18.3731 7.07805C18.361 6.69698 18.2042 6.33485 17.9346 6.06526C17.665 5.79567 17.3028 5.63885 16.9218 5.62668C16.5407 5.61452 16.1693 5.74791 15.8831 5.99976L12.0001 9.87876L8.11006 5.98776C7.97073 5.84843 7.80532 5.7379 7.62327 5.6625C7.44122 5.58709 7.24611 5.54828 7.04906 5.54828C6.85202 5.54828 6.6569 5.58709 6.47485 5.6625C6.29281 5.7379 6.12739 5.84843 5.98806 5.98776C5.84873 6.12709 5.7382 6.2925 5.6628 6.47455C5.58739 6.6566 5.54858 6.85171 5.54858 7.04876C5.54858 7.2458 5.58739 7.44092 5.6628 7.62297C5.7382 7.80501 5.84873 7.97043 5.98806 8.10976L9.87906 11.9998L6.00006 15.8818C5.84793 16.0177 5.72515 16.1833 5.63923 16.3684C5.5533 16.5535 5.50604 16.7541 5.50033 16.9581C5.49462 17.1621 5.53059 17.3651 5.60603 17.5547C5.68147 17.7443 5.7948 17.9165 5.93908 18.0607C6.08336 18.205 6.25557 18.3184 6.44516 18.3938C6.63475 18.4692 6.83774 18.5052 7.0417 18.4995C7.24567 18.4938 7.44633 18.4465 7.6314 18.3606C7.81648 18.2747 7.98207 18.1519 8.11806 17.9998L12.0001 14.1208L15.8781 17.9998C16.1595 18.2812 16.5411 18.4392 16.9391 18.4392C17.337 18.4392 17.7187 18.2812 18.0001 17.9998C18.2815 17.7184 18.4395 17.3367 18.4395 16.9388C18.4395 16.5408 18.2815 16.1592 18.0001 15.8778L14.1211 11.9998Z" fill="white"/>
</svg>
