<svg width="24" height="24" viewBox="0 0 24 24" fill="none" xmlns="http://www.w3.org/2000/svg">
<g clip-path="url(#clip0_88_6499)">
<path d="M23.5846 11.0753C21.9091 6.8609 18.1282 3.84815 13.6461 3.15595C14.2603 2.24372 14.0187 1.00626 13.1065 0.392013C12.1942 -0.22219 10.9568 0.0194035 10.3425 0.931638C9.88987 1.60397 9.88987 2.48358 10.3425 3.15595C5.86162 3.84914 2.082 6.86175 0.40706 11.0753C-0.214362 12.4085 -0.118033 13.9657 0.662951 15.2122C1.15561 15.9647 1.89764 16.5196 2.75878 16.7793L3.36511 19.9106C3.81858 22.252 5.86683 23.9443 8.25173 23.948H15.737C18.121 23.9443 20.1691 22.2538 20.6246 19.9136L21.2299 16.7833C22.0926 16.5229 22.8356 15.9661 23.3278 15.2112C24.1085 13.9651 24.2052 12.4084 23.5846 11.0753ZM17.6924 19.3471C17.5116 20.2842 16.6913 20.9611 15.737 20.961H8.25173C7.29778 20.9607 6.47808 20.2838 6.29728 19.3471L6.03145 17.9741C6.74165 17.9701 7.43329 17.7469 8.01178 17.3349C9.21004 18.1634 10.7961 18.1634 11.9944 17.3349C13.1926 18.1634 14.7787 18.1634 15.977 17.3349C16.5555 17.7469 17.2471 17.9702 17.9573 17.9741L17.6924 19.3471ZM20.8247 13.5813C20.6297 13.8621 20.3003 14.0183 19.9595 13.9915C19.3311 14.0065 18.7428 14.3034 18.3575 14.8C18.1732 15.015 17.8494 15.0399 17.6345 14.8556C17.6145 14.8385 17.596 14.8199 17.5789 14.8C16.921 13.9152 15.6705 13.7313 14.7858 14.3891C14.6295 14.5053 14.4911 14.6437 14.3749 14.8C14.1906 15.015 13.8668 15.0399 13.6519 14.8556C13.632 14.8385 13.6134 14.8199 13.5963 14.8C12.9342 13.9149 11.6801 13.7342 10.795 14.3962C10.6418 14.5109 10.5059 14.6468 10.3913 14.8C10.208 15.0144 9.88561 15.0397 9.67115 14.8565C9.6509 14.8391 9.63201 14.8203 9.61467 14.8C8.95204 13.9147 7.69725 13.7341 6.81192 14.3968C6.65897 14.5112 6.52317 14.647 6.4087 14.8C6.22542 15.0144 5.90301 15.0397 5.68856 14.8565C5.66831 14.8391 5.64942 14.8203 5.63208 14.8C5.24372 14.3066 4.65675 14.0105 4.02909 13.9915C3.68906 14.0182 3.36047 13.8624 3.16589 13.5823C2.94464 13.1816 2.93423 12.6978 3.138 12.288C6.66656 3.93951 17.3429 3.96145 20.8515 12.288C21.0569 12.6971 21.0468 13.1812 20.8247 13.5813Z" fill="white"/>
</g>
<defs>
<clipPath id="clip0_88_6499">
<rect width="24" height="24" fill="white"/>
</clipPath>
</defs>
</svg>
