<svg width="24" height="24" viewBox="0 0 24 24" fill="none" xmlns="http://www.w3.org/2000/svg">
<g clip-path="url(#clip0_88_6305)">
<path d="M19.227 0.00019604H17.31C16.683 -0.00126893 16.0619 0.121721 15.4827 0.36204C14.9036 0.602358 14.3778 0.955226 13.936 1.4002L10.4 4.9352C9.50728 5.83244 9.00424 7.04547 9.00004 8.3112V11.9822C6.36504 13.9352 3.35804 16.1882 2.92304 16.6232C2.51749 17.0192 2.22976 17.5199 2.09188 18.0697C1.95399 18.6195 1.97136 19.1967 2.14204 19.7372L0.442044 21.4372C0.160649 21.7186 0.00256347 22.1002 0.00256348 22.4982C0.00256348 22.8961 0.160649 23.2778 0.442044 23.5592C0.723439 23.8406 1.10509 23.9987 1.50304 23.9987C1.901 23.9987 2.28265 23.8406 2.56404 23.5592L4.26404 21.8592C4.80431 22.0298 5.3813 22.0472 5.93087 21.9095C6.48045 21.7718 6.98106 21.4844 7.37704 21.0792C7.81204 20.6442 10.066 17.6372 12.019 15.0012H15.69C16.3171 15.0027 16.9382 14.8797 17.5174 14.6394C18.0965 14.399 18.6222 14.0462 19.064 13.6012L22.6 10.0652C23.4928 9.16795 23.9958 7.95492 24 6.6892V4.7722C23.9985 3.5069 23.495 2.29389 22.6003 1.39928C21.7055 0.504675 20.4923 0.00151913 19.227 0.00019604ZM21 6.6892C20.9989 7.15922 20.8124 7.60983 20.481 7.9432L16.943 11.4802C16.7789 11.6454 16.5837 11.7764 16.3686 11.8657C16.1536 11.955 15.9229 12.0007 15.69 12.0002H14.232L14.541 11.5802L18.561 7.5612C18.7004 7.42186 18.8109 7.25645 18.8863 7.07441C18.9617 6.89236 19.0005 6.69724 19.0005 6.5002C19.0005 6.30315 18.9617 6.10803 18.8863 5.92599C18.8109 5.74394 18.7004 5.57853 18.561 5.4392C18.4217 5.29986 18.2563 5.18934 18.0743 5.11393C17.8922 5.03853 17.6971 4.99972 17.5 4.99972C17.303 4.99972 17.1079 5.03853 16.9258 5.11393C16.7438 5.18934 16.5784 5.29986 16.439 5.4392L12.418 9.4612L12 9.7682V8.3112C12.0012 7.84117 12.1877 7.39056 12.519 7.0572L16.057 3.5202C16.2211 3.35498 16.4164 3.22395 16.6315 3.1347C16.8465 3.04544 17.0772 2.99972 17.31 3.0002H19.227C19.697 3.00046 20.1477 3.18721 20.4801 3.51943C20.8125 3.85166 20.9995 4.30222 21 4.7722V6.6892Z" fill="white"/>
</g>
<defs>
<clipPath id="clip0_88_6305">
<rect width="24" height="24" fill="white"/>
</clipPath>
</defs>
</svg>
