<svg width="24" height="24" viewBox="0 0 24 24" fill="none" xmlns="http://www.w3.org/2000/svg">
<g clip-path="url(#clip0_88_6252)">
<path d="M22.562 8.49994C23.2537 7.79837 23.7223 6.90792 23.9091 5.94062C24.0958 4.97332 23.9923 3.97239 23.6116 3.06379C23.2308 2.15518 22.5898 1.37949 21.7692 0.834311C20.9487 0.289136 19.9852 -0.00116268 19 -5.78935e-05H5.00004C4.01487 -0.00116268 3.05139 0.289136 2.23083 0.834311C1.41026 1.37949 0.76927 2.15518 0.38851 3.06379C0.0077506 3.97239 -0.0957667 4.97332 0.0909838 5.94062C0.277734 6.90792 0.746409 7.79837 1.43804 8.49994C0.51664 9.43183 -0.00012207 10.6895 -0.00012207 11.9999C-0.00012207 13.3104 0.51664 14.5681 1.43804 15.4999C0.746409 16.2015 0.277734 17.092 0.0909838 18.0593C-0.0957667 19.0266 0.0077506 20.0275 0.38851 20.9361C0.76927 21.8447 1.41026 22.6204 2.23083 23.1656C3.05139 23.7107 4.01487 24.001 5.00004 23.9999H19C19.9852 24.001 20.9487 23.7107 21.7692 23.1656C22.5898 22.6204 23.2308 21.8447 23.6116 20.9361C23.9923 20.0275 24.0958 19.0266 23.9091 18.0593C23.7223 17.092 23.2537 16.2015 22.562 15.4999C23.4834 14.5681 24.0002 13.3104 24.0002 11.9999C24.0002 10.6895 23.4834 9.43183 22.562 8.49994ZM5.00004 13.9999C4.4696 13.9999 3.96089 13.7892 3.58582 13.4142C3.21075 13.0391 3.00004 12.5304 3.00004 11.9999C3.00004 11.4695 3.21075 10.9608 3.58582 10.5857C3.96089 10.2107 4.4696 9.99994 5.00004 9.99994V10.4999C5.00004 10.8978 5.15807 11.2793 5.43938 11.5606C5.72068 11.8419 6.10221 11.9999 6.50004 11.9999C6.89786 11.9999 7.27939 11.8419 7.5607 11.5606C7.842 11.2793 8.00004 10.8978 8.00004 10.4999V9.99994H10V10.4999C10 10.8978 10.1581 11.2793 10.4394 11.5606C10.7207 11.8419 11.1022 11.9999 11.5 11.9999C11.8979 11.9999 12.2794 11.8419 12.5607 11.5606C12.842 11.2793 13 10.8978 13 10.4999V9.99994H19C19.5305 9.99994 20.0392 10.2107 20.4142 10.5857C20.7893 10.9608 21 11.4695 21 11.9999C21 12.5304 20.7893 13.0391 20.4142 13.4142C20.0392 13.7892 19.5305 13.9999 19 13.9999H5.00004ZM5.00004 2.99994V3.49994C5.00004 3.89777 5.15807 4.2793 5.43938 4.5606C5.72068 4.84191 6.10221 4.99994 6.50004 4.99994C6.89786 4.99994 7.27939 4.84191 7.5607 4.5606C7.842 4.2793 8.00004 3.89777 8.00004 3.49994V2.99994H10V3.49994C10 3.89777 10.1581 4.2793 10.4394 4.5606C10.7207 4.84191 11.1022 4.99994 11.5 4.99994C11.8979 4.99994 12.2794 4.84191 12.5607 4.5606C12.842 4.2793 13 3.89777 13 3.49994V2.99994H19C19.5305 2.99994 20.0392 3.21066 20.4142 3.58573C20.7893 3.9608 21 4.46951 21 4.99994C21 5.53038 20.7893 6.03908 20.4142 6.41416C20.0392 6.78923 19.5305 6.99994 19 6.99994H5.00004C4.4696 6.99994 3.96089 6.78923 3.58582 6.41416C3.21075 6.03908 3.00004 5.53038 3.00004 4.99994C3.00004 4.46951 3.21075 3.9608 3.58582 3.58573C3.96089 3.21066 4.4696 2.99994 5.00004 2.99994ZM19 20.9999H5.00004C4.4696 20.9999 3.96089 20.7892 3.58582 20.4142C3.21075 20.0391 3.00004 19.5304 3.00004 18.9999C3.00004 18.4695 3.21075 17.9608 3.58582 17.5857C3.96089 17.2107 4.4696 16.9999 5.00004 16.9999V17.4999C5.00004 17.8978 5.15807 18.2793 5.43938 18.5606C5.72068 18.8419 6.10221 18.9999 6.50004 18.9999C6.89786 18.9999 7.27939 18.8419 7.5607 18.5606C7.842 18.2793 8.00004 17.8978 8.00004 17.4999V16.9999H10V17.4999C10 17.8978 10.1581 18.2793 10.4394 18.5606C10.7207 18.8419 11.1022 18.9999 11.5 18.9999C11.8979 18.9999 12.2794 18.8419 12.5607 18.5606C12.842 18.2793 13 17.8978 13 17.4999V16.9999H19C19.5305 16.9999 20.0392 17.2107 20.4142 17.5857C20.7893 17.9608 21 18.4695 21 18.9999C21 19.5304 20.7893 20.0391 20.4142 20.4142C20.0392 20.7892 19.5305 20.9999 19 20.9999Z" fill="white"/>
</g>
<defs>
<clipPath id="clip0_88_6252">
<rect width="24" height="24" fill="white"/>
</clipPath>
</defs>
</svg>
