<svg width="24" height="24" viewBox="0 0 24 24" fill="none" xmlns="http://www.w3.org/2000/svg">
<g clip-path="url(#clip0_88_6249)">
<path d="M17.5609 10.5612L16.1209 12.0002L17.5609 13.4392C17.8423 13.7205 18.0004 14.1022 18.0004 14.5002C18.0004 14.8981 17.8423 15.2798 17.5609 15.5612C17.2795 15.8425 16.8979 16.0006 16.4999 16.0006C16.102 16.0006 15.7203 15.8425 15.4389 15.5612L13.9999 14.1212L12.5609 15.5612C12.2795 15.8425 11.8979 16.0006 11.4999 16.0006C11.102 16.0006 10.7203 15.8425 10.4389 15.5612C10.1575 15.2798 9.99945 14.8981 9.99945 14.5002C9.99945 14.3031 10.0383 14.108 10.1137 13.9259C10.1891 13.7439 10.2996 13.5785 10.4389 13.4392L11.8789 12.0002L10.4389 10.5612C10.1575 10.2798 9.99945 9.8981 9.99945 9.50015C9.99945 9.1022 10.1575 8.72055 10.4389 8.43915C10.7203 8.15776 11.102 7.99967 11.4999 7.99967C11.8979 7.99967 12.2795 8.15776 12.5609 8.43915L13.9999 9.87915L15.4389 8.43915C15.7203 8.15776 16.102 7.99967 16.4999 7.99967C16.8979 7.99967 17.2795 8.15776 17.5609 8.43915C17.8423 8.72055 18.0004 9.1022 18.0004 9.50015C18.0004 9.8981 17.8423 10.2798 17.5609 10.5612ZM23.9999 7.00015V17.0002C23.9983 18.3257 23.471 19.5966 22.5337 20.5339C21.5964 21.4713 20.3255 21.9986 18.9999 22.0002H9.97693C9.13204 21.9977 8.29891 21.8019 7.54143 21.4277C6.78394 21.0534 6.12219 20.5107 5.60693 19.8412L0.306926 12.9112C0.106944 12.6496 -0.00140381 12.3294 -0.00140381 12.0002C-0.00140381 11.6709 0.106944 11.3507 0.306926 11.0892L5.60693 4.15915C6.12219 3.48957 6.78394 2.94686 7.54143 2.57262C8.29891 2.19838 9.13204 2.00256 9.97693 2.00015H18.9999C20.3255 2.00174 21.5964 2.52903 22.5337 3.46637C23.471 4.40371 23.9983 5.67456 23.9999 7.00015ZM20.9999 7.00015C20.9999 6.46972 20.7892 5.96101 20.4141 5.58594C20.0391 5.21087 19.5304 5.00015 18.9999 5.00015H9.97693C9.59284 5.0013 9.21411 5.09029 8.86971 5.26032C8.52531 5.43035 8.22437 5.67692 7.98993 5.98115L3.38893 12.0002L7.98893 18.0192C8.22348 18.3235 8.52457 18.5702 8.86916 18.7402C9.21374 18.9102 9.59267 18.9992 9.97693 19.0002H18.9999C19.5304 19.0002 20.0391 18.7894 20.4141 18.4144C20.7892 18.0393 20.9999 17.5306 20.9999 17.0002V7.00015Z" fill="white"/>
</g>
<defs>
<clipPath id="clip0_88_6249">
<rect width="24" height="24" fill="white"/>
</clipPath>
</defs>
</svg>
