<svg width="24" height="24" viewBox="0 0 24 24" fill="none" xmlns="http://www.w3.org/2000/svg">
<g clip-path="url(#clip0_88_6296)">
<path d="M23.1479 5.69994L20.2799 1.82694C19.8755 1.26239 19.3426 0.802237 18.7251 0.484537C18.1076 0.166837 17.4233 0.00072469 16.7289 -5.89672e-05H7.2709C6.58191 -0.000730331 5.9026 0.162078 5.28877 0.47499C4.67494 0.787903 4.14411 1.24199 3.7399 1.79994L0.799898 5.72094C0.256145 6.4845 -0.0261588 7.4034 -0.00489284 8.34054C0.0163731 9.27769 0.340069 10.1828 0.917898 10.9209L9.3289 22.7099C9.64727 23.1133 10.0532 23.439 10.5159 23.6625C10.9786 23.886 11.486 24.0014 11.9999 23.9999C12.5257 23.9986 13.0442 23.8761 13.515 23.642C13.9859 23.4078 14.3964 23.0684 14.7149 22.6499L23.0149 11.0409C23.6255 10.2912 23.9699 9.35984 23.994 8.39317C24.0181 7.42649 23.7205 6.47919 23.1479 5.69994ZM3.2269 7.48694L6.1609 3.57094C6.28729 3.39447 6.4539 3.25064 6.64692 3.15135C6.83994 3.05205 7.05383 3.00015 7.2709 2.99994H9.6619L8.1819 8.18194L8.2669 8.49994H15.7329L15.8179 8.18194L14.3379 2.99994H16.7289C16.9501 3.00129 17.1678 3.05577 17.3636 3.1588C17.5593 3.26182 17.7275 3.41037 17.8539 3.59194L20.7329 7.48194C20.8368 7.62778 20.9099 7.79326 20.9477 7.96829C20.9855 8.14332 20.9873 8.32421 20.9529 8.49994H15.7329L12.5129 20.5749L12.3199 20.8459C12.282 20.8945 12.2334 20.9337 12.1779 20.9604C12.1224 20.9871 12.0615 21.0006 11.9999 20.9999C11.8999 21.0049 11.8018 20.9713 11.7259 20.9059L11.4849 20.5689L8.2669 8.49994H3.0409C3.00162 8.3273 2.99785 8.14847 3.02982 7.97433C3.0618 7.80019 3.12885 7.63437 3.2269 7.48694Z" fill="white"/>
</g>
<defs>
<clipPath id="clip0_88_6296">
<rect width="24" height="24" fill="white"/>
</clipPath>
</defs>
</svg>
