<svg width="24" height="24" viewBox="0 0 24 24" fill="none" xmlns="http://www.w3.org/2000/svg">
<path d="M7.00003 11.5C7.00003 11.1022 7.15807 10.7206 7.43937 10.4393C7.72067 10.158 8.10221 10 8.50003 10H11.5C11.8979 10 12.2794 10.158 12.5607 10.4393C12.842 10.7206 13 11.1022 13 11.5C13 11.8978 12.842 12.2794 12.5607 12.5607C12.2794 12.842 11.8979 13 11.5 13H8.50003C8.10221 13 7.72067 12.842 7.43937 12.5607C7.15807 12.2794 7.00003 11.8978 7.00003 11.5ZM8.50003 8H15.5C15.8979 8 16.2794 7.84196 16.5607 7.56066C16.842 7.27936 17 6.89782 17 6.5C17 6.10218 16.842 5.72064 16.5607 5.43934C16.2794 5.15804 15.8979 5 15.5 5H8.50003C8.10221 5 7.72067 5.15804 7.43937 5.43934C7.15807 5.72064 7.00003 6.10218 7.00003 6.5C7.00003 6.89782 7.15807 7.27936 7.43937 7.56066C7.72067 7.84196 8.10221 8 8.50003 8ZM21 19.974V22.916C21 23.13 20.9365 23.3391 20.8176 23.517C20.6987 23.6949 20.5298 23.8336 20.3321 23.9155C20.1344 23.9973 19.9169 24.0188 19.707 23.977C19.4971 23.9353 19.3043 23.8323 19.153 23.681L18 22.528L16.847 23.681C16.6957 23.8323 16.5029 23.9353 16.2931 23.977C16.0832 24.0188 15.8657 23.9973 15.668 23.9155C15.4703 23.8336 15.3013 23.6949 15.1824 23.517C15.0635 23.3391 15.0001 23.13 15 22.916V19.974C14.0951 19.293 13.4488 18.3243 13.1675 17.2273C12.8861 16.1302 12.9863 14.9701 13.4517 13.9376C13.9171 12.9051 14.72 12.0616 15.7283 11.546C16.7367 11.0303 17.8905 10.873 19 11.1V5.5C19 4.83696 18.7366 4.20107 18.2678 3.73223C17.799 3.26339 17.1631 3 16.5 3L7.50703 3.038C7.17814 3.03708 6.85229 3.10106 6.54817 3.22629C6.24405 3.35151 5.96763 3.53552 5.73474 3.76775C5.50185 3.99999 5.31707 4.2759 5.191 4.57967C5.06492 4.88344 5.00003 5.20911 5.00003 5.538V17.5C5.00003 18.163 5.26342 18.7989 5.73226 19.2678C6.2011 19.7366 6.83699 20 7.50003 20H11.5C11.8979 20 12.2794 20.158 12.5607 20.4393C12.842 20.7206 13 21.1022 13 21.5C13 21.8978 12.842 22.2794 12.5607 22.5607C12.2794 22.842 11.8979 23 11.5 23H7.50003C6.04191 22.9981 4.64404 22.4181 3.61299 21.387C2.58194 20.356 2.00188 18.9581 2.00003 17.5V5.538C2.00188 4.07988 2.58194 2.68201 3.61299 1.65096C4.64404 0.61991 6.04191 0.0398523 7.50003 0.038L16.493 0C17.9522 0.000527795 19.3516 0.579937 20.384 1.61107C21.4165 2.64221 21.9976 4.04083 22 5.5V13.031C22.3939 13.5511 22.6806 14.1443 22.8436 14.776C23.0066 15.4077 23.0426 16.0655 22.9496 16.7113C22.8566 17.357 22.6364 17.9779 22.3017 18.538C21.9671 19.098 21.5246 19.5861 21 19.974ZM16 16C16 16.3956 16.1173 16.7822 16.3371 17.1111C16.5569 17.44 16.8692 17.6964 17.2347 17.8478C17.6001 17.9991 18.0022 18.0387 18.3902 17.9616C18.7782 17.8844 19.1345 17.6939 19.4142 17.4142C19.6939 17.1345 19.8844 16.7781 19.9616 16.3902C20.0388 16.0022 19.9992 15.6001 19.8478 15.2346C19.6964 14.8692 19.4401 14.5568 19.1112 14.3371C18.7823 14.1173 18.3956 14 18 14C17.4696 14 16.9609 14.2107 16.5858 14.5858C16.2107 14.9609 16 15.4696 16 16Z" fill="white"/>
</svg>
