<svg width="24" height="24" viewBox="0 0 24 24" fill="none" xmlns="http://www.w3.org/2000/svg">
<g clip-path="url(#clip0_88_6292)">
<path d="M17.0002 12.5C17.0002 12.8978 16.8421 13.2793 16.5608 13.5607C16.2795 13.842 15.898 14 15.5002 14H8.50015C8.10233 14 7.7208 13.842 7.43949 13.5607C7.15819 13.2793 7.00015 12.8978 7.00015 12.5C7.00015 12.1022 7.15819 11.7206 7.43949 11.4393C7.7208 11.158 8.10233 11 8.50015 11H15.5002C15.898 11 16.2795 11.158 16.5608 11.4393C16.8421 11.7206 17.0002 12.1022 17.0002 12.5ZM12.5002 16H8.50015C8.10233 16 7.7208 16.158 7.43949 16.4393C7.15819 16.7206 7.00015 17.1022 7.00015 17.5C7.00015 17.8978 7.15819 18.2793 7.43949 18.5607C7.7208 18.842 8.10233 19 8.50015 19H12.5002C12.898 19 13.2795 18.842 13.5608 18.5607C13.8421 18.2793 14.0002 17.8978 14.0002 17.5C14.0002 17.1022 13.8421 16.7206 13.5608 16.4393C13.2795 16.158 12.898 16 12.5002 16ZM22.0002 8.15699V18.5C21.9986 19.9582 21.4186 21.3562 20.3875 22.3873C19.3564 23.4184 17.9584 23.9984 16.5002 24H7.50015C6.04195 23.9984 4.64393 23.4184 3.61282 22.3873C2.58171 21.3562 2.00174 19.9582 2.00015 18.5V5.49999C2.00174 4.04179 2.58171 2.64376 3.61282 1.61266C4.64393 0.581553 6.04195 0.00157986 7.50015 -8.30666e-06H13.8432C14.5657 -0.00206886 15.2815 0.139261 15.9491 0.415796C16.6166 0.692331 17.2227 1.09857 17.7322 1.61099L20.3892 4.26799C20.9015 4.77751 21.3077 5.38358 21.5842 6.05113C21.8607 6.71867 22.0021 7.43444 22.0002 8.15699ZM19.0002 18.5V8.99999H15.0002C14.4697 8.99999 13.961 8.78928 13.5859 8.4142C13.2109 8.03913 13.0002 7.53043 13.0002 6.99999V2.99999H7.50015C6.83711 2.99999 6.20123 3.26338 5.73239 3.73222C5.26354 4.20107 5.00015 4.83695 5.00015 5.49999V18.5C5.00015 19.163 5.26354 19.7989 5.73239 20.2678C6.20123 20.7366 6.83711 21 7.50015 21H16.5002C17.1632 21 17.7991 20.7366 18.2679 20.2678C18.7368 19.7989 19.0002 19.163 19.0002 18.5Z" fill="white"/>
</g>
<defs>
<clipPath id="clip0_88_6292">
<rect width="24" height="24" fill="white"/>
</clipPath>
</defs>
</svg>
