<svg width="24" height="24" viewBox="0 0 24 24" fill="none" xmlns="http://www.w3.org/2000/svg">
<g clip-path="url(#clip0_88_6463)">
<path d="M16.6519 15.5481C16.903 15.8526 17.024 16.2438 16.9886 16.6369C16.9532 17.03 16.7644 17.3933 16.4629 17.6481C15.4796 18.4565 14.264 18.9301 12.9929 19C12.1889 18.992 11.4149 18.6933 10.8139 18.159C10.7389 18.0963 10.66 18.0382 10.5779 17.9851C10.1749 18.1328 9.80213 18.3527 9.47791 18.6341C9.17691 18.8884 8.78791 19.0141 8.39498 18.984C8.00206 18.9538 7.63678 18.7703 7.3781 18.473C7.11943 18.1757 6.98814 17.7885 7.01262 17.3952C7.03709 17.0019 7.21537 16.634 7.50891 16.371C8.37562 15.5886 9.47224 15.1077 10.6349 15.0001C11.3863 15.0144 12.1074 15.2983 12.6669 15.8001C12.9229 16.0001 12.9369 16 12.9929 16C13.5615 15.9324 14.0993 15.705 14.5439 15.3441C14.8508 15.0922 15.2449 14.9722 15.6401 15.0105C16.0352 15.0487 16.399 15.242 16.6519 15.5481ZM15.4999 10.0001H8.49991C8.10208 10.0001 7.72055 10.1581 7.43925 10.4394C7.15794 10.7207 6.99991 11.1022 6.99991 11.5001C6.99991 11.8979 7.15794 12.2794 7.43925 12.5607C7.72055 12.842 8.10208 13.0001 8.49991 13.0001H15.4999C15.8977 13.0001 16.2793 12.842 16.5606 12.5607C16.8419 12.2794 16.9999 11.8979 16.9999 11.5001C16.9999 11.1022 16.8419 10.7207 16.5606 10.4394C16.2793 10.1581 15.8977 10.0001 15.4999 10.0001ZM21.9999 7.15705V18.5C21.9983 19.9583 21.4183 21.3563 20.3872 22.3874C19.3561 23.4185 17.9581 23.9985 16.4999 24H7.49991C6.04171 23.9985 4.64368 23.4185 3.61258 22.3874C2.58147 21.3563 2.0015 19.9583 1.99991 18.5V5.50005C2.0015 4.04185 2.58147 2.64382 3.61258 1.61272C4.64368 0.581611 6.04171 0.00163859 7.49991 5.04186e-05H14.8429C15.5655 -0.00189965 16.2812 0.139481 16.9488 0.416009C17.6163 0.692538 18.2224 1.09872 18.7319 1.61105L20.3889 3.26805C20.9012 3.77757 21.3074 4.38364 21.584 5.05119C21.8605 5.71873 22.0019 6.4345 21.9999 7.15705ZM18.9999 18.5V7.00005H16.9999C16.4695 7.00005 15.9608 6.78934 15.5857 6.41426C15.2106 6.03919 14.9999 5.53048 14.9999 5.00005V3.00005H7.49991C6.83687 3.00005 6.20098 3.26344 5.73214 3.73228C5.2633 4.20112 4.99991 4.83701 4.99991 5.50005V18.5C4.99991 19.1631 5.2633 19.799 5.73214 20.2678C6.20098 20.7367 6.83687 21 7.49991 21H16.4999C17.1629 21 17.7988 20.7367 18.2677 20.2678C18.7365 19.799 18.9999 19.1631 18.9999 18.5Z" fill="white"/>
</g>
<defs>
<clipPath id="clip0_88_6463">
<rect width="24" height="24" fill="white"/>
</clipPath>
</defs>
</svg>
