<svg width="24" height="24" viewBox="0 0 24 24" fill="none" xmlns="http://www.w3.org/2000/svg">
<path d="M18.5001 9.5C18.8979 9.5 19.2794 9.34196 19.5607 9.06066C19.842 8.77936 20.0001 8.39782 20.0001 8V7.313C19.9982 5.90447 19.4379 4.55417 18.4419 3.55819C17.4459 2.56221 16.0956 2.00185 14.6871 2H13.5001V1.5C13.5001 1.10218 13.342 0.720644 13.0607 0.43934C12.7794 0.158035 12.3979 0 12.0001 0C11.6022 0 11.2207 0.158035 10.9394 0.43934C10.6581 0.720644 10.5001 1.10218 10.5001 1.5V2H9.31307C8.03755 1.9981 6.80392 2.45514 5.83752 3.28764C4.87113 4.12013 4.23649 5.27251 4.04954 6.53425C3.86258 7.796 4.13579 9.0829 4.81925 10.1599C5.50271 11.2368 6.55081 12.0319 7.77207 12.4L10.5001 13.146V19H9.31307C8.69987 18.9992 8.11201 18.7553 7.67841 18.3217C7.24481 17.8881 7.00087 17.3002 7.00007 16.687V16C7.00007 15.6022 6.84204 15.2206 6.56073 14.9393C6.27943 14.658 5.8979 14.5 5.50007 14.5C5.10225 14.5 4.72072 14.658 4.43941 14.9393C4.15811 15.2206 4.00007 15.6022 4.00007 16V16.687C4.00192 18.0955 4.56228 19.4458 5.55826 20.4418C6.55424 21.4378 7.90455 21.9981 9.31307 22H10.5001V22.5C10.5001 22.8978 10.6581 23.2794 10.9394 23.5607C11.2207 23.842 11.6022 24 12.0001 24C12.3979 24 12.7794 23.842 13.0607 23.5607C13.342 23.2794 13.5001 22.8978 13.5001 22.5V22H14.6871C15.9626 22.0019 17.1962 21.5449 18.1626 20.7124C19.129 19.8799 19.7637 18.7275 19.9506 17.4657C20.1376 16.204 19.8644 14.9171 19.1809 13.8401C18.4974 12.7632 17.4493 11.9681 16.2281 11.6L13.5001 10.856V5H14.6871C15.3003 5.00079 15.8881 5.24474 16.3217 5.67834C16.7553 6.11194 16.9993 6.6998 17.0001 7.313V8C17.0001 8.39782 17.1581 8.77936 17.4394 9.06066C17.7207 9.34196 18.1022 9.5 18.5001 9.5ZM15.3821 14.479C15.9096 14.6452 16.3602 14.995 16.6521 15.4648C16.944 15.9346 17.058 16.4935 16.9733 17.0401C16.8887 17.5867 16.6111 18.0849 16.1907 18.4444C15.7704 18.804 15.2352 19.0011 14.6821 19H13.5001V13.965L15.3821 14.479ZM10.5001 10.035L8.61807 9.521C8.09094 9.35488 7.64067 9.00557 7.34874 8.53627C7.0568 8.06697 6.94248 7.50868 7.02646 6.96241C7.11044 6.41613 7.38716 5.91796 7.80658 5.55801C8.22599 5.19806 8.76038 5.00012 9.31307 5H10.5001V10.035Z" fill="white"/>
</svg>
