<svg width="24" height="24" viewBox="0 0 24 24" fill="none" xmlns="http://www.w3.org/2000/svg">
<g clip-path="url(#clip0_88_6369)">
<path d="M21.4899 2.50923C19.8823 0.904732 17.7037 0.00360107 15.4324 0.00360107C13.1611 0.00360107 10.9826 0.904732 9.37491 2.50923C7.13691 4.74823 6.31191 9.54223 6.01491 13.1682C5.95787 13.9477 6.10685 14.7285 6.44691 15.4322L3.34691 18.5322C3.10755 18.3108 2.81767 18.1512 2.50253 18.0674C2.18738 17.9836 1.85653 17.9782 1.53879 18.0515C1.22105 18.1249 0.926065 18.2748 0.679533 18.4882C0.433002 18.7017 0.242401 18.9722 0.124336 19.2761C0.00627117 19.5801 -0.0356766 19.9083 0.00214721 20.2322C0.039971 20.5561 0.156419 20.8659 0.341346 21.1345C0.526274 21.403 0.774071 21.6223 1.06315 21.7732C1.35223 21.9241 1.67382 22.0021 1.99991 22.0002C1.99841 22.3262 2.0766 22.6475 2.22767 22.9364C2.37873 23.2252 2.5981 23.4727 2.86668 23.6574C3.13525 23.8421 3.44489 23.9583 3.76865 23.996C4.09241 24.0337 4.42048 23.9917 4.72429 23.8736C5.02811 23.7556 5.29846 23.565 5.51183 23.3186C5.72519 23.0722 5.87511 22.7774 5.94851 22.4598C6.02192 22.1423 6.0166 21.8116 5.93301 21.4965C5.84942 21.1815 5.6901 20.8916 5.46891 20.6522L8.56091 17.5602C9.26653 17.9006 10.05 18.0473 10.8309 17.9852C14.4589 17.6852 19.2529 16.8632 21.4899 14.6252C23.0872 13.0136 23.9833 10.8363 23.9833 8.56723C23.9833 6.29815 23.0872 4.12089 21.4899 2.50923ZM19.3689 12.5002C18.1609 13.7072 14.8779 14.6392 10.5849 14.9912C10.3726 15.0101 10.1588 14.9821 9.95844 14.9093C9.75812 14.8365 9.57621 14.7206 9.42555 14.5699C9.27488 14.4191 9.15913 14.2371 9.08645 14.0368C9.01377 13.8364 8.98594 13.6225 9.00491 13.4102C9.35691 9.12223 10.2889 5.83823 11.4999 4.63023C12.5536 3.63704 13.9529 3.09351 15.4008 3.11496C16.8486 3.13642 18.2311 3.72117 19.255 4.74514C20.2788 5.76911 20.8634 7.15171 20.8847 8.59958C20.9059 10.0474 20.3622 11.4466 19.3689 12.5002Z" fill="white"/>
</g>
<defs>
<clipPath id="clip0_88_6369">
<rect width="24" height="24" fill="white"/>
</clipPath>
</defs>
</svg>
