<svg width="24" height="24" viewBox="0 0 24 24" fill="none" xmlns="http://www.w3.org/2000/svg">
<g clip-path="url(#clip0_88_6424)">
<path d="M22.965 6.01878C23.2926 5.69142 23.5525 5.30271 23.7298 4.87486C23.9071 4.44701 23.9984 3.98842 23.9984 3.52528C23.9984 3.06215 23.9071 2.60355 23.7298 2.1757C23.5525 1.74786 23.2926 1.35914 22.965 1.03178C22.2938 0.391253 21.4017 0.0338745 20.474 0.0338745C19.5462 0.0338745 18.6541 0.391253 17.983 1.03178L16.547 2.46978C15.713 3.30478 13.829 3.06978 12.563 2.36978C11.9058 2.01036 11.1406 1.90109 10.409 2.06217C9.67744 2.22325 9.02894 2.64378 8.58343 3.246C8.13792 3.84823 7.92555 4.5914 7.98558 5.33809C8.04561 6.08478 8.37399 6.78447 8.90999 7.30778L9.98699 8.38478L2.17199 16.4388C1.63047 16.9736 1.25535 17.6537 1.09191 18.3971C0.928482 19.1404 0.983732 19.9152 1.25099 20.6278L0.438992 21.4388C0.157598 21.7202 -0.000488281 22.1018 -0.000488281 22.4998C-0.000488281 22.8977 0.157598 23.2794 0.438992 23.5608C0.720387 23.8422 1.10204 24.0003 1.49999 24.0003C1.89794 24.0003 2.2796 23.8422 2.56099 23.5608L3.26699 22.8538C4.01419 23.2233 4.859 23.3474 5.68091 23.2084C6.50282 23.0694 7.25984 22.6744 7.84399 22.0798L15.644 14.0418L16.692 15.0898C17.216 15.6225 17.9147 15.9481 18.6596 16.0065C19.4046 16.065 20.1455 15.8524 20.7462 15.4079C21.3468 14.9634 21.7667 14.3169 21.9286 13.5875C22.0904 12.858 21.9833 12.0946 21.627 11.4378C20.927 10.1708 20.695 8.28778 21.527 7.45278L22.965 6.01878ZM5.70699 19.9748C5.61303 20.0667 5.50188 20.1392 5.3799 20.1882C5.25791 20.2372 5.12747 20.2616 4.99603 20.2602C4.86459 20.2588 4.73472 20.2314 4.61383 20.1798C4.49295 20.1282 4.38342 20.0532 4.29149 19.9593C4.19957 19.8653 4.12705 19.7542 4.07808 19.6322C4.02911 19.5102 4.00464 19.3798 4.00608 19.2483C4.00752 19.1169 4.03484 18.987 4.08647 18.8661C4.1381 18.7452 4.21303 18.6357 4.30699 18.5438L12.107 10.5058L13.52 11.9198L5.70699 19.9748ZM20.846 3.89978L19.409 5.33178C17.475 7.26478 17.739 10.5938 18.964 12.9688C18.9438 12.9885 18.9167 12.9996 18.8885 12.9996C18.8603 12.9996 18.8332 12.9885 18.813 12.9688L11.031 5.18678C11 5.15078 11 5.07078 11.116 4.99978C13.405 6.25978 16.735 6.52378 18.668 4.59078L20.107 3.15178C20.2066 3.05993 20.3379 3.01022 20.4734 3.0131C20.6088 3.01597 20.7379 3.07121 20.8335 3.16721C20.9291 3.26321 20.9838 3.39251 20.9862 3.52798C20.9885 3.66345 20.9383 3.79456 20.846 3.89378V3.89978Z" fill="white"/>
</g>
<defs>
<clipPath id="clip0_88_6424">
<rect width="24" height="24" fill="white"/>
</clipPath>
</defs>
</svg>
