<svg width="24" height="24" viewBox="0 0 24 24" fill="none" xmlns="http://www.w3.org/2000/svg">
<g clip-path="url(#clip0_88_6275)">
<path d="M22.727 1.27292C22.1999 0.741641 21.5436 0.356766 20.8225 0.156175C20.1015 -0.0444156 19.3407 -0.053809 18.615 0.12892C13.6089 1.44357 9.0242 4.02154 5.29999 7.61592C4.01372 8.90354 3.21402 10.5975 3.03731 12.409C2.8606 14.2204 3.31783 16.037 4.33099 17.5489L0.438994 21.4389C0.1576 21.7203 -0.000486374 22.102 -0.000486374 22.4999C-0.000486374 22.8979 0.1576 23.2795 0.438994 23.5609C0.720389 23.8423 1.10204 24.0004 1.49999 24.0004C1.89795 24.0004 2.2796 23.8423 2.56099 23.5609L6.454 19.6669C7.71729 20.5313 9.21132 20.9957 10.742 20.9999C11.8626 20.9958 12.9709 20.7651 14.0001 20.3218C15.0293 19.8784 15.9582 19.2315 16.731 18.4199C20.1525 14.7183 22.6063 10.2286 23.874 5.34992C24.0533 4.62926 24.0418 3.87432 23.8407 3.15944C23.6396 2.44455 23.2558 1.79438 22.727 1.27292ZM19.339 3.04092C19.5631 2.98385 19.7982 2.9866 20.0209 3.04889C20.2436 3.11119 20.4461 3.23085 20.608 3.39592C20.7697 3.55336 20.8872 3.75042 20.949 3.96747C21.0108 4.18451 21.0146 4.41395 20.96 4.63292C20.4749 6.48963 19.792 8.28892 18.923 9.99992H16.123L17.563 8.56092C17.7023 8.42159 17.8129 8.25618 17.8883 8.07413C17.9637 7.89208 18.0025 7.69697 18.0025 7.49992C18.0025 7.30287 17.9637 7.10776 17.8883 6.92571C17.8129 6.74366 17.7023 6.57825 17.563 6.43892C17.4237 6.29959 17.2583 6.18906 17.0762 6.11366C16.8942 6.03825 16.699 5.99944 16.502 5.99944C16.305 5.99944 16.1098 6.03825 15.9278 6.11366C15.7457 6.18906 15.5803 6.29959 15.441 6.43892L11 10.8789V6.84392C13.5534 5.12944 16.3703 3.84476 19.339 3.04092ZM6.006 13.4179C5.97367 12.7393 6.08296 12.0614 6.32692 11.4273C6.57087 10.7932 6.94415 10.2169 7.423 9.73492C7.607 9.54992 7.809 9.38492 8 9.20792V13.8789L6.512 15.3669C6.20914 14.7597 6.03678 14.0958 6.006 13.4179ZM14.565 16.3399C13.8266 17.1397 12.8526 17.6833 11.7843 17.8919C10.716 18.1005 9.60897 17.9632 8.62399 17.4999L10.56 15.5639L13.121 12.9999H17.193C16.4194 14.1901 15.5398 15.308 14.565 16.3399Z" fill="white"/>
</g>
<defs>
<clipPath id="clip0_88_6275">
<rect width="24" height="24" fill="white"/>
</clipPath>
</defs>
</svg>
