<svg width="24" height="24" viewBox="0 0 24 24" fill="none" xmlns="http://www.w3.org/2000/svg">
<g clip-path="url(#clip0_88_6265)">
<path d="M16.0001 11.5001C16.0001 11.8979 15.8421 12.2794 15.5608 12.5607C15.2795 12.842 14.8979 13.0001 14.5001 13.0001H14.0001V16.0001C14.0003 16.1008 13.9902 16.2013 13.9701 16.3001C13.9107 16.8762 13.6854 17.4227 13.3216 17.8733C12.9577 18.3239 12.4709 18.6593 11.9203 18.8388C11.3696 19.0182 10.7787 19.0341 10.2192 18.8843C9.65971 18.7346 9.15568 18.4258 8.76823 17.9953C8.38078 17.5648 8.12656 17.0311 8.0364 16.459C7.94624 15.8869 8.024 15.3009 8.26027 14.7721C8.49654 14.2433 8.88116 13.7944 9.36748 13.4799C9.85381 13.1654 10.4209 12.9987 11.0001 13.0001V12.5001C11.0001 11.837 11.2635 11.2012 11.7324 10.7323C12.2012 10.2635 12.8371 10.0001 13.5001 10.0001H14.5001C14.8979 10.0001 15.2795 10.1581 15.5608 10.4394C15.8421 10.7207 16.0001 11.1023 16.0001 11.5001ZM22.0001 8.15708V18.5001C21.9983 19.9582 21.4182 21.3561 20.3872 22.3871C19.3561 23.4182 17.9582 23.9982 16.5001 24.0001H7.50012C6.042 23.9982 4.64413 23.4182 3.61308 22.3871C2.58203 21.3561 2.00197 19.9582 2.00012 18.5001V5.50008C2.00197 4.04196 2.58203 2.64409 3.61308 1.61304C4.64413 0.581991 6.042 0.00193319 7.50012 8.09362e-05H13.8431C14.5657 -0.00186913 15.2814 0.139512 15.949 0.41604C16.6165 0.692568 17.2226 1.09875 17.7321 1.61108L20.3891 4.26808C20.9015 4.7776 21.3076 5.38367 21.5842 6.05122C21.8607 6.71876 22.0021 7.43453 22.0001 8.15708ZM19.0001 18.5001V9.00008H15.0001C14.4697 9.00008 13.961 8.78937 13.5859 8.41429C13.2108 8.03922 13.0001 7.53051 13.0001 7.00008V3.00008H7.50012C6.83708 3.00008 6.2012 3.26347 5.73236 3.73231C5.26351 4.20115 5.00012 4.83704 5.00012 5.50008V18.5001C5.00012 19.1631 5.26351 19.799 5.73236 20.2678C6.2012 20.7367 6.83708 21.0001 7.50012 21.0001H16.5001C17.1632 21.0001 17.799 20.7367 18.2679 20.2678C18.7367 19.799 19.0001 19.1631 19.0001 18.5001Z" fill="white"/>
</g>
<defs>
<clipPath id="clip0_88_6265">
<rect width="24" height="24" fill="white"/>
</clipPath>
</defs>
</svg>
