<svg width="24" height="24" viewBox="0 0 24 24" fill="none" xmlns="http://www.w3.org/2000/svg">
<g clip-path="url(#clip0_88_6271)">
<path d="M16.5001 14.5001C16.5001 14.8979 16.3421 15.2794 16.0608 15.5607C15.7795 15.842 15.3979 16.0001 15.0001 16.0001H13.5001V17.5001C13.5001 17.8979 13.3421 18.2794 13.0608 18.5607C12.7795 18.842 12.3979 19.0001 12.0001 19.0001C11.6023 19.0001 11.2208 18.842 10.9395 18.5607C10.6582 18.2794 10.5001 17.8979 10.5001 17.5001V16.0001H9.00012C8.6023 16.0001 8.22077 15.842 7.93946 15.5607C7.65816 15.2794 7.50012 14.8979 7.50012 14.5001C7.50012 14.1023 7.65816 13.7207 7.93946 13.4394C8.22077 13.1581 8.6023 13.0001 9.00012 13.0001H10.5001V11.5001C10.5001 11.1023 10.6582 10.7207 10.9395 10.4394C11.2208 10.1581 11.6023 10.0001 12.0001 10.0001C12.3979 10.0001 12.7795 10.1581 13.0608 10.4394C13.3421 10.7207 13.5001 11.1023 13.5001 11.5001V13.0001H15.0001C15.3979 13.0001 15.7795 13.1581 16.0608 13.4394C16.3421 13.7207 16.5001 14.1023 16.5001 14.5001ZM22.0001 8.15708V18.5001C21.9985 19.9583 21.4186 21.3563 20.3875 22.3874C19.3563 23.4185 17.9583 23.9985 16.5001 24.0001H7.50012C6.04192 23.9985 4.64389 23.4185 3.61279 22.3874C2.58168 21.3563 2.00171 19.9583 2.00012 18.5001V5.50008C2.00171 4.04188 2.58168 2.64385 3.61279 1.61275C4.64389 0.581642 6.04192 0.00166911 7.50012 8.09362e-05H13.8431C14.5657 -0.00186913 15.2814 0.139512 15.949 0.41604C16.6165 0.692568 17.2226 1.09875 17.7321 1.61108L20.3891 4.26808C20.9015 4.7776 21.3076 5.38367 21.5842 6.05122C21.8607 6.71876 22.0021 7.43453 22.0001 8.15708ZM19.0001 18.5001V9.00008H15.0001C14.4697 9.00008 13.961 8.78937 13.5859 8.41429C13.2108 8.03922 13.0001 7.53051 13.0001 7.00008V3.00008H7.50012C6.83708 3.00008 6.2012 3.26347 5.73236 3.73231C5.26351 4.20115 5.00012 4.83704 5.00012 5.50008V18.5001C5.00012 19.1631 5.26351 19.799 5.73236 20.2678C6.2012 20.7367 6.83708 21.0001 7.50012 21.0001H16.5001C17.1632 21.0001 17.799 20.7367 18.2679 20.2678C18.7367 19.799 19.0001 19.1631 19.0001 18.5001Z" fill="white"/>
</g>
<defs>
<clipPath id="clip0_88_6271">
<rect width="24" height="24" fill="white"/>
</clipPath>
</defs>
</svg>
