<svg width="24" height="24" viewBox="0 0 24 24" fill="none" xmlns="http://www.w3.org/2000/svg">
<g clip-path="url(#clip0_88_6471)">
<path d="M15.5609 13.5611L14.1209 15.0001L15.5609 16.4391C15.8423 16.7205 16.0004 17.1021 16.0004 17.5001C16.0004 17.898 15.8423 18.2797 15.5609 18.5611C15.2795 18.8425 14.8979 19.0006 14.4999 19.0006C14.102 19.0006 13.7203 18.8425 13.4389 18.5611L11.9999 17.1211L10.5609 18.5611C10.2795 18.8425 9.89789 19.0006 9.49994 19.0006C9.10199 19.0006 8.72033 18.8425 8.43894 18.5611C8.15754 18.2797 7.99946 17.898 7.99946 17.5001C7.99946 17.1021 8.15754 16.7205 8.43894 16.4391L9.87894 15.0001L8.43894 13.5611C8.15754 13.2797 7.99946 12.898 7.99946 12.5001C7.99946 12.1021 8.15754 11.7205 8.43894 11.4391C8.72033 11.1577 9.10199 10.9996 9.49994 10.9996C9.89789 10.9996 10.2795 11.1577 10.5609 11.4391L11.9999 12.8791L13.4389 11.4391C13.5783 11.2997 13.7437 11.1892 13.9257 11.1138C14.1078 11.0384 14.3029 10.9996 14.4999 10.9996C14.697 10.9996 14.8921 11.0384 15.0741 11.1138C15.2562 11.1892 15.4216 11.2997 15.5609 11.4391C15.7003 11.5784 15.8108 11.7438 15.8862 11.9259C15.9616 12.1079 16.0004 12.303 16.0004 12.5001C16.0004 12.6971 15.9616 12.8922 15.8862 13.0743C15.8108 13.2563 15.7003 13.4217 15.5609 13.5611ZM21.9999 8.15708V18.5001C21.9984 19.9583 21.4184 21.3563 20.3873 22.3874C19.3562 23.4185 17.9581 23.9985 16.4999 24.0001H7.49994C6.04174 23.9985 4.64371 23.4185 3.61261 22.3874C2.5815 21.3563 2.00153 19.9583 1.99994 18.5001V5.50008C2.00153 4.04188 2.5815 2.64385 3.61261 1.61275C4.64371 0.581642 6.04174 0.00166911 7.49994 8.09362e-05H13.8429C14.5655 -0.00186913 15.2813 0.139512 15.9488 0.41604C16.6164 0.692568 17.2224 1.09875 17.7319 1.61108L20.3889 4.26808C20.9013 4.7776 21.3075 5.38367 21.584 6.05122C21.8605 6.71876 22.0019 7.43453 21.9999 8.15708ZM18.9999 18.5001V9.00008H14.9999C14.4695 9.00008 13.9608 8.78937 13.5857 8.41429C13.2107 8.03922 12.9999 7.53051 12.9999 7.00008V3.00008H7.49994C6.8369 3.00008 6.20101 3.26347 5.73217 3.73231C5.26333 4.20115 4.99994 4.83704 4.99994 5.50008V18.5001C4.99994 19.1631 5.26333 19.799 5.73217 20.2678C6.20101 20.7367 6.8369 21.0001 7.49994 21.0001H16.4999C17.163 21.0001 17.7989 20.7367 18.2677 20.2678C18.7365 19.799 18.9999 19.1631 18.9999 18.5001Z" fill="white"/>
</g>
<defs>
<clipPath id="clip0_88_6471">
<rect width="24" height="24" fill="white"/>
</clipPath>
</defs>
</svg>
