<svg width="24" height="24" viewBox="0 0 24 24" fill="none" xmlns="http://www.w3.org/2000/svg">
<g clip-path="url(#clip0_88_6486)">
<path d="M23.6541 5.24923C23.2909 4.75228 22.8301 4.33459 22.3001 4.02167C21.77 3.70875 21.1817 3.50717 20.5711 3.42923C20.4932 2.81864 20.2916 2.23034 19.9787 1.70026C19.6657 1.17019 19.248 0.709467 18.7511 0.346233C18.4962 0.154442 18.193 0.0373922 17.8754 0.00819164C17.5577 -0.0210089 17.2382 0.0387932 16.9527 0.180901C16.6671 0.323008 16.4268 0.541809 16.2585 0.812798C16.0903 1.08379 16.0008 1.39626 16.0001 1.71523V7.00023H15.5001C13.9919 6.99397 12.486 7.12079 11.0001 7.37923V7.20023C11.0025 6.88486 10.9363 6.57273 10.8062 6.28543C10.6761 5.99813 10.4851 5.74252 10.2465 5.53626C10.0079 5.33 9.72741 5.17802 9.42432 5.09082C9.12123 5.00363 8.80281 4.98329 8.49109 5.03123C6.97296 5.32059 5.60016 6.12228 4.60216 7.3023C3.60417 8.48231 3.04145 9.96914 3.00809 11.5142C1.17586 13.7514 0.122682 16.5248 0.00809089 19.4142C-0.0347189 20.028 0.0554205 20.6437 0.272354 21.2195C0.489288 21.7952 0.827907 22.3173 1.26509 22.7502C1.64742 23.1598 2.11288 23.483 2.63028 23.6981C3.14767 23.9131 3.70506 24.0151 4.26509 23.9972C8.46509 23.6722 13.0361 22.0742 15.3891 16.9972H16.7231C19.2071 17.0742 20.0061 13.1212 17.1971 12.9972H16.6101C16.8742 11.5129 17.0047 10.0079 17.0001 8.50023V8.00023H22.2851C22.6041 7.99954 22.9165 7.91006 23.1875 7.74181C23.4585 7.57357 23.6773 7.33321 23.8194 7.04764C23.9615 6.76208 24.0213 6.44259 23.9921 6.12496C23.9629 5.80733 23.8459 5.5041 23.6541 5.24923ZM4.50009 21.0002C4.10227 21.0002 3.72074 20.8422 3.43943 20.5609C3.15813 20.2796 3.00009 19.8981 3.00009 19.5002C3.00009 19.1024 3.15813 18.7209 3.43943 18.4396C3.72074 18.1583 4.10227 18.0002 4.50009 18.0002C4.89792 18.0002 5.27945 18.1583 5.56075 18.4396C5.84206 18.7209 6.00009 19.1024 6.00009 19.5002C6.00009 19.8981 5.84206 20.2796 5.56075 20.5609C5.27945 20.8422 4.89792 21.0002 4.50009 21.0002ZM9.30009 19.5722C8.84615 18.4767 8.18019 17.4817 7.34048 16.6444C6.50078 15.8071 5.50388 15.144 4.40709 14.6932C6.08909 11.8472 9.24909 10.3092 13.9561 10.0422C13.6891 14.7282 12.1501 17.8812 9.30009 19.5722Z" fill="white"/>
</g>
<defs>
<clipPath id="clip0_88_6486">
<rect width="24" height="24" fill="white"/>
</clipPath>
</defs>
</svg>
