<svg width="24" height="24" viewBox="0 0 24 24" fill="none" xmlns="http://www.w3.org/2000/svg">
<g clip-path="url(#clip0_88_6256)">
<path d="M16.773 2.89961C16.026 2.26561 15.243 1.59961 14.446 0.875607C14.083 0.544487 13.6516 0.297173 13.1825 0.151156C12.7133 0.00513911 12.2178 -0.0360142 11.731 0.0306066C11.2575 0.0925388 10.8033 0.257621 10.4005 0.514206C9.99778 0.770792 9.65623 1.11263 9.39998 1.51561C8.44999 3.07615 7.73373 4.76744 7.27398 6.53561C7.05566 6.24531 6.77571 6.007 6.45427 5.83784C6.13283 5.66867 5.7779 5.57285 5.415 5.55726C5.0521 5.54167 4.69026 5.60671 4.3555 5.74769C4.02074 5.88867 3.72139 6.1021 3.47898 6.37261C1.78385 8.10616 0.84526 10.4411 0.868978 12.8656C0.84644 15.3261 1.64776 17.7235 3.14534 19.6759C4.64292 21.6284 6.75067 23.0237 9.13298 23.6396C10.0668 23.8771 11.0264 23.998 11.99 23.9996C13.4521 24.0016 14.9003 23.7152 16.2517 23.1569C17.6031 22.5986 18.8311 21.7793 19.8655 20.7459C20.8999 19.7125 21.7204 18.4853 22.2801 17.1345C22.8397 15.7837 23.1275 14.3358 23.127 12.8736C23.127 8.29961 20.183 5.79961 16.773 2.89961ZM16.991 19.2856C16.7049 19.5057 16.4042 19.7062 16.091 19.8856C16.3779 19.2864 16.5282 18.631 16.531 17.9666C16.531 16.0396 15.188 13.8026 13.531 11.8416C13.3409 11.6191 13.1048 11.4405 12.839 11.318C12.5733 11.1955 12.2841 11.1321 11.9915 11.1321C11.6988 11.1321 11.4097 11.1955 11.1439 11.318C10.8781 11.4405 10.6421 11.6191 10.452 11.8416C8.09998 14.5996 6.62698 17.5816 7.99998 19.9996C6.7373 19.2894 5.68818 18.2536 4.96196 17.0001C4.23574 15.7466 3.85899 14.3212 3.87098 12.8726C3.83996 11.4538 4.31697 10.0707 5.21598 8.97261C5.35731 9.20461 5.50898 9.42894 5.67098 9.64561C5.93852 10.0068 6.30605 10.2818 6.72815 10.4364C7.15025 10.591 7.6084 10.6186 8.04598 10.5156C8.48986 10.4166 8.89578 10.1917 9.21504 9.86784C9.53431 9.54396 9.75338 9.13486 9.84598 8.68961C10.2155 6.72691 10.9231 4.84328 11.937 3.12261C11.9578 3.08844 11.9862 3.05955 12.02 3.03821C12.0539 3.01687 12.0922 3.00366 12.132 2.99961C12.185 2.9927 12.2388 2.99745 12.2898 3.01351C12.3407 3.02957 12.3875 3.05657 12.427 3.09261C13.251 3.84161 14.06 4.52961 14.832 5.18361C18.021 7.89161 20.127 9.68361 20.127 12.8696C20.1311 14.1082 19.8504 15.3311 19.3066 16.4439C18.7629 17.5568 17.9706 18.5297 16.991 19.2876V19.2856Z" fill="white"/>
</g>
<defs>
<clipPath id="clip0_88_6256">
<rect width="24" height="24" fill="white"/>
</clipPath>
</defs>
</svg>
