<svg width="24" height="24" viewBox="0 0 24 24" fill="none" xmlns="http://www.w3.org/2000/svg">
<g clip-path="url(#clip0_88_6254)">
<path d="M23.9998 11.6001C24.0122 10.38 23.399 9.23848 22.3748 8.57515C22.9436 6.95773 23.1534 5.23587 22.9898 3.52915C22.9741 2.72431 22.5854 1.97238 21.9378 1.49416C21.3177 1.03137 20.5174 0.883524 19.7728 1.09413C18.2153 1.53795 16.7562 2.27327 15.4729 3.26112C15.0493 2.44573 14.5565 1.66816 13.9999 0.937102C13.1429 -0.139851 11.5752 -0.31821 10.4982 0.538758C10.3508 0.656087 10.2171 0.789727 10.0999 0.937102C9.53131 1.68335 9.02942 2.47807 8.59985 3.31212C7.29734 2.29695 5.81065 1.54343 4.22187 1.0931C3.47881 0.883852 2.68071 1.03165 2.06187 1.49309C1.41392 1.97149 1.02514 2.72388 1.00985 3.5291C0.845932 5.23563 1.05514 6.95745 1.62284 8.5751C0.599557 9.23904 -0.0127712 10.3804 -0.000161825 11.6001C-0.000161825 16.5331 7.33985 19.6661 9.99982 20.6391C9.70737 20.9038 9.45176 21.2065 9.23984 21.5391C8.92582 22.0343 8.92193 22.6652 9.22985 23.1641C9.55526 23.6876 10.1295 24.0043 10.7458 24.0002H13.2538C13.8721 24.0037 14.4475 23.6846 14.7718 23.1581C15.0797 22.6592 15.0758 22.0283 14.7619 21.5331C14.6413 21.3442 14.5048 21.1658 14.3539 21.0001H16.4998C17.3283 21.0001 17.9998 21.6717 17.9998 22.5001C17.9998 23.3285 18.6714 24.0001 19.4998 24.0001C20.3283 24.0001 20.9998 23.3285 20.9998 22.5001C20.9941 20.8204 20.0506 19.2845 18.5548 18.5201C21.2818 16.9321 23.9998 14.6001 23.9998 11.6001ZM17.1825 5.80038C17.2123 5.75571 17.2798 5.67509 17.2798 5.67509C18.077 4.99648 19.0018 4.48409 19.9999 4.1681C20.0971 5.25668 19.9653 6.35356 19.6129 7.38809C19.3875 7.70576 19.04 7.9152 18.6538 7.9661C18.2625 8.02366 17.8647 7.91773 17.5538 7.67309C16.9341 7.25852 16.7679 6.42007 17.1825 5.80038ZM12.0508 3.35313C12.7352 4.30423 13.2433 5.37049 13.5508 6.50112C13.5508 7.32954 12.8793 8.00112 12.0508 8.00112C11.2224 8.00112 10.5508 7.32954 10.5508 6.50112C10.859 5.37068 11.367 4.30456 12.0508 3.35313ZM3.96842 4.1681C4.96648 4.48413 5.89128 4.99648 6.68843 5.67509C6.68843 5.67509 6.75593 5.75571 6.78579 5.80038C7.20035 6.42007 7.03409 7.25852 6.4144 7.67309C6.10353 7.91768 5.70574 8.02366 5.31438 7.9661C4.92823 7.91524 4.58074 7.70576 4.35537 7.38809C4.00296 6.3536 3.8711 5.25668 3.96842 4.1681ZM20.9998 11.6001C20.9998 13.5351 18.0758 15.4931 15.3458 16.8061C15.6384 16.1468 15.8512 15.4549 15.9798 14.7451C16.1151 13.9277 15.5622 13.1554 14.7448 13.0201C13.9274 12.8848 13.1551 13.4377 13.0198 14.2551C12.8269 15.135 12.4908 15.9772 12.0248 16.7481C11.5549 15.942 11.1979 15.0753 10.9638 14.1721C10.7826 13.3636 9.98032 12.855 9.17178 13.0361C8.36323 13.2173 7.85463 14.0195 8.03576 14.8281C8.19856 15.5178 8.42726 16.1902 8.71878 16.8361C5.97082 15.5231 2.99984 13.5501 2.99984 11.6001C2.9877 11.2811 3.23642 11.0127 3.5554 11.0006C3.56421 11.0002 3.57303 11.0001 3.58184 11.0001H20.4178C20.7371 10.9977 20.9978 11.2545 21.0003 11.5737C21.0003 11.5825 21.0002 11.5913 20.9998 11.6001Z" fill="white"/>
</g>
<defs>
<clipPath id="clip0_88_6254">
<rect width="24" height="24" fill="white"/>
</clipPath>
</defs>
</svg>
