<svg width="24" height="24" viewBox="0 0 24 24" fill="none" xmlns="http://www.w3.org/2000/svg">
<g clip-path="url(#clip0_88_6298)">
<path d="M9.00003 12.0003C9.00003 11.2046 9.3161 10.4416 9.87871 9.87894C10.4413 9.31633 11.2044 9.00026 12 9.00026C12.7957 9.00026 13.5587 9.31633 14.1213 9.87894C14.684 10.4416 15 11.2046 15 12.0003C15 12.7959 14.684 13.559 14.1213 14.1216C13.5587 14.6842 12.7957 15.0003 12 15.0003C11.2044 15.0003 10.4413 14.6842 9.87871 14.1216C9.3161 13.559 9.00003 12.7959 9.00003 12.0003ZM16.953 20.5753C21.636 21.2483 24.867 15.6203 21.812 11.9853C22.478 11.1514 22.8791 10.1373 22.9637 9.07344C23.0483 8.00963 22.8125 6.94484 22.2867 6.01619C21.7609 5.08753 20.9692 4.33754 20.0134 3.86277C19.0577 3.388 17.9817 3.2102 16.924 3.35226C16.5271 2.37157 15.8464 1.53174 14.9691 0.940399C14.0919 0.349057 13.058 0.0331421 12 0.0331421C10.9421 0.0331421 9.9082 0.349057 9.03092 0.940399C8.15365 1.53174 7.47294 2.37157 7.07603 3.35226C6.01837 3.20988 4.9423 3.38744 3.98645 3.86205C3.03059 4.33666 2.23873 5.0866 1.71287 6.01524C1.18701 6.94389 0.951235 8.00872 1.03592 9.07255C1.12061 10.1364 1.52187 11.1505 2.18803 11.9843C-0.867971 15.6213 2.36503 21.2473 7.04703 20.5743C7.42688 21.5807 8.10433 22.4476 8.98918 23.0594C9.87402 23.6712 10.9243 23.999 12 23.999C13.0758 23.999 14.126 23.6712 15.0109 23.0594C15.8957 22.4476 16.5732 21.5807 16.953 20.5743V20.5753ZM7.43803 17.3893C4.78803 18.6363 2.49403 14.8893 5.22003 13.3163C5.45325 13.1847 5.64732 12.9935 5.78235 12.7622C5.91739 12.531 5.98856 12.268 5.98856 12.0003C5.98856 11.7325 5.91739 11.4695 5.78235 11.2383C5.64732 11.007 5.45325 10.8158 5.22003 10.6843C2.56703 9.14826 4.70003 5.10526 7.44203 6.61626C7.67018 6.74987 7.9296 6.8208 8.19399 6.82187C8.45839 6.82293 8.71837 6.75409 8.94759 6.62233C9.17681 6.49056 9.36713 6.30054 9.49927 6.07153C9.63141 5.84253 9.70067 5.58266 9.70003 5.31826C9.70003 4.70826 9.94235 4.12325 10.3737 3.69192C10.805 3.26058 11.39 3.01826 12 3.01826C12.61 3.01826 13.195 3.26058 13.6264 3.69192C14.0577 4.12325 14.3 4.70826 14.3 5.31826C14.3001 5.58232 14.3699 5.84168 14.5023 6.07013C14.6347 6.29858 14.8251 6.48803 15.0542 6.61932C15.2833 6.75061 15.543 6.8191 15.8071 6.81786C16.0711 6.81662 16.3302 6.7457 16.558 6.61226C19.3 5.10526 21.432 9.15026 18.78 10.6843C18.5468 10.8158 18.3527 11.007 18.2177 11.2383C18.0827 11.4695 18.0115 11.7325 18.0115 12.0003C18.0115 12.268 18.0827 12.531 18.2177 12.7622C18.3527 12.9935 18.5468 13.1847 18.78 13.3163C21.507 14.8923 19.209 18.6363 16.562 17.3893C16.3341 17.2549 16.0748 17.1831 15.8102 17.1813C15.5456 17.1795 15.2853 17.2477 15.0556 17.379C14.8259 17.5103 14.6351 17.7 14.5024 17.9289C14.3697 18.1578 14.2999 18.4177 14.3 18.6823C14.3 19.2923 14.0577 19.8773 13.6264 20.3086C13.195 20.7399 12.61 20.9823 12 20.9823C11.39 20.9823 10.805 20.7399 10.3737 20.3086C9.94235 19.8773 9.70003 19.2923 9.70003 18.6823C9.7002 18.4177 9.63039 18.1578 9.49769 17.9289C9.36499 17.7 9.17411 17.5103 8.94442 17.379C8.71474 17.2477 8.45441 17.1795 8.18985 17.1813C7.92529 17.1831 7.66591 17.2549 7.43803 17.3893Z" fill="white"/>
</g>
<defs>
<clipPath id="clip0_88_6298">
<rect width="24" height="24" fill="white"/>
</clipPath>
</defs>
</svg>
