<svg width="24" height="24" viewBox="0 0 24 24" fill="none" xmlns="http://www.w3.org/2000/svg">
<path d="M18.5 3.00003H12.492C12.4112 2.99965 12.3317 2.98011 12.26 2.94303L9.315 1.40005C8.81353 1.13755 8.256 1.0003 7.68998 1.00006H5.49998C2.4638 1.00334 0.00332812 3.46386 0 6.50005V17.5001C0.00332812 20.5362 2.4638 22.9968 5.49998 23H18.5C21.5362 22.9967 23.9967 20.5362 24 17.5001V8.50006C23.9967 5.46383 21.5362 3.00336 18.5 3.00003ZM21 17.5C21 18.8807 19.8807 20 18.5 20H5.49998C4.11928 20 3 18.8808 3 17.5V7.96705H20.94C20.9793 8.14198 20.9994 8.32072 21 8.50006V17.5Z" fill="white"/>
</svg>
