<svg width="24" height="24" viewBox="0 0 24 24" fill="none" xmlns="http://www.w3.org/2000/svg">
<g clip-path="url(#clip0_88_6293)">
<path d="M16.9999 17.4996C16.9999 17.8974 16.8419 18.2789 16.5606 18.5603C16.2793 18.8416 15.8978 18.9996 15.4999 18.9996H8.49994C8.10211 18.9996 7.72058 18.8416 7.43928 18.5603C7.15797 18.2789 6.99994 17.8974 6.99994 17.4996C6.99994 17.1018 7.15797 16.7202 7.43928 16.4389C7.72058 16.1576 8.10211 15.9996 8.49994 15.9996H15.4999C15.8978 15.9996 16.2793 16.1576 16.5606 16.4389C16.8419 16.7202 16.9999 17.1018 16.9999 17.4996ZM21.9999 7.15659V18.4996C21.9984 19.9578 21.4184 21.3558 20.3873 22.3869C19.3562 23.418 17.9581 23.998 16.4999 23.9996H7.49994C6.04174 23.998 4.64371 23.418 3.61261 22.3869C2.5815 21.3558 2.00153 19.9578 1.99994 18.4996V5.49959C2.00153 4.04139 2.5815 2.64337 3.61261 1.61226C4.64371 0.581154 6.04174 0.00118082 7.49994 -0.000407345H14.8429C15.5655 -0.00235741 16.2813 0.139023 16.9488 0.415552C17.6164 0.69208 18.2224 1.09826 18.7319 1.61059L20.3889 3.26759C20.9013 3.77711 21.3075 4.38318 21.584 5.05073C21.8605 5.71827 22.0019 6.43404 21.9999 7.15659ZM18.9849 6.99959H16.9999C16.4695 6.99959 15.9608 6.78888 15.5857 6.41381C15.2107 6.03873 14.9999 5.53003 14.9999 4.99959V3.01559C14.9469 3.01159 7.49994 2.99959 7.49994 2.99959C6.8369 2.99959 6.20101 3.26298 5.73217 3.73183C5.26333 4.20067 4.99994 4.83655 4.99994 5.49959V18.4996C4.99994 19.1626 5.26333 19.7985 5.73217 20.2674C6.20101 20.7362 6.8369 20.9996 7.49994 20.9996H16.4999C17.163 20.9996 17.7989 20.7362 18.2677 20.2674C18.7365 19.7985 18.9999 19.1626 18.9999 18.4996C18.9999 18.4996 18.9879 7.05259 18.9849 6.99959ZM14.4999 8.99959H9.49994C8.8369 8.99959 8.20101 9.26299 7.73217 9.73183C7.26333 10.2007 6.99994 10.8366 6.99994 11.4996C6.99994 12.1626 7.26333 12.7985 7.73217 13.2674C8.20101 13.7362 8.8369 13.9996 9.49994 13.9996H14.4999C15.163 13.9996 15.7989 13.7362 16.2677 13.2674C16.7365 12.7985 16.9999 12.1626 16.9999 11.4996C16.9999 10.8366 16.7365 10.2007 16.2677 9.73183C15.7989 9.26299 15.163 8.99959 14.4999 8.99959Z" fill="white"/>
</g>
<defs>
<clipPath id="clip0_88_6293">
<rect width="24" height="24" fill="white"/>
</clipPath>
</defs>
</svg>
