<svg width="24" height="24" viewBox="0 0 24 24" fill="none" xmlns="http://www.w3.org/2000/svg">
<path d="M4.16 20.8088C3.05718 20.8067 2.00014 20.3676 1.22042 19.5876C0.440697 18.8077 0.00185013 17.7506 0 16.6478L0 7.34777C0.000820603 6.57997 0.214269 5.8274 0.616678 5.1735C1.01909 4.5196 1.59473 3.98993 2.27979 3.6432C2.96484 3.29648 3.73254 3.14626 4.49775 3.2092C5.26297 3.27214 5.9958 3.54577 6.615 3.99977L9.527 6.13477C9.72157 5.50028 10.0652 4.92157 10.5291 4.44698C10.9929 3.97239 11.5637 3.6157 12.1936 3.40672C12.8235 3.19774 13.4942 3.14252 14.1498 3.24569C14.8054 3.34886 15.4267 3.60742 15.962 3.99977L22.3 8.64777C22.8258 9.03384 23.2534 9.53828 23.5481 10.1203C23.8428 10.7022 23.9964 11.3454 23.9964 11.9978C23.9964 12.6501 23.8428 13.2933 23.5481 13.8753C23.2534 14.4573 22.8258 14.9617 22.3 15.3478L15.963 19.9998C15.4277 20.3921 14.8062 20.6506 14.1506 20.7538C13.4949 20.857 12.8241 20.8018 12.1942 20.5928C11.5642 20.3838 10.9934 20.0271 10.5294 19.5526C10.0654 19.078 9.72171 18.4993 9.527 17.8648L6.615 19.9998C5.90398 20.5245 5.0437 20.808 4.16 20.8088ZM10.848 13.5368C11.2458 13.5368 11.6274 13.6948 11.9087 13.9761C12.19 14.2574 12.348 14.6389 12.348 15.0368V16.6478C12.3478 16.8616 12.407 17.0713 12.5188 17.2536C12.6306 17.4359 12.7908 17.5837 12.9815 17.6804C13.1722 17.7772 13.3861 17.8192 13.5992 17.8018C13.8124 17.7844 14.0165 17.7082 14.189 17.5818L20.527 12.9328C20.6735 12.8253 20.7927 12.6848 20.8748 12.5227C20.957 12.3606 20.9998 12.1815 20.9998 11.9998C20.9998 11.8181 20.957 11.6389 20.8748 11.4768C20.7927 11.3147 20.6735 11.1742 20.527 11.0668L14.188 6.41777C14.0155 6.29162 13.8115 6.21571 13.5985 6.19844C13.3855 6.18118 13.1719 6.22324 12.9813 6.31997C12.7908 6.41669 12.6307 6.5643 12.5189 6.74643C12.4071 6.92855 12.348 7.13807 12.348 7.35177V8.96277C12.3482 9.24016 12.2715 9.51217 12.1264 9.74858C11.9812 9.98498 11.7734 10.1765 11.526 10.3019C11.2785 10.4273 11.0012 10.4816 10.7247 10.4588C10.4483 10.436 10.1836 10.337 9.96 10.1728L4.841 6.41777C4.66842 6.29172 4.46432 6.21589 4.25131 6.19867C4.03829 6.18145 3.82466 6.22351 3.63408 6.3202C3.44349 6.41689 3.28338 6.56444 3.17147 6.74651C3.05955 6.92857 3.00021 7.13806 3 7.35177V16.6518C3.00021 16.8655 3.05955 17.075 3.17147 17.257C3.28338 17.4391 3.44349 17.5866 3.63408 17.6833C3.82466 17.78 4.03829 17.8221 4.25131 17.8049C4.46432 17.7877 4.66842 17.7118 4.841 17.5858L9.96 13.8268C10.2178 13.6384 10.5287 13.5369 10.848 13.5368Z" fill="white"/>
</svg>
