<svg width="24" height="24" viewBox="0 0 24 24" fill="none" xmlns="http://www.w3.org/2000/svg">
<g clip-path="url(#clip0_88_6241)">
<path d="M23.0692 0.533622C22.7801 0.302891 22.4425 0.140721 22.0817 0.0593126C21.7209 -0.0220957 21.3463 -0.0206224 20.9862 0.0636218C20.0721 0.32141 19.227 0.779864 18.5126 1.40558C17.7981 2.0313 17.2322 2.80852 16.8562 3.68062C13.6734 2.83962 10.3269 2.83962 7.14416 3.68062C6.76763 2.80865 6.20148 2.03156 5.48689 1.40588C4.7723 0.780206 3.92723 0.321668 3.01316 0.0636218C2.65267 -0.019545 2.27805 -0.0203302 1.91721 0.0613248C1.55637 0.14298 1.2186 0.304972 0.929029 0.535242C0.639461 0.765512 0.405561 1.05813 0.244739 1.39131C0.0839174 1.72449 0.000316979 2.08966 0.000160885 2.45962V9.95962C-0.00369808 11.4108 0.280224 12.8483 0.835503 14.1891C1.39078 15.5298 2.20639 16.7471 3.23516 17.7706L7.68116 22.2096C8.82998 23.3488 10.3823 23.9879 12.0002 23.9879C13.618 23.9879 15.1703 23.3488 16.3192 22.2096L20.7652 17.7656C21.7941 16.7423 22.6098 15.525 23.1651 14.1842C23.7204 12.8434 24.0042 11.4058 24.0002 9.95462V2.45962C24.001 2.08904 23.9177 1.7231 23.7564 1.38945C23.5951 1.0558 23.3601 0.763155 23.0692 0.533622ZM4.85016 5.97462C4.91301 6.16304 5.01265 6.33709 5.14331 6.48669C5.27396 6.63629 5.43303 6.75845 5.61127 6.84609C5.78952 6.93372 5.98339 6.98508 6.18164 6.99719C6.37989 7.0093 6.57858 6.98191 6.76616 6.91662C8.45771 6.36108 10.2205 6.05224 12.0002 5.99962C13.7798 6.05279 15.5425 6.36162 17.2342 6.91662C17.4218 6.98189 17.6206 7.00923 17.8189 6.99706C18.0172 6.98488 18.2111 6.93344 18.3893 6.8457C18.5676 6.75797 18.7266 6.6357 18.8572 6.486C18.9878 6.33629 19.0874 6.16213 19.1502 5.97362C19.4454 4.88973 20.0971 3.93686 21.0002 3.26862V7.16862C19.1213 7.46512 17.3346 8.18526 15.7753 9.27452C14.216 10.3638 12.9251 11.7936 12.0002 13.4556C11.0751 11.7938 9.78411 10.3642 8.22483 9.27508C6.66554 8.186 4.87889 7.46601 3.00016 7.16962V3.26962C3.9032 3.93786 4.55488 4.89073 4.85016 5.97462ZM5.35716 15.6446C3.91853 14.2105 3.08066 12.2819 3.01416 10.2516C3.70718 10.4176 4.38339 10.6472 5.03416 10.9376C5.0945 11.5262 5.30905 12.0885 5.65616 12.5676C6.02481 13.0434 6.50364 13.4223 7.05136 13.6718C7.59909 13.9213 8.19927 14.0338 8.80016 13.9996C9.81653 15.5279 10.3869 17.3092 10.4472 19.1436C10.1282 19.3491 9.8529 19.6155 9.63716 19.9276L5.35716 15.6446ZM18.6442 15.6446L14.3602 19.9266C14.1444 19.6145 13.8692 19.3481 13.5502 19.1426C13.6115 17.3083 14.1829 15.5273 15.2002 13.9996C15.8014 14.0342 16.4021 13.922 16.9504 13.6727C17.4986 13.4234 17.978 13.0445 18.3472 12.5686C18.6943 12.0895 18.9088 11.5272 18.9692 10.9386C19.62 10.6484 20.2962 10.4188 20.9892 10.2526C20.9215 12.2827 20.083 14.2108 18.6442 15.6446Z" fill="white"/>
</g>
<defs>
<clipPath id="clip0_88_6241">
<rect width="24" height="24" fill="white"/>
</clipPath>
</defs>
</svg>
