<svg width="24" height="24" viewBox="0 0 24 24" fill="none" xmlns="http://www.w3.org/2000/svg">
<g clip-path="url(#clip0_88_6283)">
<path d="M1.05596 22.6113L3.06696 23.2363C3.09096 23.2463 3.11196 23.2603 3.13696 23.2683C3.16196 23.2763 3.18696 23.2743 3.21196 23.2813L5.31196 23.9333C5.69201 24.0511 6.10328 24.013 6.45529 23.8276C6.80729 23.6421 7.0712 23.3244 7.18896 22.9443C7.30671 22.5643 7.26867 22.153 7.0832 21.801C6.89772 21.449 6.58001 21.1851 6.19996 21.0673L5.55596 20.8673L6.19996 19.0003C7.315 19.0027 8.40074 18.6434 9.29418 17.9762C10.1876 17.3091 10.8405 16.3701 11.155 15.3003L12 12.8113L12.818 15.2213C13.125 16.307 13.7773 17.2631 14.6763 17.9449C15.5752 18.6268 16.6717 18.9973 17.8 19.0003L18.447 20.8693L17.803 21.0693C17.4229 21.1871 17.1052 21.451 16.9197 21.803C16.7342 22.155 16.6962 22.5663 16.814 22.9463C16.9317 23.3264 17.1956 23.6441 17.5476 23.8296C17.8996 24.015 18.3109 24.0531 18.691 23.9353L20.791 23.2833C20.816 23.2763 20.841 23.2833 20.866 23.2703C20.891 23.2573 20.912 23.2483 20.936 23.2383L22.947 22.6133C23.1385 22.5579 23.317 22.4649 23.4722 22.3397C23.6273 22.2144 23.756 22.0596 23.8505 21.884C23.9451 21.7085 24.0038 21.5159 24.0231 21.3175C24.0424 21.1191 24.0219 20.9188 23.9629 20.7283C23.9038 20.5379 23.8074 20.3611 23.6793 20.2084C23.5512 20.0556 23.3939 19.93 23.2166 19.8387C23.0393 19.7475 22.8457 19.6925 22.6469 19.677C22.4481 19.6614 22.2482 19.6857 22.059 19.7483L21.313 19.9793L20.67 18.1233C21.6008 17.5253 22.3112 16.6401 22.6934 15.6019C23.0756 14.5637 23.1088 13.4291 22.788 12.3703L21.096 7.37032C20.8449 6.533 20.2747 5.82796 19.5084 5.40738C18.7421 4.9868 17.8411 4.88442 17 5.12232L13.45 6.10632C12.9008 6.26118 12.4013 6.55577 12 6.96132C11.5989 6.55624 11.1002 6.26141 10.552 6.10532L6.99996 5.12332C6.16726 4.88283 5.27346 4.97855 4.51057 5.38991C3.74768 5.80127 3.17658 6.49545 2.91996 7.32332L1.19096 12.4443C0.891002 13.4951 0.937343 14.6146 1.32312 15.6371C1.7089 16.6595 2.41361 17.5306 3.33296 18.1213L2.68996 19.9773L1.94396 19.7463C1.75467 19.6837 1.5548 19.6594 1.35603 19.675C1.15726 19.6905 0.963582 19.7455 0.786313 19.8367C0.609044 19.928 0.451744 20.0536 0.32361 20.2064C0.195475 20.3591 0.0990772 20.5359 0.0400517 20.7263C-0.0189737 20.9168 -0.0394424 21.1171 -0.0201575 21.3155C-0.000872636 21.5139 0.0577788 21.7065 0.152368 21.882C0.246957 22.0576 0.375585 22.2124 0.530733 22.3377C0.685881 22.4629 0.864435 22.5559 1.05596 22.6113ZM14.041 9.16032C14.0631 9.12106 14.093 9.08666 14.1287 9.05917C14.1644 9.03168 14.2053 9.01167 14.249 9.00032L17.799 8.01632C17.8285 8.00699 17.8591 8.00161 17.89 8.00032C17.9706 8.00314 18.0482 8.03235 18.1107 8.08347C18.1732 8.13458 18.2172 8.20479 18.236 8.28332L19.157 11.0003H14.557L14.019 9.41332C14.0051 9.37189 13.9999 9.32805 14.0037 9.28453C14.0075 9.24101 14.0202 9.19874 14.041 9.16032ZM6.10696 8.00032C6.13871 8.00064 6.1703 8.00501 6.20096 8.01332L9.75096 9.00032C9.79484 9.01202 9.8359 9.0325 9.87165 9.06051C9.9074 9.08853 9.9371 9.1235 9.95896 9.16332C9.99588 9.2245 10.0104 9.29662 9.99996 9.36732L9.44696 11.0003H4.84696L5.77996 8.24032C5.80186 8.17074 5.84537 8.10996 5.90418 8.0668C5.96298 8.02364 6.03401 8.00035 6.10696 8.00032Z" fill="white"/>
<path d="M16.5001 4.00048C16.6971 4.00057 16.8922 3.96185 17.0743 3.88652C17.2563 3.8112 17.4218 3.70075 17.5611 3.56148L18.5611 2.56148C18.8425 2.28009 19.0006 1.89843 19.0006 1.50048C19.0006 1.10253 18.8425 0.720875 18.5611 0.439481C18.2797 0.158086 17.8981 0 17.5001 0C17.1022 0 16.7205 0.158086 16.4391 0.439481L15.4391 1.43948C15.2292 1.64926 15.0862 1.9166 15.0283 2.20766C14.9704 2.49872 15.0001 2.80042 15.1137 3.0746C15.2272 3.34877 15.4196 3.58309 15.6664 3.7479C15.9132 3.91271 16.2033 4.00062 16.5001 4.00048Z" fill="white"/>
<path d="M6.43891 3.56148C6.72031 3.84288 7.10196 4.00096 7.49991 4.00096C7.89786 4.00096 8.27952 3.84288 8.56091 3.56148C8.8423 3.28009 9.00039 2.89843 9.00039 2.50048C9.00039 2.10253 8.8423 1.72088 8.56091 1.43948L7.56091 0.439481C7.27952 0.158086 6.89786 -2.96497e-09 6.49991 0C6.10196 2.96498e-09 5.72031 0.158086 5.43892 0.439481C5.15752 0.720875 4.99944 1.10253 4.99944 1.50048C4.99944 1.89843 5.15752 2.28009 5.43892 2.56148L6.43891 3.56148Z" fill="white"/>
<path d="M12 4C12.3978 4 12.7794 3.84196 13.0607 3.56066C13.342 3.27936 13.5 2.89782 13.5 2.5V1.5C13.5 1.10218 13.342 0.720644 13.0607 0.43934C12.7794 0.158035 12.3978 0 12 0C11.6022 0 11.2206 0.158035 10.9393 0.43934C10.658 0.720644 10.5 1.10218 10.5 1.5V2.5C10.5 2.89782 10.658 3.27936 10.9393 3.56066C11.2206 3.84196 11.6022 4 12 4Z" fill="white"/>
</g>
<defs>
<clipPath id="clip0_88_6283">
<rect width="24" height="24" fill="white"/>
</clipPath>
</defs>
</svg>
