<svg width="24" height="24" viewBox="0 0 24 24" fill="none" xmlns="http://www.w3.org/2000/svg">
<g clip-path="url(#clip0_88_6408)">
<path d="M13.4182 15.0002C14.9016 15.0002 16.3516 14.5603 17.585 13.7362C18.8183 12.9121 19.7796 11.7408 20.3473 10.3703C20.9149 8.99987 21.0635 7.49187 20.7741 6.03701C20.4847 4.58216 19.7704 3.24578 18.7215 2.19689C17.6726 1.148 16.3362 0.43369 14.8814 0.1443C13.4265 -0.145089 11.9185 0.00343621 10.5481 0.571093C9.17764 1.13875 8.0063 2.10004 7.18219 3.33341C6.35808 4.56678 5.91821 6.01683 5.91821 7.50019C5.92033 9.48866 6.71118 11.3951 8.11725 12.8012C9.52331 14.2072 11.4297 14.9981 13.4182 15.0002ZM13.4182 3.00019C14.3082 3.00019 15.1782 3.26411 15.9183 3.75858C16.6583 4.25304 17.2351 4.95585 17.5757 5.77811C17.9162 6.60038 18.0054 7.50518 17.8317 8.3781C17.6581 9.25101 17.2295 10.0528 16.6002 10.6822C15.9708 11.3115 15.169 11.7401 14.2961 11.9137C13.4232 12.0874 12.5184 11.9982 11.6961 11.6576C10.8739 11.3171 10.1711 10.7403 9.67659 10.0003C9.18213 9.26024 8.91821 8.39021 8.91821 7.50019C8.91821 6.30672 9.39231 5.16212 10.2362 4.31821C11.0801 3.4743 12.2247 3.00019 13.4182 3.00019ZM23.7372 14.5562C22.6834 16.0914 21.2997 17.3716 19.6873 18.303C18.0749 19.2344 16.2746 19.7934 14.4182 19.9392V21.0002H17.5002C17.898 21.0002 18.2796 21.1582 18.5609 21.4395C18.8422 21.7208 19.0002 22.1024 19.0002 22.5002C19.0002 22.898 18.8422 23.2795 18.5609 23.5609C18.2796 23.8422 17.898 24.0002 17.5002 24.0002H8.50021C8.10238 24.0002 7.72085 23.8422 7.43955 23.5609C7.15825 23.2795 7.00021 22.898 7.00021 22.5002C7.00021 22.1024 7.15825 21.7208 7.43955 21.4395C7.72085 21.1582 8.10238 21.0002 8.50021 21.0002H11.4182V19.8252C9.36504 19.494 7.42709 18.6552 5.78024 17.3852C4.1334 16.1151 2.8298 14.4538 1.98776 12.5522C1.14571 10.6506 0.791886 8.56877 0.95839 6.49573C1.12489 4.42269 1.80645 2.42404 2.94122 0.68119C3.04739 0.513165 3.1859 0.367917 3.3487 0.253887C3.5115 0.139857 3.69534 0.0593192 3.88953 0.0169534C4.08373 -0.0254125 4.2844 -0.0287613 4.4799 0.00710157C4.6754 0.0429644 4.86182 0.117324 5.02834 0.225858C5.19485 0.334393 5.33813 0.474938 5.44985 0.639327C5.56158 0.803716 5.63952 0.988671 5.67914 1.18344C5.71877 1.37821 5.71929 1.57892 5.68067 1.77389C5.64206 1.96887 5.56508 2.15422 5.45421 2.31919C4.05639 4.41559 3.54861 6.98142 4.04258 9.45221C4.53655 11.923 5.99181 14.0964 8.08821 15.4942C10.1846 16.892 12.7504 17.3998 15.2212 16.9058C17.692 16.4119 19.8654 14.9566 21.2632 12.8602C21.3748 12.6977 21.5173 12.5589 21.6826 12.4515C21.8479 12.3442 22.0327 12.2704 22.2265 12.2345C22.4203 12.1985 22.6193 12.2011 22.8121 12.2421C23.0049 12.283 23.1877 12.3616 23.3502 12.4732C23.5126 12.5848 23.6515 12.7273 23.7589 12.8926C23.8662 13.0579 23.94 13.2427 23.9759 13.4365C24.0119 13.6303 24.0093 13.8293 23.9683 14.0221C23.9273 14.2149 23.8488 14.3977 23.7372 14.5602V14.5562Z" fill="white"/>
</g>
<defs>
<clipPath id="clip0_88_6408">
<rect width="24" height="24" fill="white"/>
</clipPath>
</defs>
</svg>
