<svg width="24" height="24" viewBox="0 0 24 24" fill="none" xmlns="http://www.w3.org/2000/svg">
<g clip-path="url(#clip0_88_6417)">
<path d="M12 9.99971C10.9963 10.0006 9.99391 10.0711 8.99999 10.2107V8.93971L13.609 7.03171C13.644 7.01771 13.679 7.00171 13.709 6.98471C14.0917 6.79143 14.4183 6.50296 14.6574 6.14701C14.8965 5.79106 15.04 5.37961 15.0741 4.95219C15.1083 4.52477 15.0319 4.09575 14.8524 3.70636C14.6729 3.31697 14.3962 2.9803 14.049 2.72871C14 2.69271 9.61799 0.264709 9.61799 0.264709C9.23692 0.074181 8.81348 -0.0157991 8.38786 0.00330962C7.96225 0.0224183 7.54857 0.149982 7.18611 0.373892C6.82365 0.597802 6.52442 0.910629 6.31683 1.28268C6.10924 1.65473 6.00018 2.07366 5.99999 2.49971V10.8827C2.36099 12.0587 -7.62939e-06 14.2997 -7.62939e-06 16.9997C-7.62939e-06 20.9907 5.15899 23.9997 12 23.9997C18.841 23.9997 24 20.9907 24 16.9997C24 13.0087 18.841 9.99971 12 9.99971ZM12 20.9997C6.84899 20.9997 2.99999 18.8877 2.99999 16.9997C2.99999 15.9747 4.13999 14.8867 5.99999 14.0997V16.4997C5.99999 16.8975 6.15803 17.2791 6.43933 17.5604C6.72064 17.8417 7.10217 17.9997 7.49999 17.9997C7.89782 17.9997 8.27935 17.8417 8.56065 17.5604C8.84196 17.2791 8.99999 16.8975 8.99999 16.4997V13.2537C9.99097 13.0841 10.9946 12.9991 12 12.9997C17.151 12.9997 21 15.1117 21 16.9997C21 18.8877 17.151 20.9997 12 20.9997ZM17 16.9997C17 17.3953 16.8827 17.782 16.6629 18.1109C16.4432 18.4398 16.1308 18.6961 15.7654 18.8475C15.3999 18.9988 14.9978 19.0385 14.6098 18.9613C14.2218 18.8841 13.8655 18.6936 13.5858 18.4139C13.3061 18.1342 13.1156 17.7779 13.0384 17.3899C12.9613 17.0019 13.0009 16.5998 13.1522 16.2343C13.3036 15.8689 13.56 15.5565 13.8889 15.3368C14.2178 15.117 14.6044 14.9997 15 14.9997C15.5304 14.9997 16.0391 15.2104 16.4142 15.5855C16.7893 15.9606 17 16.4693 17 16.9997Z" fill="white"/>
</g>
<defs>
<clipPath id="clip0_88_6417">
<rect width="24" height="24" fill="white"/>
</clipPath>
</defs>
</svg>
