<svg width="24" height="24" viewBox="0 0 24 24" fill="none" xmlns="http://www.w3.org/2000/svg">
<g clip-path="url(#clip0_88_6525)">
<path d="M22.7999 5.98341L21.4669 4.65441L22.5609 3.56141C22.8423 3.28001 23.0004 2.89836 23.0004 2.50041C23.0004 2.10245 22.8423 1.7208 22.5609 1.43941C22.2795 1.15801 21.8979 0.999926 21.4999 0.999926C21.102 0.999926 20.7203 1.15801 20.4389 1.43941L19.3459 2.53341L18.0169 1.20041C17.635 0.818457 17.1815 0.515478 16.6825 0.308768C16.1834 0.102059 15.6486 -0.00433349 15.1084 -0.0043335C14.5683 -0.0043335 14.0334 0.102059 13.5344 0.308768C13.0353 0.515478 12.5819 0.818457 12.1999 1.20041C11.818 1.58236 11.515 2.0358 11.3083 2.53484C11.1016 3.03388 10.9952 3.56875 10.9952 4.10891C10.9952 4.64907 11.1016 5.18394 11.3083 5.68298C11.515 6.18202 11.818 6.63546 12.1999 7.01741L13.5289 8.34641L8.34592 13.5334L7.01692 12.2004C6.63497 11.8185 6.18153 11.5155 5.68249 11.3088C5.18345 11.1021 4.64858 10.9957 4.10842 10.9957C3.56826 10.9957 3.03339 11.1021 2.53435 11.3088C2.03531 11.5155 1.58187 11.8185 1.19992 12.2004C0.428536 12.9718 -0.00482178 14.018 -0.00482178 15.1089C-0.00482178 16.1998 0.428536 17.246 1.19992 18.0174L2.52892 19.3464L1.43892 20.4394C1.15752 20.7208 0.999438 21.1025 0.999438 21.5004C0.999438 21.8984 1.15752 22.28 1.43892 22.5614C1.72031 22.8428 2.10197 23.0009 2.49992 23.0009C2.89787 23.0009 3.27952 22.8428 3.56092 22.5614L4.65392 21.4674L5.98292 22.8004C6.7543 23.5718 7.80052 24.0051 8.89142 24.0051C9.98232 24.0051 11.0285 23.5718 11.7999 22.8004C12.5713 22.029 13.0047 20.9828 13.0047 19.8919C13.0047 18.801 12.5713 17.7548 11.7999 16.9834L10.4709 15.6554L15.6589 10.4674L16.9829 11.8004C17.3649 12.1824 17.8183 12.4853 18.3174 12.692C18.8164 12.8988 19.3513 13.0051 19.8914 13.0051C20.4316 13.0051 20.9664 12.8988 21.4655 12.692C21.9645 12.4853 22.418 12.1824 22.7999 11.8004C23.1819 11.4185 23.4848 10.965 23.6916 10.466C23.8983 9.96694 24.0047 9.43207 24.0047 8.89191C24.0047 8.35175 23.8983 7.81688 23.6916 7.31784C23.4848 6.8188 23.1819 6.36536 22.7999 5.98341ZM9.67492 20.6744C9.46313 20.8761 9.18188 20.9886 8.88942 20.9886C8.59696 20.9886 8.31571 20.8761 8.10392 20.6744L3.32492 15.9004C3.11606 15.6915 2.99873 15.4083 2.99873 15.1129C2.99873 14.8175 3.11606 14.5343 3.32492 14.3254C3.53378 14.1165 3.81705 13.9992 4.11242 13.9992C4.40779 13.9992 4.69106 14.1165 4.89992 14.3254L9.67492 19.1004C9.88291 19.3087 9.99973 19.591 9.99973 19.8854C9.99973 20.1798 9.88291 20.4621 9.67492 20.6704V20.6744ZM20.6749 9.67441C20.4631 9.8761 20.1819 9.9886 19.8894 9.9886C19.597 9.9886 19.3157 9.8761 19.1039 9.67441L14.3249 4.90041C14.1161 4.69155 13.9987 4.40828 13.9987 4.11291C13.9987 3.81754 14.1161 3.53427 14.3249 3.32541C14.5338 3.11655 14.817 2.99921 15.1124 2.99921C15.4078 2.99921 15.6911 3.11655 15.8999 3.32541L20.6749 8.10041C20.8829 8.30871 20.9997 8.59104 20.9997 8.88541C20.9997 9.17977 20.8829 9.4621 20.6749 9.67041V9.67441Z" fill="white"/>
</g>
<defs>
<clipPath id="clip0_88_6525">
<rect width="24" height="24" fill="white"/>
</clipPath>
</defs>
</svg>
