<svg width="24" height="24" viewBox="0 0 24 24" fill="none" xmlns="http://www.w3.org/2000/svg">
<g clip-path="url(#clip0_88_6274)">
<path d="M19.8821 4.43738C18.6466 2.78098 16.971 1.50455 15.046 0.753277C13.121 0.00200218 11.0237 -0.193964 8.99286 0.187667C6.96197 0.569299 5.07894 1.51321 3.55795 2.91204C2.03696 4.31087 0.939052 6.10847 0.389108 8.10038C-0.0526647 9.75201 -0.10188 11.4841 0.245396 13.1581C0.592673 14.8322 1.32681 16.4018 2.38911 17.7414C2.76717 18.2039 2.98196 18.7783 3.00011 19.3754V19.4854C2.99957 20.6804 3.47303 21.8268 4.31662 22.6733C5.16022 23.5197 6.30509 23.9969 7.5001 24.0004H12.5001C13.4374 23.9993 14.3511 23.706 15.1139 23.1613C15.8768 22.6166 16.4508 21.8476 16.7561 20.9614C17.9416 20.8225 19.0493 20.2999 19.9104 19.4733C20.7715 18.6466 21.3389 17.5613 21.5261 16.3824L21.6701 15.4974C22.3147 15.4647 22.9205 15.1796 23.3566 14.7037C23.7926 14.2278 24.0238 13.5994 24.0001 12.9544C24.0001 11.3554 21.0531 5.88238 19.8821 4.43738ZM20.3941 12.5004C20.038 12.5005 19.6935 12.6274 19.4224 12.8582C19.1512 13.0891 18.9711 13.4089 18.9141 13.7604L18.5651 15.9004C18.4721 16.4868 18.1726 17.0207 17.7206 17.4058C17.2686 17.7909 16.6939 18.0017 16.1001 18.0004H15.5001C15.3031 18.0004 15.1081 18.0392 14.9261 18.1146C14.7441 18.1899 14.5787 18.3004 14.4394 18.4397C14.3001 18.579 14.1897 18.7444 14.1143 18.9264C14.0389 19.1083 14.0001 19.3034 14.0001 19.5004C14.0001 19.8982 13.8421 20.2797 13.5608 20.561C13.2794 20.8423 12.8979 21.0004 12.5001 21.0004H7.5001C7.10049 20.9977 6.71823 20.8368 6.43706 20.5528C6.1559 20.2688 5.99877 19.885 6.0001 19.4854V19.3754C5.98728 18.1109 5.55066 16.8873 4.7601 15.9004C3.97982 14.9285 3.43963 13.7864 3.18335 12.5667C2.92708 11.347 2.96194 10.0841 3.2851 8.88038C3.69669 7.41429 4.51497 6.0947 5.64527 5.0743C6.77557 4.05389 8.17169 3.37438 9.6721 3.11438C10.1149 3.03984 10.5631 3.00171 11.0121 3.00038C12.2759 3.00133 13.522 3.29801 14.6507 3.86668C15.7793 4.43535 16.7593 5.26024 17.5121 6.27538C18.8419 8.22427 19.9567 10.3114 20.8371 12.5004H20.3941ZM16.2251 8.05138C16.0297 7.70492 15.7047 7.45023 15.3216 7.34334C14.9385 7.23645 14.5286 7.2861 14.1821 7.48138L13.4741 7.88138C13.1788 7.64229 12.8508 7.44664 12.5001 7.30038V6.50038C12.5001 6.10255 12.3421 5.72102 12.0608 5.43972C11.7795 5.15841 11.3979 5.00038 11.0001 5.00038C10.6023 5.00038 10.2207 5.15841 9.93944 5.43972C9.65813 5.72102 9.5001 6.10255 9.5001 6.50038V7.30038C9.14923 7.44757 8.82123 7.64423 8.5261 7.88438L7.8181 7.48438C7.64633 7.3876 7.45718 7.32559 7.26145 7.30191C7.06572 7.27822 6.86724 7.29332 6.67734 7.34635C6.48745 7.39937 6.30985 7.48927 6.15471 7.61093C5.99956 7.73259 5.86989 7.88361 5.7731 8.05538C5.67632 8.22715 5.61431 8.4163 5.59063 8.61203C5.56695 8.80776 5.58205 9.00624 5.63507 9.19614C5.74215 9.57965 5.9972 9.90492 6.3441 10.1004L7.0511 10.5004C7.02368 10.6658 7.00664 10.8328 7.0001 11.0004C7.00639 11.17 7.02342 11.339 7.0511 11.5064L6.3441 11.9064C5.99746 12.1018 5.74267 12.427 5.63578 12.8103C5.52888 13.1937 5.57864 13.6037 5.7741 13.9504C5.96957 14.297 6.29473 14.5518 6.67805 14.6587C7.06137 14.7656 7.47146 14.7158 7.8181 14.5204L8.5261 14.1204C8.82148 14.3591 9.14946 14.5544 9.5001 14.7004V15.5004C9.5001 15.8982 9.65813 16.2797 9.93944 16.561C10.2207 16.8423 10.6023 17.0004 11.0001 17.0004C11.3979 17.0004 11.7795 16.8423 12.0608 16.561C12.3421 16.2797 12.5001 15.8982 12.5001 15.5004V14.7004C12.851 14.5532 13.179 14.3565 13.4741 14.1164L14.1821 14.5164C14.5287 14.7118 14.9388 14.7616 15.3221 14.6547C15.7055 14.5478 16.0306 14.293 16.2261 13.9464C16.4216 13.5997 16.4713 13.1897 16.3644 12.8063C16.2575 12.423 16.0027 12.0978 15.6561 11.9024L14.9491 11.5024C14.9766 11.3363 14.9936 11.1686 15.0001 11.0004C14.9938 10.8308 14.9768 10.6618 14.9491 10.4944L15.6561 10.0944C16.0024 9.89884 16.2569 9.57378 16.3636 9.19068C16.4702 8.80757 16.4204 8.39778 16.2251 8.05138ZM12.0001 11.0004C12.0001 11.1982 11.9414 11.3915 11.8316 11.556C11.7217 11.7204 11.5655 11.8486 11.3828 11.9243C11.2001 11.9999 10.999 12.0198 10.805 11.9812C10.611 11.9426 10.4328 11.8473 10.293 11.7075C10.1531 11.5676 10.0579 11.3895 10.0193 11.1955C9.98073 11.0015 10.0005 10.8004 10.0762 10.6177C10.1519 10.435 10.2801 10.2788 10.4445 10.1689C10.609 10.059 10.8023 10.0004 11.0001 10.0004C11.2653 10.0004 11.5197 10.1057 11.7072 10.2933C11.8947 10.4808 12.0001 10.7352 12.0001 11.0004Z" fill="white"/>
</g>
<defs>
<clipPath id="clip0_88_6274">
<rect width="24" height="24" fill="white"/>
</clipPath>
</defs>
</svg>
