<svg width="24" height="24" viewBox="0 0 24 24" fill="none" xmlns="http://www.w3.org/2000/svg">
<g clip-path="url(#clip0_88_6219)">
<path d="M24 9.9239V18.4999C23.9984 19.9581 23.4184 21.3561 22.3873 22.3872C21.3562 23.4183 19.9582 23.9983 18.5 23.9999C18.1022 23.9999 17.7206 23.8419 17.4393 23.5606C17.158 23.2793 17 22.8977 17 22.4999C17 22.1021 17.158 21.7205 17.4393 21.4392C17.7206 21.1579 18.1022 20.9999 18.5 20.9999C19.163 20.9999 19.7989 20.7365 20.2678 20.2677C20.7366 19.7988 21 19.1629 21 18.4999V9.9239C21.0003 9.51473 20.9001 9.11174 20.7083 8.75031C20.5166 8.38887 20.239 8.08003 19.9 7.8509L13.3 3.3999C12.9176 3.13993 12.4659 3.00092 12.0035 3.00092C11.5411 3.00092 11.0894 3.13993 10.707 3.3999L4.09998 7.8509C3.76099 8.08003 3.48342 8.38887 3.29163 8.75031C3.09984 9.11174 2.9997 9.51473 2.99998 9.9239V18.4999C2.99998 19.1629 3.26338 19.7988 3.73222 20.2677C4.20106 20.7365 4.83694 20.9999 5.49998 20.9999C5.89781 20.9999 6.27934 21.1579 6.56065 21.4392C6.84195 21.7205 6.99998 22.1021 6.99998 22.4999C6.99998 22.8977 6.84195 23.2793 6.56065 23.5606C6.27934 23.8419 5.89781 23.9999 5.49998 23.9999C4.04178 23.9983 2.64376 23.4183 1.61265 22.3872C0.581546 21.3561 0.00157306 19.9581 -1.51135e-05 18.4999V9.9239C-0.000222064 9.02356 0.220602 8.13693 0.643069 7.34186C1.06554 6.54679 1.67673 5.8676 2.42299 5.3639L9.02498 0.909897C9.90236 0.313169 10.9389 -0.00592041 12 -0.00592041C13.0611 -0.00592041 14.0976 0.313169 14.975 0.909897L21.575 5.3639C22.3216 5.86737 22.9332 6.54647 23.356 7.34155C23.7788 8.13663 24 9.02338 24 9.9239ZM19 14.9999C19.0027 15.9194 18.8228 16.8303 18.471 17.6798C18.1191 18.5294 17.6021 19.3006 16.95 19.9489L13.357 23.4639C12.9955 23.8201 12.5084 24.0197 12.001 24.0197C11.4935 24.0197 11.0065 23.8201 10.645 23.4639L7.06198 19.9609C6.24555 19.1483 5.64226 18.1468 5.30561 17.0453C4.96897 15.9437 4.90936 14.776 5.13209 13.6459C5.35482 12.5158 5.853 11.458 6.58245 10.5666C7.3119 9.67509 8.25006 8.97739 9.31375 8.53536C10.3774 8.09333 11.5338 7.92063 12.6802 8.03256C13.8266 8.14449 14.9277 8.5376 15.8858 9.17703C16.8439 9.81646 17.6294 10.6824 18.1726 11.6982C18.7159 12.7139 19.0001 13.848 19 14.9999ZM16 14.9999C16 14.3421 15.8377 13.6945 15.5277 13.1144C15.2176 12.5343 14.7692 12.0397 14.2223 11.6742C13.6754 11.3088 13.0469 11.0838 12.3923 11.0193C11.7377 10.9548 11.0773 11.0527 10.4696 11.3044C9.86184 11.5561 9.32557 11.9537 8.90823 12.4621C8.49089 12.9705 8.20537 13.574 8.07695 14.2191C7.94854 14.8642 7.98119 15.531 8.17202 16.1605C8.36285 16.79 8.70597 17.3627 9.17098 17.8279L12 20.5999L14.84 17.8209C15.2101 17.4506 15.5032 17.0107 15.7023 16.5265C15.9014 16.0423 16.0026 15.5234 16 14.9999ZM12 12.9999C11.6044 12.9999 11.2177 13.1172 10.8888 13.337C10.5599 13.5567 10.3036 13.8691 10.1522 14.2345C10.0009 14.6 9.96124 15.0021 10.0384 15.3901C10.1156 15.778 10.3061 16.1344 10.5858 16.4141C10.8655 16.6938 11.2218 16.8843 11.6098 16.9615C11.9978 17.0386 12.3999 16.999 12.7654 16.8477C13.1308 16.6963 13.4432 16.4399 13.6629 16.111C13.8827 15.7821 14 15.3955 14 14.9999C14 14.4695 13.7893 13.9608 13.4142 13.5857C13.0391 13.2106 12.5304 12.9999 12 12.9999Z" fill="white"/>
</g>
<defs>
<clipPath id="clip0_88_6219">
<rect width="24" height="24" fill="white"/>
</clipPath>
</defs>
</svg>
