<svg width="24" height="24" viewBox="0 0 24 24" fill="none" xmlns="http://www.w3.org/2000/svg">
<path d="M17.0239 12C19.0938 10.1695 20.4829 7.69191 20.9649 4.971C21.0561 4.35817 21.0139 3.73287 20.8413 3.13781C20.6688 2.54275 20.3698 1.99195 19.9649 1.523C19.5538 1.04508 19.0443 0.661574 18.4713 0.39872C17.8983 0.135865 17.2753 -0.000141745 16.6449 1.10853e-07H7.38086C6.75056 0.00025813 6.12774 0.136549 5.55494 0.399565C4.98214 0.66258 4.47285 1.04612 4.06186 1.524C3.65657 1.99333 3.35741 2.54464 3.18482 3.14024C3.01223 3.73585 2.97029 4.36169 3.06186 4.975C3.54151 7.69491 4.92986 10.1716 6.99986 12C4.9306 13.8287 3.54298 16.3054 3.06386 19.025C2.97229 19.6383 3.01423 20.2642 3.18682 20.8598C3.35941 21.4554 3.65857 22.0067 4.06386 22.476C4.47463 22.9536 4.9836 23.337 5.55603 23.6C6.12847 23.863 6.7509 23.9995 7.38086 24H16.6449C17.2749 23.9999 17.8976 23.8637 18.4702 23.6009C19.0428 23.338 19.552 22.9547 19.9629 22.477C20.368 22.0084 20.6671 21.4578 20.8397 20.8628C21.0123 20.2679 21.0543 19.6427 20.9629 19.03C20.4817 16.309 19.0933 13.8311 17.0239 12ZM17.6899 20.519C17.5605 20.6696 17.4002 20.7905 17.2198 20.8735C17.0395 20.9565 16.8434 20.9996 16.6449 21H7.38086C7.18226 20.9998 6.98602 20.9569 6.80552 20.8741C6.62502 20.7912 6.46448 20.6705 6.33486 20.52C6.21074 20.378 6.11899 20.2108 6.06598 20.0298C6.01297 19.8488 5.99996 19.6585 6.02786 19.472C6.36486 17.228 7.77386 15.109 10.2159 13.178C10.3936 13.0376 10.5372 12.8588 10.636 12.6549C10.7347 12.4511 10.786 12.2275 10.786 12.001C10.786 11.7745 10.7347 11.5509 10.636 11.3471C10.5372 11.1432 10.3936 10.9644 10.2159 10.824C7.77386 8.892 6.36486 6.773 6.02786 4.529C5.99996 4.3425 6.01297 4.15217 6.06598 3.9712C6.11899 3.79023 6.21074 3.62297 6.33486 3.481C6.46439 3.33035 6.62488 3.2094 6.80539 3.12639C6.9859 3.04339 7.18218 3.00028 7.38086 3H16.6449C16.8434 3.00035 17.0395 3.0435 17.2198 3.12651C17.4002 3.20952 17.5605 3.33043 17.6899 3.481C17.8141 3.62236 17.9062 3.78902 17.9597 3.96944C18.0132 4.14986 18.0269 4.33976 17.9999 4.526C17.6649 6.761 16.2549 8.88 13.8089 10.826C13.6322 10.9665 13.4896 11.145 13.3915 11.3483C13.2934 11.5515 13.2425 11.7743 13.2425 12C13.2425 12.2257 13.2934 12.4485 13.3915 12.6517C13.4896 12.855 13.6322 13.0335 13.8089 13.174C16.2549 15.12 17.6649 17.239 17.9999 19.474C18.0273 19.6602 18.0138 19.8502 17.9603 20.0307C17.9067 20.2112 17.8144 20.3779 17.6899 20.519Z" fill="white"/>
<path d="M12.836 15.2127L12.542 14.9777C12.3881 14.8559 12.1977 14.7897 12.0015 14.7897C11.8053 14.7897 11.6148 14.8559 11.461 14.9777L11.161 15.2157C10.2489 15.8838 9.52544 16.7768 9.061 17.8077C9.0082 17.9395 8.98853 18.0823 9.00373 18.2236C9.01892 18.3648 9.0685 18.5002 9.14814 18.6178C9.22778 18.7355 9.33505 18.8318 9.46054 18.8983C9.58604 18.9649 9.72594 18.9997 9.868 18.9996H14.131C14.2728 18.9989 14.4123 18.9635 14.5372 18.8964C14.6621 18.8293 14.7687 18.7326 14.8476 18.6148C14.9266 18.497 14.9754 18.3617 14.99 18.2206C15.0045 18.0795 14.9843 17.9371 14.931 17.8057C14.4664 16.7761 13.745 15.8832 12.836 15.2127Z" fill="white"/>
</svg>
