<svg width="24" height="24" viewBox="0 0 24 24" fill="none" xmlns="http://www.w3.org/2000/svg">
<path d="M16.8999 4.03182C16.6646 2.90643 16.049 1.89635 15.1567 1.17132C14.2644 0.446303 13.1497 0.0505371 11.9999 0.0505371C10.8502 0.0505371 9.7355 0.446303 8.84318 1.17132C7.95085 1.89635 7.33529 2.90643 7.09994 4.03182C6.14456 4.1483 5.23332 4.50122 4.44872 5.05863C3.66411 5.61604 3.03092 6.36034 2.60646 7.22415C2.18201 8.08795 1.9797 9.04397 2.01785 10.0057C2.056 10.9674 2.3334 11.9044 2.82494 12.7318L8.69094 22.1438C9.04246 22.7035 9.53009 23.1649 10.1083 23.4849C10.6865 23.805 11.3364 23.9733 11.9972 23.9741C12.6581 23.9749 13.3084 23.8082 13.8874 23.4895C14.4663 23.1708 14.9551 22.7106 15.3079 22.1518L21.1999 12.6998C23.3539 9.20882 20.9229 4.31682 16.8999 4.03182ZM18.9809 9.59982C17.8129 9.71282 15.6189 9.89982 13.5109 9.97582L13.4999 9.79982C13.4897 9.08296 13.7606 8.39057 14.2545 7.87092C14.7484 7.35127 15.4262 7.04565 16.1426 7.01951C16.8591 6.99336 17.5573 7.24877 18.0878 7.73104C18.6183 8.21331 18.9389 8.88412 18.9809 9.59982ZM11.9999 2.99982C12.4433 3.00144 12.8736 3.15034 13.2231 3.42313C13.5727 3.69592 13.8217 4.07712 13.9309 4.50682C13.1984 4.83778 12.5428 5.31763 12.0059 5.91582C11.4649 5.31673 10.8053 4.83658 10.0689 4.50582C10.1784 4.07631 10.4275 3.69533 10.777 3.42274C11.1265 3.15014 11.5567 3.00138 11.9999 2.99982ZM7.70494 6.99982C8.07891 7.00252 8.4486 7.07954 8.79253 7.22641C9.13645 7.37328 9.44774 7.58707 9.70829 7.85535C9.96884 8.12362 10.1734 8.44102 10.3102 8.78909C10.447 9.13715 10.5132 9.50894 10.5049 9.88282L10.5109 9.97182C8.39294 9.89983 6.19094 9.70883 5.01894 9.59982C5.04474 8.90363 5.33864 8.24435 5.83921 7.7598C6.33978 7.27526 7.00828 7.00296 7.70494 6.99982ZM12.7549 20.5778C12.6752 20.7075 12.5634 20.8145 12.4302 20.8884C12.2971 20.9623 12.1472 21.0007 11.9949 20.9998C11.8426 20.9989 11.6932 20.9587 11.5609 20.8833C11.4287 20.8078 11.3181 20.6995 11.2399 20.5688L6.35194 12.7278C10.1109 13.0681 13.893 13.0681 17.6519 12.7278L12.7549 20.5778Z" fill="white"/>
</svg>
