<svg width="24" height="24" viewBox="0 0 24 24" fill="none" xmlns="http://www.w3.org/2000/svg">
<g clip-path="url(#clip0_88_6204)">
<path d="M12 0C9.62663 0 7.30655 0.703788 5.33316 2.02236C3.35977 3.34094 1.8217 5.21509 0.913451 7.4078C0.00519943 9.60051 -0.232441 12.0133 0.230582 14.3411C0.693605 16.6689 1.83649 18.8071 3.51472 20.4853C5.19295 22.1635 7.33115 23.3064 9.65892 23.7694C11.9867 24.2324 14.3995 23.9948 16.5922 23.0866C18.7849 22.1783 20.6591 20.6402 21.9776 18.6668C23.2962 16.6935 24 14.3734 24 12C23.9966 8.81846 22.7312 5.76821 20.4815 3.51852C18.2318 1.26883 15.1815 0.00344108 12 0V0ZM12 21C10.22 21 8.47992 20.4722 6.99987 19.4832C5.51983 18.4943 4.36628 17.0887 3.68509 15.4442C3.0039 13.7996 2.82567 11.99 3.17294 10.2442C3.5202 8.49836 4.37737 6.89471 5.63604 5.63604C6.89472 4.37737 8.49836 3.5202 10.2442 3.17293C11.99 2.82567 13.7996 3.0039 15.4442 3.68508C17.0887 4.36627 18.4943 5.51983 19.4832 6.99987C20.4722 8.47991 21 10.22 21 12C20.9974 14.3861 20.0483 16.6738 18.361 18.361C16.6738 20.0483 14.3861 20.9974 12 21Z" fill="white"/>
<path d="M12.0052 19.0003C12.8336 19.0003 13.5052 18.3287 13.5052 17.5003C13.5052 16.6719 12.8336 16.0003 12.0052 16.0003C11.1768 16.0003 10.5052 16.6719 10.5052 17.5003C10.5052 18.3287 11.1768 19.0003 12.0052 19.0003Z" fill="white"/>
<path d="M12.7572 4.98662C12.1455 4.87696 11.5173 4.90277 10.9166 5.06223C10.316 5.2217 9.75766 5.51094 9.28093 5.90958C8.80421 6.30822 8.4207 6.80655 8.15744 7.36947C7.89418 7.93238 7.75757 8.54618 7.75723 9.16762C7.75723 9.56544 7.91527 9.94697 8.19657 10.2283C8.47788 10.5096 8.85941 10.6676 9.25723 10.6676C9.65505 10.6676 10.0366 10.5096 10.3179 10.2283C10.5992 9.94697 10.7572 9.56544 10.7572 9.16762C10.7581 8.94755 10.8172 8.73164 10.9285 8.54177C11.0398 8.35191 11.1992 8.19484 11.3908 8.0865C11.5823 7.97815 11.7991 7.92238 12.0192 7.92485C12.2392 7.92731 12.4547 7.98792 12.6438 8.10052C12.8329 8.21313 12.9888 8.37373 13.0958 8.56604C13.2028 8.75835 13.257 8.97553 13.253 9.19556C13.249 9.41559 13.1869 9.63064 13.0729 9.81891C12.959 10.0072 12.7973 10.162 12.6042 10.2676C11.9855 10.5268 11.4596 10.9671 11.0959 11.5308C10.7321 12.0945 10.5475 12.755 10.5662 13.4256C10.5662 13.8234 10.7243 14.205 11.0056 14.4863C11.2869 14.7676 11.6684 14.9256 12.0662 14.9256C12.464 14.9256 12.8456 14.7676 13.1269 14.4863C13.4082 14.205 13.5662 13.8234 13.5662 13.4256C13.5653 13.3526 13.5707 13.2797 13.5822 13.2076C13.7223 13.0798 13.8811 12.9742 14.0532 12.8946C14.8214 12.4712 15.4397 11.8204 15.8231 11.0315C16.2066 10.2426 16.3365 9.35435 16.1949 8.4887C16.0533 7.62306 15.6473 6.82246 15.0325 6.19684C14.4177 5.57122 13.6243 5.15126 12.7612 4.99462L12.7572 4.98662Z" fill="white"/>
</g>
<defs>
<clipPath id="clip0_88_6204">
<rect width="24" height="24" fill="white"/>
</clipPath>
</defs>
</svg>
