<svg width="24" height="24" viewBox="0 0 24 24" fill="none" xmlns="http://www.w3.org/2000/svg">
<g clip-path="url(#clip0_88_6201)">
<path d="M6.50005 15.9997C6.79672 15.9997 7.08673 16.0876 7.3334 16.2525C7.58008 16.4173 7.77233 16.6516 7.88587 16.9256C7.9994 17.1997 8.0291 17.5013 7.97122 17.7923C7.91335 18.0833 7.77049 18.3505 7.56071 18.5603C7.35093 18.7701 7.08365 18.913 6.79268 18.9708C6.50171 19.0287 6.20011 18.999 5.92602 18.8855C5.65193 18.772 5.41766 18.5797 5.25284 18.333C5.08802 18.0863 5.00005 17.7963 5.00005 17.4997C5.00005 17.1018 5.15808 16.7203 5.43939 16.439C5.72069 16.1577 6.10222 15.9997 6.50005 15.9997ZM9.50005 23.8607C10.8873 23.6019 12.1806 22.9781 13.2466 22.0534C14.3127 21.1287 15.1129 19.9365 15.565 18.5997C15.9929 17.3635 16.1029 16.0395 15.885 14.7497L16.566 14.0607C16.8455 13.7784 17.0016 13.3968 17 12.9997V10.9997H17.5C17.8284 10.9997 18.1534 10.935 18.4568 10.8094C18.7601 10.6837 19.0357 10.4996 19.2678 10.2674C19.5 10.0353 19.6841 9.75969 19.8097 9.45637C19.9354 9.15306 20 8.82797 20 8.49967V7.99967H21.251C21.7421 7.9995 22.2223 7.85544 22.6323 7.5853C23.0423 7.31515 23.3641 6.93077 23.558 6.47967C23.9181 5.65088 24.0613 4.74407 23.974 3.84467C23.8569 2.77853 23.347 1.79419 22.5438 1.08341C21.7406 0.372621 20.7015 -0.0137127 19.629 -0.000335248C18.9061 -0.00225336 18.19 0.139232 17.5221 0.415932C16.8542 0.692631 16.2478 1.09905 15.738 1.61167L9.23805 8.11167C7.95097 7.8964 6.63041 8.00851 5.39805 8.43766C3.60806 9.05564 2.09533 10.2885 1.12894 11.9171C0.162553 13.5456 -0.194825 15.4641 0.120381 17.3313C0.435587 19.1986 1.40294 20.8934 2.85035 22.1145C4.29777 23.3355 6.13139 24.0035 8.02505 23.9997C8.51992 23.9983 9.01363 23.9518 9.50005 23.8607ZM9.31505 11.1997C9.57115 11.2709 9.84157 11.2728 10.0986 11.2051C10.3557 11.1375 10.5902 11.0027 10.778 10.8147L17.859 3.73467C18.0908 3.50117 18.3666 3.31598 18.6704 3.18982C18.9742 3.06365 19.3001 2.99902 19.629 2.99967C19.957 2.99187 20.2764 3.10446 20.527 3.31616C20.7776 3.52787 20.942 3.82402 20.989 4.14867C21.0183 4.43483 20.9911 4.72396 20.909 4.99967H19.5C18.837 4.99967 18.2011 5.26306 17.7323 5.7319C17.2634 6.20074 17 6.83662 17 7.49967V7.99967H16.5C15.837 7.99967 15.2011 8.26306 14.7323 8.7319C14.2634 9.20074 14 9.83662 14 10.4997V12.3837L13.178 13.2147C12.9919 13.4029 12.8589 13.637 12.7925 13.8932C12.7261 14.1495 12.7287 14.4187 12.8 14.6737C13.0787 15.643 13.0528 16.6745 12.726 17.6287C12.4503 18.4306 11.9751 19.1493 11.3452 19.717C10.7153 20.2848 9.95129 20.683 9.1251 20.8742C8.29891 21.0654 7.43766 21.0433 6.62235 20.81C5.80703 20.5768 5.06444 20.14 4.46442 19.5407C3.8644 18.9414 3.42665 18.1994 3.19235 17.3844C2.95805 16.5693 2.9349 15.7081 3.12507 14.8817C3.31524 14.0553 3.71248 13.2908 4.27944 12.6601C4.8464 12.0295 5.56444 11.5534 6.36605 11.2767C6.87825 11.0999 7.41621 11.0094 7.95805 11.0087C8.41695 11.0104 8.87348 11.0747 9.31505 11.1997Z" fill="white"/>
</g>
<defs>
<clipPath id="clip0_88_6201">
<rect width="24" height="24" fill="white"/>
</clipPath>
</defs>
</svg>
