<svg width="24" height="24" viewBox="0 0 24 24" fill="none" xmlns="http://www.w3.org/2000/svg">
<path d="M18.5 3H13.5V1.5C13.5 1.10218 13.342 0.720644 13.0607 0.43934C12.7794 0.158035 12.3978 0 12 0V0C11.6022 0 11.2206 0.158035 10.9393 0.43934C10.658 0.720644 10.5 1.10218 10.5 1.5V3H5.5C4.04131 3 2.64236 3.57946 1.61091 4.61091C0.579463 5.64236 0 7.04131 0 8.5L0 15.5C0 16.9587 0.579463 18.3576 1.61091 19.3891C2.64236 20.4205 4.04131 21 5.5 21H18.5C19.9587 21 21.3576 20.4205 22.3891 19.3891C23.4205 18.3576 24 16.9587 24 15.5V8.5C24 7.04131 23.4205 5.64236 22.3891 4.61091C21.3576 3.57946 19.9587 3 18.5 3ZM21 15.5C21 16.163 20.7366 16.7989 20.2678 17.2678C19.7989 17.7366 19.163 18 18.5 18H5.5C4.83696 18 4.20107 17.7366 3.73223 17.2678C3.26339 16.7989 3 16.163 3 15.5V8.5C3 7.83696 3.26339 7.20107 3.73223 6.73223C4.20107 6.26339 4.83696 6 5.5 6H18.5C19.163 6 19.7989 6.26339 20.2678 6.73223C20.7366 7.20107 21 7.83696 21 8.5V15.5Z" fill="white"/>
<path d="M6.49992 10.9997C7.32835 10.9997 7.99992 10.3281 7.99992 9.49969C7.99992 8.67127 7.32835 7.99969 6.49992 7.99969C5.6715 7.99969 4.99992 8.67127 4.99992 9.49969C4.99992 10.3281 5.6715 10.9997 6.49992 10.9997Z" fill="white"/>
<path d="M11.5001 10.9997C12.3285 10.9997 13.0001 10.3281 13.0001 9.49969C13.0001 8.67127 12.3285 7.99969 11.5001 7.99969C10.6716 7.99969 10.0001 8.67127 10.0001 9.49969C10.0001 10.3281 10.6716 10.9997 11.5001 10.9997Z" fill="white"/>
<path d="M17.5 7.99969H16.5C16.1022 7.99969 15.7206 8.15773 15.4393 8.43903C15.158 8.72034 15 9.10187 15 9.49969C15 9.89752 15.158 10.2791 15.4393 10.5604C15.7206 10.8417 16.1022 10.9997 16.5 10.9997H17.5C17.8978 10.9997 18.2793 10.8417 18.5607 10.5604C18.842 10.2791 19 9.89752 19 9.49969C19 9.10187 18.842 8.72034 18.5607 8.43903C18.2793 8.15773 17.8978 7.99969 17.5 7.99969Z" fill="white"/>
<path d="M11.4999 13.0003H6.49992C6.1021 13.0003 5.72057 13.1583 5.43926 13.4396C5.15796 13.7209 4.99992 14.1025 4.99992 14.5003C4.99992 14.8981 5.15796 15.2797 5.43926 15.561C5.72057 15.8423 6.1021 16.0003 6.49992 16.0003H11.4999C11.8977 16.0003 12.2793 15.8423 12.5606 15.561C12.8419 15.2797 12.9999 14.8981 12.9999 14.5003C12.9999 14.1025 12.8419 13.7209 12.5606 13.4396C12.2793 13.1583 11.8977 13.0003 11.4999 13.0003Z" fill="white"/>
<path d="M17.5 13.0003H16.5C16.1022 13.0003 15.7206 13.1583 15.4393 13.4396C15.158 13.7209 15 14.1025 15 14.5003C15 14.8981 15.158 15.2797 15.4393 15.561C15.7206 15.8423 16.1022 16.0003 16.5 16.0003H17.5C17.8978 16.0003 18.2793 15.8423 18.5607 15.561C18.842 15.2797 19 14.8981 19 14.5003C19 14.1025 18.842 13.7209 18.5607 13.4396C18.2793 13.1583 17.8978 13.0003 17.5 13.0003Z" fill="white"/>
</svg>
