<svg width="24" height="24" viewBox="0 0 24 24" fill="none" xmlns="http://www.w3.org/2000/svg">
<g clip-path="url(#clip0_88_6404)">
<path d="M18.451 15.95C17.7219 15.948 16.9997 16.0907 16.3261 16.3698C15.6525 16.649 15.041 17.0589 14.527 17.576C12.224 19.88 8.98501 21 4.62701 21H3.52701C3.42228 21.001 3.31965 20.9706 3.23236 20.9127C3.14507 20.8548 3.07713 20.7721 3.03731 20.6753C2.99748 20.5784 2.9876 20.4718 3.00894 20.3693C3.03028 20.2667 3.08185 20.1729 3.15701 20.1L5.46401 17.8L16.917 14.746C18.0883 14.4328 19.1235 13.7417 19.8618 12.7799C20.6001 11.8181 21.0002 10.6395 21 9.427V5.5C20.9982 4.04188 20.4181 2.64401 19.3871 1.61296C18.356 0.58191 16.9581 0.00185226 15.5 0L11.573 0C10.3614 0.000918071 9.18392 0.401536 8.22315 1.13974C7.26238 1.87795 6.57198 2.9125 6.25901 4.083L3.10501 15.91L1.03501 17.982C0.542338 18.4752 0.206903 19.1033 0.0710913 19.787C-0.0647203 20.4708 0.0051862 21.1794 0.271977 21.8235C0.538769 22.4675 0.990472 23.018 1.57001 23.4054C2.14955 23.7928 2.83091 23.9997 3.52801 24H4.62801C9.75001 24 13.795 22.553 16.649 19.7C17.0054 19.3438 17.4593 19.1012 17.9535 19.0029C18.4476 18.9045 18.9598 18.9548 19.4254 19.1474C19.891 19.34 20.2891 19.6663 20.5693 20.085C20.8496 20.5038 20.9995 20.9961 21 21.5V22.5C21 22.8978 21.158 23.2794 21.4394 23.5607C21.7207 23.842 22.1022 24 22.5 24C22.8978 24 23.2794 23.842 23.5607 23.5607C23.842 23.2794 24 22.8978 24 22.5V21.5C23.9987 20.0286 23.4137 18.6179 22.3733 17.5774C21.333 16.5369 19.9224 15.9516 18.451 15.95ZM9.15701 4.856C9.26888 4.44102 9.48627 4.06206 9.78801 3.756L13.7 7.438L17.329 3.808C17.7588 4.26673 17.9986 4.8714 18 5.5V9.427C17.9988 9.99181 17.8063 10.5395 17.454 10.981L13.7 7.438L6.66101 14.371L6.61701 14.383L9.15701 4.856Z" fill="white"/>
</g>
<defs>
<clipPath id="clip0_88_6404">
<rect width="24" height="24" fill="white"/>
</clipPath>
</defs>
</svg>
