<svg width="24" height="24" viewBox="0 0 24 24" fill="none" xmlns="http://www.w3.org/2000/svg">
<g clip-path="url(#clip0_88_6439)">
<path d="M20.2139 4.39216L12.7339 0.19216C12.5097 0.0663698 12.257 0.000305176 11.9999 0.000305176C11.7428 0.000305176 11.4901 0.0663698 11.2659 0.19216L3.78591 4.39216C3.24455 4.69682 2.79389 5.13989 2.48006 5.67599C2.16624 6.21209 2.00053 6.82196 1.99991 7.44316V17.5002C2.00203 19.2234 2.68752 20.8755 3.90605 22.094C5.12458 23.3125 6.77665 23.998 8.49991 24.0002H15.4999C17.2232 23.998 18.8752 23.3125 20.0938 22.094C21.3123 20.8755 21.9978 19.2234 21.9999 17.5002V7.44316C21.9992 6.82198 21.8334 6.21215 21.5196 5.67607C21.2058 5.13998 20.7552 4.6969 20.2139 4.39216ZM18.9999 17.5002C18.9999 18.4284 18.6312 19.3187 17.9748 19.975C17.3184 20.6314 16.4282 21.0002 15.4999 21.0002H8.49991C7.57165 21.0002 6.68141 20.6314 6.02503 19.975C5.36866 19.3187 4.99991 18.4284 4.99991 17.5002V7.44316C4.99988 7.35439 5.02349 7.26722 5.06831 7.19059C5.11312 7.11397 5.17753 7.05066 5.25491 7.00716L11.9999 3.22116L18.7439 7.00716C18.8215 7.05053 18.8861 7.11378 18.9311 7.19042C18.9761 7.26705 18.9998 7.35429 18.9999 7.44316V17.5002Z" fill="white"/>
<path d="M12.0001 11.0003C13.1046 11.0003 14.0001 10.1049 14.0001 9.0003C14.0001 7.89573 13.1046 7.00031 12.0001 7.00031C10.8955 7.00031 10.0001 7.89573 10.0001 9.0003C10.0001 10.1049 10.8955 11.0003 12.0001 11.0003Z" fill="white"/>
</g>
<defs>
<clipPath id="clip0_88_6439">
<rect width="24" height="24" fill="white"/>
</clipPath>
</defs>
</svg>
