<svg width="24" height="24" viewBox="0 0 24 24" fill="none" xmlns="http://www.w3.org/2000/svg">
<g clip-path="url(#clip0_88_6362)">
<path d="M22 15V8.5C21.9984 7.0418 21.4184 5.64377 20.3873 4.61267C19.3562 3.58156 17.9582 3.00159 16.5 3H7.49999C6.04179 3.00159 4.64377 3.58156 3.61266 4.61267C2.58155 5.64377 2.00158 7.0418 1.99999 8.5V15C1.46956 15 0.960852 15.2107 0.585779 15.5858C0.210706 15.9609 -7.62939e-06 16.4696 -7.62939e-06 17L-7.62939e-06 18.154C0.000257328 18.6435 0.194831 19.1129 0.540966 19.459C0.887101 19.8052 1.35648 19.9997 1.84599 20H22.154C22.6435 19.9997 23.1129 19.8052 23.459 19.459C23.8052 19.1129 23.9997 18.6435 24 18.154V17C24 16.4696 23.7893 15.9609 23.4142 15.5858C23.0391 15.2107 22.5304 15 22 15ZM14.769 16H9.23099L8.30799 15H4.99999V8.5C4.99999 7.83696 5.26338 7.20107 5.73223 6.73223C6.20107 6.26339 6.83695 6 7.49999 6H16.5C17.163 6 17.7989 6.26339 18.2678 6.73223C18.7366 7.20107 19 7.83696 19 8.5V15H15.692L14.769 16Z" fill="white"/>
</g>
<defs>
<clipPath id="clip0_88_6362">
<rect width="24" height="24" fill="white"/>
</clipPath>
</defs>
</svg>
