<svg width="24" height="24" viewBox="0 0 24 24" fill="none" xmlns="http://www.w3.org/2000/svg">
<path d="M7.7 5.12665C7.57549 4.8773 7.38398 4.66758 7.14694 4.52099C6.9099 4.3744 6.63671 4.29675 6.358 4.29675C6.0793 4.29675 5.8061 4.3744 5.56906 4.52099C5.33202 4.66758 5.14051 4.8773 5.016 5.12665L0.160001 14.8266C0.0452117 15.0553 -0.00918635 15.3095 0.00197849 15.5651C0.0131433 15.8207 0.0895 16.0692 0.223789 16.287C0.358078 16.5047 0.545835 16.6845 0.769211 16.8093C0.992587 16.934 1.24416 16.9996 1.5 16.9997C1.77889 16.9998 2.0523 16.9223 2.28953 16.7756C2.52677 16.629 2.71843 16.4192 2.843 16.1697L3.435 14.9997H9.283L9.868 16.1697C9.99257 16.4192 10.1842 16.629 10.4215 16.7756C10.6587 16.9223 10.9321 16.9998 11.211 16.9997C11.4675 17.0004 11.7198 16.9354 11.944 16.8108C12.1682 16.6863 12.3567 16.5063 12.4915 16.2882C12.6263 16.07 12.7029 15.8209 12.7141 15.5647C12.7252 15.3085 12.6704 15.0537 12.555 14.8247L7.7 5.12665ZM4.935 11.9997L6.359 9.15165L7.783 11.9997H4.935Z" fill="white"/>
<path d="M22.4999 6.49969C22.1948 6.50097 21.8973 6.59526 21.6471 6.77001C21.397 6.94475 21.2061 7.19163 21.0999 7.47769C20.4436 7.16598 19.7265 7.00277 18.9999 6.99969C17.6738 6.99969 16.4021 7.52648 15.4644 8.46416C14.5267 9.40184 13.9999 10.6736 13.9999 11.9997C13.9999 13.3258 14.5267 14.5975 15.4644 15.5352C16.4021 16.4729 17.6738 16.9997 18.9999 16.9997C19.7265 16.9966 20.4436 16.8334 21.0999 16.5217C21.2251 16.8474 21.46 17.1192 21.764 17.2904C22.0681 17.4616 22.4223 17.5215 22.7657 17.4597C23.1091 17.3979 23.4203 17.2182 23.6455 16.9518C23.8708 16.6853 23.9961 16.3486 23.9999 15.9997V7.99969C23.9999 7.60187 23.8419 7.22034 23.5606 6.93903C23.2793 6.65773 22.8977 6.49969 22.4999 6.49969ZM18.9999 13.9997C18.6044 13.9997 18.2177 13.8824 17.8888 13.6626C17.5599 13.4429 17.3035 13.1305 17.1522 12.7651C17.0008 12.3996 16.9612 11.9975 17.0384 11.6095C17.1155 11.2215 17.306 10.8652 17.5857 10.5855C17.8654 10.3058 18.2218 10.1153 18.6097 10.0381C18.9977 9.96095 19.3998 10.0006 19.7653 10.1519C20.1307 10.3033 20.4431 10.5597 20.6629 10.8885C20.8826 11.2174 20.9999 11.6041 20.9999 11.9997C20.9999 12.5301 20.7892 13.0388 20.4141 13.4139C20.0391 13.789 19.5304 13.9997 18.9999 13.9997Z" fill="white"/>
</svg>
