<svg width="24" height="24" viewBox="0 0 24 24" fill="none" xmlns="http://www.w3.org/2000/svg">
<path d="M17.0001 12.3509V8.49989C17.0001 8.10206 16.8421 7.72053 16.5608 7.43923C16.2795 7.15792 15.8979 6.99989 15.5001 6.99989H15.0001V1.80989C14.9999 1.50151 14.9209 1.19829 14.7707 0.928995C14.6204 0.659704 14.4038 0.433276 14.1414 0.271194C13.8791 0.109111 13.5796 0.0167495 13.2716 0.00287157C12.9635 -0.0110064 12.657 0.0540596 12.3811 0.191896L10.4161 1.1749C9.99062 1.38732 9.63272 1.71411 9.38261 2.11861C9.13249 2.52311 9.00004 2.98931 9.00012 3.46489V6.99989H8.50012C8.1023 6.99989 7.72077 7.15792 7.43946 7.43923C7.15816 7.72053 7.00012 8.10206 7.00012 8.49989V12.3509C6.40374 12.6338 5.89951 13.0795 5.54562 13.6367C5.19174 14.1939 5.00263 14.8398 5.00012 15.4999V18.4999C5.00171 19.9581 5.58168 21.3561 6.61279 22.3872C7.64389 23.4183 9.04192 23.9983 10.5001 23.9999H13.5001C14.9583 23.9983 16.3563 23.4183 17.3875 22.3872C18.4186 21.3561 18.9985 19.9581 19.0001 18.4999V15.4999C18.9976 14.8398 18.8085 14.1939 18.4546 13.6367C18.1007 13.0795 17.5965 12.6338 17.0001 12.3509ZM10.0001 11.9999V9.99989H14.0001V11.9999H10.0001ZM16.0001 18.4999C16.0001 19.1629 15.7367 19.7988 15.2679 20.2676C14.799 20.7365 14.1632 20.9999 13.5001 20.9999H10.5001C9.83708 20.9999 9.2012 20.7365 8.73236 20.2676C8.26351 19.7988 8.00012 19.1629 8.00012 18.4999V15.4999C8.00012 15.3673 8.0528 15.2401 8.14657 15.1463C8.24034 15.0526 8.36751 14.9999 8.50012 14.9999H15.5001C15.6327 14.9999 15.7599 15.0526 15.8537 15.1463C15.9474 15.2401 16.0001 15.3673 16.0001 15.4999V18.4999Z" fill="white"/>
</svg>
