<svg width="24" height="24" viewBox="0 0 24 24" fill="none" xmlns="http://www.w3.org/2000/svg">
<g clip-path="url(#clip0_88_6195)">
<path d="M8.00012 7.00031H22.5001C22.8979 7.00031 23.2795 6.84227 23.5608 6.56097C23.8421 6.27966 24.0001 5.89813 24.0001 5.50031C24.0001 5.10248 23.8421 4.72095 23.5608 4.43964C23.2795 4.15834 22.8979 4.00031 22.5001 4.00031H8.00012C7.6023 4.00031 7.22077 4.15834 6.93946 4.43964C6.65816 4.72095 6.50012 5.10248 6.50012 5.50031C6.50012 5.89813 6.65816 6.27966 6.93946 6.56097C7.22077 6.84227 7.6023 7.00031 8.00012 7.00031Z" fill="white"/>
<path d="M22.5001 10.9997H8.00012C7.6023 10.9997 7.22077 11.1577 6.93946 11.439C6.65816 11.7203 6.50012 12.1019 6.50012 12.4997C6.50012 12.8975 6.65816 13.2791 6.93946 13.5604C7.22077 13.8417 7.6023 13.9997 8.00012 13.9997H22.5001C22.8979 13.9997 23.2795 13.8417 23.5608 13.5604C23.8421 13.2791 24.0001 12.8975 24.0001 12.4997C24.0001 12.1019 23.8421 11.7203 23.5608 11.439C23.2795 11.1577 22.8979 10.9997 22.5001 10.9997Z" fill="white"/>
<path d="M22.5001 18H8.00012C7.6023 18 7.22077 18.158 6.93946 18.4393C6.65816 18.7206 6.50012 19.1022 6.50012 19.5C6.50012 19.8978 6.65816 20.2794 6.93946 20.5607C7.22077 20.842 7.6023 21 8.00012 21H22.5001C22.8979 21 23.2795 20.842 23.5608 20.5607C23.8421 20.2794 24.0001 19.8978 24.0001 19.5C24.0001 19.1022 23.8421 18.7206 23.5608 18.4393C23.2795 18.158 22.8979 18 22.5001 18Z" fill="white"/>
<path d="M2.5 8C3.88071 8 5 6.88071 5 5.5C5 4.11929 3.88071 3 2.5 3C1.11929 3 0 4.11929 0 5.5C0 6.88071 1.11929 8 2.5 8Z" fill="white"/>
<path d="M2.5 14.4997C3.88071 14.4997 5 13.3804 5 11.9997C5 10.619 3.88071 9.49969 2.5 9.49969C1.11929 9.49969 0 10.619 0 11.9997C0 13.3804 1.11929 14.4997 2.5 14.4997Z" fill="white"/>
<path d="M2.5 21.5C3.88071 21.5 5 20.3807 5 19C5 17.6193 3.88071 16.5 2.5 16.5C1.11929 16.5 0 17.6193 0 19C0 20.3807 1.11929 21.5 2.5 21.5Z" fill="white"/>
</g>
<defs>
<clipPath id="clip0_88_6195">
<rect width="24" height="24" fill="white"/>
</clipPath>
</defs>
</svg>
