<svg width="24" height="24" viewBox="0 0 24 24" fill="none" xmlns="http://www.w3.org/2000/svg">
<g clip-path="url(#clip0_88_6345)">
<path d="M11.9999 15.0002C12.5041 15.001 13.0016 14.8842 13.4529 14.6592L15.2029 13.7842C15.7445 13.5159 16.2 13.1011 16.5177 12.5869C16.8354 12.0726 17.0024 11.4796 16.9999 10.8752V9.12517C17.0018 8.52077 16.8341 7.92794 16.5159 7.41406C16.1977 6.90019 15.7418 6.48586 15.1999 6.21817L13.4499 5.34317C12.9984 5.11873 12.501 5.00193 11.9969 5.00193C11.4927 5.00193 10.9953 5.11873 10.5439 5.34317L8.79985 6.21817C8.25795 6.48586 7.802 6.90019 7.48381 7.41406C7.16562 7.92794 6.99795 8.52077 6.99985 9.12517V10.8752C6.99795 11.4796 7.16562 12.0724 7.48381 12.5863C7.802 13.1002 8.25795 13.5145 8.79985 13.7822L10.5499 14.6572C11 14.8825 11.4965 14.9999 11.9999 15.0002ZM9.99985 10.8772V9.17717L11.3269 9.84017C11.5357 9.94502 11.7662 9.99963 11.9999 9.99963C12.2335 9.99963 12.464 9.94502 12.6729 9.84017L13.9999 9.17817V10.8782C14.0001 10.9248 13.9872 10.9706 13.9626 11.0102C13.938 11.0498 13.9027 11.0817 13.8609 11.1022L12.1109 11.9772C12.0764 11.9944 12.0384 12.0034 11.9999 12.0034C11.9613 12.0034 11.9233 11.9944 11.8889 11.9772L10.1389 11.1022C10.0965 11.0815 10.0609 11.0491 10.0363 11.0089C10.0117 10.9687 9.99905 10.9223 9.99985 10.8752V10.8772ZM18.4999 21.0002H14.7599C15.0846 20.8032 15.3864 20.5708 15.6599 20.3072L19.0719 17.1382C20.9446 15.2497 21.9955 12.6978 21.9955 10.0382C21.9955 7.37855 20.9446 4.82663 19.0719 2.93817C18.145 2.00548 17.0428 1.26528 15.8288 0.760186C14.6147 0.255087 13.3128 -0.00494385 11.9979 -0.00494385C10.6829 -0.00494385 9.38099 0.255087 8.16695 0.760186C6.95291 1.26528 5.85073 2.00548 4.92385 2.93817C3.04692 4.83575 1.99793 7.39946 2.00637 10.0685C2.0148 12.7375 3.07997 15.2945 4.96885 17.1802L8.30685 20.2802C8.59266 20.5554 8.90905 20.797 9.24985 21.0002H5.49985C5.10203 21.0002 4.7205 21.1582 4.43919 21.4395C4.15789 21.7208 3.99985 22.1024 3.99985 22.5002C3.99985 22.898 4.15789 23.2795 4.43919 23.5608C4.7205 23.8421 5.10203 24.0002 5.49985 24.0002H18.4999C18.8977 24.0002 19.2792 23.8421 19.5605 23.5608C19.8418 23.2795 19.9999 22.898 19.9999 22.5002C19.9999 22.1024 19.8418 21.7208 19.5605 21.4395C19.2792 21.1582 18.8977 21.0002 18.4999 21.0002ZM7.05285 15.0222C5.73937 13.6973 5.00241 11.9073 5.00241 10.0417C5.00241 8.17608 5.73937 6.38601 7.05285 5.06117C7.70061 4.40816 8.47124 3.88985 9.32031 3.53614C10.1694 3.18244 11.0801 3.00033 11.9999 3.00033C12.9196 3.00033 13.8303 3.18244 14.6794 3.53614C15.5285 3.88985 16.2991 4.40816 16.9469 5.06117C18.256 6.37715 18.9945 8.15561 19.0025 10.0119C19.0106 11.8681 18.2876 13.6529 16.9899 14.9802L13.5899 18.1372C13.1564 18.5519 12.5781 18.7809 11.9783 18.7753C11.3784 18.7697 10.8045 18.5299 10.3789 18.1072L7.05285 15.0222Z" fill="white"/>
</g>
<defs>
<clipPath id="clip0_88_6345">
<rect width="24" height="24" fill="white"/>
</clipPath>
</defs>
</svg>
