<svg width="24" height="24" viewBox="0 0 24 24" fill="none" xmlns="http://www.w3.org/2000/svg">
<path d="M19.0443 8.50955V7.04435C19.0443 3.15386 15.8905 0 12 0C8.10948 0 4.95567 3.15386 4.95567 7.0443V8.5095C3.10484 9.45402 1.93894 11.3556 1.93668 13.4335V18.4652C1.94003 21.5206 4.41607 23.9967 7.47148 24H16.5285C19.5839 23.9966 22.06 21.5206 22.0633 18.4652V13.4335C22.061 11.3556 20.8951 9.45402 19.0443 8.50955ZM12 3.01899C14.2231 3.01899 16.0253 4.82119 16.0253 7.0443V7.89868H7.97466V7.0443C7.97466 4.82119 9.77686 3.01899 12 3.01899ZM19.0443 18.4652C19.0443 19.8546 17.918 20.981 16.5285 20.981H7.47153C6.08208 20.981 4.95572 19.8546 4.95572 18.4652V13.4335C4.95572 12.0441 6.08208 10.9177 7.47153 10.9177H16.5285C17.918 10.9177 19.0443 12.0441 19.0443 13.4335V18.4652Z" fill="white"/>
<path d="M11.4969 13.9366H12.5032C13.3368 13.9366 14.0127 14.6125 14.0127 15.4461C14.0127 16.2798 13.3368 16.9556 12.5032 16.9556H11.4969C10.6632 16.9556 9.98737 16.2798 9.98737 15.4461C9.98737 14.6125 10.6632 13.9366 11.4969 13.9366Z" fill="white"/>
</svg>
