<svg width="24" height="24" viewBox="0 0 24 24" fill="none" xmlns="http://www.w3.org/2000/svg">
<g clip-path="url(#clip0_88_6193)">
<path d="M4.86298 2.85477L6.41298 2.41277L6.85498 0.862768C6.92618 0.614052 7.07644 0.395285 7.28302 0.239548C7.4896 0.0838106 7.74127 -0.000427246 7.99998 -0.000427246C8.25869 -0.000427246 8.51036 0.0838106 8.71694 0.239548C8.92352 0.395285 9.07377 0.614052 9.14498 0.862768L9.58698 2.41277L11.137 2.85477C11.3857 2.92597 11.6045 3.07623 11.7602 3.28281C11.9159 3.48939 12.0002 3.74106 12.0002 3.99977C12.0002 4.25848 11.9159 4.51015 11.7602 4.71673C11.6045 4.92331 11.3857 5.07356 11.137 5.14477L9.58698 5.58677L9.14498 7.13677C9.07377 7.38548 8.92352 7.60425 8.71694 7.75999C8.51036 7.91573 8.25869 7.99996 7.99998 7.99996C7.74127 7.99996 7.4896 7.91573 7.28302 7.75999C7.07644 7.60425 6.92618 7.38548 6.85498 7.13677L6.41298 5.58677L4.86298 5.14477C4.61426 5.07356 4.39549 4.92331 4.23976 4.71673C4.08402 4.51015 3.99978 4.25848 3.99978 3.99977C3.99978 3.74106 4.08402 3.48939 4.23976 3.28281C4.39549 3.07623 4.61426 2.92597 4.86298 2.85477ZM23.137 14.8548L21.587 14.4128L21.145 12.8628C21.0738 12.6141 20.9235 12.3953 20.7169 12.2395C20.5104 12.0838 20.2587 11.9996 20 11.9996C19.7413 11.9996 19.4896 12.0838 19.283 12.2395C19.0764 12.3953 18.9262 12.6141 18.855 12.8628L18.413 14.4128L16.863 14.8548C16.6143 14.926 16.3955 15.0762 16.2398 15.2828C16.084 15.4894 15.9998 15.7411 15.9998 15.9998C15.9998 16.2585 16.084 16.5101 16.2398 16.7167C16.3955 16.9233 16.6143 17.0736 16.863 17.1448L18.413 17.5868L18.855 19.1368C18.9262 19.3855 19.0764 19.6042 19.283 19.76C19.4896 19.9157 19.7413 20 20 20C20.2587 20 20.5104 19.9157 20.7169 19.76C20.9235 19.6042 21.0738 19.3855 21.145 19.1368L21.587 17.5868L23.137 17.1448C23.3857 17.0736 23.6045 16.9233 23.7602 16.7167C23.9159 16.5101 24.0002 16.2585 24.0002 15.9998C24.0002 15.7411 23.9159 15.4894 23.7602 15.2828C23.6045 15.0762 23.3857 14.926 23.137 14.8548ZM17.755 4.49977L19.111 4.88677L19.5 6.24377C19.5633 6.45995 19.6949 6.6498 19.8752 6.78485C20.0555 6.91991 20.2747 6.99291 20.5 6.99291C20.7252 6.99291 20.9444 6.91991 21.1247 6.78485C21.305 6.6498 21.4367 6.45995 21.5 6.24377L21.887 4.88877L23.245 4.49977C23.4612 4.43646 23.651 4.3048 23.7861 4.12451C23.9211 3.94423 23.9941 3.72503 23.9941 3.49977C23.9941 3.27451 23.9211 3.05531 23.7861 2.87502C23.651 2.69474 23.4612 2.56308 23.245 2.49977L21.889 2.11277L21.5 0.754768C21.4367 0.538585 21.305 0.34874 21.1247 0.213681C20.9444 0.0786218 20.7252 0.00562285 20.5 0.00562285C20.2747 0.00562285 20.0555 0.0786218 19.8752 0.213681C19.6949 0.34874 19.5633 0.538585 19.5 0.754768L19.113 2.11077L17.755 2.49977C17.5388 2.56308 17.3489 2.69474 17.2139 2.87502C17.0788 3.05531 17.0058 3.27451 17.0058 3.49977C17.0058 3.72503 17.0788 3.94423 17.2139 4.12451C17.3489 4.3048 17.5388 4.43646 17.755 4.49977ZM17.155 12.6478L6.68598 22.8638C5.94862 23.5937 4.95232 24.002 3.9148 23.9996C2.87727 23.9972 1.8829 23.5841 1.14898 22.8508C0.414117 22.1142 0.00141907 21.1162 0.00141907 20.0758C0.00141907 19.0353 0.414117 18.0373 1.14898 17.3008L11.673 7.03277C12.2268 6.49187 12.9282 6.12691 13.689 5.98384C14.4498 5.84077 15.236 5.92599 15.9484 6.22876C16.6609 6.53154 17.2678 7.03833 17.6929 7.68535C18.1179 8.33236 18.342 9.09065 18.337 9.86477C18.3355 10.3845 18.2299 10.8987 18.0266 11.377C17.8232 11.8553 17.5262 12.2881 17.153 12.6498L17.155 12.6478ZM10.975 14.4868L9.66598 13.1818L3.25698 19.4348C3.08869 19.609 2.9958 19.8424 2.99842 20.0846C3.00104 20.3268 3.09896 20.5583 3.27098 20.7288C3.44659 20.8973 3.68057 20.9914 3.92398 20.9914C4.16739 20.9914 4.40137 20.8973 4.57698 20.7288L10.975 14.4868ZM15.339 9.84477C15.34 9.66256 15.2872 9.48411 15.1871 9.33185C15.087 9.17959 14.9442 9.06031 14.7765 8.98903C14.6088 8.91774 14.4238 8.89763 14.2447 8.93121C14.0656 8.96479 13.9004 9.05057 13.77 9.17777L11.815 11.0848L13.122 12.3918L15.059 10.4998C15.1462 10.4148 15.2158 10.3133 15.2635 10.2012C15.3112 10.0891 15.3362 9.9686 15.337 9.84677L15.339 9.84477Z" fill="white"/>
</g>
<defs>
<clipPath id="clip0_88_6193">
<rect width="24" height="24" fill="white"/>
</clipPath>
</defs>
</svg>
