<svg width="24" height="24" viewBox="0 0 24 24" fill="none" xmlns="http://www.w3.org/2000/svg">
<g clip-path="url(#clip0_88_6184)">
<path d="M7.99987 22.3601C9.062 23.4059 10.4912 23.9945 11.9818 24.0001C13.4723 24.0057 14.9059 23.4279 15.9759 22.3901L19.7829 18.8531C21.8417 16.7762 22.9969 13.9701 22.9969 11.0456C22.9969 8.12111 21.8417 5.31501 19.7829 3.23809C18.7636 2.212 17.5514 1.39766 16.216 0.841965C14.8807 0.286267 13.4487 0.000183105 12.0024 0.000183105C10.556 0.000183105 9.124 0.286267 7.78869 0.841965C6.45338 1.39766 5.24118 2.212 4.22187 3.23809C2.15853 5.32357 1.0047 8.14107 1.01257 11.0748C1.02044 14.0084 2.18937 16.8197 4.26387 18.8941L7.99987 22.3601ZM6.34587 5.35409C7.08641 4.60813 7.96725 4.01608 8.93763 3.61207C9.90801 3.20805 10.9487 3.00005 11.9999 3.00005C13.051 3.00005 14.0917 3.20805 15.0621 3.61207C16.0325 4.01608 16.9133 4.60813 17.6539 5.35409C19.1522 6.85916 19.9972 8.89395 20.0058 11.0176C20.0144 13.1413 19.1859 15.1829 17.6999 16.7001L13.8999 20.2251C13.3821 20.7187 12.6926 20.9916 11.9773 20.986C11.262 20.9804 10.5768 20.6967 10.0669 20.1951L6.34587 16.7371C4.84491 15.2231 4.00276 13.1775 4.00276 11.0456C4.00276 8.91368 4.84491 6.86808 6.34587 5.35409ZM6.99987 11.0001C6.99987 10.6023 7.1579 10.2207 7.43921 9.93943C7.72051 9.65812 8.10204 9.50009 8.49987 9.50009H10.4999V7.50009C10.4999 7.10226 10.6579 6.72073 10.9392 6.43943C11.2205 6.15812 11.602 6.00009 11.9999 6.00009C12.3977 6.00009 12.7792 6.15812 13.0605 6.43943C13.3418 6.72073 13.4999 7.10226 13.4999 7.50009V9.50009H15.4999C15.8977 9.50009 16.2792 9.65812 16.5605 9.93943C16.8418 10.2207 16.9999 10.6023 16.9999 11.0001C16.9999 11.3979 16.8418 11.7794 16.5605 12.0607C16.2792 12.3421 15.8977 12.5001 15.4999 12.5001H13.4999V14.5001C13.4999 14.8979 13.3418 15.2794 13.0605 15.5607C12.7792 15.8421 12.3977 16.0001 11.9999 16.0001C11.602 16.0001 11.2205 15.8421 10.9392 15.5607C10.6579 15.2794 10.4999 14.8979 10.4999 14.5001V12.5001H8.49987C8.10204 12.5001 7.72051 12.3421 7.43921 12.0607C7.1579 11.7794 6.99987 11.3979 6.99987 11.0001Z" fill="white"/>
</g>
<defs>
<clipPath id="clip0_88_6184">
<rect width="24" height="24" fill="white"/>
</clipPath>
</defs>
</svg>
