<svg width="24" height="24" viewBox="0 0 24 24" fill="none" xmlns="http://www.w3.org/2000/svg">
<g clip-path="url(#clip0_88_6187)">
<path d="M12.0001 -1.61071e-05C10.5534 -0.00377109 9.12035 0.280515 7.78462 0.836267C6.44889 1.39202 5.23716 2.20812 4.22008 3.23698C2.15461 5.32276 0.999422 8.14176 1.00729 11.0772C1.01516 14.0126 2.18545 16.8253 4.26208 18.9L8.00008 22.359C9.06212 23.4052 10.4915 23.9942 11.9823 24C13.4731 24.0058 14.9069 23.4279 15.9771 22.39L19.7841 18.854C21.843 16.7769 22.9982 13.9706 22.9982 11.046C22.9982 8.12134 21.843 5.31508 19.7841 3.23798C18.7666 2.20846 17.5543 1.3919 16.2178 0.835954C14.8813 0.280013 13.4475 -0.00417187 12.0001 -1.61071e-05ZM17.7001 16.7L13.9001 20.226C13.3828 20.7203 12.6933 20.9936 11.9778 20.9878C11.2623 20.9821 10.5773 20.6976 10.0681 20.195L6.34608 16.736C4.84518 15.2222 4.00306 13.1767 4.00306 11.045C4.00306 8.91324 4.84518 6.8678 6.34608 5.35398C7.08662 4.60802 7.96746 4.01598 8.93784 3.61196C9.90822 3.20795 10.949 2.99995 12.0001 2.99995C13.0512 2.99995 14.0919 3.20795 15.0623 3.61196C16.0327 4.01598 16.9135 4.60802 17.6541 5.35398C19.1526 6.85893 19.9978 8.89377 20.0064 11.0175C20.015 13.1413 19.1864 15.1829 17.7001 16.7ZM17.0001 10.128V14C17.0001 14.2652 16.8947 14.5196 16.7072 14.7071C16.5196 14.8946 16.2653 15 16.0001 15H15.0001C14.7349 15 14.4805 14.8946 14.293 14.7071C14.1054 14.5196 14.0001 14.2652 14.0001 14V12C14.0001 11.7348 13.8947 11.4804 13.7072 11.2929C13.5196 11.1053 13.2653 11 13.0001 11H11.0001C10.7349 11 10.4805 11.1053 10.293 11.2929C10.1054 11.4804 10.0001 11.7348 10.0001 12V14C10.0001 14.2652 9.89472 14.5196 9.70718 14.7071C9.51965 14.8946 9.26529 15 9.00008 15H8.00008C7.73486 15 7.48051 14.8946 7.29297 14.7071C7.10543 14.5196 7.00008 14.2652 7.00008 14V10.128C7.00012 9.80504 7.07838 9.4869 7.22814 9.20078C7.37791 8.91466 7.59473 8.66906 7.86008 8.48498L10.8601 6.40298C11.1949 6.17073 11.5926 6.04627 12.0001 6.04627C12.4075 6.04627 12.8053 6.17073 13.1401 6.40298L16.1401 8.48498C16.4054 8.66906 16.6223 8.91466 16.772 9.20078C16.9218 9.4869 17 9.80504 17.0001 10.128Z" fill="white"/>
</g>
<defs>
<clipPath id="clip0_88_6187">
<rect width="24" height="24" fill="white"/>
</clipPath>
</defs>
</svg>
