<svg width="24" height="24" viewBox="0 0 24 24" fill="none" xmlns="http://www.w3.org/2000/svg">
<path d="M8.43916 12.4391L9.87916 11.0001L8.43916 9.56109C8.15777 9.27969 7.99968 8.89804 7.99968 8.50009C7.99968 8.10214 8.15777 7.72048 8.43916 7.43909C8.72055 7.15769 9.10221 6.99961 9.50016 6.99961C9.89811 6.99961 10.2798 7.15769 10.5612 7.43909L12.0002 8.87909L13.4392 7.43909C13.7206 7.15769 14.1022 6.99961 14.5002 6.99961C14.8981 6.99961 15.2798 7.15769 15.5612 7.43909C15.8426 7.72048 16.0006 8.10214 16.0006 8.50009C16.0006 8.89804 15.8426 9.27969 15.5612 9.56109L14.1212 11.0001L15.5612 12.4391C15.8426 12.7205 16.0006 13.1021 16.0006 13.5001C16.0006 13.898 15.8426 14.2797 15.5612 14.5611C15.2798 14.8425 14.8981 15.0006 14.5002 15.0006C14.1022 15.0006 13.7206 14.8425 13.4392 14.5611L12.0002 13.1211L10.5612 14.5611C10.2798 14.8425 9.89811 15.0006 9.50016 15.0006C9.10221 15.0006 8.72055 14.8425 8.43916 14.5611C8.15777 14.2797 7.99968 13.898 7.99968 13.5001C7.99968 13.1021 8.15777 12.7205 8.43916 12.4391ZM4.26216 18.8941C2.18766 16.8197 1.01873 14.0084 1.01086 11.0748C1.00299 8.14107 2.15682 5.32357 4.22016 3.23809C5.23947 2.212 6.45168 1.39766 7.78699 0.841965C9.1223 0.286267 10.5543 0.000183105 12.0007 0.000183105C13.447 0.000183105 14.879 0.286267 16.2143 0.841965C17.5496 1.39766 18.7619 2.212 19.7812 3.23809C21.84 5.31501 22.9952 8.12111 22.9952 11.0456C22.9952 13.9701 21.84 16.7762 19.7812 18.8531L15.9732 22.3901C14.9033 23.427 13.4704 24.0043 11.9806 23.9987C10.4907 23.9931 9.06216 23.405 8.00016 22.3601L4.26216 18.8941ZM6.34616 16.7371L10.0682 20.1911C10.5781 20.6927 11.2633 20.9764 11.9786 20.982C12.6939 20.9876 13.3834 20.7147 13.9012 20.2211L17.7002 16.7001C19.1854 15.1835 20.0136 13.143 20.0056 11.0203C19.9975 8.89754 19.1539 6.86339 17.6572 5.35809C16.9166 4.61213 16.0358 4.02008 15.0654 3.61607C14.095 3.21205 13.0543 3.00405 12.0032 3.00405C10.952 3.00405 9.9113 3.21205 8.94092 3.61607C7.97054 4.02008 7.0897 4.61213 6.34916 5.35809C4.84901 6.87151 4.0071 8.91604 4.00654 11.047C4.00598 13.1779 4.84681 15.2229 6.34616 16.7371Z" fill="white"/>
</svg>
