<svg width="24" height="24" viewBox="0 0 24 24" fill="none" xmlns="http://www.w3.org/2000/svg">
<g clip-path="url(#clip0_88_6324)">
<path d="M19.7799 3.23809C18.7606 2.212 17.5484 1.39766 16.2131 0.841965C14.8778 0.286267 13.4457 0.000183105 11.9994 0.000183105C10.5531 0.000183105 9.12105 0.286267 7.78574 0.841965C6.45043 1.39766 5.23822 2.212 4.21891 3.23809C2.15571 5.3237 1.00206 8.14127 1.01011 11.075C1.01817 14.0086 2.18728 16.8198 4.26191 18.8941L7.99991 22.3601C9.06222 23.4059 10.4916 23.9946 11.9823 24.0002C13.473 24.0058 14.9068 23.4279 15.9769 22.3901L19.7839 18.8531C21.8415 16.7753 22.9955 13.969 22.9947 11.0448C22.994 8.12053 21.8386 5.31487 19.7799 3.23809ZM17.6999 16.7001L13.8999 20.2251C13.3823 20.7186 12.693 20.9915 11.9778 20.9859C11.2627 20.9803 10.5777 20.6967 10.0679 20.1951L6.34591 16.7371C4.84495 15.2231 4.00281 13.1775 4.00281 11.0456C4.00281 8.91368 4.84495 6.86808 6.34591 5.35409C7.08637 4.60816 7.96713 4.01614 8.93742 3.61213C9.90772 3.20813 10.9484 3.00014 11.9994 3.00014C13.0505 3.00014 14.0911 3.20813 15.0614 3.61213C16.0317 4.01614 16.9125 4.60816 17.6529 5.35409C19.1513 6.85903 19.9965 8.89375 20.0053 11.0174C20.0141 13.1411 19.1858 15.1828 17.6999 16.7001ZM15.5649 14.5651C15.4256 14.7045 15.2602 14.8151 15.0782 14.8905C14.8961 14.9659 14.701 15.0048 14.5039 15.0048C14.3069 15.0048 14.1117 14.9659 13.9297 14.8905C13.7476 14.8151 13.5822 14.7045 13.4429 14.5651L10.9429 12.0651C10.8024 11.9256 10.691 11.7597 10.615 11.5769C10.5389 11.3941 10.4998 11.1981 10.4999 11.0001V7.50009C10.4999 7.10226 10.658 6.72073 10.9393 6.43943C11.2206 6.15812 11.6021 6.00009 11.9999 6.00009C12.3977 6.00009 12.7793 6.15812 13.0606 6.43943C13.3419 6.72073 13.4999 7.10226 13.4999 7.50009V10.3791L15.5609 12.4391C15.7003 12.5784 15.8109 12.7438 15.8863 12.9258C15.9618 13.1079 16.0006 13.303 16.0006 13.5001C16.0006 13.6972 15.9618 13.8923 15.8863 14.0743C15.8109 14.2564 15.7003 14.4218 15.5609 14.5611L15.5649 14.5651Z" fill="white"/>
</g>
<defs>
<clipPath id="clip0_88_6324">
<rect width="24" height="24" fill="white"/>
</clipPath>
</defs>
</svg>
