<svg width="24" height="24" viewBox="0 0 24 24" fill="none" xmlns="http://www.w3.org/2000/svg">
<g clip-path="url(#clip0_88_6180)">
<path d="M23.9899 8C23.9899 7.73478 23.8845 7.48043 23.697 7.29289C23.5095 7.10536 23.2551 7 22.9899 7H18.4209C18.2231 7.00004 18.0298 7.05871 17.8654 7.1686C17.701 7.27848 17.5729 7.43465 17.4972 7.61735C17.4215 7.80005 17.4017 8.00108 17.4403 8.19503C17.4789 8.38898 17.5741 8.56715 17.7139 8.707L18.9429 9.936L16.9049 11.974C15.8831 11.3378 14.7036 11.0004 13.4999 11C13.3189 11 13.1409 11.013 12.9639 11.028C12.9789 10.852 12.9999 10.679 12.9999 10.5C12.9985 9.29803 12.6612 8.12038 12.0259 7.1L14.0639 5.062L15.2929 6.291C15.4332 6.43124 15.612 6.5266 15.8066 6.56494C16.0012 6.60329 16.2028 6.5829 16.3858 6.50636C16.5688 6.42982 16.7249 6.30059 16.8342 6.1351C16.9436 5.96961 17.0012 5.77535 16.9999 5.577L16.9899 1C16.9899 0.734784 16.8845 0.48043 16.697 0.292893C16.5095 0.105357 16.2551 0 15.9899 0L11.4209 0C11.2231 4.22243e-05 11.0298 0.0587141 10.8654 0.168598C10.701 0.278483 10.5729 0.434646 10.4972 0.617346C10.4215 0.800045 10.4017 1.00108 10.4403 1.19503C10.4789 1.38898 10.5741 1.56715 10.7139 1.707L11.9429 2.936L9.89989 4.974C9.04425 4.44408 8.07724 4.12009 7.07505 4.02757C6.07286 3.93504 5.06288 4.0765 4.12468 4.4408C3.18648 4.80511 2.34569 5.3823 1.66856 6.1269C0.991432 6.87151 0.496462 7.76318 0.222651 8.73167C-0.0511607 9.70016 -0.0963332 10.719 0.0906924 11.7079C0.277718 12.6968 0.691832 13.6288 1.30041 14.4304C1.90898 15.232 2.69539 15.8814 3.59767 16.3273C4.49995 16.7732 5.49345 17.0035 6.49989 17C6.68289 17 6.85989 16.978 7.03989 16.963C7.02489 17.142 6.99989 17.318 6.99989 17.5C6.99642 18.5064 7.22671 19.4999 7.67262 20.4022C8.11852 21.3045 8.76786 22.0909 9.56947 22.6995C10.3711 23.3081 11.3031 23.7222 12.292 23.9092C13.2809 24.0962 14.2997 24.0511 15.2682 23.7772C16.2367 23.5034 17.1284 23.0085 17.873 22.3313C18.6176 21.6542 19.1948 20.8134 19.5591 19.8752C19.9234 18.937 20.0649 17.927 19.9723 16.9248C19.8798 15.9227 19.5558 14.9556 19.0259 14.1L21.0639 12.062L22.2929 13.291C22.4332 13.4312 22.612 13.5266 22.8066 13.5649C23.0012 13.6033 23.2028 13.5829 23.3858 13.5064C23.5688 13.4298 23.7249 13.3006 23.8342 13.1351C23.9436 12.9696 24.0012 12.7753 23.9999 12.577L23.9899 8ZM2.99989 10.5C2.99989 9.80777 3.20516 9.13108 3.58975 8.5555C3.97433 7.97993 4.52096 7.53133 5.1605 7.26642C5.80004 7.00152 6.50377 6.9322 7.18271 7.06725C7.86164 7.2023 8.48528 7.53564 8.97476 8.02513C9.46425 8.51461 9.79759 9.13825 9.93264 9.81718C10.0677 10.4961 9.99838 11.1999 9.73347 11.8394C9.46856 12.4789 9.01996 13.0256 8.44439 13.4101C7.86881 13.7947 7.19212 14 6.49989 14C5.57163 14 4.68139 13.6313 4.02502 12.9749C3.36864 12.3185 2.99989 11.4283 2.99989 10.5ZM13.4999 21C12.8077 21 12.131 20.7947 11.5554 20.4101C10.9798 20.0256 10.5312 19.4789 10.2663 18.8394C10.0014 18.1999 9.93209 17.4961 10.0671 16.8172C10.2022 16.1383 10.5355 15.5146 11.025 15.0251C11.5145 14.5356 12.1381 14.2023 12.8171 14.0673C13.496 13.9322 14.1997 14.0015 14.8393 14.2664C15.4788 14.5313 16.0254 14.9799 16.41 15.5555C16.7946 16.1311 16.9999 16.8078 16.9999 17.5C16.9999 18.4283 16.6311 19.3185 15.9748 19.9749C15.3184 20.6313 14.4281 21 13.4999 21Z" fill="white"/>
</g>
<defs>
<clipPath id="clip0_88_6180">
<rect width="24" height="24" fill="white"/>
</clipPath>
</defs>
</svg>
