<svg width="24" height="24" viewBox="0 0 24 24" fill="none" xmlns="http://www.w3.org/2000/svg">
<g clip-path="url(#clip0_88_6167)">
<path d="M18.9394 22.4594C18.9394 23.2852 18.2699 23.9546 17.4441 23.9546H1.49535C0.66955 23.9546 0.000128528 23.2852 0.000128528 22.4594C0.000128528 21.6336 0.66955 20.9641 1.49535 20.9641H17.4442C18.2699 20.9642 18.9394 21.6336 18.9394 22.4594ZM24.0001 8.50416C24.0001 11.5005 21.6078 14.9834 18.5177 14.9834H17.0345C16.4722 17.3297 14.3746 18.9847 11.9618 18.9855H6.97775C4.40802 18.991 2.21446 17.1299 1.80135 14.5936L0.062941 5.09409C-0.342809 2.74678 1.23111 0.515015 3.57843 0.109312C3.82016 0.0675465 4.06499 0.0464527 4.31028 0.0462652H14.6292C16.8868 0.0450934 18.7598 1.79222 18.9154 4.04442C22.1012 4.17502 24.0001 5.81278 24.0001 8.50416ZM15.934 4.5548C16.0436 3.83419 15.5482 3.1612 14.8276 3.05166C14.762 3.04167 14.6956 3.03666 14.6292 3.03666H4.31028C3.58143 3.03947 2.99282 3.63258 2.99558 4.36148C2.99586 4.43428 3.00214 4.50694 3.01443 4.5787L4.75583 14.0792C4.92486 15.1772 5.86686 15.9894 6.97771 15.9951H11.9617C13.0685 15.9965 14.0123 15.1938 14.1886 14.1012V14.0773L15.934 4.5548ZM21.0097 8.50416C21.0097 8.05659 21.0097 7.00894 18.5247 7.00894L17.6116 11.993H18.5177C19.659 11.993 21.0097 10.099 21.0097 8.50416Z" fill="white"/>
</g>
<defs>
<clipPath id="clip0_88_6167">
<rect width="24" height="24" fill="white"/>
</clipPath>
</defs>
</svg>
