<svg width="24" height="24" viewBox="0 0 24 24" fill="none" xmlns="http://www.w3.org/2000/svg">
<path d="M19.0002 2.607V1.5C19.0002 1.10218 18.8421 0.720644 18.5608 0.43934C18.2795 0.158035 17.898 0 17.5002 0C17.1023 0 16.7208 0.158035 16.4395 0.43934C16.1582 0.720644 16.0002 1.10218 16.0002 1.5V2H13.5002V1.5C13.5002 1.10218 13.3421 0.720644 13.0608 0.43934C12.7795 0.158035 12.398 0 12.0002 0C11.6023 0 11.2208 0.158035 10.9395 0.43934C10.6582 0.720644 10.5002 1.10218 10.5002 1.5V2H8.00015V1.5C8.00015 1.10218 7.84212 0.720644 7.56081 0.43934C7.27951 0.158035 6.89798 0 6.50015 0C6.10233 0 5.7208 0.158035 5.43949 0.43934C5.15819 0.720644 5.00015 1.10218 5.00015 1.5V2.607C4.09809 3.06733 3.34065 3.76778 2.8113 4.63115C2.28195 5.49452 2.00125 6.48728 2.00015 7.5V18.5C2.00174 19.9582 2.58171 21.3562 3.61282 22.3873C4.64393 23.4184 6.04195 23.9984 7.50015 24H16.5002C17.9583 23.9981 19.3561 23.4181 20.3872 22.387C21.4182 21.356 21.9983 19.9581 22.0002 18.5V7.5C21.9991 6.48728 21.7184 5.49452 21.189 4.63115C20.6597 3.76778 19.9022 3.06733 19.0002 2.607ZM19.0002 18.5C19.0002 19.163 18.7368 19.7989 18.2679 20.2678C17.7991 20.7366 17.1632 21 16.5002 21H7.50015C6.83711 21 6.20123 20.7366 5.73239 20.2678C5.26354 19.7989 5.00015 19.163 5.00015 18.5V7.5C5.00015 6.83696 5.26354 6.20107 5.73239 5.73223C6.20123 5.26339 6.83711 5 7.50015 5H16.5002C17.1632 5 17.7991 5.26339 18.2679 5.73223C18.7368 6.20107 19.0002 6.83696 19.0002 7.5V18.5ZM17.0002 8.5C17.0002 8.89782 16.8421 9.27936 16.5608 9.56066C16.2795 9.84196 15.898 10 15.5002 10H8.50015C8.10233 10 7.7208 9.84196 7.43949 9.56066C7.15819 9.27936 7.00015 8.89782 7.00015 8.5C7.00015 8.10218 7.15819 7.72064 7.43949 7.43934C7.7208 7.15804 8.10233 7 8.50015 7H15.5002C15.898 7 16.2795 7.15804 16.5608 7.43934C16.8421 7.72064 17.0002 8.10218 17.0002 8.5ZM13.5002 13.5C13.5002 13.8978 13.3421 14.2794 13.0608 14.5607C12.7795 14.842 12.398 15 12.0002 15H8.50015C8.10233 15 7.7208 14.842 7.43949 14.5607C7.15819 14.2794 7.00015 13.8978 7.00015 13.5C7.00015 13.1022 7.15819 12.7206 7.43949 12.4393C7.7208 12.158 8.10233 12 8.50015 12H12.0002C12.398 12 12.7795 12.158 13.0608 12.4393C13.3421 12.7206 13.5002 13.1022 13.5002 13.5Z" fill="white"/>
</svg>
