<svg width="24" height="24" viewBox="0 0 24 24" fill="none" xmlns="http://www.w3.org/2000/svg">
<g clip-path="url(#clip0_88_6235)">
<path d="M24 3.94072C24.0053 3.42091 23.9064 2.90532 23.709 2.4244C23.5117 1.94348 23.2199 1.50699 22.851 1.14072C22.1189 0.414489 21.1312 0.00417307 20.1 -0.00218334C19.0687 -0.00853975 18.0761 0.38957 17.335 1.10672L7.16403 11.0327C6.35092 11.0069 5.54113 11.1476 4.78445 11.4463C4.02776 11.745 3.34019 12.1954 2.76402 12.7697C1.14702 14.3887 0.246025 18.5417 0.0350251 20.0067C-0.0367437 20.504 -0.000848144 21.0108 0.140282 21.4929C0.281412 21.9751 0.524482 22.4213 0.853037 22.8013C1.18159 23.1814 1.58796 23.4864 2.04464 23.6957C2.50132 23.9051 2.99765 24.0139 3.50003 24.0147C3.67169 24.0148 3.84314 24.0024 4.01303 23.9777C5.47603 23.7677 9.62803 22.8677 11.248 21.2477C11.878 20.6131 12.3571 19.8449 12.6498 18.9999C12.9425 18.155 13.0414 17.255 12.939 16.3667L22.819 6.72572C23.1917 6.36377 23.4882 5.93089 23.691 5.45259C23.8938 4.9743 23.9989 4.46025 24 3.94072ZM9.12302 19.1267C8.47102 19.7777 5.77703 20.6927 3.58203 21.0087C3.50354 21.021 3.42327 21.0145 3.34774 20.99C3.27221 20.9654 3.20355 20.9233 3.14733 20.8672C3.09112 20.8111 3.04893 20.7425 3.0242 20.667C2.99948 20.5915 2.99291 20.5112 3.00503 20.4327C3.32103 18.2327 4.23603 15.5427 4.88703 14.8907C5.44936 14.3301 6.211 14.0154 7.00503 14.0154C7.79905 14.0154 8.56069 14.3301 9.12302 14.8907C9.46295 15.2363 9.71292 15.66 9.85102 16.1247C9.86887 16.2472 9.90248 16.3669 9.95103 16.4807C10.0366 16.9559 10.0059 17.4446 9.86176 17.9053C9.71759 18.3661 9.46414 18.7851 9.12302 19.1267ZM20.723 4.57772L11.723 13.3567C11.5761 13.151 11.4161 12.9549 11.244 12.7697C10.9825 12.5107 10.6976 12.2764 10.393 12.0697L19.43 3.25572C19.6046 3.08651 19.8386 2.99255 20.0817 2.99405C20.3248 2.99555 20.5576 3.09238 20.73 3.26372C20.8166 3.35005 20.8852 3.45274 20.9318 3.56582C20.9783 3.6789 21.0019 3.80011 21.0012 3.9224C21.0004 4.04468 20.9754 4.1656 20.9274 4.27811C20.8795 4.39061 20.8097 4.49246 20.722 4.57772H20.723Z" fill="white"/>
</g>
<defs>
<clipPath id="clip0_88_6235">
<rect width="24" height="24" fill="white"/>
</clipPath>
</defs>
</svg>
