<svg width="24" height="24" viewBox="0 0 24 24" fill="none" xmlns="http://www.w3.org/2000/svg">
<g clip-path="url(#clip0_88_6413)">
<path d="M22.9994 1.00243C22.1725 0.16396 20.9667 -0.179818 19.8219 0.0965637L4.53613 3.3091C1.6333 3.73865 -0.37168 6.44008 0.0578675 9.34287C0.224859 10.4714 0.750674 11.5162 1.55751 12.3228L3.19626 13.9626C3.27298 14.0383 3.31587 14.1418 3.31526 14.2495V17.2731C3.31746 19.1541 4.84175 20.6784 6.72276 20.6806H9.74633C9.85426 20.6806 9.95784 20.7234 10.0343 20.7996L11.673 22.4384C12.6639 23.4358 14.0115 23.9972 15.4175 23.9981C15.9978 23.9977 16.5743 23.9028 17.1242 23.7172C19.022 23.0869 20.401 21.4389 20.6867 19.4598L23.8993 4.222C24.1879 3.0652 23.846 1.84194 22.9994 1.00243ZM3.12132 7.82743C3.39306 6.98788 4.12636 6.38164 5.00204 6.27267C5.03738 6.26798 5.07235 6.26198 5.10703 6.25467L18.4271 3.45509L6.31487 15.5603V14.2495C6.31707 13.3452 5.95694 12.4777 5.31503 11.8409L3.67825 10.2021C3.04783 9.58551 2.83073 8.66004 3.12132 7.82743ZM17.7412 18.8939C17.7332 18.9289 17.7282 18.9638 17.7232 18.9988C17.5496 20.2654 16.3821 21.1513 15.1156 20.9777C14.6152 20.9091 14.151 20.6787 13.7938 20.3217L12.156 18.6839C11.5188 18.0418 10.651 17.6817 9.74637 17.6841H8.43556L20.5448 5.5718L17.7412 18.8939Z" fill="white"/>
</g>
<defs>
<clipPath id="clip0_88_6413">
<rect width="24" height="24" fill="white"/>
</clipPath>
</defs>
</svg>
