<svg width="24" height="24" viewBox="0 0 24 24" fill="none" xmlns="http://www.w3.org/2000/svg">
<path d="M6.99999 0C5.93913 0 4.92171 0.421427 4.17157 1.17157C3.42142 1.92172 2.99999 2.93913 2.99999 4V20C2.99999 21.0609 3.42142 22.0783 4.17157 22.8284C4.92171 23.5786 5.93913 24 6.99999 24C8.06086 24 9.07827 23.5786 9.82842 22.8284C10.5786 22.0783 11 21.0609 11 20V4C11 2.93913 10.5786 1.92172 9.82842 1.17157C9.07827 0.421427 8.06086 0 6.99999 0V0ZM7.99999 20C7.99999 20.2652 7.89464 20.5196 7.7071 20.7071C7.51956 20.8946 7.26521 21 6.99999 21C6.73478 21 6.48042 20.8946 6.29289 20.7071C6.10535 20.5196 5.99999 20.2652 5.99999 20V4C5.99999 3.73478 6.10535 3.48043 6.29289 3.29289C6.48042 3.10536 6.73478 3 6.99999 3C7.26521 3 7.51956 3.10536 7.7071 3.29289C7.89464 3.48043 7.99999 3.73478 7.99999 4V20Z" fill="white"/>
<path d="M16.9998 0C15.939 0 14.9216 0.421427 14.1714 1.17157C13.4213 1.92172 12.9999 2.93913 12.9999 4V20C12.9999 21.0609 13.4213 22.0783 14.1714 22.8284C14.9216 23.5786 15.939 24 16.9998 24C18.0607 24 19.0781 23.5786 19.8283 22.8284C20.5784 22.0783 20.9998 21.0609 20.9998 20V4C20.9998 2.93913 20.5784 1.92172 19.8283 1.17157C19.0781 0.421427 18.0607 0 16.9998 0V0ZM17.9998 20C17.9998 20.2652 17.8945 20.5196 17.707 20.7071C17.5194 20.8946 17.2651 21 16.9998 21C16.7346 21 16.4803 20.8946 16.2927 20.7071C16.1052 20.5196 15.9998 20.2652 15.9998 20V4C15.9998 3.73478 16.1052 3.48043 16.2927 3.29289C16.4803 3.10536 16.7346 3 16.9998 3C17.2651 3 17.5194 3.10536 17.707 3.29289C17.8945 3.48043 17.9998 3.73478 17.9998 4V20Z" fill="white"/>
</svg>
