<svg width="24" height="24" viewBox="0 0 24 24" fill="none" xmlns="http://www.w3.org/2000/svg">
<g clip-path="url(#clip0_88_6279)">
<path d="M8.16376 8.00015C7.58451 7.99108 7.02638 7.78112 6.58477 7.40615C5.66363 6.56137 5.10558 5.39258 5.02777 4.14515C4.78477 1.65215 6.14477 0.181146 7.61377 0.0171463C7.96772 -0.0220971 8.32594 0.0102677 8.66713 0.112314C9.00832 0.214361 9.32549 0.384004 9.59976 0.611146C10.0089 0.97998 10.3412 1.42607 10.5773 1.92377C10.8134 2.42146 10.9489 2.96093 10.9758 3.51115C11.1998 5.83515 9.96176 8.00015 8.16376 8.00015ZM2.85277 14.0001C2.32075 13.9875 1.81289 13.7755 1.42977 13.4061C0.583044 12.5245 0.0855076 11.3653 0.0297742 10.1441C-0.190226 7.65115 1.03577 6.18015 2.36077 6.01615C2.68373 5.97972 3.01075 6.01398 3.31915 6.11655C3.62755 6.21912 3.90995 6.38755 4.14677 6.61015C4.90738 7.38838 5.34996 8.4226 5.38777 9.51015C5.58877 11.8351 4.35877 14.0001 2.85277 14.0001ZM15.8358 8.00015C14.0258 8.00015 12.8018 5.83415 13.0288 3.50815C13.0557 2.95793 13.1911 2.41846 13.4272 1.92077C13.6634 1.42307 13.9956 0.97698 14.4048 0.608146C14.6788 0.382365 14.9952 0.21375 15.3355 0.112246C15.6757 0.0107422 16.0328 -0.0215935 16.3858 0.0171463C17.8548 0.181146 19.2148 1.65215 18.9718 4.14515C18.8942 5.39293 18.3361 6.56212 17.4148 7.40715C16.973 7.78176 16.4149 7.99136 15.8358 8.00015ZM21.0527 14.0001C19.1668 14.0001 18.2258 11.8341 18.4378 9.50815C18.4798 8.41361 18.938 7.37637 19.7188 6.60815C19.9668 6.38393 20.2596 6.21501 20.5779 6.1126C20.8961 6.01019 21.2325 5.97663 21.5648 6.01415C22.9327 6.17815 24.1997 7.64915 23.9737 10.1421C23.9105 11.3716 23.3935 12.5339 22.5227 13.4041C22.1222 13.776 21.5992 13.9881 21.0527 14.0001ZM15.7138 24.0001C14.8114 24.0161 13.9223 23.7811 13.1458 23.3211C12.8006 23.1105 12.4041 22.9991 11.9998 22.9991C11.5954 22.9991 11.1989 23.1105 10.8538 23.3211C7.75576 25.1751 3.89977 23.1881 3.99977 18.8331C3.99977 14.2841 8.50676 10.0001 11.9998 10.0001C15.4928 10.0001 19.9998 14.2841 19.9998 18.8331C19.9998 21.8751 18.2378 24.0001 15.7138 24.0001ZM11.9998 20.0001C12.9021 19.9842 13.7912 20.2192 14.5678 20.6791C16.5458 21.8121 17.0168 19.8191 16.9998 18.8331C16.9998 15.8831 13.8358 13.0001 11.9998 13.0001C10.1638 13.0001 6.99977 15.8831 6.99977 18.8331C6.97677 19.8041 7.46177 21.8191 9.43176 20.6791C10.2083 20.2192 11.0974 19.9842 11.9998 20.0001Z" fill="white"/>
</g>
<defs>
<clipPath id="clip0_88_6279">
<rect width="24" height="24" fill="white"/>
</clipPath>
</defs>
</svg>
