<svg width="24" height="24" viewBox="0 0 24 24" fill="none" xmlns="http://www.w3.org/2000/svg">
<g clip-path="url(#clip0_88_6522)">
<path d="M22.9341 16.1005C23.5967 16.7478 23.977 17.6304 23.9924 18.5566C24.0077 19.4828 23.6569 20.3776 23.0161 21.0465C23.0161 21.0465 22.0861 22.1125 22.0621 22.1375C18.6221 25.3375 14.2961 23.9875 10.2021 21.5265C9.86538 21.3143 9.62677 20.9771 9.53872 20.589C9.45067 20.2009 9.5204 19.7937 9.73258 19.457C9.94475 19.1203 10.282 18.8817 10.6701 18.7936C11.0582 18.7056 11.4654 18.7753 11.8021 18.9875C14.7371 20.6325 17.4831 22.0305 19.9091 20.0505C19.9091 20.0505 20.8331 18.9915 20.8581 18.9675C20.9518 18.8737 21.0045 18.7466 21.0045 18.614C21.0045 18.4814 20.9518 18.3542 20.8581 18.2605L18.6201 16.1865C18.3201 15.9365 18.1511 15.9335 17.8731 16.1465L16.7371 17.2645C16.532 17.4661 16.2732 17.6045 15.9917 17.6632C15.7101 17.7218 15.4176 17.6984 15.1491 17.5955C14.9691 17.5288 14.7917 17.4575 14.6171 17.3815C14.2931 17.2444 14.0276 16.9979 13.8669 16.6849C13.7063 16.3719 13.6608 16.0124 13.7384 15.6693C13.8159 15.3262 14.0116 15.0212 14.2913 14.8077C14.5709 14.5943 14.9166 14.4859 15.2681 14.5015L15.7601 14.0175C16.4281 13.386 17.3129 13.0347 18.2322 13.0362C19.1514 13.0377 20.0351 13.3918 20.7011 14.0255L22.9341 16.1005ZM23.5611 2.56148L2.56108 23.5615C2.27968 23.8429 1.89803 24.001 1.50008 24.001C1.10212 24.001 0.720471 23.8429 0.439076 23.5615C0.157681 23.2801 -0.000404565 22.8984 -0.000404565 22.5005C-0.000404565 22.1025 0.157681 21.7209 0.439076 21.4395L4.88008 17.0005C0.880076 12.3005 -2.13792 6.40048 1.86208 1.93948C1.88708 1.91448 2.95408 0.984481 2.95408 0.984481C3.62374 0.365424 4.50426 0.0250195 5.4162 0.0326376C6.32813 0.0402556 7.20285 0.395323 7.86208 1.02548L10.0141 3.34348C10.6549 4.00241 11.0102 4.88737 11.0029 5.80649C10.9956 6.72561 10.6263 7.60481 9.97508 8.25348L9.58708 8.64648C9.96958 9.44627 10.4323 10.2052 10.9681 10.9115L21.4391 0.439481C21.7205 0.158086 22.1021 0 22.5001 0C22.898 0 23.2797 0.158086 23.5611 0.439481C23.8425 0.720875 24.0006 1.10253 24.0006 1.50048C24.0006 1.89843 23.8425 2.28009 23.5611 2.56148ZM7.00008 14.8805L8.82708 13.0535C7.82175 11.7877 7.00866 10.3806 6.41408 8.87748C6.30557 8.60677 6.27833 8.3103 6.3357 8.02436C6.39307 7.73841 6.53255 7.47539 6.73708 7.26748L7.84508 6.14148C7.89553 6.09666 7.93608 6.0418 7.96413 5.98041C7.99217 5.91902 8.00709 5.85246 8.00794 5.78497C8.00879 5.71748 7.99554 5.65056 7.96905 5.58849C7.94255 5.52642 7.90339 5.47056 7.85408 5.42448L5.70008 3.10648C5.60476 3.02683 5.48262 2.98661 5.35863 2.99404C5.23465 3.00148 5.11818 3.05601 5.03308 3.14648C5.00908 3.17148 3.95008 4.10048 3.95008 4.10048C1.50008 7.00048 4.22408 11.5915 7.00008 14.8805Z" fill="white"/>
</g>
<defs>
<clipPath id="clip0_88_6522">
<rect width="24" height="24" fill="white"/>
</clipPath>
</defs>
</svg>
