<svg width="24" height="24" viewBox="0 0 24 24" fill="none" xmlns="http://www.w3.org/2000/svg">
<path d="M20.463 7.7128L11.363 1.0358C10.5707 0.454282 9.63272 0.103747 8.65322 0.0231148C7.67373 -0.0575172 6.69105 0.13491 5.81432 0.579028C4.93758 1.02315 4.20109 1.70158 3.68664 2.53898C3.17218 3.37638 2.89989 4.33999 2.9 5.3228V18.6768C2.8981 19.66 3.16917 20.6244 3.68301 21.4627C4.19686 22.3009 4.93331 22.9801 5.81034 23.4245C6.68737 23.869 7.67056 24.0612 8.6504 23.9799C9.63024 23.8985 10.5683 23.5468 11.36 22.9638L20.465 16.2868C21.1385 15.7932 21.6863 15.1478 22.0639 14.403C22.4415 13.6582 22.6382 12.8349 22.6382 11.9998C22.6382 11.1647 22.4415 10.3414 22.0639 9.59661C21.6863 8.85179 21.1385 8.20641 20.465 7.7128H20.463ZM18.689 13.8678L9.589 20.5448C9.24375 20.7985 8.83491 20.9515 8.40792 20.9868C7.98094 21.0221 7.55252 20.9383 7.17029 20.7448C6.78805 20.5512 6.46697 20.2555 6.24272 19.8904C6.01847 19.5253 5.89984 19.1052 5.9 18.6768V5.3228C5.89542 4.89373 6.01221 4.47211 6.23692 4.10656C6.46163 3.74101 6.78509 3.44643 7.17 3.2568C7.49589 3.08947 7.85667 3.00142 8.223 2.9998C8.71393 3.00222 9.1912 3.16166 9.585 3.4548L18.685 10.1318C18.9785 10.3469 19.2171 10.6281 19.3817 10.9527C19.5462 11.2772 19.6319 11.6359 19.6319 11.9998C19.6319 12.3637 19.5462 12.7224 19.3817 13.0469C19.2171 13.3715 18.9785 13.6527 18.685 13.8678H18.689Z" fill="white"/>
</svg>
