<svg width="24" height="24" viewBox="0 0 24 24" fill="none" xmlns="http://www.w3.org/2000/svg">
<path d="M20.5001 21H8.49315C8.84752 20.0403 9.01947 19.0228 9.00015 18V14H14.5001C14.898 14 15.2795 13.842 15.5608 13.5607C15.8421 13.2794 16.0001 12.8978 16.0001 12.5C16.0001 12.1022 15.8421 11.7206 15.5608 11.4393C15.2795 11.158 14.898 11 14.5001 11H9.00015V8C9.00266 6.71551 9.49815 5.48098 10.3844 4.55117C11.2706 3.62136 12.4799 3.06721 13.7628 3.00306C15.0457 2.93892 16.3043 3.36968 17.2788 4.20645C18.2534 5.04322 18.8695 6.22216 19.0001 7.5C19.0001 7.89782 19.1582 8.27936 19.4395 8.56066C19.7208 8.84196 20.1023 9 20.5001 9C20.898 9 21.2795 8.84196 21.5608 8.56066C21.8421 8.27936 22.0001 7.89782 22.0001 7.5C22.0001 3.505 18.2621 0 14.0001 0C11.8791 0.00238211 9.8457 0.846002 8.34593 2.34578C6.84615 3.84555 6.00253 5.879 6.00015 8V11H4.50015C4.10232 11 3.72079 11.158 3.43949 11.4393C3.15818 11.7206 3.00015 12.1022 3.00015 12.5C3.00015 12.8978 3.15818 13.2794 3.43949 13.5607C3.72079 13.842 4.10232 14 4.50015 14H6.00015V18C6.00015 20.583 5.26315 21 3.50015 21C3.10232 21 2.72079 21.158 2.43949 21.4393C2.15818 21.7206 2.00015 22.1022 2.00015 22.5C2.00015 22.8978 2.15818 23.2794 2.43949 23.5607C2.72079 23.842 3.10232 24 3.50015 24H20.5001C20.898 24 21.2795 23.842 21.5608 23.5607C21.8421 23.2794 22.0001 22.8978 22.0001 22.5C22.0001 22.1022 21.8421 21.7206 21.5608 21.4393C21.2795 21.158 20.898 21 20.5001 21Z" fill="white"/>
</svg>
