<svg width="24" height="24" viewBox="0 0 24 24" fill="none" xmlns="http://www.w3.org/2000/svg">
<g clip-path="url(#clip0_88_6147)">
<path d="M11.9962 0C12.8241 0 13.4953 0.671195 13.4953 1.49915V6.49631C13.4953 7.32426 12.8241 7.99546 11.9962 7.99546C11.1682 7.99546 10.4971 7.32426 10.4971 6.49631V1.49915C10.4971 0.671195 11.1682 0 11.9962 0Z" fill="white"/>
<path d="M15.494 4.93736C15.4867 5.4406 15.7404 5.9118 16.1646 6.18263C19.9327 8.4849 21.121 13.4059 18.8187 17.174C16.5164 20.942 11.5954 22.1304 7.82734 19.8281C4.05924 17.5258 2.87098 12.6048 5.17329 8.83668C5.83113 7.76001 6.73446 6.8543 7.8094 6.1936C8.24091 5.92277 8.50148 5.44777 8.49802 4.9383C8.50031 4.11035 7.83099 3.43732 7.00304 3.43503C6.71867 3.43423 6.43993 3.51434 6.19936 3.66604C1.0416 6.86971 -0.542483 13.6479 2.66114 18.8056C5.86477 23.9633 12.643 25.5474 17.8007 22.3438C22.9584 19.1402 24.5425 12.362 21.3389 7.20425C20.4471 5.76859 19.2363 4.55784 17.8007 3.66608C17.0981 3.22285 16.1692 3.43311 15.726 4.13569C15.5746 4.37565 15.4942 4.6536 15.494 4.93736Z" fill="white"/>
</g>
<defs>
<clipPath id="clip0_88_6147">
<rect width="24" height="24" fill="white"/>
</clipPath>
</defs>
</svg>
