<svg width="24" height="24" viewBox="0 0 24 24" fill="none" xmlns="http://www.w3.org/2000/svg">
<g clip-path="url(#clip0_88_6144)">
<path d="M19.5101 23.9999H4.48814C3.71603 24.0023 2.95662 23.8036 2.28469 23.4232C1.61275 23.0429 1.05148 22.4941 0.656135 21.8309C0.253515 21.1689 0.0286162 20.4143 0.00321338 19.6399C-0.0221895 18.8656 0.152764 18.0978 0.511135 17.4109L8.02214 2.42788C8.39713 1.69595 8.96707 1.08186 9.66904 0.653403C10.371 0.224947 11.1777 -0.001215 12.0001 -0.000118099C12.8223 -0.000805223 13.6287 0.225537 14.3305 0.653959C15.0322 1.08238 15.602 1.69624 15.9771 2.42788L23.4971 17.4279C23.8503 18.1135 24.0216 18.8783 23.9947 19.649C23.9678 20.4198 23.7436 21.1708 23.3436 21.8301C22.9436 22.4895 22.3811 23.0352 21.7099 23.4151C21.0388 23.795 20.2814 23.9963 19.5101 23.9999ZM10.6771 3.80788L3.17114 18.7809C3.04737 19.0112 2.98595 19.2698 2.99297 19.5312C2.99998 19.7926 3.07519 20.0476 3.21114 20.2709C3.34208 20.4926 3.52894 20.6761 3.75304 20.803C3.97714 20.9299 4.23062 20.9957 4.48814 20.9939H19.5101C19.7685 20.9938 20.0225 20.9269 20.2475 20.7998C20.4725 20.6726 20.6608 20.4895 20.7942 20.2682C20.9276 20.0469 21.0015 19.7949 21.0089 19.5366C21.0162 19.2783 20.9567 19.0224 20.8361 18.7939L13.3171 3.79388C13.1922 3.55337 13.0029 3.35232 12.7703 3.21317C12.5378 3.07402 12.2711 3.00226 12.0001 3.00588C11.7268 3.00314 11.4582 3.07676 11.2244 3.21845C10.9907 3.36015 10.8011 3.56429 10.6771 3.80788Z" fill="white"/>
</g>
<defs>
<clipPath id="clip0_88_6144">
<rect width="24" height="24" fill="white"/>
</clipPath>
</defs>
</svg>
