<svg width="24" height="24" viewBox="0 0 24 24" fill="none" xmlns="http://www.w3.org/2000/svg">
<g clip-path="url(#clip0_88_6314)">
<path d="M7.72591 3.043L8.34491 2.043C8.73558 1.42716 9.27551 0.920008 9.91457 0.568609C10.5536 0.21721 11.2711 0.032959 12.0004 0.032959C12.7297 0.032959 13.4472 0.21721 14.0863 0.568609C14.7253 0.920008 15.2652 1.42716 15.6559 2.043L17.7869 5.431L19.1449 4.504C19.3898 4.33685 19.6787 4.24603 19.9752 4.243C20.2717 4.23997 20.5624 4.32488 20.8107 4.48699C21.0589 4.6491 21.2536 4.88115 21.37 5.15383C21.4865 5.4265 21.5195 5.72757 21.4649 6.019L20.7289 9.962C20.6435 10.4206 20.4009 10.8352 20.0427 11.1341C19.6846 11.4331 19.2334 11.5979 18.7669 11.6C18.6369 11.6 14.4669 10.792 14.4669 10.792C14.177 10.7348 13.9104 10.5932 13.7007 10.385C13.4909 10.1768 13.3473 9.91135 13.2879 9.62185C13.2285 9.33236 13.256 9.03177 13.3668 8.75782C13.4776 8.48387 13.6669 8.24876 13.9109 8.082L15.3059 7.129L13.1059 3.636C12.99 3.44818 12.8283 3.29294 12.6358 3.18491C12.4434 3.07688 12.2266 3.01962 12.006 3.01852C11.7853 3.01742 11.5679 3.07252 11.3744 3.17862C11.1809 3.28473 11.0176 3.43834 10.8999 3.625L10.2789 4.625C10.175 4.79264 10.0392 4.93817 9.87904 5.05329C9.71892 5.16841 9.53769 5.25086 9.34571 5.29595C9.15372 5.34103 8.95474 5.34786 8.76011 5.31604C8.56549 5.28422 8.37904 5.21438 8.21141 5.1105C8.04378 5.00663 7.89824 4.87075 7.78312 4.71063C7.668 4.55051 7.58555 4.36929 7.54047 4.1773C7.49538 3.98532 7.48856 3.78633 7.52037 3.59171C7.55219 3.39709 7.62203 3.21063 7.72591 3.043ZM23.3529 14.462L22.7749 13.531C22.6723 13.3612 22.537 13.2135 22.3769 13.0963C22.2168 12.9792 22.0351 12.895 21.8422 12.8486C21.6493 12.8021 21.4492 12.7944 21.2533 12.8259C21.0574 12.8573 20.8698 12.9273 20.7011 13.0318C20.5325 13.1363 20.3863 13.2732 20.2709 13.4346C20.1555 13.596 20.0733 13.7786 20.029 13.972C19.9847 14.1654 19.9793 14.3656 20.0129 14.5611C20.0465 14.7566 20.1186 14.9435 20.2249 15.111L20.8029 16.043C20.9235 16.239 20.9895 16.4636 20.9942 16.6936C20.9989 16.9236 20.9421 17.1507 20.8297 17.3514C20.7172 17.5522 20.5532 17.7192 20.3546 17.8353C20.156 17.9515 19.93 18.0125 19.6999 18.012H14.9999V16.5C15.0003 16.2077 14.9153 15.9217 14.7554 15.6771C14.5954 15.4325 14.3675 15.2399 14.0996 15.1231C13.8317 15.0062 13.5355 14.9702 13.2474 15.0194C12.9593 15.0686 12.6918 15.2009 12.4779 15.4L9.69991 17.992C9.48595 18.1769 9.31363 18.405 9.19432 18.6614C9.075 18.9177 9.0114 19.1965 9.00772 19.4792C9.00403 19.762 9.06035 20.0423 9.17294 20.3017C9.28553 20.5611 9.45185 20.7936 9.66091 20.984L12.4789 23.6C12.6929 23.7988 12.9602 23.9308 13.2482 23.9798C13.5361 24.0289 13.8321 23.9927 14.0998 23.8759C14.3675 23.7591 14.5953 23.5667 14.7552 23.3223C14.9151 23.0779 15.0001 22.7921 14.9999 22.5V21.012H19.6999C20.465 21.0132 21.2165 20.81 21.8766 20.4232C22.5367 20.0365 23.0814 19.4803 23.4544 18.8123C23.8273 18.1443 24.0149 17.3888 23.9978 16.6239C23.9807 15.859 23.7594 15.1126 23.3569 14.462H23.3529ZM8.09991 8.381C8.04995 8.1217 7.94934 7.8748 7.80383 7.65444C7.65832 7.43408 7.47078 7.24458 7.25193 7.09679C7.03309 6.94901 6.78725 6.84584 6.52848 6.7932C6.26971 6.74056 6.0031 6.73947 5.74391 6.79L1.83791 7.559C1.54772 7.61604 1.28087 7.75758 1.07089 7.96584C0.860914 8.17409 0.717184 8.43977 0.657768 8.72948C0.598351 9.01919 0.6259 9.32 0.73695 9.5941C0.848 9.86819 1.0376 10.1033 1.28191 10.27L2.66191 11.212L0.647909 14.462C0.240383 15.1091 0.015877 15.8546 -0.00173145 16.6192C-0.0193399 17.3838 0.170607 18.1388 0.547909 18.804C0.918063 19.4791 1.46452 20.041 2.129 20.4299C2.79348 20.8187 3.55105 21.0199 4.32091 21.012L5.51491 21C5.91273 20.996 6.29268 20.8342 6.57118 20.5501C6.84967 20.2659 7.00389 19.8828 6.99991 19.485C6.99593 19.0872 6.83408 18.7072 6.54996 18.4287C6.26584 18.1502 5.88273 17.996 5.48491 18L4.29991 18.012C4.06994 18.012 3.84413 17.9507 3.64579 17.8343C3.44745 17.7179 3.28378 17.5507 3.17166 17.3499C3.05954 17.1491 3.00305 16.922 3.00802 16.6921C3.01298 16.4622 3.07923 16.2378 3.19991 16.042L5.14391 12.906L6.51591 13.843C6.76073 14.01 7.04954 14.1008 7.3459 14.1039C7.64226 14.1069 7.93288 14.0221 8.18109 13.8601C8.42929 13.6981 8.62394 13.4663 8.74048 13.1938C8.85703 12.9213 8.89023 12.6204 8.83591 12.329L8.09991 8.381Z" fill="white"/>
</g>
<defs>
<clipPath id="clip0_88_6314">
<rect width="24" height="24" fill="white"/>
</clipPath>
</defs>
</svg>
