<svg width="24" height="24" viewBox="0 0 24 24" fill="none" xmlns="http://www.w3.org/2000/svg">
<g clip-path="url(#clip0_88_6493)">
<path d="M10.492 20.8092C9.60863 20.8085 8.74867 20.525 8.03802 20.0002L1.70002 15.3522C1.17419 14.9662 0.746628 14.4617 0.451927 13.8797C0.157225 13.2978 0.00366211 12.6546 0.00366211 12.0022C0.00366211 11.3499 0.157225 10.7067 0.451927 10.1247C0.746628 9.54274 1.17419 9.03831 1.70002 8.65223L8.03702 4.00023C8.57236 3.6079 9.19381 3.34936 9.84945 3.24619C10.5051 3.14303 11.1759 3.19824 11.8059 3.40721C12.4358 3.61619 13.0066 3.97286 13.4706 4.44744C13.9346 4.92201 14.2783 5.50072 14.473 6.13523L17.386 4.00023C18.0054 3.54594 18.7386 3.27218 19.5041 3.20936C20.2697 3.14654 21.0376 3.2971 21.7228 3.64434C22.4079 3.99158 22.9835 4.5219 23.3855 5.17644C23.7874 5.83098 24.0002 6.58411 24 7.35223V16.6522C23.9994 17.42 23.7862 18.1726 23.3839 18.8266C22.9816 19.4805 22.406 20.0103 21.721 20.357C21.036 20.7038 20.2683 20.854 19.5031 20.791C18.7379 20.728 18.0051 20.4543 17.386 20.0002L14.473 17.8652C14.2104 18.7165 13.6823 19.4614 12.966 19.9911C12.2498 20.5208 11.3829 20.8074 10.492 20.8092ZM10.482 6.18923C10.2395 6.19096 10.004 6.27132 9.81102 6.41823L3.47302 11.0672C3.32648 11.1747 3.20732 11.3152 3.12518 11.4773C3.04305 11.6394 3.00024 11.8185 3.00024 12.0002C3.00024 12.182 3.04305 12.3611 3.12518 12.5232C3.20732 12.6853 3.32648 12.8258 3.47302 12.9332L9.81202 17.5822C9.98451 17.7084 10.1886 17.7843 10.4016 17.8016C10.6146 17.8188 10.8282 17.7768 11.0187 17.68C11.2093 17.5833 11.3693 17.4357 11.4811 17.2536C11.5929 17.0715 11.652 16.8619 11.652 16.6482V15.0372C11.652 14.76 11.7287 14.4882 11.8738 14.252C12.0188 14.0157 12.2265 13.8243 12.4738 13.699C12.7211 13.5736 12.9982 13.5192 13.2745 13.5419C13.5508 13.5645 13.8155 13.6633 14.039 13.8272L19.159 17.5822C19.3316 17.7083 19.5357 17.7841 19.7487 17.8013C19.9617 17.8186 20.1754 17.7765 20.3659 17.6798C20.5565 17.5831 20.7166 17.4356 20.8286 17.2535C20.9405 17.0714 20.9998 16.8619 21 16.6482V7.34823C20.9998 7.13452 20.9405 6.92504 20.8286 6.74297C20.7166 6.5609 20.5565 6.41336 20.3659 6.31667C20.1754 6.21997 19.9617 6.17791 19.7487 6.19513C19.5357 6.21235 19.3316 6.28818 19.159 6.41423L14.039 10.1692C13.8155 10.3332 13.5508 10.4319 13.2745 10.4546C12.9982 10.4772 12.7211 10.4229 12.4738 10.2975C12.2265 10.1722 12.0188 9.98075 11.8738 9.74451C11.7287 9.50828 11.652 9.23646 11.652 8.95923V7.35223C11.6554 7.13786 11.5976 6.92697 11.4855 6.74421C11.3734 6.56146 11.2116 6.4144 11.019 6.32023C10.8524 6.23599 10.6687 6.19117 10.482 6.18923Z" fill="white"/>
</g>
<defs>
<clipPath id="clip0_88_6493">
<rect width="24" height="24" fill="white"/>
</clipPath>
</defs>
</svg>
