<svg width="24" height="24" viewBox="0 0 24 24" fill="none" xmlns="http://www.w3.org/2000/svg">
<path d="M23.0001 19.0927V16.0007C22.9956 13.3457 22.0317 10.7817 20.2859 8.78138C18.5401 6.78106 16.1301 5.47917 13.5001 5.11567V4.31067C13.7529 4.02236 13.9172 3.66731 13.9735 3.288C14.0297 2.9087 13.9755 2.52123 13.8172 2.17196C13.6589 1.8227 13.4034 1.52644 13.0811 1.31866C12.7588 1.11087 12.3835 1.00037 12.0001 1.00037C11.6166 1.00037 11.2413 1.11087 10.919 1.31866C10.5967 1.52644 10.3412 1.8227 10.1829 2.17196C10.0246 2.52123 9.97039 2.9087 10.0266 3.288C10.0829 3.66731 10.2472 4.02236 10.5001 4.31067V5.11567C7.87004 5.47917 5.46004 6.78106 3.71423 8.78138C1.96843 10.7817 1.00448 13.3457 1.00005 16.0007V19.0927C0.670716 19.2136 0.394179 19.4461 0.21854 19.7498C0.0429018 20.0535 -0.0207256 20.4092 0.0387243 20.7549C0.0981742 21.1007 0.27694 21.4147 0.54393 21.6423C0.81092 21.8699 1.14924 21.9967 1.50005 22.0007H22.5001C22.8509 21.9967 23.1892 21.8699 23.4562 21.6423C23.7232 21.4147 23.9019 21.1007 23.9614 20.7549C24.0208 20.4092 23.9572 20.0535 23.7816 19.7498C23.6059 19.4461 23.3294 19.2136 23.0001 19.0927ZM12.0001 8.00067C14.1211 8.00305 16.1545 8.84667 17.6543 10.3464C19.1541 11.8462 19.9977 13.8797 20.0001 16.0007V19.0007H4.00005V16.0007C4.00244 13.8797 4.84606 11.8462 6.34583 10.3464C7.84561 8.84667 9.87905 8.00305 12.0001 8.00067Z" fill="white"/>
</svg>
