<svg width="24" height="24" viewBox="0 0 24 24" fill="none" xmlns="http://www.w3.org/2000/svg">
<g clip-path="url(#clip0_88_6132)">
<path d="M18.5 2.00047H16.475C15.783 1.21293 14.8942 0.623391 13.8995 0.292183C12.9048 -0.039026 11.84 -0.100012 10.814 0.115467C9.56347 0.370512 8.43301 1.03353 7.6 2.00047H5C2.1 2.00047 0 4.31347 0 7.50047V18.5005C0.00185226 19.9586 0.58191 21.3565 1.61296 22.3875C2.64401 23.4186 4.04188 23.9986 5.5 24.0005H18.5C19.9581 23.9986 21.356 23.4186 22.387 22.3875C23.4181 21.3565 23.9981 19.9586 24 18.5005V7.50047C23.9981 6.04235 23.4181 4.64447 22.387 3.61343C21.356 2.58238 19.9581 2.00232 18.5 2.00047ZM21 18.5005C21 19.1635 20.7366 19.7994 20.2678 20.2682C19.7989 20.7371 19.163 21.0005 18.5 21.0005H5.5C4.83696 21.0005 4.20107 20.7371 3.73223 20.2682C3.26339 19.7994 3 19.1635 3 18.5005V7.50047C3 7.08347 3.1 5.00047 5 5.00047H6.135C6.0563 5.4004 6.01545 5.80687 6.013 6.21447C6.01423 6.93747 6.29668 7.63163 6.80058 8.15009C7.30449 8.66856 7.99033 8.97065 8.713 8.99247L11.249 4.66947C11.4697 4.33795 11.813 4.10766 12.2034 4.02927C12.5939 3.95088 12.9995 4.03081 13.331 4.25147C13.6625 4.47213 13.8928 4.81545 13.9712 5.2059C14.0496 5.59635 13.9697 6.00195 13.749 6.33347L12.316 9.00047H15.228C15.6164 9.01514 16.0033 8.9458 16.3624 8.79718C16.7215 8.64857 17.0443 8.42418 17.3087 8.13936C17.5731 7.85453 17.7729 7.51598 17.8945 7.14684C18.016 6.7777 18.0565 6.38667 18.013 6.00047C18.013 6.01647 17.976 5.33747 17.921 5.00047H18.5C19.163 5.00047 19.7989 5.26386 20.2678 5.7327C20.7366 6.20154 21 6.83743 21 7.50047V18.5005Z" fill="white"/>
</g>
<defs>
<clipPath id="clip0_88_6132">
<rect width="24" height="24" fill="white"/>
</clipPath>
</defs>
</svg>
