<svg width="24" height="24" viewBox="0 0 24 24" fill="none" xmlns="http://www.w3.org/2000/svg">
<g clip-path="url(#clip0_88_6350)">
<path d="M19 13.9999C18.2696 14.0026 17.5488 14.1663 16.8889 14.4793C16.229 14.7923 15.6462 15.2469 15.182 15.8109L9.782 13.3729C9.91937 12.9278 9.99277 12.4655 10 11.9999C9.99352 11.5392 9.9225 11.0818 9.789 10.6409L15.183 8.19085C15.9398 9.08156 16.9863 9.67716 18.1386 9.87306C19.2909 10.069 20.4754 9.85265 21.484 9.2621C22.4927 8.67155 23.2611 7.74452 23.6542 6.64379C24.0474 5.54307 24.0402 4.33902 23.6339 3.24308C23.2276 2.14714 22.4481 1.22937 21.4325 0.650934C20.4168 0.0724988 19.2298 -0.129623 18.08 0.0800603C16.9301 0.289744 15.8909 0.897827 15.1447 1.79753C14.3986 2.69724 13.9933 3.83104 14 4.99985C14 5.14185 14.03 5.27585 14.042 5.41485L8.1 8.11185C7.224 7.39801 6.13001 7.00558 5 6.99985C3.67392 6.99985 2.40215 7.52664 1.46447 8.46432C0.526784 9.402 0 10.6738 0 11.9999C0 13.3259 0.526784 14.5977 1.46447 15.5354C2.40215 16.4731 3.67392 16.9999 5 16.9999C6.12512 16.9952 7.21506 16.6072 8.09 15.8999L14.042 18.5869C14.03 18.7259 14 18.8589 14 18.9999C14 19.9888 14.2932 20.9555 14.8427 21.7777C15.3921 22.6 16.173 23.2408 17.0866 23.6193C18.0002 23.9977 19.0056 24.0967 19.9755 23.9038C20.9454 23.7109 21.8363 23.2346 22.5355 22.5354C23.2348 21.8361 23.711 20.9452 23.9039 19.9753C24.0969 19.0054 23.9978 18.0001 23.6194 17.0864C23.241 16.1728 22.6001 15.3919 21.7779 14.8425C20.9556 14.2931 19.9889 13.9999 19 13.9999ZM19 2.99985C19.3956 2.99985 19.7822 3.11715 20.1111 3.33691C20.44 3.55668 20.6964 3.86903 20.8478 4.23449C20.9991 4.59994 21.0387 5.00207 20.9616 5.39003C20.8844 5.778 20.6939 6.13436 20.4142 6.41407C20.1345 6.69377 19.7781 6.88425 19.3902 6.96142C19.0022 7.03859 18.6001 6.99899 18.2346 6.84761C17.8692 6.69624 17.5568 6.43989 17.3371 6.11099C17.1173 5.78209 17 5.39542 17 4.99985C17 4.46942 17.2107 3.96071 17.5858 3.58564C17.9609 3.21057 18.4696 2.99985 19 2.99985ZM5 13.9999C4.60444 13.9999 4.21776 13.8826 3.88886 13.6628C3.55996 13.443 3.30362 13.1307 3.15224 12.7652C3.00087 12.3998 2.96126 11.9976 3.03843 11.6097C3.1156 11.2217 3.30608 10.8653 3.58579 10.5856C3.86549 10.3059 4.22186 10.1155 4.60982 10.0383C4.99778 9.96111 5.39992 10.0007 5.76537 10.1521C6.13082 10.3035 6.44318 10.5598 6.66294 10.8887C6.8827 11.2176 7 11.6043 7 11.9999C7 12.5303 6.78929 13.039 6.41421 13.4141C6.03914 13.7891 5.53043 13.9999 5 13.9999ZM19 20.9999C18.6044 20.9999 18.2178 20.8826 17.8889 20.6628C17.56 20.443 17.3036 20.1307 17.1522 19.7652C17.0009 19.3998 16.9613 18.9976 17.0384 18.6097C17.1156 18.2217 17.3061 17.8653 17.5858 17.5856C17.8655 17.3059 18.2219 17.1155 18.6098 17.0383C18.9978 16.9611 19.3999 17.0007 19.7654 17.1521C20.1308 17.3035 20.4432 17.5598 20.6629 17.8887C20.8827 18.2176 21 18.6043 21 18.9999C21 19.5303 20.7893 20.039 20.4142 20.4141C20.0391 20.7891 19.5304 20.9999 19 20.9999Z" fill="white"/>
</g>
<defs>
<clipPath id="clip0_88_6350">
<rect width="24" height="24" fill="white"/>
</clipPath>
</defs>
</svg>
