<svg width="24" height="24" viewBox="0 0 24 24" fill="none" xmlns="http://www.w3.org/2000/svg">
<g clip-path="url(#clip0_88_6127)">
<path d="M11.9999 23.9991C11.7902 23.9992 11.5827 23.9552 11.3909 23.8701C10.9999 23.6991 1.90894 19.5681 1.90894 11.9991V7.24613C1.90769 6.09141 2.27044 4.96568 2.94563 4.02893C3.62081 3.09218 4.57408 2.39208 5.66994 2.02813L11.5249 0.0761297C11.8334 -0.0258649 12.1665 -0.0258649 12.4749 0.0761297L18.3299 2.02813C19.4257 2.39221 20.3789 3.09235 21.0541 4.02907C21.7292 4.96579 22.092 6.09145 22.0909 7.24613V11.9991C22.0909 20.6171 12.8669 23.7911 12.4749 23.9221C12.3218 23.9734 12.1614 23.9994 11.9999 23.9991ZM11.9999 3.08013L6.61894 4.87413C6.121 5.03998 5.68789 5.35832 5.38098 5.78405C5.07407 6.20978 4.90892 6.7213 4.90894 7.24613V11.9991C4.90894 16.7341 10.3299 19.9511 12.0769 20.8641C13.8339 20.1311 19.0909 17.4811 19.0909 11.9991V7.24613C19.091 6.7213 18.9258 6.20978 18.6189 5.78405C18.312 5.35832 17.8789 5.03998 17.3809 4.87413L11.9999 3.08013Z" fill="white"/>
</g>
<defs>
<clipPath id="clip0_88_6127">
<rect width="24" height="24" fill="white"/>
</clipPath>
</defs>
</svg>
