<svg width="24" height="24" viewBox="0 0 24 24" fill="none" xmlns="http://www.w3.org/2000/svg">
<path d="M11.9999 14.2239C11.6021 14.2239 11.2205 14.0658 10.9392 13.7845C10.6579 13.5032 10.4999 13.1217 10.4999 12.7239V12.5009C10.4858 11.9417 10.6516 11.3928 10.973 10.935C11.2943 10.4772 11.7542 10.1346 12.2849 9.95787C12.5401 9.88147 12.7547 9.70702 12.8816 9.47273C13.0085 9.23843 13.0374 8.9634 12.9619 8.70787C12.9165 8.54825 12.8312 8.40285 12.7139 8.28543C12.5967 8.16801 12.4514 8.08246 12.2919 8.03687C12.1549 7.99788 12.0113 7.9877 11.8701 8.00698C11.729 8.02626 11.5934 8.07457 11.4719 8.14887C11.3566 8.2209 11.2571 8.31554 11.1794 8.42709C11.1017 8.53863 11.0475 8.66477 11.0199 8.79787C10.9805 8.99091 10.9034 9.17431 10.7932 9.33758C10.6829 9.50085 10.5416 9.64081 10.3772 9.74945C10.2128 9.85809 10.0287 9.9333 9.83526 9.97078C9.64183 10.0083 9.44292 10.0073 9.24988 9.96787C9.05684 9.92847 8.87344 9.85144 8.71017 9.74117C8.5469 9.6309 8.40694 9.48955 8.2983 9.32519C8.18966 9.16083 8.11445 8.97668 8.07697 8.78325C8.03949 8.58983 8.04048 8.39091 8.07988 8.19787C8.18853 7.66224 8.4058 7.15457 8.71827 6.70617C9.03073 6.25777 9.43178 5.87816 9.89665 5.59076C10.3615 5.30337 10.8804 5.11429 11.4211 5.03519C11.9619 4.95609 12.5132 4.98866 13.0409 5.13087C13.8517 5.34784 14.5738 5.81439 15.1048 6.46445C15.6358 7.11452 15.9488 7.91516 15.9996 8.753C16.0504 9.59083 15.8363 10.4234 15.3877 11.1328C14.939 11.8423 14.2786 12.3926 13.4999 12.7059V12.7219C13.5001 12.919 13.4615 13.1143 13.3863 13.2965C13.311 13.4787 13.2006 13.6443 13.0612 13.7838C12.9219 13.9233 12.7565 14.034 12.5744 14.1095C12.3922 14.185 12.197 14.2239 11.9999 14.2239ZM12.5629 23.8919L12.9569 23.7329C15.0779 22.8799 21.9999 19.5219 21.9999 12.1519V7.05187C22.0007 5.94245 21.6515 4.86104 21.0021 3.96154C20.3527 3.06204 19.4362 2.39029 18.3829 2.04187L12.4719 0.0768696C12.1653 -0.0241584 11.8344 -0.0241584 11.5279 0.0768696L5.61688 2.03687C4.56359 2.38529 3.64702 3.05704 2.99763 3.95654C2.34823 4.85604 1.99908 5.93745 1.99988 7.04687V12.1469C1.99988 18.6669 8.85188 22.5979 10.9509 23.6469L11.3309 23.8379C11.521 23.933 11.7291 23.9867 11.9415 23.9953C12.1539 24.0039 12.3657 23.9673 12.5629 23.8879V23.8919ZM17.4389 4.88487C17.8936 5.035 18.2892 5.32483 18.5695 5.71304C18.8498 6.10126 19.0004 6.56804 18.9999 7.04687V12.1469C18.9999 17.4059 13.9699 20.0469 12.0679 20.8469C10.1429 19.8469 4.99988 16.7469 4.99988 12.1469V7.04687C4.99932 6.56804 5.14992 6.10126 5.43021 5.71304C5.71051 5.32483 6.1062 5.035 6.56088 4.88487L11.9999 3.08087L17.4389 4.88487ZM11.9999 15.0009C11.7032 15.0009 11.4132 15.0888 11.1665 15.2537C10.9199 15.4185 10.7276 15.6528 10.6141 15.9268C10.5005 16.2009 10.4708 16.5025 10.5287 16.7935C10.5866 17.0845 10.7294 17.3518 10.9392 17.5615C11.149 17.7713 11.4163 17.9142 11.7072 17.972C11.9982 18.0299 12.2998 18.0002 12.5739 17.8867C12.848 17.7732 13.0823 17.5809 13.2471 17.3342C13.4119 17.0876 13.4999 16.7975 13.4999 16.5009C13.4999 16.103 13.3418 15.7215 13.0605 15.4402C12.7792 15.1589 12.3977 15.0009 11.9999 15.0009Z" fill="white"/>
</svg>
