<svg width="24" height="24" viewBox="0 0 24 24" fill="none" xmlns="http://www.w3.org/2000/svg">
<g clip-path="url(#clip0_88_6410)">
<path d="M11.9999 24.0009C11.7669 24.0009 11.5371 23.9465 11.3289 23.8419L10.9489 23.6509C8.85188 22.6009 1.99988 18.6719 1.99988 12.1519V7.05187C1.99908 5.94245 2.34823 4.86104 2.99763 3.96154C3.64702 3.06204 4.56359 2.39029 5.61688 2.04187L11.5279 0.0768696C11.8344 -0.0241584 12.1653 -0.0241584 12.4719 0.0768696L18.3829 2.03687C19.4362 2.38529 20.3527 3.05704 21.0021 3.95654C21.6515 4.85604 22.0007 5.93745 21.9999 7.04687V12.1469C21.9999 19.5169 15.0779 22.8749 12.9569 23.7279L12.5629 23.8869C12.3844 23.961 12.1932 23.9997 11.9999 24.0009ZM11.9999 3.08087L6.56088 4.88087C6.10555 5.03122 5.70939 5.32165 5.42904 5.71066C5.14868 6.09968 4.99847 6.56736 4.99988 7.04687V12.1469C4.99988 16.7539 10.1429 19.8519 12.0679 20.8469C13.9679 20.0389 18.9999 17.4029 18.9999 12.1469V7.04687C19.0004 6.56804 18.8498 6.10126 18.5695 5.71304C18.2892 5.32483 17.8936 5.035 17.4389 4.88487L11.9999 3.08087ZM13.4999 12.5009V6.50087C13.4999 6.10304 13.3418 5.72151 13.0605 5.44021C12.7792 5.15891 12.3977 5.00087 11.9999 5.00087C11.6021 5.00087 11.2205 5.15891 10.9392 5.44021C10.6579 5.72151 10.4999 6.10304 10.4999 6.50087V12.5009C10.4999 12.8987 10.6579 13.2802 10.9392 13.5615C11.2205 13.8428 11.6021 14.0009 11.9999 14.0009C12.3977 14.0009 12.7792 13.8428 13.0605 13.5615C13.3418 13.2802 13.4999 12.8987 13.4999 12.5009ZM11.9999 15.0009C11.7032 15.0009 11.4132 15.0888 11.1665 15.2537C10.9199 15.4185 10.7276 15.6528 10.6141 15.9268C10.5005 16.2009 10.4708 16.5025 10.5287 16.7935C10.5866 17.0845 10.7294 17.3518 10.9392 17.5615C11.149 17.7713 11.4163 17.9142 11.7072 17.972C11.9982 18.0299 12.2998 18.0002 12.5739 17.8867C12.848 17.7732 13.0823 17.5809 13.2471 17.3342C13.4119 17.0876 13.4999 16.7975 13.4999 16.5009C13.4999 16.103 13.3418 15.7215 13.0605 15.4402C12.7792 15.1589 12.3977 15.0009 11.9999 15.0009Z" fill="white"/>
</g>
<defs>
<clipPath id="clip0_88_6410">
<rect width="24" height="24" fill="white"/>
</clipPath>
</defs>
</svg>
