<svg width="24" height="24" viewBox="0 0 24 24" fill="none" xmlns="http://www.w3.org/2000/svg">
<g clip-path="url(#clip0_88_6128)">
<path d="M15 9.50061H13.5V8.00061C13.5 7.60279 13.342 7.22125 13.0607 6.93995C12.7794 6.65865 12.3978 6.50061 12 6.50061C11.6022 6.50061 11.2206 6.65865 10.9393 6.93995C10.658 7.22125 10.5 7.60279 10.5 8.00061V9.50061H9C8.60218 9.50061 8.22064 9.65865 7.93934 9.93995C7.65804 10.2213 7.5 10.6028 7.5 11.0006C7.5 11.3984 7.65804 11.78 7.93934 12.0613C8.22064 12.3426 8.60218 12.5006 9 12.5006H10.5V14.0006C10.5 14.3984 10.658 14.78 10.9393 15.0613C11.2206 15.3426 11.6022 15.5006 12 15.5006C12.3978 15.5006 12.7794 15.3426 13.0607 15.0613C13.342 14.78 13.5 14.3984 13.5 14.0006V12.5006H15C15.3978 12.5006 15.7794 12.3426 16.0607 12.0613C16.342 11.78 16.5 11.3984 16.5 11.0006C16.5 10.6028 16.342 10.2213 16.0607 9.93995C15.7794 9.65865 15.3978 9.50061 15 9.50061Z" fill="white"/>
<path d="M11.9999 23.9991C11.7902 23.9992 11.5827 23.9552 11.3909 23.8701C10.9999 23.6991 1.90894 19.5681 1.90894 11.9991V7.24613C1.90769 6.09141 2.27044 4.96568 2.94563 4.02893C3.62081 3.09218 4.57408 2.39208 5.66994 2.02813L11.5249 0.0761297C11.8334 -0.0258649 12.1665 -0.0258649 12.4749 0.0761297L18.3299 2.02813C19.4257 2.39221 20.3789 3.09235 21.0541 4.02907C21.7292 4.96579 22.092 6.09145 22.0909 7.24613V11.9991C22.0909 20.6171 12.8669 23.7911 12.4749 23.9221C12.3218 23.9734 12.1614 23.9994 11.9999 23.9991ZM11.9999 3.08013L6.61894 4.87413C6.121 5.03998 5.68789 5.35832 5.38098 5.78405C5.07407 6.20978 4.90892 6.7213 4.90894 7.24613V11.9991C4.90894 16.7341 10.3299 19.9511 12.0769 20.8641C13.8339 20.1311 19.0909 17.4811 19.0909 11.9991V7.24613C19.091 6.7213 18.9258 6.20978 18.6189 5.78405C18.312 5.35832 17.8789 5.03998 17.3809 4.87413L11.9999 3.08013Z" fill="white"/>
</g>
<defs>
<clipPath id="clip0_88_6128">
<rect width="24" height="24" fill="white"/>
</clipPath>
</defs>
</svg>
