<svg width="24" height="24" viewBox="0 0 24 24" fill="none" xmlns="http://www.w3.org/2000/svg">
<g clip-path="url(#clip0_88_6118)">
<path d="M19.561 7.43903C19.7004 7.57833 19.8109 7.74373 19.8864 7.92579C19.9618 8.10784 20.0007 8.30297 20.0007 8.50003C20.0007 8.6971 19.9618 8.89223 19.8864 9.07428C19.8109 9.25633 19.7004 9.42173 19.561 9.56103L16.561 12.561C16.2796 12.8424 15.8979 13.0005 15.5 13.0005C15.102 13.0005 14.7204 12.8424 14.439 12.561C14.1576 12.2796 13.9995 11.898 13.9995 11.5C13.9995 11.1021 14.1576 10.7204 14.439 10.439L14.879 10L14 9.12103L13.561 9.56103C13.2796 9.84243 12.8979 10.0005 12.5 10.0005C12.102 10.0005 11.7204 9.84243 11.439 9.56103C11.1576 9.27964 10.9995 8.89798 10.9995 8.50003C10.9995 8.10208 11.1576 7.72043 11.439 7.43903L14.439 4.43903C14.7204 4.15764 15.102 3.99955 15.5 3.99955C15.8979 3.99955 16.2796 4.15764 16.561 4.43903C16.8424 4.72043 17.0005 5.10208 17.0005 5.50003C17.0005 5.89798 16.8424 6.27964 16.561 6.56103L16.121 7.00003L17 7.87903L17.439 7.43903C17.5783 7.29964 17.7437 7.18907 17.9257 7.11363C18.1078 7.03818 18.3029 6.99935 18.5 6.99935C18.697 6.99935 18.8922 7.03818 19.0742 7.11363C19.2563 7.18907 19.4217 7.29964 19.561 7.43903ZM10.439 14.439L9.99998 14.879L9.12098 14L9.56098 13.561C9.84237 13.2796 10.0005 12.898 10.0005 12.5C10.0005 12.1021 9.84237 11.7204 9.56098 11.439C9.27958 11.1576 8.89793 10.9996 8.49998 10.9996C8.10203 10.9996 7.72037 11.1576 7.43898 11.439L4.43898 14.439C4.15758 14.7204 3.9995 15.1021 3.9995 15.5C3.9995 15.898 4.15758 16.2796 4.43898 16.561C4.72037 16.8424 5.10203 17.0005 5.49998 17.0005C5.89793 17.0005 6.27958 16.8424 6.56098 16.561L6.99998 16.121L7.87898 17L7.43898 17.439C7.15758 17.7204 6.9995 18.1021 6.9995 18.5C6.9995 18.898 7.15758 19.2796 7.43898 19.561C7.72037 19.8424 8.10203 20.0005 8.49998 20.0005C8.89793 20.0005 9.27958 19.8424 9.56098 19.561L12.561 16.561C12.8424 16.2796 13.0005 15.898 13.0005 15.5C13.0005 15.1021 12.8424 14.7204 12.561 14.439C12.2796 14.1576 11.8979 13.9996 11.5 13.9996C11.102 13.9996 10.7204 14.1576 10.439 14.439ZM24 7.89103C24.0027 8.92765 23.7997 9.9545 23.4029 10.9121C23.006 11.8698 22.4231 12.7392 21.688 13.47L13.47 21.688C12.7387 22.4268 11.8686 23.0138 10.9098 23.4153C9.9509 23.8168 8.92216 24.0248 7.88265 24.0275C6.84314 24.0301 5.81335 23.8273 4.85246 23.4307C3.89156 23.0341 3.01851 22.4516 2.28346 21.7165C1.54841 20.9815 0.965863 20.1084 0.569282 19.1476C0.172702 18.1867 -0.03009 17.1569 -0.0274402 16.1174C-0.0247904 15.0779 0.183249 14.0491 0.584723 13.0903C0.986197 12.1314 1.57319 11.2613 2.31198 10.53L10.53 2.31203C11.6335 1.20877 13.0395 0.457476 14.57 0.153129C16.1004 -0.151218 17.6868 0.00504702 19.1285 0.60217C20.5702 1.19929 21.8025 2.21046 22.6696 3.50784C23.5367 4.80522 23.9997 6.33057 24 7.89103ZM21 7.89103C21.0003 6.9236 20.7136 5.97783 20.1762 5.17336C19.6389 4.3689 18.875 3.74191 17.9812 3.37171C17.0874 3.00152 16.1039 2.90476 15.1551 3.09368C14.2063 3.2826 13.3348 3.74871 12.651 4.43303L4.43298 12.651C3.51586 13.5682 3.00063 14.812 3.00063 16.109C3.00063 17.406 3.51586 18.6499 4.43298 19.567C5.3501 20.4842 6.59398 20.9994 7.89098 20.9994C9.18798 20.9994 10.4319 20.4842 11.349 19.567L19.567 11.349C20.0226 10.896 20.3838 10.3571 20.6297 9.76353C20.8757 9.16997 21.0016 8.53353 21 7.89103Z" fill="white"/>
</g>
<defs>
<clipPath id="clip0_88_6118">
<rect width="24" height="24" fill="white"/>
</clipPath>
</defs>
</svg>
