<svg width="24" height="24" viewBox="0 0 24 24" fill="none" xmlns="http://www.w3.org/2000/svg">
<g clip-path="url(#clip0_88_6107)">
<path d="M6.85202 23.4373C6.08882 23.4339 5.34631 23.1889 4.73102 22.7373C4.10223 22.295 3.63303 21.6615 3.39322 20.931C3.15341 20.2006 3.15579 19.4123 3.40002 18.6833L4.57002 15.0643L1.49002 12.8123C0.872464 12.3611 0.41344 11.7261 0.178624 10.9982C-0.0561929 10.2704 -0.054769 9.48685 0.182692 8.75982C0.420152 8.03279 0.881481 7.3995 1.50067 6.95054C2.11987 6.50159 2.8652 6.25999 3.63002 6.2603H7.40002L8.54502 2.6903C8.78001 1.95924 9.24097 1.32162 9.8615 0.869279C10.482 0.416938 11.2301 0.173218 11.998 0.173218C12.7659 0.173218 13.514 0.416938 14.1345 0.869279C14.7551 1.32162 15.216 1.95924 15.451 2.6903L16.6 6.2603H20.37C21.1348 6.2602 21.8799 6.50196 22.499 6.95099C23.118 7.40002 23.5792 8.03332 23.8165 8.7603C24.0538 9.48728 24.0552 10.2707 23.8203 10.9985C23.5855 11.7263 23.1265 12.3611 22.509 12.8123L19.43 15.0643L20.6 18.6833C20.8359 19.4133 20.8342 20.1993 20.5951 20.9283C20.356 21.6573 19.8918 22.2916 19.2694 22.7401C18.647 23.1886 17.8983 23.4281 17.1312 23.4242C16.364 23.4203 15.6178 23.1731 15 22.7183L12 20.5123L9.00002 22.7193C8.37928 23.1823 7.6264 23.4339 6.85202 23.4373ZM3.63002 9.2603C3.49803 9.26028 3.36941 9.30199 3.26254 9.37947C3.15567 9.45694 3.07603 9.56621 3.03498 9.69166C2.99394 9.81711 2.99361 9.95232 3.03402 10.078C3.07444 10.2036 3.15354 10.3133 3.26002 10.3913L7.21602 13.2823C7.47076 13.4686 7.66026 13.7304 7.75757 14.0306C7.85488 14.3308 7.85504 14.654 7.75802 14.9543L6.25802 19.6043C6.2164 19.7304 6.21597 19.8665 6.2568 19.9929C6.29764 20.1193 6.37761 20.2294 6.48517 20.3074C6.59272 20.3853 6.72228 20.427 6.8551 20.4265C6.98792 20.4259 7.11712 20.3831 7.22402 20.3043L11.113 17.4433C11.3707 17.2537 11.6822 17.1515 12.002 17.1515C12.3219 17.1515 12.6334 17.2537 12.891 17.4433L16.78 20.3033C16.8868 20.3829 17.0162 20.4263 17.1493 20.4271C17.2825 20.428 17.4124 20.3864 17.5202 20.3083C17.6281 20.2301 17.7081 20.1196 17.7487 19.9928C17.7893 19.866 17.7884 19.7295 17.746 19.6033L16.246 14.9533C16.149 14.653 16.1492 14.3298 16.2465 14.0296C16.3438 13.7294 16.5333 13.4676 16.788 13.2813L20.743 10.3903C20.8494 10.3123 20.9285 10.2028 20.9689 10.0772C21.0094 9.95166 21.0091 9.81654 20.9682 9.69113C20.9273 9.56573 20.8478 9.45645 20.7411 9.37891C20.6344 9.30136 20.5059 9.2595 20.374 9.2593H15.5C15.1823 9.25922 14.8729 9.15827 14.6162 8.97101C14.3596 8.78374 14.169 8.51983 14.072 8.2173L12.6 3.6063C12.5595 3.4801 12.4799 3.37002 12.3728 3.29193C12.2657 3.21384 12.1366 3.17177 12.004 3.17177C11.8715 3.17177 11.7423 3.21384 11.6352 3.29193C11.5281 3.37002 11.4486 3.4801 11.408 3.6063L9.92502 8.2183C9.82818 8.52034 9.63808 8.7839 9.38204 8.97112C9.126 9.15835 8.81721 9.25959 8.50002 9.2603H3.63002Z" fill="white"/>
</g>
<defs>
<clipPath id="clip0_88_6107">
<rect width="24" height="24" fill="white"/>
</clipPath>
</defs>
</svg>
