<svg width="24" height="24" viewBox="0 0 24 24" fill="none" xmlns="http://www.w3.org/2000/svg">
<path d="M16.5002 0H7.50015C6.04195 0.00158817 4.64393 0.581561 3.61282 1.61267C2.58171 2.64377 2.00174 4.0418 2.00015 5.5V18.5C2.00174 19.9582 2.58171 21.3562 3.61282 22.3873C4.64393 23.4184 6.04195 23.9984 7.50015 24H16.5002C17.9584 23.9984 19.3564 23.4184 20.3875 22.3873C21.4186 21.3562 21.9986 19.9582 22.0002 18.5V5.5C21.9986 4.0418 21.4186 2.64377 20.3875 1.61267C19.3564 0.581561 17.9584 0.00158817 16.5002 0V0ZM19.0002 18H13.0002V19C13.0002 19.2652 12.8948 19.5196 12.7073 19.7071C12.5197 19.8946 12.2654 20 12.0002 20C11.7349 20 11.4806 19.8946 11.293 19.7071C11.1055 19.5196 11.0002 19.2652 11.0002 19V18H5.00015V5.5C5.00015 4.83696 5.26354 4.20107 5.73239 3.73223C6.20123 3.26339 6.83711 3 7.50015 3H16.5002C17.1632 3 17.7991 3.26339 18.2679 3.73223C18.7368 4.20107 19.0002 4.83696 19.0002 5.5V18Z" fill="white"/>
</svg>
