<svg width="24" height="24" viewBox="0 0 24 24" fill="none" xmlns="http://www.w3.org/2000/svg">
<g clip-path="url(#clip0_88_6088)">
<path d="M8.09387 1.32807C7.96936 1.07872 7.77785 0.868991 7.54081 0.722404C7.30377 0.575817 7.03057 0.498169 6.75187 0.498169C6.47316 0.498169 6.19997 0.575817 5.96293 0.722404C5.72589 0.868991 5.53438 1.07872 5.40987 1.32807L0.159869 11.8281C0.0455433 12.0566 -0.00848454 12.3106 0.00291118 12.566C0.0143069 12.8213 0.0907482 13.0694 0.224983 13.2869C0.359217 13.5044 0.546793 13.684 0.769913 13.8086C0.993033 13.9332 1.2443 13.9988 1.49987 13.9991C1.77848 13.9992 2.05161 13.9216 2.28864 13.7752C2.52567 13.6288 2.71724 13.4192 2.84187 13.1701L3.42887 11.9991H10.0749L10.6599 13.1701C10.7843 13.4189 10.9756 13.6283 11.2122 13.7747C11.4489 13.9211 11.7216 13.9988 11.9999 13.9991C12.2556 13.9991 12.5071 13.9338 12.7305 13.8093C12.9539 13.6848 13.1418 13.5053 13.2762 13.2878C13.4107 13.0702 13.4873 12.8219 13.4988 12.5665C13.5103 12.311 13.4563 12.0568 13.3419 11.8281L8.09387 1.32807ZM4.92887 8.99907L6.75187 5.35307L8.57487 8.99907H4.92887Z" fill="white"/>
<path d="M13.0001 23.5001C12.8031 23.5002 12.608 23.4615 12.426 23.3862C12.2439 23.3108 12.0785 23.2004 11.9391 23.0611L6.93914 18.0611C6.65775 17.7797 6.49966 17.3981 6.49966 17.0001C6.49966 16.6022 6.65775 16.2205 6.93914 15.9391C7.22054 15.6577 7.60219 15.4996 8.00014 15.4996C8.39809 15.4996 8.77975 15.6577 9.06114 15.9391L13.0001 19.8791L21.4391 11.4391C21.7205 11.1577 22.1022 10.9996 22.5001 10.9996C22.8981 10.9996 23.2797 11.1577 23.5611 11.4391C23.8425 11.7205 24.0006 12.1022 24.0006 12.5001C24.0006 12.8981 23.8425 13.2797 23.5611 13.5611L14.0611 23.0611C13.9218 23.2004 13.7564 23.3108 13.5743 23.3862C13.3923 23.4615 13.1972 23.5002 13.0001 23.5001Z" fill="white"/>
</g>
<defs>
<clipPath id="clip0_88_6088">
<rect width="24" height="24" fill="white"/>
</clipPath>
</defs>
</svg>
