<svg width="24" height="24" viewBox="0 0 24 24" fill="none" xmlns="http://www.w3.org/2000/svg">
<g clip-path="url(#clip0_88_6086)">
<path d="M15 16.0367C15.001 16.5623 14.8636 17.0789 14.6017 17.5346C14.3398 17.9903 13.9625 18.369 13.5079 18.6327C13.0533 18.8965 12.5372 19.0359 12.0116 19.0371C11.4861 19.0383 10.9694 18.9011 10.5136 18.6394C10.0578 18.3776 9.67893 18.0006 9.415 17.546C9.15108 17.0915 9.01141 16.5756 9.01003 16.05C9.00865 15.5244 9.14561 15.0077 9.40715 14.5518C9.66869 14.0959 10.0456 13.7168 10.5 13.4527V8.03671C10.5 7.63888 10.6581 7.25735 10.9394 6.97605C11.2207 6.69474 11.6022 6.53671 12 6.53671C12.3978 6.53671 12.7794 6.69474 13.0607 6.97605C13.342 7.25735 13.5 7.63888 13.5 8.03671V13.4527C13.9549 13.7138 14.333 14.0901 14.5963 14.5437C14.8596 14.9973 14.9989 15.5122 15 16.0367ZM20 15.9997C19.9976 18.1207 19.154 20.1542 17.6542 21.6539C16.1545 23.1537 14.121 23.9973 12 23.9997C5.22701 24.0887 1.43701 15.7377 6.00001 10.7287V6.03671C6.25301 -1.89429 17.75 -1.88929 18 6.03671V10.7287C19.2923 12.1799 20.0043 14.0565 20 15.9997ZM17 15.9997C17.0001 15.3281 16.8636 14.6634 16.5987 14.0462C16.3337 13.4291 15.946 12.8723 15.459 12.4097C15.3138 12.2698 15.1984 12.102 15.1195 11.9165C15.0407 11.7309 15 11.5313 15 11.3297V6.03671C15 5.24106 14.6839 4.478 14.1213 3.91539C13.5587 3.35278 12.7957 3.03671 12 3.03671C11.2044 3.03671 10.4413 3.35278 9.87869 3.91539C9.31608 4.478 9.00001 5.24106 9.00001 6.03671V11.3297C9.00002 11.5313 8.95938 11.7309 8.88051 11.9165C8.80165 12.102 8.68618 12.2698 8.54102 12.4097C7.94657 12.9824 7.50336 13.6936 7.25104 14.4796C6.99872 15.2655 6.94516 16.1018 7.09515 16.9135C7.24514 17.7252 7.594 18.4871 8.11053 19.131C8.62705 19.7749 9.29513 20.2807 10.055 20.6032C10.8149 20.9257 11.6428 21.0548 12.4648 20.9789C13.2868 20.9031 14.0771 20.6247 14.7652 20.1686C15.4532 19.7126 16.0175 19.0931 16.4075 18.3656C16.7975 17.638 17.0011 16.8252 17 15.9997Z" fill="white"/>
</g>
<defs>
<clipPath id="clip0_88_6086">
<rect width="24" height="24" fill="white"/>
</clipPath>
</defs>
</svg>
