<svg width="24" height="24" viewBox="0 0 24 24" fill="none" xmlns="http://www.w3.org/2000/svg">
<path d="M22.8148 6.70417C22.2706 4.17452 20.0387 2.36491 17.4512 2.35535H5.48217C2.45564 2.35919 0.00328125 4.81202 0 7.8385V12.8223C0.00328125 15.8486 2.45583 18.3011 5.48217 18.3045H7.55644L9.06455 21.2579C9.75877 22.6108 11.1603 23.453 12.6808 23.4308C14.8558 23.4337 16.6213 21.6728 16.6241 19.4978C16.6244 19.2743 16.6057 19.0511 16.5681 18.8308L16.4784 18.3045H18.5098C21.5375 18.3045 23.9919 15.8501 23.9919 12.8224C23.9919 12.4412 23.9522 12.061 23.8733 11.6881L22.8148 6.70417ZM2.99025 12.8223V7.8385C2.99025 6.46225 4.10592 5.34663 5.48213 5.34663H6.97725V15.3142H5.48213C4.10592 15.3142 2.99025 14.1985 2.99025 12.8223ZM20.4405 14.3922C19.9681 14.9768 19.2563 15.3158 18.5047 15.3142H12.9309L13.6156 19.3331C13.6647 19.6085 13.5875 19.8913 13.4053 20.1036C13.2115 20.3285 12.9255 20.4526 12.6288 20.4405C12.2514 20.4445 11.9042 20.2349 11.7317 19.8993L9.9675 16.4535V5.34663H17.4511C18.6273 5.3501 19.642 6.17303 19.8882 7.32321L20.9428 12.307C21.0999 13.0422 20.9151 13.8091 20.4405 14.3922Z" fill="white"/>
</svg>
