<svg width="24" height="24" viewBox="0 0 24 24" fill="none" xmlns="http://www.w3.org/2000/svg">
<g clip-path="url(#clip0_88_6083)">
<path d="M1.49999 24.0083C1.69714 24.0087 1.89241 23.97 2.07452 23.8945C2.25664 23.819 2.42198 23.7081 2.56099 23.5683L8.51099 17.6143L9.23899 18.3673C10.2062 19.3827 11.5371 19.9726 12.939 20.0073C13.4216 20.0082 13.9008 19.9267 14.356 19.7663C15.063 19.5169 15.684 19.0705 16.1457 18.4798C16.6075 17.8891 16.8907 17.1787 16.962 16.4323C17.0662 15.4474 16.994 14.4519 16.749 13.4923L16.707 13.2923L20.095 9.90532L20.547 10.3583C20.8796 10.7077 21.3248 10.9286 21.8043 10.982C22.2837 11.0354 22.7666 10.918 23.168 10.6503C23.403 10.4824 23.5988 10.2653 23.7416 10.0142C23.8844 9.76312 23.9709 9.48395 23.995 9.19608C24.0192 8.90821 23.9805 8.61853 23.8815 8.34712C23.7826 8.07572 23.6258 7.82908 23.422 7.62432L16.455 0.641317C16.1224 0.29189 15.6772 0.0710217 15.1977 0.0176074C14.7183 -0.0358069 14.2353 0.0816581 13.834 0.349317C13.5989 0.517246 13.4032 0.734292 13.2604 0.985404C13.1176 1.23652 13.0311 1.51569 13.0069 1.80355C12.9828 2.09142 13.0215 2.38111 13.1205 2.65251C13.2194 2.92392 13.3762 3.17055 13.58 3.37532L14.1 3.90032L10.72 7.28132C9.73898 7.02425 8.71946 6.94733 7.71099 7.05432C6.93265 7.13436 6.19348 7.43545 5.58073 7.92203C4.96799 8.4086 4.50728 9.06035 4.25299 9.80032C3.97869 10.5542 3.92491 11.3706 4.09795 12.154C4.27098 12.9373 4.66366 13.6551 5.22999 14.2233L6.42999 15.4593L0.438986 21.4483C0.229413 21.6581 0.0867439 21.9254 0.0290071 22.2163C-0.0287297 22.5072 0.00105733 22.8087 0.114604 23.0826C0.228151 23.3566 0.420361 23.5908 0.666945 23.7555C0.913529 23.9203 1.20342 24.0083 1.49999 24.0083ZM7.08099 10.8003C7.14751 10.5958 7.2719 10.415 7.43909 10.2798C7.60628 10.1445 7.8091 10.0606 8.02299 10.0383C8.67836 9.96972 9.34075 10.0205 9.97799 10.1883L10.807 10.3993C11.0591 10.4635 11.3236 10.4611 11.5745 10.3922C11.8254 10.3233 12.054 10.1903 12.238 10.0063L16.22 6.02232L17.974 7.78232L14.01 11.7473C13.8337 11.9237 13.7042 12.1412 13.6331 12.3803C13.562 12.6193 13.5517 12.8723 13.603 13.1163L13.828 14.1793C13.9938 14.8125 14.0439 15.4704 13.976 16.1213C13.9665 16.3047 13.9017 16.4809 13.7902 16.6267C13.6786 16.7726 13.5255 16.8812 13.351 16.9383C12.9919 17.0227 12.6163 17.0042 12.2673 16.8848C11.9183 16.7654 11.6101 16.55 11.378 16.2633L7.36999 12.1183C7.20098 11.9492 7.08396 11.7351 7.03274 11.5016C6.98153 11.268 6.99827 11.0247 7.08099 10.8003Z" fill="white"/>
</g>
<defs>
<clipPath id="clip0_88_6083">
<rect width="24" height="24" fill="white"/>
</clipPath>
</defs>
</svg>
