<svg width="24" height="24" viewBox="0 0 24 24" fill="none" xmlns="http://www.w3.org/2000/svg">
<g clip-path="url(#clip0_88_6075)">
<path d="M22.5591 11.0004C22.3617 10.9894 22.1641 11.0178 21.9779 11.084C21.7916 11.1503 21.6205 11.253 21.4744 11.3861C21.3283 11.5192 21.2102 11.6802 21.1271 11.8595C21.0439 12.0388 20.9973 12.2329 20.9901 12.4304C20.8989 14.4692 20.1196 16.417 18.7793 17.956C17.439 19.4949 15.6167 20.5343 13.6098 20.9046C11.6028 21.2749 9.52963 20.9541 7.72838 19.9947C5.92713 19.0353 4.50414 17.4938 3.69152 15.6218C2.87891 13.7497 2.72463 11.6575 3.25385 9.68654C3.78307 7.71553 4.96456 5.98201 6.60559 4.76876C8.24662 3.55552 10.2503 2.93414 12.2899 3.006C14.3295 3.07786 16.2845 3.83871 17.8361 5.16444L16.7071 6.29344C16.5672 6.43329 16.472 6.61145 16.4335 6.80541C16.3949 6.99936 16.4147 7.20039 16.4904 7.38309C16.566 7.56579 16.6942 7.72196 16.8586 7.83184C17.023 7.94173 17.2163 8.0004 17.4141 8.00044H22.0001C22.2653 8.00044 22.5196 7.89508 22.7072 7.70755C22.8947 7.52001 23.0001 7.26566 23.0001 7.00044V2.41444C23 2.21669 22.9413 2.02339 22.8315 1.85898C22.7216 1.69457 22.5654 1.56643 22.3827 1.49076C22.2 1.41509 21.999 1.39529 21.805 1.43385C21.6111 1.47242 21.4329 1.56763 21.2931 1.70744L19.9581 3.04244C17.9232 1.24125 15.3367 0.185108 12.6227 0.0472895C9.90866 -0.0905291 7.22841 0.698155 5.0216 2.28396C2.81479 3.86976 1.21247 6.1585 0.477504 8.77472C-0.257459 11.3909 -0.0814209 14.1793 0.976738 16.6823C2.0349 19.1853 3.91234 21.2544 6.30107 22.55C8.6898 23.8457 11.448 24.291 14.1231 23.813C16.7982 23.3349 19.2314 21.9619 21.0235 19.9191C22.8157 17.8763 23.8603 15.285 23.9861 12.5704C23.9955 12.3736 23.966 12.1769 23.8994 11.9915C23.8328 11.8061 23.7303 11.6356 23.5978 11.4898C23.4653 11.344 23.3053 11.2258 23.1271 11.1418C22.9489 11.0578 22.7558 11.0098 22.5591 11.0004Z" fill="white"/>
<path d="M11.4998 6.99939C11.102 6.99939 10.7205 7.15742 10.4392 7.43873C10.1579 7.72003 9.99985 8.10156 9.99985 8.49939V12.7924C9.99996 13.3228 10.2107 13.8314 10.5858 14.2064L12.3788 15.9994C12.6617 16.2726 13.0406 16.4238 13.4339 16.4204C13.8272 16.417 14.2035 16.2592 14.4816 15.9811C14.7597 15.703 14.9174 15.3268 14.9209 14.9335C14.9243 14.5402 14.7731 14.1613 14.4998 13.8784L12.9998 12.3784V8.49939C12.9998 8.10156 12.8418 7.72003 12.5605 7.43873C12.2792 7.15742 11.8977 6.99939 11.4998 6.99939Z" fill="white"/>
</g>
<defs>
<clipPath id="clip0_88_6075">
<rect width="24" height="24" fill="white"/>
</clipPath>
</defs>
</svg>
