<svg width="24" height="24" viewBox="0 0 24 24" fill="none" xmlns="http://www.w3.org/2000/svg">
<g clip-path="url(#clip0_88_6077)">
<path d="M20 10.9991C17.7909 10.9991 16.0001 12.79 16.0001 14.9991V19.9991C16.0001 22.2083 17.7909 23.9991 20 23.9991C22.2092 23.9991 24 22.2083 24 19.9991V14.9991C24 12.79 22.2092 10.9991 20 10.9991ZM21 19.9991C21 20.5514 20.5523 20.9991 20 20.9991C19.4478 20.9991 19.0001 20.5514 19.0001 19.9991V14.9991C19.0001 14.4468 19.4478 13.9991 20 13.9991C20.5523 13.9991 21 14.4468 21 14.9991V19.9991Z" fill="white"/>
<path d="M10.5 14.9991C9.98784 15.004 9.48037 15.0974 9 15.2751V15.0821C9.00056 14.4843 9.4851 13.9997 10.083 13.9991H11.5C12.3284 13.9991 13 13.3276 13 12.4991C13 11.6707 12.3284 10.9991 11.5 10.9991H10.083C7.82915 11.0019 6.00277 12.8283 6 15.0821C6 15.0821 6.01069 19.7004 6.03098 19.7991C6.20222 22.273 8.34642 24.1396 10.8203 23.9684C13.2942 23.7971 15.1608 21.6529 14.9896 19.1791C14.8264 16.8213 12.8634 14.9937 10.5 14.9991ZM10.5 20.9991C9.67157 20.9991 9 20.3276 9 19.4991C9 18.6707 9.67157 17.9991 10.5 17.9991C11.3284 17.9991 12 18.6707 12 19.4991C12 20.3276 11.3284 20.9991 10.5 20.9991Z" fill="white"/>
<path d="M22.2928 2.70757L20.9698 4.03057C16.5678 -0.923697 8.983 -1.37145 4.02869 3.03054C-0.16803 6.7594 -1.21855 12.8996 1.49978 17.8116C1.89588 18.5392 2.8068 18.808 3.53439 18.4119C4.26199 18.0158 4.53077 17.1048 4.13467 16.3773C4.13111 16.3706 4.12745 16.3641 4.12375 16.3576C1.71461 12.0149 3.28202 6.54152 7.62466 4.13238C11.3688 2.05526 16.0583 2.90627 18.8338 6.16662L17.7068 7.29363C17.3163 7.68419 17.3164 8.31738 17.707 8.70785C17.8945 8.89526 18.1487 9.00058 18.4138 9.00063H22.9998C23.5521 9.00063 23.9998 8.55293 23.9998 8.00065V3.41458C23.9996 2.8623 23.5518 2.41469 22.9996 2.41479C22.7345 2.41483 22.4802 2.52016 22.2928 2.70757Z" fill="white"/>
</g>
<defs>
<clipPath id="clip0_88_6077">
<rect width="24" height="24" fill="white"/>
</clipPath>
</defs>
</svg>
