<svg width="24" height="24" viewBox="0 0 24 24" fill="none" xmlns="http://www.w3.org/2000/svg">
<g clip-path="url(#clip0_88_6080)">
<path d="M9.85594 20.7427C8.21668 20.3406 6.72351 19.4856 5.54695 18.2754C4.37039 17.0652 3.55785 15.5486 3.20211 13.8986C2.84637 12.2487 2.96177 10.532 3.53513 8.94447C4.10849 7.35698 5.11671 5.96272 6.44466 4.92088C7.7726 3.87904 9.36676 3.23163 11.0451 3.05255C12.7234 2.87348 14.4183 3.16997 15.9362 3.90816C17.454 4.64636 18.7337 5.79651 19.6291 7.22729C20.5245 8.65806 20.9995 10.3118 20.9999 11.9997C20.9999 12.3975 21.158 12.779 21.4393 13.0603C21.7206 13.3416 22.1021 13.4997 22.4999 13.4997C22.8978 13.4997 23.2793 13.3416 23.5606 13.0603C23.8419 12.779 23.9999 12.3975 23.9999 11.9997C23.9996 9.74902 23.3663 7.54384 22.1725 5.63595C20.9786 3.72807 19.2722 2.19438 17.2483 1.21004C15.2243 0.225699 12.9643 -0.169615 10.7264 0.0692431C8.48847 0.308101 6.36282 1.1715 4.5922 2.56085C2.82159 3.95019 1.47737 5.80947 0.713071 7.92636C-0.0512289 10.0432 -0.204806 12.3324 0.269879 14.5324C0.744564 16.7324 1.82838 18.7546 3.39754 20.368C4.96671 21.9814 6.95798 23.121 9.14394 23.6567C9.2604 23.6855 9.37996 23.7 9.49994 23.6997C9.86653 23.6993 10.2203 23.5646 10.4944 23.3212C10.7685 23.0778 10.944 22.7424 10.9877 22.3785C11.0314 22.0145 10.9403 21.6471 10.7316 21.3457C10.5229 21.0443 10.211 20.8298 9.85494 20.7427H9.85594Z" fill="white"/>
<path d="M23.6211 15.9397C23.3398 15.6585 22.9583 15.5005 22.5606 15.5005C22.1628 15.5005 21.7814 15.6585 21.5001 15.9397L16.7151 20.7217L14.5821 18.4617C14.4456 18.3196 14.2826 18.2057 14.1021 18.1267C13.9217 18.0476 13.7274 18.0049 13.5305 18.0009C13.3335 17.9969 13.1377 18.0317 12.9542 18.1034C12.7707 18.1751 12.6032 18.2822 12.4611 18.4187C12.3191 18.5552 12.2053 18.7183 12.1263 18.8988C12.0473 19.0793 12.0047 19.2735 12.0008 19.4705C11.9969 19.6674 12.0318 19.8632 12.1036 20.0467C12.1754 20.2301 12.2826 20.3976 12.4191 20.5397L15.0001 23.2607C15.2158 23.4892 15.475 23.6723 15.7625 23.7994C16.0499 23.9265 16.3599 23.9949 16.6741 24.0007H16.7111C17.3337 23.9986 17.9304 23.7514 18.3721 23.3127L23.6261 18.0607C23.9066 17.7787 24.0637 17.3969 24.0628 16.9991C24.0618 16.6014 23.903 16.2203 23.6211 15.9397Z" fill="white"/>
<path d="M10.5 7.5V11.055L8.09995 12.555C7.93294 12.6596 7.78816 12.796 7.6739 12.9565C7.55963 13.1171 7.47811 13.2985 7.434 13.4906C7.38989 13.6826 7.38405 13.8815 7.41682 14.0758C7.44958 14.2701 7.5203 14.456 7.62495 14.623C7.72952 14.79 7.86596 14.9348 8.02649 15.049C8.18702 15.1633 8.3685 15.2448 8.56054 15.2889C8.75259 15.333 8.95144 15.3389 9.14574 15.3061C9.34005 15.2734 9.52599 15.2026 9.69295 15.098L12.562 13.298C12.8498 13.1176 13.087 12.8669 13.2511 12.5695C13.4152 12.272 13.5008 11.9377 13.5 11.598V7.5C13.5 7.10217 13.3419 6.72064 13.0606 6.43934C12.7793 6.15803 12.3978 6 12 6C11.6021 6 11.2206 6.15803 10.9393 6.43934C10.658 6.72064 10.5 7.10217 10.5 7.5Z" fill="white"/>
</g>
<defs>
<clipPath id="clip0_88_6080">
<rect width="24" height="24" fill="white"/>
</clipPath>
</defs>
</svg>
