<svg width="24" height="24" viewBox="0 0 24 24" fill="none" xmlns="http://www.w3.org/2000/svg">
<g clip-path="url(#clip0_88_6069)">
<path d="M14.9999 15.6256C14.9999 14.4984 14.5521 13.4174 13.7551 12.6204C12.9581 11.8234 11.8771 11.3756 10.7499 11.3756C9.62274 11.3756 8.54173 11.8234 7.7447 12.6204C6.94768 13.4174 6.49991 14.4984 6.49991 15.6256C6.49991 16.0234 6.65794 16.405 6.93925 16.6863C7.22055 16.9676 7.60208 17.1256 7.99991 17.1256C8.39773 17.1256 8.77926 16.9676 9.06057 16.6863C9.34187 16.405 9.49991 16.0234 9.49991 15.6256C9.49991 15.2941 9.6316 14.9761 9.86602 14.7417C10.1004 14.5073 10.4184 14.3756 10.7499 14.3756C11.0814 14.3756 11.3994 14.5073 11.6338 14.7417C11.8682 14.9761 11.9999 15.2941 11.9999 15.6256C11.9999 16.2506 10.8079 17.1446 9.84991 17.8626C8.27991 19.0406 6.49991 20.3756 6.49991 22.5006C6.49991 22.8984 6.65794 23.28 6.93925 23.5613C7.22055 23.8426 7.60208 24.0006 7.99991 24.0006H13.4999C13.8977 24.0006 14.2793 23.8426 14.5606 23.5613C14.8419 23.28 14.9999 22.8984 14.9999 22.5006C14.9999 22.1028 14.8419 21.7213 14.5606 21.44C14.2793 21.1586 13.8977 21.0006 13.4999 21.0006H10.6999C11.0099 20.7466 11.3449 20.5006 11.6549 20.2636C13.2199 19.0856 14.9999 17.7506 14.9999 15.6256Z" fill="white"/>
<path d="M22.5001 11.0006C22.1023 11.0006 21.7207 11.1586 21.4394 11.4399C21.1581 11.7213 21.0001 12.1028 21.0001 12.5006V17.0006H20.2501C19.9187 17.0001 19.6011 16.8682 19.3668 16.6339C19.1325 16.3996 19.0006 16.082 19.0001 15.7506V12.5006C19.0001 12.1028 18.8421 11.7213 18.5607 11.4399C18.2794 11.1586 17.8979 11.0006 17.5001 11.0006C17.1023 11.0006 16.7207 11.1586 16.4394 11.4399C16.1581 11.7213 16.0001 12.1028 16.0001 12.5006V15.7506C16.0014 16.8774 16.4496 17.9576 17.2463 18.7544C18.0431 19.5511 19.1233 19.9993 20.2501 20.0006H21.0001V22.5006C21.0001 22.8984 21.1581 23.28 21.4394 23.5613C21.7207 23.8426 22.1023 24.0006 22.5001 24.0006C22.8979 24.0006 23.2794 23.8426 23.5607 23.5613C23.842 23.28 24.0001 22.8984 24.0001 22.5006V12.5006C24.0001 12.1028 23.842 11.7213 23.5607 11.4399C23.2794 11.1586 22.8979 11.0006 22.5001 11.0006Z" fill="white"/>
<path d="M22.2929 2.7075L20.9699 4.0305C19.0082 1.82262 16.3011 0.415758 13.3669 0.0791805C10.4326 -0.257397 7.47733 0.499956 5.06661 2.20628C2.65589 3.9126 0.95911 6.44804 0.301042 9.32728C-0.357027 12.2065 0.0698423 15.2273 1.49995 17.8115C1.59548 17.9838 1.72402 18.1356 1.87822 18.2582C2.03242 18.3808 2.20926 18.4719 2.39864 18.5261C2.58803 18.5804 2.78625 18.5969 2.98199 18.5745C3.17773 18.5522 3.36715 18.4915 3.53945 18.396C3.71174 18.3005 3.86353 18.1719 3.98615 18.0177C4.10877 17.8635 4.19981 17.6867 4.25409 17.4973C4.30837 17.3079 4.32481 17.1097 4.30248 16.914C4.28015 16.7182 4.21948 16.5288 4.12395 16.3565C3.04291 14.4062 2.72509 12.1238 3.2322 9.95232C3.7393 7.78087 5.03514 5.87529 6.86817 4.6055C8.7012 3.33572 10.9406 2.79231 13.1518 3.08076C15.3629 3.36922 17.388 4.46895 18.8339 6.1665L17.7069 7.2935C17.5671 7.43335 17.4719 7.61151 17.4334 7.80546C17.3948 7.99942 17.4146 8.20045 17.4903 8.38315C17.5659 8.56585 17.6941 8.72201 17.8585 8.8319C18.0229 8.94178 18.2162 9.00045 18.4139 9.0005H22.9999C23.2652 9.0005 23.5195 8.89514 23.7071 8.7076C23.8946 8.52007 23.9999 8.26571 23.9999 8.0005V3.4145C23.9999 3.21675 23.9412 3.02345 23.8313 2.85904C23.7215 2.69463 23.5653 2.56649 23.3826 2.49082C23.1999 2.41515 22.9989 2.39535 22.8049 2.43391C22.611 2.47248 22.4328 2.56769 22.2929 2.7075Z" fill="white"/>
</g>
<defs>
<clipPath id="clip0_88_6069">
<rect width="24" height="24" fill="white"/>
</clipPath>
</defs>
</svg>
