<svg width="24" height="24" viewBox="0 0 24 24" fill="none" xmlns="http://www.w3.org/2000/svg">
<g clip-path="url(#clip0_88_6066)">
<path d="M17.728 -0.00055526C16.3988 -0.0011194 15.0784 0.215397 13.819 0.640445C13.2352 0.854666 12.6214 0.975811 12 0.999445C11.3782 0.975717 10.7641 0.854577 10.18 0.640445C8.9209 0.215365 7.60084 -0.00115377 6.27196 -0.00055526C5.44186 -0.0243109 4.61564 0.121679 3.84395 0.428468C3.07225 0.735258 2.37132 1.19639 1.78411 1.7836C1.1969 2.37081 0.735771 3.07174 0.428981 3.84343C0.122192 4.61513 -0.0237978 5.44134 -4.21831e-05 6.27145C-4.21831e-05 12.3994 3.08296 18.3884 5.39996 22.3614C5.70245 22.8759 6.13783 23.2994 6.6604 23.5876C7.18297 23.8758 7.77347 24.0181 8.36996 23.9994C9.08722 23.9603 9.76153 23.6452 10.2517 23.1201C10.742 22.595 11.0101 21.9007 11 21.1824V14.9994C11 14.7342 11.1053 14.4799 11.2929 14.2923C11.4804 14.1048 11.7347 13.9994 12 13.9994C12.2652 13.9994 12.5195 14.1048 12.7071 14.2923C12.8946 14.4799 13 14.7342 13 14.9994V21.1824C12.9901 21.9003 13.258 22.5942 13.7477 23.1192C14.2375 23.6441 14.9111 23.9595 15.628 23.9994C16.2242 24.0182 16.8146 23.8762 17.3371 23.5883C17.8596 23.3005 18.2951 22.8774 18.598 22.3634C20.917 18.3884 24 12.3994 24 6.27145C24.0237 5.44134 23.8777 4.61513 23.5709 3.84343C23.2641 3.07174 22.803 2.37081 22.2158 1.7836C21.6286 1.19639 20.9277 0.735258 20.156 0.428468C19.3843 0.121679 18.5581 -0.0243109 17.728 -0.00055526ZM16 20.8594V14.9994C16 13.9386 15.5785 12.9212 14.8284 12.171C14.0782 11.4209 13.0608 10.9994 12 10.9994C10.9391 10.9994 9.92168 11.4209 9.17153 12.171C8.42139 12.9212 7.99996 13.9386 7.99996 14.9994V20.8594C5.85496 17.1874 2.99996 11.6754 2.99996 6.27145C2.97895 5.8362 3.04921 5.40137 3.20621 4.99488C3.36321 4.58839 3.60349 4.21923 3.91162 3.9111C4.21974 3.60298 4.5889 3.3627 4.99539 3.2057C5.40188 3.0487 5.83671 2.97844 6.27196 2.99945C7.30542 2.99876 8.33167 3.17149 9.30796 3.51045C10.1738 3.81462 11.0824 3.97967 12 3.99945C12.9172 3.97968 13.8254 3.81463 14.691 3.51045C15.6676 3.17149 16.6942 2.99876 17.728 2.99945C18.1634 2.97782 18.5985 3.04764 19.0052 3.20442C19.412 3.36121 19.7814 3.60146 20.0897 3.90972C20.3979 4.21798 20.6382 4.58739 20.795 4.99416C20.9518 5.40094 21.0216 5.83604 21 6.27145C21 11.6754 18.145 17.1874 16 20.8594Z" fill="white"/>
</g>
<defs>
<clipPath id="clip0_88_6066">
<rect width="24" height="24" fill="white"/>
</clipPath>
</defs>
</svg>
