<svg width="24" height="24" viewBox="0 0 24 24" fill="none" xmlns="http://www.w3.org/2000/svg">
<path d="M7.99994 10.5C7.99994 10.1022 8.15797 9.72064 8.43928 9.43934C8.72058 9.15804 9.10211 9 9.49994 9H10.4999V8C10.4999 7.60218 10.658 7.22064 10.9393 6.93934C11.2206 6.65804 11.6021 6.5 11.9999 6.5C12.3978 6.5 12.7793 6.65804 13.0606 6.93934C13.3419 7.22064 13.4999 7.60218 13.4999 8V9H14.4999C14.8978 9 15.2793 9.15804 15.5606 9.43934C15.8419 9.72064 15.9999 10.1022 15.9999 10.5C15.9999 10.8978 15.8419 11.2794 15.5606 11.5607C15.2793 11.842 14.8978 12 14.4999 12H13.4999V13C13.4999 13.3978 13.3419 13.7794 13.0606 14.0607C12.7793 14.342 12.3978 14.5 11.9999 14.5C11.6021 14.5 11.2206 14.342 10.9393 14.0607C10.658 13.7794 10.4999 13.3978 10.4999 13V12H9.49994C9.10211 12 8.72058 11.842 8.43928 11.5607C8.15797 11.2794 7.99994 10.8978 7.99994 10.5ZM15.4999 16H8.49994C8.10211 16 7.72058 16.158 7.43928 16.4393C7.15797 16.7206 6.99994 17.1022 6.99994 17.5C6.99994 17.8978 7.15797 18.2794 7.43928 18.5607C7.72058 18.842 8.10211 19 8.49994 19H15.4999C15.8978 19 16.2793 18.842 16.5606 18.5607C16.8419 18.2794 16.9999 17.8978 16.9999 17.5C16.9999 17.1022 16.8419 16.7206 16.5606 16.4393C16.2793 16.158 15.8978 16 15.4999 16ZM21.9999 7.5V18.5C21.9984 19.9582 21.4184 21.3562 20.3873 22.3873C19.3562 23.4184 17.9581 23.9984 16.4999 24H7.49994C6.04174 23.9984 4.64371 23.4184 3.61261 22.3873C2.5815 21.3562 2.00153 19.9582 1.99994 18.5V7.5C2.00108 6.06965 2.55869 4.69585 3.55478 3.66934C4.55086 2.64283 5.90727 2.04415 7.33694 2C7.62085 1.40147 8.06878 0.895804 8.62869 0.541767C9.1886 0.18773 9.83749 -0.000136637 10.4999 7.4561e-08H13.4999C14.1624 -0.000136637 14.8113 0.18773 15.3712 0.541767C15.9311 0.895804 16.379 1.40147 16.6629 2C18.0926 2.04415 19.449 2.64283 20.4451 3.66934C21.4412 4.69585 21.9988 6.06965 21.9999 7.5ZM18.9999 7.5C18.9999 6.83696 18.7365 6.20107 18.2677 5.73223C17.7989 5.26339 17.163 5 16.4999 5H15.4999C15.1021 5 14.7206 4.84196 14.4393 4.56066C14.158 4.27936 13.9999 3.89782 13.9999 3.5C13.9999 3.36739 13.9473 3.24021 13.8535 3.14645C13.7597 3.05268 13.6325 3 13.4999 3H10.4999C10.3673 3 10.2402 3.05268 10.1464 3.14645C10.0526 3.24021 9.99994 3.36739 9.99994 3.5C9.99994 3.89782 9.8419 4.27936 9.5606 4.56066C9.27929 4.84196 8.89776 5 8.49994 5H7.49994C6.8369 5 6.20101 5.26339 5.73217 5.73223C5.26333 6.20107 4.99994 6.83696 4.99994 7.5V18.5C4.99994 19.163 5.26333 19.7989 5.73217 20.2678C6.20101 20.7366 6.8369 21 7.49994 21H16.4999C17.163 21 17.7989 20.7366 18.2677 20.2678C18.7365 19.7989 18.9999 19.163 18.9999 18.5V7.5Z" fill="white"/>
</svg>
