<svg width="24" height="24" viewBox="0 0 24 24" fill="none" xmlns="http://www.w3.org/2000/svg">
<g clip-path="url(#clip0_88_6058)">
<path d="M20.3998 16.6704L20.3848 16.6494L19.2698 15.0894C19.456 14.8995 19.6137 14.6836 19.7378 14.4484C19.9787 13.9701 20.081 13.434 20.0331 12.9007C19.9852 12.3674 19.7891 11.8581 19.4668 11.4304L17.9408 9.36039C18.2526 9.11374 18.5083 8.80353 18.6908 8.45039C18.9283 7.9957 19.0336 7.48359 18.9949 6.9721C18.9562 6.4606 18.775 5.97018 18.4718 5.55639C18.4318 5.50039 14.1998 0.989392 14.1998 0.989392C13.9239 0.684672 13.5878 0.44054 13.2127 0.272446C12.8376 0.104353 12.4316 0.0159581 12.0206 0.0128562C11.6095 0.00975428 11.2023 0.0920129 10.8247 0.254426C10.4471 0.416839 10.1073 0.65587 9.82684 0.956392C9.82684 0.956392 5.56784 5.50039 5.52684 5.55639C5.22383 5.97027 5.04281 6.46075 5.00428 6.97224C4.96575 7.48373 5.07126 7.99579 5.30884 8.45039C5.49333 8.80626 5.75177 9.11858 6.06684 9.36639L4.53784 11.4664C4.23159 11.8863 4.04824 12.3831 4.00833 12.9013C3.96841 13.4195 4.07351 13.9385 4.31184 14.4004C4.44399 14.6499 4.61249 14.8784 4.81184 15.0784L3.59984 16.6704C3.2479 17.1808 3.04223 17.7777 3.00508 18.3966C2.96792 19.0155 3.10069 19.6327 3.38902 20.1816C3.67735 20.7305 4.11027 21.19 4.64095 21.5106C5.17162 21.8312 5.77985 22.0006 6.39984 22.0004H10.4998V22.5004C10.4998 22.8982 10.6579 23.2797 10.9392 23.5611C11.2205 23.8424 11.602 24.0004 11.9998 24.0004C12.3977 24.0004 12.7792 23.8424 13.0605 23.5611C13.3418 23.2797 13.4998 22.8982 13.4998 22.5004V22.0004H17.5998C18.2198 22.0006 18.8281 21.8312 19.3587 21.5106C19.8894 21.19 20.3223 20.7305 20.6107 20.1816C20.899 19.6327 21.0318 19.0155 20.9946 18.3966C20.9574 17.7777 20.7518 17.1808 20.3998 16.6704ZM17.9548 18.7864C17.9227 18.8526 17.8721 18.9081 17.8091 18.9461C17.7461 18.984 17.6734 19.0029 17.5998 19.0004H6.39984C6.32647 19.0027 6.25399 18.9838 6.19117 18.9458C6.12835 18.9078 6.07787 18.8524 6.04584 18.7864C6.01265 18.7329 5.99391 18.6717 5.99146 18.6087C5.98901 18.5458 6.00292 18.4833 6.03184 18.4274L7.87284 16.0004H11.4998C11.8977 16.0004 12.2792 15.8424 12.5605 15.5611C12.8418 15.2797 12.9998 14.8982 12.9998 14.5004C12.9998 14.1026 12.8418 13.721 12.5605 13.4397C12.2792 13.1584 11.8977 13.0004 11.4998 13.0004H7.13284L9.31584 10.0004H10.4998C10.8977 10.0004 11.2792 9.84236 11.5605 9.56105C11.8418 9.27975 11.9998 8.89822 11.9998 8.50039C11.9998 8.10257 11.8418 7.72104 11.5605 7.43973C11.2792 7.15843 10.8977 7.00039 10.4998 7.00039H8.26584L11.9848 3.01039L15.7308 7.00039H15.4468C15.1695 7.00037 14.8976 7.07723 14.6614 7.22242C14.4251 7.36761 14.2337 7.57545 14.1085 7.82285C13.9832 8.07026 13.929 8.34755 13.9518 8.62391C13.9747 8.90028 14.0737 9.1649 14.2378 9.38839L16.8888 13.0004C16.6232 13.0201 16.3677 13.1101 16.1484 13.2612C15.9291 13.4123 15.754 13.6191 15.641 13.8603C15.5281 14.1015 15.4815 14.3685 15.5059 14.6337C15.5303 14.8989 15.6248 15.1528 15.7798 15.3694L17.9308 18.3764C17.9731 18.4356 17.9974 18.5058 18.001 18.5785C18.0045 18.6511 17.9871 18.7233 17.9508 18.7864H17.9548Z" fill="white"/>
</g>
<defs>
<clipPath id="clip0_88_6058">
<rect width="24" height="24" fill="white"/>
</clipPath>
</defs>
</svg>
