<svg width="24" height="24" viewBox="0 0 24 24" fill="none" xmlns="http://www.w3.org/2000/svg">
<g clip-path="url(#clip0_88_6057)">
<path d="M19.5861 23.0459H4.41412C3.66157 23.0499 2.92062 22.8605 2.26237 22.4957C1.60412 22.131 1.05067 21.6031 0.655117 20.9629C0.263153 20.3363 0.0388906 19.6194 0.0038667 18.8811C-0.0311572 18.1428 0.124234 17.4078 0.455117 16.7469L8.06412 3.35391C8.43841 2.62762 9.00635 2.01905 9.7051 1.59556C10.4038 1.17207 11.2061 0.950161 12.0232 0.954405C12.8402 0.95865 13.6402 1.18888 14.3345 1.61961C15.0288 2.05034 15.5904 2.66477 15.9571 3.39491L23.5001 16.6739C23.8476 17.3413 24.0156 18.0875 23.9878 18.8394C23.9599 19.5913 23.737 20.3231 23.3411 20.9629C22.9459 21.6026 22.3931 22.13 21.7356 22.4947C21.0781 22.8595 20.338 23.0492 19.5861 23.0459ZM12.0001 3.95491C11.7371 3.95159 11.4785 4.02243 11.2538 4.15932C11.0292 4.29622 10.8477 4.49362 10.7301 4.72891L10.6911 4.80291L3.10012 18.1559C3.01321 18.3524 2.97684 18.5675 2.9943 18.7816C3.01177 18.9958 3.08252 19.2021 3.20012 19.3819C3.32673 19.588 3.50477 19.7575 3.71674 19.8739C3.9287 19.9903 4.16731 20.0496 4.40912 20.0459H19.5861C19.8279 20.0496 20.0665 19.9903 20.2785 19.8739C20.4905 19.7575 20.6685 19.588 20.7951 19.3819C20.9169 19.189 20.9866 18.9678 20.9973 18.74C21.008 18.5121 20.9593 18.2854 20.8561 18.0819L13.3091 4.79991C13.1941 4.54902 13.0098 4.3362 12.7779 4.18651C12.546 4.03681 12.2761 3.95646 12.0001 3.95491Z" fill="white"/>
</g>
<defs>
<clipPath id="clip0_88_6057">
<rect width="24" height="24" fill="white"/>
</clipPath>
</defs>
</svg>
