<svg width="24" height="24" viewBox="0 0 24 24" fill="none" xmlns="http://www.w3.org/2000/svg">
<path d="M18.682 4.99939H16.815C16.5237 3.85805 15.8615 2.84582 14.9324 2.12178C14.0033 1.39775 12.8599 1.00293 11.682 0.99939H5.318C3.90807 1.00098 2.55633 1.56178 1.55936 2.55875C0.562386 3.55572 0.00158806 4.90746 0 6.31739L0 15.6364C0.00329542 16.5553 0.297208 17.4495 0.839667 18.1912C1.38213 18.9328 2.14532 19.4839 3.02 19.7654C3.014 19.8434 3 19.9194 3 19.9994C3 20.795 3.31607 21.5581 3.87868 22.1207C4.44129 22.6833 5.20435 22.9994 6 22.9994C6.79565 22.9994 7.55871 22.6833 8.12132 22.1207C8.68393 21.5581 9 20.795 9 19.9994H15C15 20.795 15.3161 21.5581 15.8787 22.1207C16.4413 22.6833 17.2044 22.9994 18 22.9994C18.7956 22.9994 19.5587 22.6833 20.1213 22.1207C20.6839 21.5581 21 20.795 21 19.9994C21 19.9194 20.986 19.8444 20.98 19.7664C21.8548 19.4847 22.618 18.9335 23.1604 18.1916C23.7029 17.4498 23.9968 16.5554 24 15.6364V10.2714C23.9926 8.86748 23.4285 7.52386 22.4314 6.53545C21.4344 5.54704 20.0859 4.9946 18.682 4.99939ZM21 10.2714V10.9994H17V7.99939H18.682C18.9842 7.99313 19.2847 8.04729 19.5657 8.15867C19.8468 8.27006 20.1028 8.43644 20.3187 8.64805C20.5346 8.85967 20.706 9.11226 20.823 9.39101C20.94 9.66977 21.0002 9.96908 21 10.2714ZM4.364 16.9994C4.0025 16.9991 3.65587 16.8555 3.40015 16.5999C3.14444 16.3444 3.00053 15.9979 3 15.6364V6.31739C3.00079 5.70286 3.24527 5.11373 3.6798 4.67919C4.11434 4.24466 4.70347 4.00018 5.318 3.99939H11.682C12.2965 4.00018 12.8857 4.24466 13.3202 4.67919C13.7547 5.11373 13.9992 5.70286 14 6.31739V16.9994H4.364ZM19.637 16.9994H17V13.9994H21V15.6364C20.9997 15.9978 20.856 16.3443 20.6005 16.5999C20.3449 16.8554 19.9984 16.9991 19.637 16.9994Z" fill="white"/>
</svg>
