<svg width="24" height="24" viewBox="0 0 24 24" fill="none" xmlns="http://www.w3.org/2000/svg">
<g clip-path="url(#clip0_88_6052)">
<path d="M7.69994 15.0076C7.41864 15.2889 7.03718 15.4468 6.63944 15.4468C6.24169 15.4468 5.86023 15.2889 5.57894 15.0076L0.857935 10.2827C0.308529 9.73286 -9.15527e-05 8.98741 -9.15527e-05 8.21016C-9.15527e-05 7.43291 0.308529 6.68746 0.857935 6.13766L5.58294 1.41267C5.86835 1.15326 6.24272 1.01377 6.62829 1.02315C7.01386 1.03253 7.381 1.19007 7.65346 1.46305C7.92593 1.73602 8.08277 2.10346 8.09142 2.48905C8.10008 2.87463 7.95988 3.24874 7.69994 3.53366L4.46694 6.70066H18.6799C20.0903 6.70198 21.4426 7.26277 22.4399 8.25996C23.4373 9.25715 23.9984 10.6093 23.9999 12.0197V18.7006C23.9986 20.1107 23.4379 21.4625 22.4409 22.4596C21.4438 23.4566 20.092 24.0173 18.6819 24.0186H5.31793C4.92011 24.0186 4.53858 23.8606 4.25728 23.5793C3.97597 23.298 3.81793 22.9165 3.81793 22.5186C3.81793 22.1208 3.97597 21.7393 4.25728 21.458C4.53858 21.1767 4.92011 21.0186 5.31793 21.0186H18.6809C19.2956 21.0181 19.885 20.7738 20.3198 20.3392C20.7545 19.9046 20.9991 19.3153 20.9999 18.7006V12.0197C20.9994 11.4046 20.7548 10.8149 20.3198 10.3801C19.8848 9.9453 19.295 9.70092 18.6799 9.70066H4.52193L7.69994 12.8867C7.98114 13.1679 8.13911 13.5494 8.13911 13.9472C8.13911 14.3449 7.98114 14.7264 7.69994 15.0076Z" fill="white"/>
</g>
<defs>
<clipPath id="clip0_88_6052">
<rect width="24" height="24" fill="white"/>
</clipPath>
</defs>
</svg>
