<svg width="24" height="24" viewBox="0 0 24 24" fill="none" xmlns="http://www.w3.org/2000/svg">
<g clip-path="url(#clip0_88_6051)">
<path d="M21.0001 21.9492C21.0001 19.4639 18.9854 17.4492 16.5001 17.4492H10.8321V19.1292C10.8298 20.3519 9.83662 21.3413 8.61388 21.339C8.00198 21.3378 7.41782 21.0834 7.00012 20.6362L0.778072 13.9412C-0.258991 12.8153 -0.258991 11.0821 0.778072 9.95625L7.00007 3.26123C7.83173 2.36489 9.23259 2.31243 10.1289 3.14409C10.5808 3.56329 10.8374 4.15186 10.8371 4.76822V6.4492H14.5001C19.7443 6.45529 23.994 10.705 24.0001 15.9492V21.9492C24.0001 22.7776 23.3285 23.4492 22.5001 23.4492C21.6717 23.4492 21.0001 22.7776 21.0001 21.9492ZM21.0001 15.9492C20.9957 12.3612 18.0881 9.45361 14.5001 9.4492H9.3321C8.50368 9.4492 7.8321 8.77762 7.8321 7.9492V6.7492L2.97707 11.9002L7.83206 17.1283V15.9493C7.83206 15.1208 8.50363 14.4493 9.33206 14.4493H16.5001C18.1237 14.4472 19.7036 14.9749 21.0001 15.9523V15.9492Z" fill="white"/>
</g>
<defs>
<clipPath id="clip0_88_6051">
<rect width="24" height="24" fill="white"/>
</clipPath>
</defs>
</svg>
