<svg width="24" height="24" viewBox="0 0 24 24" fill="none" xmlns="http://www.w3.org/2000/svg">
<g clip-path="url(#clip0_88_6267)">
<path d="M7.76028 6.65134L10.5412 3.86948L10.5622 17.5009C10.5622 18.3293 11.2337 19.0008 12.0621 19.0008C12.8905 19.0008 13.562 18.3293 13.562 17.5009L13.541 3.88649L16.3059 6.65139C16.8814 7.24724 17.831 7.26374 18.4268 6.68823C19.0227 6.11272 19.0392 5.16317 18.4637 4.56732C18.4516 4.55481 18.4393 4.54253 18.4268 4.53048L15.215 1.3186C13.4577 -0.438713 10.6086 -0.438713 8.85125 1.31856L8.8512 1.3186L5.63937 4.53043C5.06387 5.12628 5.08037 6.07584 5.67621 6.65134C6.25749 7.21274 7.17901 7.21274 7.76028 6.65134Z" fill="white"/>
<path d="M22.4996 14.5002C21.6712 14.5002 20.9996 15.1718 20.9996 16.0002V20.591C20.9991 20.8166 20.8163 20.9994 20.5907 20.9999H3.40937C3.18373 20.9994 3.00092 20.8166 3.00041 20.591V16.0002C3.00041 15.1718 2.32886 14.5002 1.50047 14.5002C0.672083 14.5002 0.000534058 15.1718 0.000534058 16.0002V20.591C0.00273709 22.4727 1.52766 23.9976 3.40937 23.9998H20.5906C22.4724 23.9976 23.9973 22.4727 23.9995 20.591V16.0002C23.9995 15.1718 23.328 14.5002 22.4996 14.5002Z" fill="white"/>
</g>
<defs>
<clipPath id="clip0_88_6267">
<rect width="24" height="24" fill="white"/>
</clipPath>
</defs>
</svg>
