<svg width="24" height="24" viewBox="0 0 24 24" fill="none" xmlns="http://www.w3.org/2000/svg">
<g clip-path="url(#clip0_88_6048)">
<path d="M7.45249 14.0173C3.19089 14.4025 -0.0558558 18.0035 0.000720557 22.282V22.499C0.000720557 23.3274 0.672278 23.999 1.50067 23.999C2.32907 23.999 3.00063 23.3274 3.00063 22.499V22.222C2.95553 19.595 4.89422 17.3548 7.50049 17.0222C10.2516 16.7494 12.7031 18.7585 12.9759 21.5097C12.992 21.6723 13.0002 21.8356 13.0003 21.9991V22.4991C13.0003 23.3275 13.6719 23.999 14.5003 23.999C15.3286 23.999 16.0002 23.3275 16.0002 22.4991V21.9991C15.9953 17.5759 12.4057 13.9943 7.98263 13.9992C7.80573 13.9993 7.62892 14.0054 7.45249 14.0173Z" fill="white"/>
<path d="M8.00046 12.0001C11.314 12.0001 14.0003 9.31388 14.0003 6.0003C14.0003 2.68672 11.314 0.000488281 8.00046 0.000488281C4.68688 0.000488281 2.00065 2.68672 2.00065 6.0003C2.00398 9.31253 4.68824 11.9968 8.00046 12.0001ZM8.00046 3.00039C9.65725 3.00039 11.0004 4.34351 11.0004 6.0003C11.0004 7.65709 9.65725 9.00021 8.00046 9.00021C6.34367 9.00021 5.00055 7.65709 5.00055 6.0003C5.00055 4.34351 6.34367 3.00039 8.00046 3.00039Z" fill="white"/>
<path d="M22.5002 10.0004H21.0002V8.50044C21.0002 7.67204 20.3286 7.00049 19.5002 7.00049C18.6719 7.00049 18.0003 7.67204 18.0003 8.50044V10.0004H16.5003C15.672 10.0004 15.0004 10.6719 15.0004 11.5003C15.0004 12.3287 15.672 13.0003 16.5003 13.0003H18.0003V14.5002C18.0003 15.3286 18.6719 16.0002 19.5002 16.0002C20.3286 16.0002 21.0002 15.3286 21.0002 14.5002V13.0003H22.5002C23.3285 13.0003 24.0001 12.3287 24.0001 11.5003C24.0001 10.6719 23.3285 10.0004 22.5002 10.0004Z" fill="white"/>
</g>
<defs>
<clipPath id="clip0_88_6048">
<rect width="24" height="24" fill="white"/>
</clipPath>
</defs>
</svg>
