<svg width="24" height="24" viewBox="0 0 24 24" fill="none" xmlns="http://www.w3.org/2000/svg">
<g clip-path="url(#clip0_88_6507)">
<path d="M8.50002 3C8.50002 2.40666 8.67596 1.82664 9.00561 1.33329C9.33525 0.839943 9.80379 0.455426 10.352 0.228363C10.9001 0.00129986 11.5033 -0.0581102 12.0853 0.0576455C12.6672 0.173401 13.2018 0.459124 13.6213 0.878681C14.0409 1.29824 14.3266 1.83279 14.4424 2.41473C14.5581 2.99667 14.4987 3.59987 14.2717 4.14805C14.0446 4.69623 13.6601 5.16477 13.1667 5.49441C12.6734 5.82406 12.0934 6 11.5 6C10.7044 6 9.94131 5.68393 9.3787 5.12132C8.81609 4.55871 8.50002 3.79565 8.50002 3ZM22.5 20H21.516L20.4 17.2C20.1419 16.5493 19.6938 15.9914 19.1141 15.599C18.5345 15.2066 17.85 14.9979 17.15 15H13.5C13.3674 15 13.2402 14.9473 13.1465 14.8536C13.0527 14.7598 13 14.6326 13 14.5V13H17.5C17.8978 13 18.2794 12.842 18.5607 12.5607C18.842 12.2794 19 11.8978 19 11.5C19 11.1022 18.842 10.7206 18.5607 10.4393C18.2794 10.158 17.8978 10 17.5 10H13V8.5C13 8.10218 12.842 7.72065 12.5607 7.43934C12.2794 7.15804 11.8978 7 11.5 7C11.1022 7 10.7207 7.15804 10.4394 7.43934C10.1581 7.72065 10 8.10218 10 8.5V14.5C10.003 15.2715 10.2609 16.0203 10.7334 16.6301C11.206 17.2399 11.8667 17.6765 12.613 17.872C12.2903 18.6647 11.7691 19.3611 11.0996 19.8942C10.43 20.4274 9.63458 20.7793 8.78972 20.9163C7.94486 21.0532 7.07898 20.9706 6.27529 20.6762C5.47161 20.3819 4.75713 19.8858 4.20054 19.2356C3.64395 18.5854 3.26396 17.803 3.09707 16.9635C2.93019 16.1241 2.98203 15.2558 3.24761 14.4422C3.5132 13.6285 3.98359 12.8969 4.61359 12.3175C5.24359 11.7382 6.01202 11.3306 6.84502 11.134C7.23223 11.0425 7.56724 10.8009 7.77634 10.4624C7.98545 10.1239 8.05152 9.71622 7.96002 9.329C7.86852 8.94179 7.62694 8.60678 7.28844 8.39767C6.94994 8.18857 6.54223 8.1225 6.15502 8.214C4.77569 8.54022 3.50779 9.22703 2.48106 10.2042C1.45434 11.1813 0.705649 12.4137 0.31161 13.7752C-0.0824289 15.1367 -0.107671 16.5785 0.238467 17.9529C0.584605 19.3274 1.28969 20.5852 2.28159 21.5977C3.27348 22.6102 4.51656 23.341 5.88362 23.7152C7.25069 24.0895 8.69265 24.0939 10.062 23.7279C11.4313 23.3619 12.6788 22.6387 13.6768 21.6323C14.6748 20.6259 15.3875 19.3723 15.742 18H17.142C17.2418 17.9999 17.3392 18.0297 17.4219 18.0855C17.5046 18.1413 17.5687 18.2205 17.606 18.313L19.106 22.057C19.2174 22.3356 19.4098 22.5743 19.6583 22.7424C19.9068 22.9105 20.2 23.0003 20.5 23H22.5C22.8978 23 23.2794 22.842 23.5607 22.5607C23.842 22.2794 24 21.8978 24 21.5C24 21.1022 23.842 20.7206 23.5607 20.4393C23.2794 20.158 22.8978 20 22.5 20Z" fill="white"/>
</g>
<defs>
<clipPath id="clip0_88_6507">
<rect width="24" height="24" fill="white"/>
</clipPath>
</defs>
</svg>
