<svg width="24" height="24" viewBox="0 0 24 24" fill="none" xmlns="http://www.w3.org/2000/svg">
<g clip-path="url(#clip0_88_6517)">
<path d="M22.511 16.4633C22.3139 16.4634 22.1188 16.4246 21.9368 16.3493C21.7547 16.274 21.5893 16.1635 21.45 16.0243C20.1363 14.7131 18.356 13.9767 16.5 13.9767C14.6439 13.9767 12.8636 14.7131 11.55 16.0243C11.2682 16.3055 10.8862 16.4633 10.488 16.463C10.0899 16.4626 9.70822 16.3041 9.42696 16.0223C9.14569 15.7405 8.98789 15.3585 8.98827 14.9604C8.98864 14.5622 9.14716 14.1805 9.42896 13.8993C11.3055 12.0261 13.8486 10.9741 16.5 10.9741C19.1514 10.9741 21.6944 12.0261 23.571 13.8993C23.7805 14.109 23.9231 14.3762 23.9809 14.667C24.0387 14.9578 24.009 15.2592 23.8955 15.5331C23.7821 15.807 23.5901 16.0412 23.3436 16.2061C23.0972 16.3709 22.8074 16.459 22.511 16.4593V16.4633ZM20.035 19.5633C20.1743 19.424 20.2849 19.2586 20.3604 19.0765C20.4358 18.8945 20.4746 18.6993 20.4746 18.5023C20.4746 18.3052 20.4358 18.1101 20.3604 17.928C20.2849 17.746 20.1743 17.5806 20.035 17.4413C19.0973 16.5039 17.8258 15.9773 16.5 15.9773C15.1741 15.9773 13.9026 16.5039 12.965 17.4413C12.8256 17.5805 12.7151 17.7459 12.6397 17.9279C12.5642 18.1099 12.5254 18.3049 12.5253 18.5019C12.5253 18.6989 12.564 18.894 12.6394 19.076C12.7147 19.258 12.8252 19.4234 12.9645 19.5628C13.2457 19.8442 13.6272 20.0023 14.0251 20.0024C14.2221 20.0024 14.4172 19.9637 14.5992 19.8883C14.7812 19.813 14.9466 19.7025 15.086 19.5633C15.467 19.1999 15.9734 18.9972 16.5 18.9972C17.0265 18.9972 17.5329 19.1999 17.914 19.5633C18.1952 19.8445 18.5767 20.0025 18.9745 20.0025C19.3722 20.0025 19.7537 19.8445 20.035 19.5633ZM16.5 20.9993C16.2033 20.9993 15.9133 21.0872 15.6666 21.2521C15.4199 21.4169 15.2277 21.6512 15.1141 21.9252C15.0006 22.1993 14.9709 22.5009 15.0288 22.7919C15.0867 23.0829 15.2295 23.3502 15.4393 23.5599C15.6491 23.7697 15.9163 23.9126 16.2073 23.9704C16.4983 24.0283 16.7999 23.9986 17.074 23.8851C17.3481 23.7716 17.5823 23.5793 17.7472 23.3326C17.912 23.086 18 22.7959 18 22.4993C18 22.1014 17.8419 21.7199 17.5606 21.4386C17.2793 21.1573 16.8978 20.9993 16.5 20.9993ZM10.5 20.4993C10.5 20.1014 10.3419 19.7199 10.0606 19.4386C9.77931 19.1573 9.39778 18.9993 8.99996 18.9993H5.96796C5.33234 19.0183 4.70786 18.8296 4.18908 18.4618C3.67031 18.0941 3.28551 17.5673 3.09296 16.9613C2.93675 16.3494 2.99486 15.7025 3.2576 15.1283C3.52033 14.554 3.97185 14.0871 4.53696 13.8053C5.11513 13.4934 5.54621 12.9652 5.73587 12.3362C5.92553 11.7073 5.85832 11.0288 5.54896 10.4493C5.03319 9.43091 4.87268 8.26934 5.09296 7.14927C5.28108 6.11274 5.78852 5.16094 6.54429 4.42704C7.30006 3.69315 8.26634 3.21387 9.30795 3.05627C9.99248 2.95277 10.6908 2.98683 11.362 3.15648C12.0332 3.32613 12.6638 3.62794 13.217 4.04427C13.7608 4.45289 14.2178 4.96578 14.5612 5.55298C14.9046 6.14019 15.1275 6.78994 15.217 7.46427C15.2608 7.7905 15.4108 8.09325 15.6437 8.32583C15.8767 8.55841 16.1797 8.7079 16.506 8.75127C17.2933 8.85405 18.0462 9.13743 18.706 9.57927C19.0375 9.79993 19.4431 9.87986 19.8335 9.80147C20.224 9.72308 20.5673 9.49279 20.788 9.16127C21.0086 8.82975 21.0885 8.42415 21.0102 8.0337C20.9318 7.64325 20.7015 7.29993 20.37 7.07927C19.6351 6.59381 18.8272 6.22919 17.977 5.99927C17.5028 4.26409 16.4646 2.73611 15.026 1.65627C14.1577 0.999099 13.1671 0.521747 12.1122 0.252163C11.0572 -0.0174216 9.95901 -0.0738197 8.88196 0.0862706C7.22174 0.332424 5.67997 1.09128 4.47222 2.25671C3.26447 3.42214 2.45114 4.93589 2.14596 6.58627C1.82868 8.21209 2.0175 9.89609 2.68696 11.4113C1.65823 12.0627 0.862222 13.0232 0.413101 14.155C-0.0360213 15.2868 -0.115187 16.5317 0.186956 17.7113C0.540318 18.9649 1.29952 20.0659 2.34564 20.8419C3.39177 21.6178 4.66572 22.0249 5.96796 21.9993H8.99996C9.39778 21.9993 9.77931 21.8412 10.0606 21.5599C10.3419 21.2786 10.5 20.8971 10.5 20.4993Z" fill="white"/>
</g>
<defs>
<clipPath id="clip0_88_6517">
<rect width="24" height="24" fill="white"/>
</clipPath>
</defs>
</svg>
