<svg width="24" height="24" viewBox="0 0 24 24" fill="none" xmlns="http://www.w3.org/2000/svg">
<g clip-path="url(#clip0_88_6205)">
<path d="M13.5 9H7.5C6.67158 9 6 9.67158 6 10.5C6 11.3284 6.67158 12 7.5 12H13.5C14.3284 12 15 11.3284 15 10.5C15 9.67158 14.3284 9 13.5 9Z" fill="white"/>
<path d="M23.5624 21.4478L18.9196 16.804C22.3968 12.1606 21.4513 5.57749 16.8079 2.10034C12.1644 -1.3768 5.58138 -0.431428 2.1042 4.21202C-1.37299 8.85546 -0.427522 15.4385 4.21591 18.9157C7.94656 21.7093 13.072 21.7105 16.8039 18.9186L21.4487 23.5634C22.0324 24.1471 22.9787 24.1471 23.5624 23.5634C24.146 22.9797 24.146 22.0334 23.5624 21.4497V21.4478ZM10.5524 18.0222C6.42649 18.0222 3.08177 14.6775 3.08177 10.5515C3.08177 6.4256 6.42654 3.08087 10.5524 3.08087C14.6783 3.08087 18.0231 6.4256 18.0231 10.5515C18.0187 14.6757 14.6766 18.0178 10.5524 18.0222Z" fill="white"/>
</g>
<defs>
<clipPath id="clip0_88_6205">
<rect width="24" height="24" fill="white"/>
</clipPath>
</defs>
</svg>
